<svg width="489" height="163" viewBox="0 0 489 163" fill="none" xmlns="http://www.w3.org/2000/svg">
<path d="M127.101 102.315C127.453 102.451 127.627 102.668 127.623 102.965C127.643 103.261 127.437 103.423 127.005 103.451C126.959 103.454 126.902 103.458 126.834 103.462C126.789 103.465 126.72 103.459 126.627 103.442C126.535 103.425 126.398 103.423 126.216 103.435C125.373 103.467 124.713 103.499 124.235 103.531C123.758 103.562 123.462 103.582 123.349 103.589C122.057 103.743 120.666 103.948 119.176 104.206C117.684 104.442 116.082 104.73 114.369 105.071C114.346 105.073 113.625 105.223 112.206 105.522C112.042 105.807 111.932 106.031 111.874 106.194C111.815 106.335 111.774 106.418 111.753 106.442C106.045 119.629 97.8335 131.222 87.1197 141.222C80.4316 147.508 73.1271 152.408 65.206 155.921C62.6571 157.093 60.097 158.095 57.5256 158.927C54.9785 159.78 52.4216 160.485 49.855 161.042C45.5072 161.945 41.4249 162.373 37.6084 162.328C34.2708 162.273 31.3056 161.806 28.7129 160.927C27.9644 160.656 27.2598 160.36 26.5992 160.038C25.9613 159.715 25.3773 159.342 24.8472 158.921C21.604 156.485 20.344 153.303 21.0672 149.373C21.27 147.944 21.7752 146.426 22.5829 144.82C23.7397 142.62 25.3102 140.462 27.2945 138.344C28.3368 137.179 29.473 136.054 30.7032 134.968C31.9575 133.904 33.3044 132.856 34.7436 131.825C38.5125 129.065 42.9702 126.362 48.1168 123.717C50.1245 122.649 52.0707 121.687 53.9555 120.832C55.8388 119.954 57.6818 119.159 59.4846 118.447C59.5755 118.441 59.665 118.412 59.7529 118.361C59.8424 118.332 59.9424 118.291 60.0531 118.238C60.1638 118.185 60.2973 118.131 60.4534 118.075C60.4552 117.755 60.4509 117.516 60.4404 117.356C60.4284 117.175 60.4217 117.072 60.4202 117.05C60.3566 115.044 60.3032 113.712 60.2597 113.052C60.155 111.461 60.0844 109.696 60.0481 107.757C60.0345 105.817 60.0438 103.704 60.076 101.418C60.1262 99.4054 60.164 97.7245 60.1893 96.3755C60.2147 95.0265 60.261 93.9959 60.3283 93.2835C60.4036 91.9998 60.5048 90.5887 60.6319 89.0503C60.7574 87.4892 60.9074 85.7781 61.0817 83.9169C61.2958 81.6192 61.5615 79.2382 61.8788 76.7739C62.2188 74.3081 62.6309 71.7234 63.1151 69.0197C63.1806 68.6272 63.2378 68.2809 63.2865 67.9808C63.3353 67.6807 63.3863 67.4148 63.4395 67.1829C63.5382 66.948 63.6263 66.7253 63.7038 66.5147C63.7813 66.304 63.8716 66.1154 63.9748 65.9488C64.2435 65.52 64.6165 65.2899 65.094 65.2585C65.5715 65.2271 65.9609 65.4184 66.2622 65.8324C66.456 66.0023 66.5854 66.2336 66.6504 66.5262C66.7578 66.7703 66.8296 66.9939 66.8658 67.1971C66.902 67.4002 66.9239 67.5586 66.9314 67.6723C66.9236 67.9012 66.9013 68.2566 66.8645 68.7386C66.8505 69.219 66.8121 69.8496 66.7493 70.6301C66.7598 70.7893 66.7119 70.9294 66.6057 71.0506C66.3595 71.8204 65.8812 72.0117 65.1706 71.6246C65.1464 71.6034 65.1221 71.5822 65.0979 71.5609C65.0964 71.5382 65.0722 71.517 65.0252 71.4972C64.9782 71.4775 64.9305 71.4464 64.8821 71.4039L64.6707 71.315C64.5735 71.5726 64.467 72.0364 64.3512 72.7062C64.2582 73.3746 64.1218 74.2513 63.9421 75.3364C63.5733 77.7128 63.2371 80.2355 62.9332 82.9044C62.6507 85.5491 62.4043 88.397 62.1941 91.448C62.0545 93.4896 61.9445 95.4607 61.8641 97.3614C61.7838 99.262 61.7451 101.103 61.7482 102.884C61.734 105.442 61.7256 107.395 61.7229 108.743C61.7416 110.066 61.7432 110.785 61.728 110.901C61.7095 111.313 61.8078 113.327 62.0231 116.944L62.0568 117.456L63.128 117.077C64.8868 116.39 66.5599 115.789 68.1473 115.273C69.756 114.734 71.2888 114.256 72.7457 113.84C76.1978 112.859 79.6977 111.91 83.2453 110.991C85.2889 110.468 87.3439 109.945 89.4103 109.42C91.4767 108.896 93.5771 108.37 95.7117 107.841C96.3409 107.685 97.5886 107.386 99.4548 106.944C101.344 106.5 103.897 105.909 107.114 105.172C107.293 105.114 107.506 105.066 107.755 105.027C108.002 104.965 108.295 104.9 108.633 104.832C108.994 104.763 109.287 104.709 109.513 104.671C109.76 104.609 109.951 104.563 110.086 104.531C110.063 104.532 110.275 104.461 110.723 104.318C110.862 104.012 110.943 103.847 110.964 103.822C113.296 97.9598 114.836 92.3893 115.584 87.1106C116.139 83.0549 116.217 79.2134 115.819 75.5859C115.492 73.0498 114.981 70.6629 114.285 68.4251C113.588 66.1645 112.66 64.0334 111.501 62.0317C107.395 54.8119 101.293 50.2355 93.196 48.3023C91.782 47.9844 90.362 47.7468 88.9358 47.5895C87.5081 47.4094 86.0516 47.3112 84.5662 47.2949C83.631 47.3108 82.7753 47.3214 81.9993 47.3269C81.246 47.3308 80.5623 47.353 79.9484 47.3934C78.1507 47.4889 76.2468 47.7056 74.2366 48.0435C72.2477 48.3571 70.1314 48.8162 67.8876 49.4206C62.2069 50.8908 56.6024 52.824 51.0741 55.2204C45.5443 57.5941 40.0118 60.4474 34.4766 63.7805C27.6222 67.8856 21.3894 72.5891 15.7783 77.8911C13.9292 79.6342 12.2393 81.3668 10.7085 83.0889C9.19895 84.7868 7.83719 86.475 6.62323 88.1534C5.0829 90.4242 3.8875 92.5582 3.03706 94.5552C1.99367 97.0902 1.42701 99.5823 1.33709 102.032C1.31744 103.814 1.5253 105.41 1.96067 106.82C2.45827 108.135 3.22811 109.249 4.27018 110.162L5.161 110.686C5.09756 110.416 5.04998 110.214 5.01826 110.079C4.98654 109.944 4.96993 109.865 4.96844 109.842C4.86102 109.598 4.7355 109.252 4.59187 108.805C4.46172 108.563 4.36791 108.352 4.31046 108.173C4.25152 107.971 4.20618 107.803 4.17446 107.668C4.06555 107.401 3.99612 107.04 3.96618 106.586C3.95271 106.381 3.99308 106.127 4.0873 105.824C4.27875 105.263 4.64657 104.954 5.19076 104.895C5.50908 104.874 5.77655 104.948 5.99316 105.116C6.11433 105.222 6.21277 105.33 6.28847 105.439C6.3854 105.524 6.4611 105.633 6.51556 105.767C6.67444 106.099 6.74386 106.46 6.72384 106.849C6.76576 107.486 6.78363 108.798 6.77745 110.785C6.78044 110.83 6.77357 110.899 6.75682 110.992C6.73857 111.062 6.72182 111.154 6.70657 111.269C6.61983 111.686 6.43316 111.972 6.14656 112.128C5.84022 112.331 5.48929 112.377 5.09377 112.266C4.63154 112.182 4.11186 111.92 3.53473 111.478C1.91702 110.146 0.877891 108.41 0.417348 106.271C0.109415 104.716 -0.00525185 103.148 0.0733479 101.567C0.173188 99.9617 0.498154 98.3076 1.04825 96.6044C1.42065 95.3239 1.92873 94.023 2.57249 92.7018C3.23898 91.3792 4.03965 90.0134 4.9745 88.6045C7.1598 85.3778 10.0121 82.0501 13.5314 78.6213C15.8236 76.3238 18.2362 74.1212 20.7692 72.0134C23.3249 69.9041 26.0109 67.8661 28.8273 65.8995C34.0064 62.3614 39.3262 59.2252 44.7866 56.4908C50.247 53.7563 55.9261 51.3957 61.8239 49.4088C65.9312 47.9738 69.8722 46.9607 73.6469 46.3696C78.2083 45.5897 82.4019 45.2908 86.2274 45.4728C89.7317 45.6303 93.0234 46.2014 96.1025 47.1861C100.485 48.5417 104.207 50.6259 107.27 53.4386C110.331 56.2285 112.79 59.7546 114.646 64.0169C116.567 68.5717 117.583 73.4259 117.694 78.5795C117.731 81.9111 117.474 85.2963 116.924 88.735C116.397 92.1723 115.544 95.6995 114.367 99.3165C114.298 99.6636 114.187 100.059 114.034 100.503C113.955 100.691 113.877 100.902 113.801 101.135C113.724 101.346 113.647 101.568 113.571 101.801C113.474 102.059 113.398 102.292 113.343 102.501C113.287 102.687 113.218 102.852 113.136 102.994C113.136 102.994 113.054 103.308 112.89 103.935C113.002 103.905 113.193 103.858 113.463 103.795C113.575 103.765 113.677 103.746 113.767 103.74C113.857 103.712 113.947 103.694 114.038 103.688C114.152 103.681 114.321 103.647 114.545 103.587C114.657 103.556 114.759 103.538 114.85 103.532C114.941 103.526 115.032 103.52 115.123 103.514C116.993 103.14 118.584 102.852 119.896 102.652C121.205 102.429 122.258 102.279 123.052 102.204C124.298 102.054 125.37 102.04 126.269 102.164C126.454 102.197 126.616 102.232 126.755 102.269C126.895 102.305 127.01 102.32 127.101 102.315ZM109.725 106.85C109.744 106.803 109.765 106.767 109.786 106.743C109.807 106.719 109.828 106.683 109.848 106.636C109.843 106.568 109.859 106.464 109.896 106.325C109.932 106.185 109.96 106.092 109.98 106.045L109.232 106.129C108.873 106.221 108.175 106.369 107.138 106.575C106.621 106.7 106.148 106.811 105.721 106.908C105.293 107.004 104.899 107.088 104.538 107.157C104.155 107.228 103.794 107.297 103.456 107.365C103.118 107.433 102.78 107.501 102.442 107.569C101.159 107.859 99.5621 108.227 97.6504 108.672C95.7387 109.118 93.5011 109.642 90.9375 110.245C87.6523 110.986 84.7415 111.692 82.2051 112.361C79.69 113.006 77.525 113.594 75.7103 114.125C73.1996 114.838 70.8944 115.549 68.7945 116.258C66.6931 116.945 64.7729 117.608 63.0338 118.248C63.0111 118.249 62.9338 118.288 62.8018 118.366C62.6684 118.42 62.4463 118.515 62.1354 118.649L62.1916 119.502L62.2544 120.457L62.3083 121.275C62.4568 123.184 62.6236 125.023 62.8085 126.792C63.0163 128.559 63.2665 130.278 63.5591 131.949C63.5741 132.176 63.6201 132.527 63.697 133.002C63.7966 133.475 63.9272 134.071 64.0888 134.791C64.19 135.287 64.4685 135.702 64.9245 136.038C65.1184 136.208 65.2524 136.336 65.3266 136.422C65.4083 136.623 65.4089 136.805 65.3284 136.97C65.1813 137.163 65.0273 137.253 64.8667 137.24C64.7075 137.251 64.5234 137.229 64.3142 137.174C63.7278 136.939 63.2666 136.524 62.9306 135.929C62.8005 135.687 62.6817 135.443 62.5743 135.199C62.4669 134.955 62.3822 134.709 62.3202 134.462C62.0889 133.724 61.8979 132.903 61.747 132C61.5977 131.119 61.4659 130.157 61.3515 129.114C61.3168 128.934 61.2402 128.117 61.1216 126.663C61.0031 125.209 60.8283 123.074 60.5971 120.258C60.5579 120.009 60.5217 119.806 60.4885 119.648C60.478 119.489 60.4698 119.364 60.4638 119.273C60.1742 119.384 59.9293 119.48 59.7292 119.561C59.5503 119.619 59.4055 119.674 59.2948 119.727C54.8204 121.483 50.455 123.506 46.1984 125.796C42.0738 128.008 38.4858 130.22 35.4343 132.43C32.4693 134.567 29.9954 136.705 28.0126 138.845C27.116 139.795 26.3217 140.737 25.6298 141.674C24.9394 142.633 24.327 143.563 23.7927 144.466C23.2812 145.368 22.8704 146.24 22.5605 147.082C22.2749 147.946 22.0673 148.782 21.9378 149.59C21.3785 153.234 22.5926 156.066 25.58 158.084C26.0601 158.441 26.6889 158.799 27.4662 159.159C28.4813 159.663 29.6602 160.054 31.0029 160.331C32.6942 160.699 34.4674 160.925 36.3226 161.008C38.2005 161.09 40.1953 161.038 42.3068 160.854C44.711 160.604 47.1054 160.207 49.4901 159.661C51.899 159.137 54.3202 158.453 56.7537 157.608C67.0666 154.006 76.4407 148.456 84.8758 140.958C89.0593 137.212 92.902 133.145 96.4039 128.759C99.9058 124.372 103.108 119.594 106.01 114.425C107.378 111.96 108.616 109.435 109.725 106.85ZM152.705 101.965L152.681 101.589C152.793 101.559 152.868 101.486 152.906 101.369C152.968 101.274 153.005 101.146 153.018 100.985C153.034 100.892 153.039 100.789 153.031 100.676C153.291 99.768 153.566 98.9164 153.857 98.1208C154.147 97.3253 154.463 96.5851 154.806 95.9003C155.209 95.0746 155.588 94.4216 155.945 93.9414C156.301 93.4612 156.719 93.0455 157.199 92.6942C157.849 92.1718 158.586 92.0891 159.409 92.4459C159.713 92.5629 160.089 92.7209 160.536 92.9198C161.006 93.1172 161.547 93.3556 162.159 93.635C162.323 93.6928 162.418 93.755 162.445 93.8217C162.471 93.8657 162.489 93.9672 162.499 94.1264C162.507 94.2401 162.465 94.2999 162.374 94.3059C162.144 94.2754 161.961 94.2646 161.824 94.2736C161.709 94.2584 161.616 94.2416 161.547 94.2234L161.022 94.0524C160.744 94.0022 160.523 93.9368 160.358 93.8564C160.219 93.8199 160.102 93.7819 160.008 93.7424C159.914 93.7029 159.844 93.6733 159.797 93.6535C158.98 93.3876 158.371 93.325 157.969 93.4656C157.543 93.585 157.091 94.003 156.613 94.7195C156.361 95.0558 156.102 95.4611 155.836 95.9353C155.592 96.3852 155.34 96.8928 155.08 97.458C154.764 98.2095 154.457 99.0975 154.16 100.122C153.862 101.146 153.585 102.318 153.329 103.636C153.312 103.729 153.22 104.237 153.053 105.162C152.906 106.062 152.663 107.391 152.322 109.149C152.18 109.775 152.101 110.122 152.082 110.192C152.014 110.539 151.81 110.735 151.47 110.781C151.041 110.854 150.768 110.69 150.65 110.287C150.567 110.064 150.508 109.862 150.473 109.682C150.438 109.501 150.416 109.343 150.407 109.206C150.309 107.706 150.228 106.478 150.165 105.523C150.102 104.568 150.078 103.862 150.094 103.404C150.066 100.894 150.32 98.171 150.858 95.2355L150.895 94.7535C150.763 94.8307 150.487 95.1571 150.068 95.7327C149.906 96.0403 149.168 97.1393 147.853 99.0299C147.187 100.01 146.616 100.87 146.139 101.609C145.661 102.326 145.244 102.924 144.887 103.404C144.326 104.24 143.737 105.01 143.121 105.713C142.526 106.391 141.919 107.048 141.298 107.682C140.975 107.978 140.662 108.25 140.359 108.498C140.078 108.745 139.785 108.981 139.481 109.206C139.239 109.359 138.987 109.513 138.723 109.667C138.458 109.799 138.192 109.919 137.925 110.028C136.19 110.736 134.631 110.462 133.246 109.206C132.059 108.165 131.237 106.781 130.781 105.052C130.288 102.778 130.502 100.469 131.421 98.1252C131.668 97.3781 132.093 96.7221 132.695 96.1573C133.232 95.6424 133.806 95.342 134.417 95.2561C134.78 95.2094 135.077 95.224 135.311 95.3C135.615 95.417 135.843 95.5846 135.995 95.803C136.072 95.935 136.138 96.0676 136.192 96.2011C136.269 96.333 136.325 96.4778 136.358 96.6355C136.444 97.2464 136.397 97.7518 136.218 98.1518C136.02 98.9641 135.693 99.7164 135.236 100.409C134.802 101.1 134.252 101.764 133.586 102.401C133.565 102.426 133.467 102.5 133.293 102.626C133.117 102.729 132.844 102.918 132.474 103.194C132.424 104.864 132.9 106.374 133.902 107.724C134.005 107.9 134.118 108.052 134.241 108.181C134.362 108.288 134.495 108.404 134.641 108.532C135.366 109.146 136.223 109.33 137.212 109.082C138.041 108.845 138.713 108.481 139.229 107.99C140.332 107.05 141.149 106.276 141.68 105.671C142.214 105.11 142.713 104.541 143.177 103.962C143.664 103.382 144.127 102.781 144.566 102.158C145.822 100.431 146.99 98.7442 148.069 97.0975C149.169 95.4266 150.213 93.7707 151.201 92.13C151.428 91.7497 151.632 91.3823 151.814 91.0278C151.995 90.6505 152.129 90.2649 152.217 89.8709C152.334 89.5663 152.483 89.2254 152.664 88.8481C152.843 88.4481 153.042 88.0011 153.26 87.5072C153.377 87.2026 153.577 86.9383 153.859 86.7142C154.097 86.5158 154.357 86.4759 154.639 86.5943C154.898 86.7143 155.061 86.9319 155.127 87.2473C155.141 87.4519 155.123 87.7042 155.074 88.0043C155.023 88.2589 154.961 88.537 154.89 88.8386C154.818 89.1402 154.736 89.4538 154.643 89.7796C154.31 90.9662 154.011 92.3104 153.744 93.8123C153.476 95.2914 153.231 96.9403 153.008 98.759C152.988 98.806 152.948 99.0599 152.887 99.5206C152.849 99.9798 152.803 100.679 152.751 101.619C152.71 101.69 152.68 101.749 152.66 101.796C152.663 101.842 152.643 101.889 152.601 101.937C152.646 101.934 152.67 101.944 152.671 101.967C152.671 101.967 152.682 101.966 152.705 101.965ZM134.216 98.9687C134.623 98.2112 134.785 97.5497 134.702 96.9842C134.258 97.1733 133.983 97.3285 133.877 97.4496C133.811 97.4996 133.737 97.5844 133.654 97.7041C133.57 97.8238 133.477 97.9669 133.374 98.1336C132.762 99.2472 132.508 100.417 132.611 101.643C133.129 101.175 133.664 100.284 134.216 98.9687ZM218.85 96.1708C218.977 96.3679 218.925 96.6225 218.695 96.9346C218.06 97.7071 217.625 98.2039 217.388 98.425C216.098 99.6289 215 100.649 214.096 101.485C213.215 102.319 212.493 102.983 211.932 103.477C211.133 104.169 210.292 104.75 209.409 105.219C208.527 105.688 207.59 106.024 206.598 106.226C205.814 106.46 204.916 106.519 203.904 106.403C202.344 106.301 200.895 105.962 199.555 105.388C198.214 104.791 196.959 103.926 195.788 102.793C195.785 102.748 195.074 102.007 193.655 100.57C193.434 100.333 193.25 100.14 193.103 99.9898C192.979 99.8381 192.881 99.7417 192.81 99.7008C192.301 99.2547 191.76 99.1876 191.187 99.4994C190.791 99.7309 190.463 99.958 190.204 100.181C189.731 100.623 189.322 101.015 188.98 101.357C188.66 101.698 188.393 101.99 188.181 102.232C188.117 102.305 187.906 102.57 187.548 103.027C187.213 103.483 186.742 104.131 186.135 104.97C185.107 106.362 184.529 107.108 184.398 107.208C184.105 107.616 183.817 107.92 183.533 108.121C183.163 108.397 182.771 108.514 182.358 108.473C182.15 108.441 181.962 108.362 181.794 108.236C181.626 108.11 181.467 107.949 181.317 107.754C181.215 107.6 181.125 107.435 181.044 107.258C180.963 107.058 180.88 106.835 180.795 106.589C180.568 105.919 180.416 105.175 180.34 104.358C180.262 103.518 180.259 102.605 180.331 101.619C180.378 100.953 180.453 100.183 180.555 99.3087C180.68 98.4328 180.855 97.4393 181.078 96.3285C181.109 96.0981 181.128 95.8685 181.136 95.6396C181.166 95.4093 181.196 95.1675 181.225 94.9144C181.225 94.9144 181.178 94.8947 181.084 94.8552C181.039 94.8582 181.005 94.8604 180.982 94.8619C180.98 94.8392 180.968 94.8286 180.946 94.8301L179.639 96.3205C179.092 97.0188 178.569 97.7497 178.071 98.5132C177.573 99.2767 177.101 100.084 176.655 100.936C176.43 101.339 176.074 102.002 175.587 102.924C175.121 103.823 174.514 105.016 173.767 106.504C173.685 106.646 173.584 106.835 173.462 107.072C173.363 107.307 173.212 107.613 173.009 107.992C172.645 108.701 172.374 109.267 172.196 109.69C172.094 109.879 171.981 110.069 171.857 110.26C171.753 110.427 171.649 110.571 171.543 110.692C171.304 110.89 171.026 111 170.708 111.021C170.411 111.018 170.162 110.886 169.962 110.625C169.813 110.429 169.675 110.244 169.549 110.07C169.445 109.871 169.35 109.649 169.265 109.403C168.952 108.465 168.73 107.52 168.599 106.57C168.467 105.597 168.423 104.583 168.468 103.53C168.6 101.717 168.9 99.8592 169.368 97.9559C169.516 97.4209 169.676 96.908 169.849 96.417C170.044 95.9018 170.274 95.4185 170.541 94.967C170.763 94.5186 170.994 94.2065 171.233 94.0309C171.62 93.6629 172.034 93.5329 172.475 93.6408C172.89 93.7049 173.217 93.9802 173.454 94.467C173.485 94.5792 173.503 94.6807 173.509 94.7717C173.536 94.8384 173.552 94.9059 173.556 94.9741C173.639 95.8821 173.527 96.7914 173.222 97.7021C173.052 98.2385 172.645 98.4709 172.001 98.3991C171.955 98.4021 171.816 98.377 171.585 98.3237C171.31 99.0041 171.078 99.8186 170.889 100.767C170.7 101.716 170.568 102.821 170.491 104.082C170.286 106.516 170.418 108.186 170.889 109.091C171.003 109.083 171.082 109.067 171.126 109.041C171.188 108.946 171.218 108.887 171.217 108.864C171.261 108.838 171.283 108.825 171.283 108.825C171.281 108.803 171.302 108.767 171.344 108.718C171.384 108.624 171.414 108.565 171.435 108.541C171.719 107.997 172.003 107.453 172.287 106.909C172.569 106.343 172.852 105.787 173.136 105.244C173.238 105.054 173.38 104.782 173.562 104.428C173.766 104.049 174.019 103.564 174.323 102.973C174.625 102.36 174.887 101.829 175.108 101.38C175.353 100.93 175.555 100.54 175.716 100.21C176.896 98.0083 178.272 96.0223 179.846 94.2517C180.252 93.8367 180.596 93.5172 180.879 93.2931C181.297 93.06 181.659 93.0019 181.963 93.1189C182.288 93.1889 182.544 93.4346 182.731 93.8562C182.967 94.3202 183.082 94.8493 183.075 95.4434C183.098 95.7845 183.102 96.1952 183.088 96.6757C183.074 97.1562 183.055 97.7284 183.03 98.3922C182.924 99.9064 182.86 101.189 182.838 102.241C182.814 103.27 182.809 104.059 182.822 104.606C182.825 104.651 182.834 104.788 182.849 105.015C182.864 105.242 182.898 105.583 182.951 106.036C183.163 106.136 183.353 106.078 183.522 105.861C184.433 104.797 185.058 104.048 185.395 103.614C185.586 103.396 185.807 103.108 186.057 102.749C186.206 102.579 186.343 102.41 186.469 102.242C186.595 102.074 186.722 101.917 186.849 101.772C186.954 101.628 187.059 101.495 187.165 101.374C187.293 101.229 187.41 101.095 187.516 100.974C187.684 100.758 187.929 100.49 188.251 100.172C188.594 99.8299 189.034 99.4127 189.573 98.9205C189.831 98.6752 190.133 98.4155 190.481 98.1414C191.181 97.6843 191.84 97.4582 192.457 97.4633C193.028 97.4713 193.662 97.7265 194.357 98.2287C194.524 98.3319 194.718 98.5019 194.939 98.7385C195.16 98.9751 195.441 99.2649 195.784 99.6077C195.905 99.7139 196.064 99.8747 196.261 100.09C196.48 100.304 196.726 100.562 196.997 100.864C197.268 101.166 197.513 101.423 197.733 101.637C197.975 101.85 198.17 102.042 198.319 102.215C200.053 103.928 202.159 104.874 204.637 105.053C205.212 105.107 205.782 105.092 206.347 105.009C206.912 104.926 207.462 104.776 207.996 104.558C208.91 104.224 209.772 103.79 210.582 103.258C211.414 102.723 212.24 102.087 213.059 101.348C213.273 101.128 213.788 100.626 214.604 99.8414C215.442 99.0327 216.59 97.9181 218.049 96.4975C218.454 96.0598 218.721 95.9509 218.85 96.1708ZM248.071 73.7631C248.128 73.2341 248.101 72.8248 247.99 72.5352L247.617 73.6217C246.365 77.4949 244.877 81.7832 243.154 86.4866C241.453 91.1658 239.485 96.3078 237.251 101.913C236.935 102.664 236.619 103.416 236.303 104.167C235.986 104.896 235.668 105.614 235.349 106.32C235.147 106.721 234.912 107.136 234.643 107.565C234.397 107.992 234.119 108.444 233.807 108.922C233.642 109.184 233.452 109.425 233.238 109.644C233.046 109.84 232.83 110.036 232.592 110.235C232.09 110.588 231.576 110.747 231.048 110.713C230.495 110.636 230.034 110.392 229.664 109.982C229.467 109.767 229.281 109.539 229.105 109.3C228.928 109.037 228.75 108.752 228.569 108.444C227.858 107.007 227.334 105.283 226.996 103.273C226.895 102.777 226.812 102.394 226.749 102.125C226.707 101.831 226.671 101.627 226.64 101.515L226.456 101.836C226.436 101.883 226.416 101.93 226.397 101.977C226.375 102.001 226.355 102.036 226.335 102.083C226.338 102.129 226.329 102.164 226.308 102.188C226.287 102.212 226.266 102.248 226.246 102.295L224.72 105.649C224.559 105.98 224.375 106.3 224.167 106.611C223.98 106.897 223.761 107.208 223.509 107.545C223.28 107.879 222.923 108.177 222.438 108.437C221.931 108.722 221.479 108.786 221.08 108.629C220.612 108.455 220.261 108.158 220.028 107.739C219.753 107.369 219.597 106.912 219.561 106.366C219.425 105.347 219.42 104.229 219.545 103.01C219.76 101.42 220.097 99.9479 220.556 98.5932C220.992 97.24 221.536 95.9597 222.187 94.7521C222.371 94.4204 222.587 94.0636 222.836 93.6818C223.108 93.2986 223.412 92.8903 223.749 92.4571C223.919 92.2632 224.102 92.0913 224.297 91.9414C224.491 91.7688 224.708 91.5947 224.948 91.419C225.542 91.083 226.14 90.9752 226.742 91.0954C227.392 91.2581 227.875 91.6602 228.192 92.3016C228.652 93.0477 228.747 93.8064 228.479 94.5777C228.457 94.6019 228.33 94.93 228.098 95.5619C228.398 95.9532 228.573 96.5353 228.624 97.3084C228.751 99.9262 228.865 101.666 228.968 102.527C229.014 102.889 229.094 103.397 229.205 104.052C229.34 104.706 229.507 105.517 229.708 106.486C229.765 106.664 229.837 106.888 229.923 107.156C230.008 107.402 230.118 107.692 230.255 108.025C230.309 108.159 230.363 108.292 230.418 108.426C230.495 108.557 230.584 108.7 230.686 108.853C231.083 109.329 231.508 109.381 231.963 109.009C232.138 108.883 232.289 108.748 232.416 108.602C232.565 108.433 232.692 108.287 232.799 108.166C233.05 107.83 233.258 107.519 233.422 107.234C233.609 106.948 233.774 106.686 233.919 106.448C234.263 105.786 234.556 105.207 234.798 104.712C235.038 104.194 235.236 103.735 235.392 103.337C237.953 97.1395 240.222 91.3725 242.2 86.0357C244.178 80.6989 245.853 75.7931 247.225 71.3182C247.262 71.1788 247.307 71.0046 247.362 70.7954C247.44 70.5848 247.525 70.3166 247.617 69.9908C247.71 69.665 247.794 69.3854 247.87 69.152C247.945 68.8959 248.01 68.6747 248.067 68.4883C248.273 67.8125 248.463 67.0464 248.635 66.1902C248.807 65.3339 248.973 64.3867 249.133 63.3486C249.189 62.8196 249.306 62.0012 249.485 60.8934C249.686 59.784 249.935 58.3632 250.232 56.631C250.265 56.4461 250.319 56.2256 250.394 55.9695C250.468 55.7134 250.55 55.3997 250.64 55.0284C250.777 54.6769 250.964 54.4019 251.202 54.2036C251.489 54.0477 251.773 54.029 252.055 54.1474C252.359 54.2644 252.532 54.4585 252.573 54.7299C252.598 55.1164 252.58 55.5287 252.517 55.9667C252.482 56.1288 252.44 56.36 252.392 56.66C252.364 56.9359 252.306 57.2708 252.218 57.6648C252.13 58.0588 252.062 58.4173 252.015 58.7401C251.966 59.0401 251.926 59.294 251.894 59.5016C251.384 63.2117 250.985 67.0288 250.695 70.9528C250.606 72.3745 250.498 74.0258 250.37 75.9067C250.264 77.7634 250.141 79.8724 249.999 82.2338C249.965 82.7612 249.943 83.2879 249.932 83.8139C249.944 84.3383 249.945 84.8749 249.935 85.4236C249.986 89.6677 250.114 93.6898 250.319 97.4899C250.546 101.289 250.843 104.934 251.21 108.427C251.43 110.376 251.659 112.119 251.897 113.657C252.137 115.216 252.398 116.581 252.68 117.75C252.801 118.198 252.949 118.714 253.125 119.296C253.3 119.878 253.524 120.503 253.796 121.17C253.884 121.461 254.14 121.89 254.566 122.455C254.791 122.76 255.09 122.786 255.461 122.533C255.461 122.533 255.494 122.508 255.559 122.458C255.623 122.386 255.665 122.326 255.684 122.279C255.728 122.253 255.772 122.216 255.814 122.168C256.096 121.943 256.413 121.9 256.765 122.036C257.074 122.222 257.23 122.52 257.234 122.93C257.196 123.39 257.04 123.788 256.765 124.126C256.301 124.705 255.695 125.041 254.948 125.136C254.225 125.252 253.55 125.068 252.925 124.584C252.566 124.334 252.236 124.013 251.936 123.622C251.661 123.252 251.393 122.824 251.133 122.339C250.57 121.074 250.136 119.687 249.831 118.177C249.52 116.919 249.262 115.6 249.057 114.22C248.874 112.839 248.711 111.4 248.567 109.902C248.28 106.93 248.071 103.929 247.94 100.901C247.808 97.8494 247.74 94.7481 247.738 91.5969C247.726 91.415 247.723 91.0156 247.728 90.3987C247.733 89.7818 247.723 88.9375 247.698 87.8659C247.699 86.8382 247.696 85.925 247.689 85.1262C247.703 84.3032 247.715 83.6173 247.725 83.0686C247.737 81.515 247.772 79.9713 247.831 78.4374C247.888 76.8808 247.968 75.3227 248.071 73.7631ZM223.503 98.6047C223 99.9851 222.612 101.381 222.34 102.792C222.045 104.204 221.968 105.294 222.11 106.061C222.281 105.89 222.44 105.697 222.586 105.482C222.752 105.242 222.916 104.957 223.077 104.627C223.384 104.082 223.675 103.48 223.952 102.823C224.25 102.141 224.534 101.426 224.804 100.677C224.88 100.444 224.965 100.175 225.059 99.8724C225.153 99.5693 225.278 99.2072 225.433 98.7859C225.567 98.3889 225.682 98.0616 225.779 97.804C225.877 97.5464 225.953 97.3244 226.01 97.138C226.105 96.8577 226.182 96.6357 226.24 96.472C226.297 96.3084 226.346 96.1796 226.386 96.0856C226.408 96.0842 226.641 95.8062 227.084 95.2518C227.081 95.2063 227.066 95.1502 227.039 95.0835C227.01 94.9941 226.966 94.8372 226.905 94.6128C226.787 94.2095 226.61 93.9471 226.374 93.8257C225.379 94.6676 224.422 96.2606 223.503 98.6047ZM310.382 34.105C310.314 34.1095 310.258 34.1246 310.214 34.1504C310.17 34.1761 310.126 34.2018 310.082 34.2276C310.038 34.2533 309.994 34.279 309.95 34.3048C309.906 34.3305 309.862 34.3676 309.82 34.4161C309.687 34.4705 309.598 34.5106 309.554 34.5363C309.416 35.9156 309.303 36.9621 309.213 37.6759C309.145 38.3882 309.115 38.7899 309.121 38.8808C309.06 39.3416 309.002 39.8478 308.947 40.3995C308.892 40.9511 308.829 41.5604 308.759 42.2273C308.666 42.8956 308.583 43.5519 308.511 44.196C308.438 44.8174 308.364 45.4274 308.289 46.0261C308.216 46.6475 308.153 47.2454 308.099 47.8198C308.044 48.3715 307.988 48.9004 307.93 49.4066C307.557 52.7652 307.241 55.5948 306.981 57.8955C306.743 60.1719 306.564 61.9649 306.445 63.2744C306.161 66.2389 305.839 70.1993 305.48 75.1554C305.451 75.4085 305.41 76.1648 305.356 77.4244C305.323 78.6597 305.258 80.4451 305.16 82.7808C305.145 82.896 305.141 83.0104 305.149 83.1241C305.155 83.2151 305.161 83.306 305.167 83.397C305.234 84.0776 305.303 84.7809 305.374 85.507C305.468 86.2316 305.563 86.9903 305.661 87.7831C305.664 87.8286 305.678 87.8733 305.704 87.9173C305.706 87.94 305.735 88.0409 305.793 88.2198C306.356 88.1141 306.673 88.0591 306.741 88.0546C307.391 87.8747 308.164 87.6526 309.06 87.388C309.979 87.122 311.043 86.8122 312.253 86.4585C313.465 86.1275 314.608 85.8124 315.685 85.5132C316.761 85.214 317.792 84.9177 318.778 84.6245C319.765 84.354 320.718 84.0971 321.639 83.8538C322.557 83.5878 323.454 83.3347 324.329 83.0944C329.846 81.5665 335.442 80.2047 341.118 79.0089C345.577 78.0531 350.122 77.377 354.755 76.9806L356.017 76.8975C356.312 76.8781 356.588 76.9056 356.844 76.9801C357.055 77.0575 357.193 77.2539 357.26 77.5693C357.281 77.8876 357.17 78.1118 356.927 78.242C356.771 78.2979 356.524 78.3599 356.186 78.4278C355.348 78.5287 354.522 78.6515 353.71 78.7964C352.918 78.917 352.115 79.027 351.299 79.1263C349.601 79.3523 347.839 79.6396 346.012 79.9882C344.207 80.3126 342.303 80.7006 340.3 81.1522C333.072 82.7014 321.952 85.4888 306.94 89.5144C306.85 89.5431 306.761 89.5718 306.671 89.6006C306.582 89.6293 306.47 89.6595 306.335 89.6912C306.223 89.7215 306.088 89.7645 305.932 89.8205C305.898 90.3479 305.884 90.6458 305.888 90.714C305.903 90.9414 305.923 91.2483 305.949 91.6348C305.974 92.0214 305.994 92.4996 306.009 93.0695C306.022 93.6167 306.043 94.1063 306.072 94.5383C306.1 94.9703 306.123 95.3228 306.141 95.5956C306.202 97.213 306.231 98.8666 306.228 100.557C306.248 102.245 306.227 104.016 306.167 105.87C306.103 108.021 306.044 109.897 305.989 111.499C305.937 113.124 305.889 114.486 305.847 115.585C305.721 117.831 305.572 119.896 305.399 121.78C305.228 123.687 305.034 125.435 304.819 127.025C304.786 127.21 304.762 127.36 304.746 127.475C304.733 127.613 304.707 127.74 304.669 127.857C304.561 128.298 304.311 128.497 303.92 128.454C303.531 128.434 303.31 128.209 303.259 127.778C303.249 127.619 303.226 127.449 303.191 127.269C303.179 127.087 303.167 126.894 303.153 126.689C302.98 123.709 302.896 121.922 302.903 121.328C302.815 117.908 302.738 115.002 302.671 112.608C302.605 110.215 302.572 108.322 302.571 106.929C302.542 106.132 302.522 104.786 302.511 102.891C302.523 100.995 302.531 98.5165 302.535 95.4562C302.527 94.9773 302.55 94.2907 302.605 93.3964C302.622 92.9614 302.634 92.6181 302.64 92.3665C302.645 92.0922 302.645 91.9209 302.641 91.8527C302.639 91.8299 302.634 91.7504 302.625 91.6139C302.637 91.4533 302.646 91.2471 302.653 90.9955C302.438 90.8498 302.097 90.8723 301.629 91.0629C301.247 91.1566 300.408 91.4173 299.112 91.8452C298.463 92.0478 297.892 92.2224 297.4 92.369C296.907 92.5156 296.481 92.635 296.121 92.7272C295.138 93.0432 294.153 93.3478 293.167 93.641C292.205 93.9328 291.218 94.2147 290.209 94.4867C289.939 94.5501 289.668 94.6022 289.397 94.6429C289.126 94.6836 288.841 94.6909 288.542 94.6649C287.834 94.6658 287.329 94.4479 287.026 94.0111C286.746 93.5729 286.721 93.0151 286.95 92.3377C287.11 91.9847 287.284 91.6877 287.474 91.4469C287.77 91.0849 288.012 90.7834 288.202 90.5426C288.413 90.2775 288.605 90.0708 288.778 89.9224C290.154 88.6215 291.704 87.5489 293.43 86.7045C293.829 86.5184 294.163 86.3936 294.433 86.3302C294.589 86.2742 294.747 86.241 294.906 86.2305C295.086 86.1958 295.257 86.1846 295.417 86.1968C295.827 86.1699 296.103 86.3801 296.247 86.8273C296.43 87.1806 296.35 87.5284 296.007 87.8707C295.924 87.9904 295.716 88.1297 295.384 88.2885C294.614 88.7275 293.804 89.2717 292.957 89.9213C292.107 90.5481 291.197 91.2931 290.226 92.1562C290.116 92.2092 290.051 92.2705 290.033 92.3402C289.991 92.3887 289.959 92.4251 289.938 92.4493C289.916 92.4735 289.895 92.4978 289.874 92.522C290.131 92.6192 290.518 92.5938 291.033 92.4456C292.424 92.0572 293.669 91.724 294.77 91.4461C295.892 91.1438 296.879 90.8847 297.733 90.6686C298.113 90.5522 298.651 90.3913 299.345 90.1857C300.038 89.9574 300.922 89.6822 301.997 89.3603C302.02 89.3588 302.087 89.3429 302.199 89.3127C302.312 89.2825 302.479 89.2258 302.702 89.1426C302.696 89.0516 302.688 88.938 302.679 88.8015C302.671 88.6651 302.682 88.4931 302.714 88.2855C302.71 87.8747 302.724 87.5769 302.758 87.392C302.867 85.2382 302.938 83.5437 302.971 82.3084C303.025 81.0488 303.065 80.2584 303.089 79.9371C303.162 79.3157 303.114 78.7594 302.945 78.2682C302.555 76.5126 302.094 74.876 301.56 73.3583C301.047 71.8164 300.46 70.3593 299.799 68.987C298.027 65.3129 295.55 62.1991 292.368 59.6455C291.666 59.0523 290.862 58.4544 289.955 57.8519C289.068 57.2252 288.09 56.5817 287.019 55.9215C285.092 54.7468 283.985 54.066 283.699 53.8794C283.055 53.4651 282.5 53.022 282.035 52.5502C281.057 51.5642 280.941 50.4985 281.688 49.3533C281.849 49.023 282.035 48.7253 282.246 48.4602C282.457 48.1951 282.68 47.952 282.917 47.7309C283.325 47.3387 283.735 46.9805 284.148 46.6565C284.582 46.3083 285.016 45.9714 285.451 45.6458C286.345 44.9933 287.362 44.3211 288.504 43.6294C289.667 42.9134 290.978 42.1763 292.435 41.4181C297.927 38.476 304.386 35.2991 311.811 31.8872C318.398 28.9187 324.874 26.1745 331.239 23.6545C337.627 21.133 343.982 18.7964 350.302 16.6447C354.614 15.1962 358.617 13.905 362.31 12.7713C366.002 11.6148 369.418 10.6134 372.56 9.76717C373.571 9.5179 374.875 9.2037 376.471 8.82456C378.068 8.44542 379.979 7.99985 382.206 7.48784C383.871 7.10421 385.503 6.74556 387.102 6.4119C388.723 6.054 390.332 5.69685 391.93 5.34045C393.193 5.09745 394.603 4.83336 396.159 4.54816C397.715 4.24023 399.451 3.89758 401.367 3.52022C402.81 3.24251 404.108 3.00863 405.26 2.8186C406.433 2.60433 407.449 2.42327 408.307 2.27543C410.273 1.96329 412.048 1.69798 413.632 1.4795C415.239 1.25952 416.665 1.06289 417.909 0.889598C418.77 0.787235 419.78 0.686509 420.938 0.587421C422.117 0.464099 423.48 0.351537 425.026 0.249736C426.457 0.132684 427.716 0.175399 428.803 0.377883C429.195 0.443382 429.52 0.524741 429.778 0.621959C430.037 0.741914 430.241 0.899718 430.391 1.09537C430.564 1.28953 430.67 1.51091 430.709 1.75952C430.809 2.23251 430.643 2.66588 430.212 3.05961C429.331 3.89406 428.365 4.14033 427.315 3.79843C427.039 3.77092 426.744 3.6191 426.429 3.34298C426.212 3.17456 426.175 2.96005 426.318 2.69946C426.435 2.3949 426.644 2.27836 426.946 2.34984C427.017 2.39083 427.122 2.4182 427.26 2.43195C427.4 2.49118 427.516 2.5178 427.607 2.51181C427.91 2.60604 428.247 2.51537 428.617 2.23981C428.385 2.18657 428.143 2.14544 427.89 2.11644C427.659 2.08593 427.384 2.06979 427.064 2.06801C425.585 2.14259 424.209 2.23316 422.937 2.33973C421.688 2.44481 420.555 2.56514 419.536 2.70072C417.204 3.01408 415.394 3.2589 414.104 3.43518C412.814 3.61146 412.045 3.73057 411.798 3.79252C410.667 3.95832 409.469 4.13998 408.203 4.3375C406.937 4.53503 405.593 4.76053 404.171 5.014C402.411 5.33541 400.832 5.63347 399.435 5.90819C398.035 6.16017 396.795 6.3903 395.712 6.59858C392.985 7.14352 390.653 7.61679 388.715 8.01838C386.8 8.41848 385.269 8.74766 384.122 9.0059C381.311 9.67052 377.899 10.5688 373.886 11.7008C369.871 12.8101 365.19 14.1916 359.841 15.8454C352.991 17.9406 346.33 20.1261 339.857 22.402C333.408 24.6764 327.07 27.0918 320.844 29.6483C320.51 29.7844 319.478 30.2292 317.746 30.9826C316.013 31.7133 313.558 32.7541 310.382 34.105ZM302.86 73.3412C302.888 73.4079 302.916 73.486 302.944 73.5755C302.973 73.6649 303.003 73.7657 303.033 73.8779C303.117 74.1235 303.172 74.257 303.196 74.2782L303.335 74.3033C303.362 74.0275 303.394 73.8199 303.431 73.6804C303.467 73.541 303.484 73.4486 303.481 73.4031C303.507 73.1045 303.529 72.7491 303.548 72.3368C303.588 71.9003 303.623 71.3956 303.654 70.8227C303.683 70.227 303.707 69.7231 303.725 69.3108C303.767 68.8971 303.812 68.5515 303.863 68.2742C304.018 65.7749 304.226 63.215 304.487 60.5945C304.771 57.9725 305.084 55.2687 305.426 52.483C305.564 51.4464 305.721 50.2029 305.9 48.7524C306.101 47.3005 306.334 45.641 306.6 43.7738C306.865 41.9067 307.069 40.329 307.213 39.0407C307.379 37.7509 307.518 36.737 307.629 35.999L307.593 35.4533L306.988 35.6301C306.456 35.8707 305.979 36.0848 305.558 36.2724C305.136 36.46 304.771 36.6325 304.461 36.7899C301.382 38.2258 298.615 39.5611 296.162 40.7959C293.731 42.0293 291.58 43.1757 289.709 44.2352C288.741 44.8012 287.874 45.3265 287.107 45.8109C286.339 46.2953 285.673 46.7616 285.109 47.2098C284.785 47.4824 284.459 47.7436 284.133 47.9934C283.83 48.2417 283.539 48.512 283.262 48.8043C283.133 48.927 282.983 49.0853 282.813 49.2792C282.666 49.4715 282.521 49.698 282.379 49.9586C282.008 50.5767 282.08 51.1543 282.595 51.6913C282.767 51.8627 282.938 52.0341 283.109 52.2055C283.301 52.3527 283.493 52.4885 283.684 52.613C283.85 52.7162 284.029 52.83 284.22 52.9545C284.434 53.0774 284.683 53.2208 284.968 53.3848C285.252 53.5487 285.479 53.6936 285.647 53.8196C285.814 53.9228 285.956 54.0048 286.074 54.0655C287.647 55.0581 288.875 55.845 289.758 56.4262C290.662 56.9833 291.211 57.3467 291.405 57.5166C295.592 60.4151 298.759 64.1116 300.904 68.606C301.619 70.0889 302.271 71.6673 302.86 73.3412ZM305.125 101.486C305.141 99.6577 305.118 98.095 305.056 96.7975C305.014 95.4757 304.943 94.3957 304.842 93.5574C304.765 94.1106 304.688 95.3716 304.612 97.3405C304.557 99.2851 304.506 101.972 304.457 105.4C304.385 108.808 304.354 111.459 304.365 113.353C304.398 115.246 304.451 116.396 304.523 116.802C304.607 115.998 304.687 114.953 304.762 113.67C304.839 112.409 304.91 110.885 304.975 109.1C305.058 107.587 305.104 106.203 305.113 104.946C305.142 103.665 305.146 102.512 305.125 101.486ZM385.182 66.6535C384.765 71.408 384.58 75.8846 384.628 80.0832C384.605 82.1628 384.619 84.1143 384.671 85.9378C384.723 87.7613 384.802 89.4915 384.91 91.1286C384.955 91.8107 385.048 92.8779 385.189 94.3301C385.353 95.7808 385.567 97.6392 385.83 99.9055C386.016 101.332 386.191 102.782 386.357 104.255C386.543 105.704 386.744 107.187 386.958 108.703C387.09 109.676 387.255 110.784 387.451 112.027C387.671 113.292 387.924 114.702 388.209 116.259C388.338 117.187 388.633 117.853 389.094 118.256C389.359 118.467 389.388 118.739 389.182 119.072C389.039 119.333 388.785 119.464 388.42 119.465C387.777 119.416 387.255 119.108 386.852 118.541C386.72 118.275 386.589 118.01 386.457 117.745C386.35 117.501 386.264 117.244 386.201 116.974C385.924 115.896 385.727 114.984 385.61 114.238C385.516 113.513 385.381 112.506 385.205 111.216C385.03 109.949 384.823 108.364 384.584 106.461C384.499 105.873 384.429 105.319 384.371 104.797C384.337 104.274 384.293 103.786 384.241 103.333C384.19 102.56 384.114 101.583 384.013 100.402C383.913 99.221 383.786 97.8136 383.633 96.1795C383.481 94.5682 383.354 93.1607 383.252 91.9571C383.15 90.7535 383.061 89.7546 382.986 88.9603C382.888 88.1675 382.812 87.1792 382.757 85.9953C382.701 84.8115 382.632 83.4117 382.549 81.7958C382.546 81.4078 382.533 80.518 382.51 79.1266C382.508 77.7109 382.517 75.7692 382.537 73.3016C382.531 73.2107 382.535 72.9136 382.547 72.4104C382.558 71.8844 382.588 71.1289 382.638 70.1437C382.595 70.1922 382.552 70.2293 382.508 70.255C382.464 70.2807 382.422 70.3292 382.381 70.4004C382.338 70.4489 382.297 70.5201 382.258 70.614C382.194 70.6867 382.164 70.7572 382.169 70.8254C382.172 70.8709 382.154 70.9406 382.114 71.0345C382.096 71.1042 382.09 71.1846 382.096 71.2755C381.205 74.0516 380.356 76.5852 379.548 78.8763C378.762 81.166 378.02 83.2472 377.321 85.1201C376.873 86.2914 376.19 88.0491 375.271 90.3931C374.35 92.7145 373.184 95.6344 371.771 99.1527C371.656 99.48 371.507 99.8209 371.325 100.175C371.165 100.529 370.972 100.895 370.746 101.275C370.544 101.677 370.271 102.037 369.927 102.357C369.129 103.072 368.276 103.128 367.369 102.525C367.007 102.23 366.623 101.775 366.217 101.163C365.962 100.746 365.728 100.316 365.516 99.8729C365.304 99.4301 365.125 98.9624 364.978 98.4696C363.844 94.7764 363.606 91.1611 364.264 87.624C364.343 87.0935 364.52 86.4881 364.795 85.8078C364.932 85.4563 365.131 85.1806 365.392 84.9807C365.71 84.6172 366.103 84.5114 366.57 84.6634C367.035 84.7926 367.319 85.1164 367.421 85.6349C367.473 85.7228 367.493 85.8471 367.48 86.0078C367.467 86.1457 367.443 86.3071 367.409 86.492C367.424 86.7194 367.418 86.971 367.391 87.2468C367.386 87.5212 367.373 87.8531 367.353 88.2426C367.333 88.6322 367.312 88.999 367.289 89.343C367.264 89.6643 367.24 89.9856 367.215 90.307C367.188 90.5828 367.161 90.87 367.135 91.1686C367.13 91.4429 367.114 91.718 367.087 91.9939C366.998 94.8085 367.297 97.4378 367.983 99.8817C368.04 100.061 368.098 100.251 368.157 100.453C368.239 100.653 368.334 100.875 368.441 101.119C368.488 101.139 368.537 101.193 368.589 101.28C368.661 101.344 368.758 101.429 368.879 101.535C369.263 101.464 369.579 101.238 369.828 100.856C370.062 100.59 370.259 100.291 370.42 99.961C370.64 99.4898 370.83 99.0777 370.989 98.7247C371.172 98.3701 371.311 98.0641 371.408 97.8065C375.565 87.759 378.698 79.3319 380.808 72.5249C380.926 72.2431 381.125 71.6135 381.403 70.6361C381.555 70.1693 381.687 69.7496 381.799 69.3768C381.91 68.9813 382.014 68.6434 382.109 68.363C382.611 66.9599 382.934 65.283 383.08 63.3324C383.291 61.3318 383.523 59.4782 383.776 57.7717C384.027 56.0425 384.32 54.4246 384.655 52.9183C384.707 52.6637 384.78 52.3848 384.874 52.0818C384.968 51.7787 385.071 51.4408 385.184 51.068C385.236 50.8134 385.356 50.5543 385.544 50.2907C385.749 49.9347 386.071 49.7993 386.51 49.8846C386.951 49.9925 387.153 50.2875 387.117 50.7695C387.097 50.8164 387.071 50.9438 387.039 51.1514C387.03 51.3575 387.002 51.6334 386.957 51.9789C386.455 55.4601 386.056 58.4208 385.76 60.8609C385.485 63.2767 385.293 65.2076 385.182 66.6535ZM366.966 81.3147C366.668 81.6539 366.282 81.6794 365.806 81.391C365.403 81.1664 365.15 80.7948 365.048 80.2763C364.897 79.7154 364.935 79.2562 365.162 78.8986C365.513 78.3275 366.025 78.1225 366.698 78.2837C367.348 78.4465 367.698 78.9143 367.749 79.6874C367.764 80.2573 367.503 80.7998 366.966 81.3147ZM402.746 48.7471L401.902 48.4258C401.883 48.4728 401.864 48.5311 401.846 48.6008C401.848 48.6463 401.842 48.7266 401.827 48.8418C401.813 48.9797 401.765 49.1199 401.684 49.2623C401.671 49.423 401.645 49.5389 401.604 49.6101C400.861 52.9017 400.25 56.1047 399.77 59.2191C399.289 62.3108 398.919 65.3609 398.66 68.3694C398.461 70.5519 398.318 73.5871 398.232 77.4748C398.159 79.8317 398.158 82.2524 398.23 84.7367C398.303 87.2211 398.482 89.7669 398.768 92.3742C399.23 97.3219 399.971 101.635 400.99 105.313C401.2 106.075 401.404 106.758 401.604 107.362C401.828 107.986 402.08 108.518 402.36 108.956C402.549 109.4 402.733 109.765 402.911 110.05C403.09 110.335 403.267 110.598 403.443 110.837C403.791 111.271 404.218 111.688 404.724 112.089C405.68 112.734 406.658 112.841 407.657 112.41C407.966 112.252 408.264 112.096 408.551 111.94C408.837 111.784 409.111 111.606 409.372 111.406C410.203 110.849 411.118 110.001 412.116 108.862C413.39 107.408 414.587 105.81 415.705 104.07C417.873 100.57 419.789 96.7219 421.453 92.5247C421.66 91.8488 421.653 91.2213 421.432 90.6421C419.575 85.3295 419.36 80.1485 420.786 75.0993C421.1 73.9824 421.463 73.068 421.872 72.3559C422.056 72.0241 422.243 71.7378 422.432 71.4969C422.645 71.2546 422.872 71.0684 423.115 70.9382C423.744 70.44 424.34 70.2981 424.902 70.5122C425.574 70.6507 426.045 71.0422 426.315 71.6866C426.444 71.9065 426.54 72.1513 426.604 72.4212C426.69 72.6895 426.766 72.9814 426.833 73.2967C426.89 73.8182 426.907 74.4336 426.886 75.1429C426.885 75.828 426.822 76.6086 426.697 77.4846C426.511 79.1638 426.195 80.9544 425.749 82.8563C425.302 84.7354 424.704 86.7501 423.955 88.9003C423.862 89.2261 423.789 89.505 423.736 89.7368C423.704 89.9445 423.681 90.1172 423.667 90.2552C423.675 90.3688 423.709 90.5379 423.769 90.7623C423.853 90.9851 423.961 91.252 424.096 91.5628C424.532 92.6303 425.06 93.5432 425.681 94.3015C426.13 94.8885 426.63 95.358 427.178 95.7101C428.154 96.3081 429.164 96.4014 430.211 95.99C430.544 95.8539 430.854 95.6965 431.139 95.5179C431.424 95.3392 431.685 95.1507 431.924 94.9524C432.353 94.5359 432.728 94.1573 433.048 93.8165C433.366 93.453 433.642 93.1266 433.874 92.8373C434.381 92.2102 434.841 91.5747 435.255 90.9308C435.692 90.2855 436.072 89.6325 436.394 88.9719C436.672 88.3371 437.03 87.537 437.469 86.5719C437.931 85.6052 438.46 84.4514 439.056 83.1105C439.29 82.5014 439.386 82.0498 439.344 81.7557C439.279 81.4631 439.404 81.2836 439.72 81.2171C440.074 81.0568 440.34 81.1078 440.518 81.3701C440.692 81.587 440.785 81.7978 440.799 82.0024C440.823 82.3662 440.788 82.6996 440.694 83.0027C440.54 83.4467 440.406 83.8323 440.29 84.1596C440.173 84.4642 440.064 84.7112 439.962 84.9006C439.253 86.2717 438.604 87.5133 438.015 88.6254C437.449 89.736 436.921 90.7299 436.43 91.6071C435.778 92.7918 434.939 93.9317 433.915 95.0268C433.06 95.9052 432.257 96.5517 431.508 96.9664C429.634 97.9804 427.758 97.9327 425.881 96.8231C424.908 96.2706 424.005 95.3824 423.171 94.1585C423.145 94.1145 423.119 94.0706 423.094 94.0266C423.068 93.9826 423.031 93.9394 422.982 93.8969C422.932 93.8317 422.882 93.7665 422.832 93.7013C422.805 93.6345 422.767 93.5686 422.717 93.5034C422.667 93.4381 422.629 93.3835 422.603 93.3396C422.576 93.2728 422.537 93.1955 422.485 93.1076C422.105 93.9318 421.916 94.3553 421.918 94.378C420.536 97.666 419.021 100.666 417.372 103.378C415.792 106.085 414.237 108.3 412.706 110.022C412.218 110.579 411.736 111.068 411.261 111.487C410.786 111.907 410.332 112.291 409.898 112.639C409.158 113.19 408.417 113.558 407.676 113.744C406.494 114.165 405.298 114.038 404.089 113.364C403.399 112.953 402.721 112.358 402.053 111.58C401.681 111.125 401.326 110.6 400.99 110.005C400.654 109.411 400.325 108.748 400.003 108.015C399.467 106.817 398.983 105.536 398.551 104.172C398.141 102.806 397.77 101.323 397.436 99.7236C396.923 97.1313 396.513 94.3837 396.208 91.4808C395.926 88.5765 395.733 85.4834 395.631 82.2018C395.553 77.891 395.692 73.5773 396.047 69.2608C396.402 64.9443 397.004 60.5658 397.854 56.1254C397.992 55.4541 398.292 53.9386 398.753 51.579C399.236 49.1951 399.89 45.955 400.717 41.8587C400.77 41.6268 400.814 41.4298 400.849 41.2676C400.905 41.0813 400.963 40.9176 401.022 40.7767C401.298 40.1191 401.752 39.7239 402.383 39.591C403.057 39.4324 403.628 39.6003 404.094 40.0949C404.434 40.3922 404.674 40.7532 404.816 41.1777C405.517 43.1411 405.563 45.2276 404.954 47.437C404.895 47.5779 404.825 47.731 404.745 47.8961C404.663 48.0385 404.546 48.1718 404.394 48.296C403.994 48.8019 403.444 48.9523 402.746 48.7471ZM422.731 86.9599L423.013 87.5922C423.249 87.0286 423.368 86.7467 423.368 86.7467C423.68 85.5844 423.927 84.6661 424.111 83.9918C424.294 83.2947 424.411 82.8188 424.463 82.5642C424.781 81.1503 425.024 79.8212 425.194 78.5769C425.361 77.3099 425.442 76.1057 425.435 74.9644C425.447 74.0959 425.355 73.394 425.16 72.8588C425.158 72.8361 425.03 72.6275 424.776 72.2332C424.708 72.2377 424.652 72.2528 424.608 72.2786C424.321 72.4345 424.147 72.5601 424.084 72.6556C423.978 72.7767 423.886 72.9426 423.809 73.1533C423.572 73.7169 423.376 74.2094 423.221 74.6306C423.066 75.0519 422.964 75.4125 422.915 75.7126C422.509 77.5205 422.288 79.362 422.252 81.2369C422.215 83.1118 422.375 85.0195 422.731 86.9599ZM462.448 77.2543C462.573 77.406 462.627 77.5395 462.612 77.6546C462.49 78.2335 462.097 78.6819 461.433 78.9996C461.008 79.1418 460.548 79.2634 460.053 79.3646C459.713 79.4097 459.102 79.4956 458.22 79.6222C457.336 79.7261 456.17 79.8828 454.723 80.0923C454.632 80.0983 454.531 80.1277 454.42 80.1807L454.147 80.1987C452.137 80.5365 450.663 81.5585 449.725 83.2644C449.295 84.0234 448.917 84.859 448.588 85.7712C448.283 86.6819 448.006 87.6821 447.758 88.7717C447.319 90.7645 447.109 92.6052 447.129 94.2938C447.112 94.3862 447.097 94.5014 447.083 94.6393C447.09 94.753 447.111 94.9001 447.146 95.0805C447.158 95.2623 447.169 95.4215 447.178 95.5579C447.209 95.6929 447.227 95.7944 447.232 95.8626C447.224 96.0915 447.215 96.2976 447.204 96.481C447.193 96.6644 447.181 96.8251 447.167 96.963C447.081 97.3798 446.81 97.6031 446.355 97.6331C445.969 97.6585 445.695 97.4938 445.535 97.139C445.459 97.0298 445.382 96.8979 445.303 96.7432C445.247 96.587 445.191 96.4309 445.135 96.2747C444.578 94.0507 444.116 92.0601 443.749 90.3031C443.38 88.5233 443.117 86.9536 442.959 85.5938C442.611 82.7394 442.58 80.3551 442.865 78.441C442.911 78.0955 442.957 77.7613 443.004 77.4385C443.074 77.1142 443.144 76.7898 443.214 76.4655C443.274 76.3246 443.344 76.1716 443.424 76.0064C443.504 75.8413 443.596 75.664 443.697 75.4746C443.987 75.0217 444.378 74.8818 444.869 75.055C445.31 75.163 445.546 75.4557 445.577 75.9332C445.589 76.1151 445.603 76.3197 445.618 76.5471C445.633 76.7745 445.627 77.0374 445.601 77.336C445.593 77.5649 445.59 77.862 445.591 78.2273C445.614 78.5683 445.617 78.9677 445.602 79.4255C445.609 79.8817 445.612 80.2811 445.612 80.6236C445.61 80.9435 445.605 81.2064 445.595 81.4126C445.616 82.7586 445.806 85.1324 446.167 88.534L446.283 88.7319C446.372 88.7031 446.483 88.4789 446.615 88.0591C446.836 87.2454 447.051 86.5233 447.261 85.8929C447.469 85.2398 447.694 84.6655 447.935 84.1701C448.178 83.6974 448.412 83.2595 448.636 82.8565C448.859 82.4308 449.097 82.0498 449.349 81.7135C450.331 80.3244 451.683 79.5274 453.405 79.3227C454.082 79.2096 454.805 79.0935 455.574 78.9744C455.982 78.9247 456.389 78.875 456.797 78.8253C457.205 78.7756 457.623 78.7138 458.052 78.6399C458.504 78.5645 458.911 78.5034 459.274 78.4567C459.634 78.3873 459.972 78.3194 460.288 78.253C461.079 78.1323 461.631 77.8448 461.944 77.3903C461.963 77.3434 462.017 77.2942 462.105 77.2427C462.217 77.2125 462.332 77.2164 462.448 77.2543ZM488.717 78.6761C488.931 78.799 488.998 78.9431 488.917 79.1082C488.841 79.3416 488.745 79.4393 488.628 79.4013C488.049 79.2795 487.187 79.5418 486.042 80.1881C485.845 80.3153 485.418 80.5832 484.759 80.9919C484.1 81.3779 483.211 81.9274 482.093 82.6403C481.92 82.7887 481.801 82.8879 481.736 82.9379C481.762 82.9819 481.777 83.038 481.782 83.1062C481.809 83.1729 481.848 83.2502 481.9 83.3382C482.742 85.041 482.918 86.8335 482.425 88.7157C481.829 91.107 480.576 93.062 478.666 94.5808C478.492 94.7064 478.305 94.8215 478.107 94.9259C477.908 95.0303 477.699 95.1468 477.479 95.2755C477.085 95.5298 476.729 95.6788 476.412 95.7225C475.224 96.052 474.264 95.8754 473.534 95.1927C472.759 94.513 472.458 93.5851 472.632 92.4091C472.714 91.9241 472.852 91.424 473.047 90.9088C473.24 90.3709 473.501 89.8285 473.83 89.2816C474.636 87.9954 475.685 86.7617 476.978 85.5805C477.02 85.532 477.215 85.3707 477.562 85.0967C477.931 84.7984 478.462 84.3638 479.155 83.7929C479.197 83.7445 479.338 83.621 479.576 83.4227C479.684 83.3242 479.77 83.25 479.835 83.2001C479.922 83.1259 479.986 83.0645 480.029 83.0161L479.622 82.5633C478.859 82.0655 477.846 81.7668 476.583 81.6673C476.262 81.6428 475.872 81.6227 475.414 81.6072C474.979 81.5902 474.443 81.5912 473.805 81.6104C473.665 81.5739 473.345 81.5722 472.845 81.6051L471.856 81.6702C471.652 81.6837 471.458 81.6964 471.276 81.7084C471.094 81.7204 470.946 81.7187 470.831 81.7035C469.429 81.5674 468.681 80.7832 468.586 79.3507C468.534 78.5549 468.663 77.7471 468.975 76.9274C469.285 76.0849 469.714 75.3259 470.264 74.6503C470.561 74.311 470.85 74.018 471.131 73.7711C471.434 73.5228 471.762 73.3071 472.116 73.124C472.449 72.9878 472.729 72.9009 472.955 72.8632C473.202 72.8012 473.453 72.7961 473.707 72.8479C474.239 72.9499 474.6 73.223 474.789 73.6673C474.932 74.1145 474.824 74.5442 474.463 74.9561C474.441 74.9804 474.409 75.0054 474.365 75.0311C474.344 75.0553 474.312 75.0917 474.269 75.1401C474.206 75.2128 474.108 75.2992 473.978 75.3991C473.936 75.4476 473.892 75.4847 473.848 75.5104C473.804 75.5361 473.761 75.5732 473.719 75.6217C472.576 76.656 471.877 77.3072 471.621 77.5753C471.128 78.0644 470.757 78.6712 470.508 79.3955C470.251 80.0061 470.433 80.3481 471.055 80.4213C471.241 80.4776 471.461 80.5202 471.714 80.5492C471.965 80.5555 472.252 80.5709 472.573 80.5954C472.687 80.5879 472.857 80.5767 473.085 80.5617C473.335 80.5452 473.665 80.5349 474.076 80.5307C474.511 80.5477 474.877 80.5579 475.174 80.5611C475.493 80.5402 475.778 80.5328 476.029 80.5391C476.35 80.5636 476.719 80.6079 477.134 80.6719C477.548 80.7132 477.999 80.7976 478.487 80.9254C479.388 81.0944 480.251 81.5399 481.075 82.2621C482.211 81.4794 482.79 81.0759 482.811 81.0517C483.445 80.6217 484.014 80.2531 484.519 79.9458C485.047 79.6371 485.509 79.3669 485.905 79.1353C486.08 79.0324 486.279 78.928 486.5 78.822C486.745 78.7146 487.012 78.6171 487.303 78.5294C487.84 78.3571 488.311 78.4059 488.717 78.6761ZM481.421 87.0006C481.524 85.7835 481.281 84.692 480.692 83.726C480.604 83.7774 480.549 83.8039 480.526 83.8054C478.163 85.3768 476.297 87.201 474.926 89.2779C474.322 90.1626 473.943 90.9869 473.787 91.7507C473.661 92.2614 473.612 92.7327 473.641 93.1647C473.681 93.7786 473.892 94.21 474.274 94.4589C474.706 94.773 475.178 94.8447 475.692 94.6738C476.276 94.5212 476.765 94.3177 477.159 94.0634C479.718 92.3421 481.139 89.9878 481.421 87.0006Z" fill="#EB3737"/>
</svg>
