<svg width="564" height="144" viewBox="0 0 564 144" fill="none" xmlns="http://www.w3.org/2000/svg">
<path d="M29.1998 49.6071C29.1316 49.6116 29.0755 49.6267 29.0315 49.6524C28.9875 49.6782 28.9436 49.7039 28.8996 49.7296C28.8556 49.7554 28.8116 49.7811 28.7676 49.8068C28.7237 49.8326 28.6804 49.8697 28.638 49.9181C28.5045 49.9726 28.4158 50.0127 28.3719 50.0384C28.2344 51.4176 28.1207 52.4642 28.0307 53.178C27.9634 53.8904 27.9328 54.292 27.9388 54.3829C27.8778 54.8437 27.8198 55.3499 27.7649 55.9016C27.7099 56.4533 27.6472 57.0625 27.577 57.7294C27.484 58.3978 27.4017 59.054 27.3299 59.6982C27.2567 60.3195 27.1827 60.9296 27.108 61.5282C27.0348 62.1496 26.9714 62.7475 26.9179 63.322C26.8629 63.8736 26.8064 64.4026 26.7484 64.9088C26.376 68.2674 26.0601 71.097 25.8006 73.3977C25.5624 75.6741 25.3837 77.4671 25.2645 78.7766C24.9803 81.7412 24.6589 85.7015 24.3004 90.6577C24.2714 90.9108 24.2299 91.6671 24.1759 92.9267C24.1431 94.162 24.0781 95.9474 23.9808 98.2831C23.9656 98.3983 23.9617 98.5127 23.9692 98.6264C23.9752 98.7174 23.9812 98.8083 23.9872 98.8993C24.0548 99.5799 24.124 100.283 24.1947 101.009C24.2881 101.734 24.3838 102.493 24.4817 103.285C24.4847 103.331 24.4991 103.376 24.5248 103.42C24.5263 103.442 24.5558 103.543 24.6132 103.722C25.1772 103.616 25.4932 103.561 25.5615 103.557C26.2118 103.377 26.985 103.155 27.881 102.89C28.7998 102.624 29.8641 102.314 31.0739 101.96C32.2852 101.629 33.4291 101.314 34.5055 101.015C35.5819 100.716 36.6128 100.419 37.5983 100.126C38.5852 99.8555 39.5388 99.5986 40.459 99.3553C41.3778 99.0892 42.2745 98.836 43.1493 98.5957C48.6662 97.0675 54.2626 95.7054 59.9384 94.5093C64.3969 93.5533 68.9424 92.877 73.5748 92.4804L74.8367 92.3972C75.1323 92.3778 75.4081 92.4052 75.6642 92.4797C75.8748 92.5572 76.0134 92.7536 76.0798 93.0689C76.1008 93.3872 75.99 93.6115 75.7473 93.7416C75.5912 93.7976 75.3441 93.8595 75.006 93.9275C74.1677 94.0284 73.3423 94.1513 72.5298 94.2962C71.7385 94.4168 70.935 94.5269 70.1195 94.6263C68.4217 94.8523 66.6595 95.1397 64.8327 95.4885C63.0272 95.8129 61.1232 96.201 59.1205 96.6527C51.8923 98.2023 40.7723 100.99 25.7604 105.017C25.671 105.045 25.5815 105.074 25.4921 105.103C25.4026 105.132 25.2904 105.162 25.1555 105.193C25.0433 105.224 24.9091 105.267 24.753 105.323C24.7192 105.85 24.7046 106.148 24.7091 106.216C24.7241 106.444 24.7443 106.751 24.7698 107.137C24.7952 107.524 24.8153 108.002 24.83 108.572C24.8433 109.119 24.8641 109.609 24.8926 110.041C24.921 110.473 24.9443 110.825 24.9622 111.098C25.0231 112.715 25.0522 114.369 25.0494 116.059C25.0693 117.747 25.049 119.519 24.9884 121.372C24.9246 123.523 24.8656 125.399 24.8113 127.002C24.7585 128.626 24.7113 129.988 24.6695 131.087C24.5435 133.333 24.3941 135.398 24.2214 137.282C24.0501 139.189 23.8571 140.937 23.6421 142.527C23.6086 142.712 23.5843 142.862 23.569 142.977C23.5553 143.115 23.5294 143.242 23.4914 143.359C23.3835 143.8 23.134 143.999 22.7429 143.957C22.3534 143.936 22.133 143.711 22.0818 143.281C22.0714 143.122 22.0487 142.952 22.014 142.771C22.002 142.589 21.9893 142.396 21.9758 142.192C21.8023 139.212 21.7188 137.424 21.7253 136.83C21.637 133.411 21.5596 130.504 21.4933 128.111C21.4269 125.717 21.3935 123.824 21.3931 122.431C21.3634 121.634 21.3432 120.288 21.3325 118.393C21.3446 116.497 21.3525 114.019 21.3564 110.959C21.3477 110.48 21.371 109.793 21.4262 108.899C21.4432 108.464 21.4549 108.121 21.4611 107.869C21.4659 107.595 21.466 107.423 21.4615 107.355C21.46 107.332 21.4548 107.253 21.4458 107.116C21.458 106.956 21.4673 106.75 21.4735 106.498C21.2584 106.352 20.9174 106.375 20.4504 106.565C20.0683 106.659 19.2292 106.92 17.9329 107.348C17.284 107.55 16.7132 107.725 16.2205 107.872C15.7277 108.018 15.3017 108.138 14.9424 108.23C13.9585 108.546 12.9738 108.851 11.9883 109.144C11.0256 109.436 10.0394 109.718 9.02971 109.99C8.75986 110.053 8.48926 110.105 8.21791 110.146C7.94656 110.187 7.6616 110.194 7.36302 110.168C6.65517 110.169 6.14984 109.951 5.84703 109.514C5.56696 109.076 5.54162 108.518 5.77102 107.841C5.93044 107.488 6.10498 107.191 6.29463 106.95C6.59048 106.588 6.83323 106.287 7.02288 106.046C7.23377 105.781 7.42567 105.574 7.59858 105.426C8.97435 104.125 10.525 103.052 12.2506 102.207C12.6493 102.021 12.9837 101.896 13.2535 101.833C13.4097 101.777 13.5673 101.744 13.7265 101.733C13.9069 101.699 14.0774 101.687 14.2381 101.7C14.6473 101.673 14.9238 101.883 15.0675 102.33C15.2506 102.683 15.1707 103.031 14.8279 103.373C14.7445 103.493 14.5367 103.632 14.2046 103.791C13.4343 104.23 12.6252 104.775 11.7775 105.424C10.9282 106.051 10.0181 106.796 9.04741 107.659C8.93673 107.712 8.87226 107.774 8.85402 107.843C8.81154 107.892 8.77968 107.928 8.75844 107.952C8.7372 107.977 8.71596 108.001 8.69473 108.025C8.95232 108.122 9.33886 108.097 9.85432 107.949C11.2445 107.56 12.49 107.227 13.5906 106.949C14.7125 106.647 15.7002 106.387 16.5537 106.171C16.9343 106.055 17.4717 105.894 18.1661 105.688C18.8589 105.46 19.7428 105.185 20.8177 104.863C20.8405 104.861 20.9079 104.845 21.0201 104.815C21.1323 104.785 21.2998 104.728 21.5227 104.645C21.5167 104.554 21.5092 104.44 21.5002 104.304C21.4912 104.168 21.5027 103.996 21.5347 103.788C21.5305 103.377 21.5451 103.079 21.5786 102.894C21.6879 100.741 21.7589 99.0461 21.7917 97.8108C21.8457 96.5513 21.885 95.7608 21.9095 95.4395C21.9827 94.8181 21.9346 94.2618 21.7652 93.7706C21.3755 92.0151 20.9137 90.3785 20.3799 88.8608C19.8672 87.3189 19.2802 85.8619 18.6189 84.4896C16.8468 80.8156 14.3695 77.7019 11.1869 75.1485C10.4855 74.5553 9.68115 73.9575 8.77369 73.355C7.88747 72.7284 6.9088 72.0849 5.83768 71.4248C3.91057 70.2501 2.80385 69.5694 2.51752 69.3828C1.87366 68.9685 1.31924 68.5255 0.854271 68.0537C-0.124134 67.0677 -0.240026 66.0021 0.506596 64.8568C0.667517 64.5265 0.853424 64.2288 1.06431 63.9637C1.27521 63.6986 1.49896 63.4555 1.73559 63.2344C2.14362 62.8421 2.5539 62.484 2.96643 62.1599C3.4002 61.8116 3.83472 61.4747 4.26998 61.1492C5.16325 60.4966 6.18082 59.8244 7.3227 59.1326C8.48582 58.4165 9.79598 57.6793 11.2532 56.9211C16.7454 53.9787 23.2041 50.8014 30.6293 47.3891C37.2159 44.4203 43.6917 41.6758 50.0567 39.1555C56.4445 36.6337 62.7987 34.2967 69.1194 32.1447C73.4313 30.696 77.4338 29.4046 81.127 28.2706C84.8187 27.1139 88.2352 26.1124 91.3765 25.266C92.3876 25.0167 93.6914 24.7024 95.2878 24.3232C96.8841 23.944 98.7958 23.4983 101.023 22.9862C102.687 22.6025 104.319 22.2437 105.919 21.91C107.539 21.552 109.149 21.1948 110.746 20.8383C112.009 20.5952 113.419 20.3311 114.976 20.0458C116.531 19.7378 118.267 19.395 120.183 19.0176C121.626 18.7398 122.924 18.5059 124.076 18.3158C125.25 18.1014 126.265 17.9203 127.123 17.7724C129.089 17.4602 130.864 17.1948 132.449 16.9762C134.055 16.7562 135.481 16.5595 136.726 16.3861C137.587 16.2837 138.596 16.1829 139.754 16.0838C140.934 15.9604 142.296 15.8478 143.843 15.7459C145.273 15.6288 146.532 15.6714 147.619 15.8738C148.011 15.9393 148.336 16.0207 148.594 16.1179C148.853 16.2378 149.058 16.3956 149.208 16.5912C149.38 16.7854 149.486 17.0068 149.525 17.2554C149.625 17.7284 149.46 18.1617 149.029 18.5555C148.147 19.39 147.182 19.6363 146.132 19.2945C145.856 19.267 145.56 19.1152 145.245 18.8391C145.029 18.6706 144.992 18.4561 145.134 18.1955C145.251 17.891 145.461 17.7744 145.762 17.8459C145.833 17.8869 145.938 17.9142 146.076 17.928C146.217 17.9872 146.333 18.0138 146.424 18.0078C146.727 18.102 147.063 18.0113 147.433 17.7358C147.201 17.6825 146.959 17.6414 146.706 17.6124C146.475 17.5819 146.2 17.5658 145.881 17.5641C144.401 17.6387 143.026 17.7293 141.754 17.836C140.505 17.9411 139.371 18.0615 138.352 18.1971C136.021 18.5106 134.21 18.7555 132.92 18.9319C131.63 19.1082 130.861 19.2274 130.614 19.2893C129.483 19.4552 128.285 19.6369 127.019 19.8345C125.754 20.0321 124.41 20.2577 122.988 20.5112C121.228 20.8327 119.649 21.1309 118.251 21.4056C116.852 21.6577 115.611 21.8879 114.529 22.0962C111.801 22.6413 109.469 23.1147 107.532 23.5164C105.617 23.9166 104.086 24.2458 102.938 24.5042C100.128 25.1689 96.7158 26.0674 92.7027 27.1996C88.6882 28.309 84.0066 29.6908 78.6578 31.3449C71.8081 33.4405 65.1471 35.6263 58.6746 37.9025C52.225 40.1772 45.8873 42.593 39.6618 45.1498C39.3282 45.2859 38.2957 45.7308 36.5641 46.4843C34.8311 47.215 32.3763 48.256 29.1998 49.6071ZM21.6804 88.8436C21.7076 88.9103 21.7356 88.9884 21.7643 89.0779C21.793 89.1673 21.8225 89.2681 21.8527 89.3803C21.9374 89.6259 21.9919 89.7594 22.0161 89.7806L22.1548 89.8057C22.1823 89.5299 22.2143 89.3223 22.2508 89.1828C22.2873 89.0434 22.304 88.951 22.301 88.9055C22.327 88.6069 22.3493 88.2515 22.3678 87.8392C22.4075 87.4027 22.4428 86.898 22.4735 86.3251C22.5028 85.7294 22.5267 85.2255 22.5452 84.8132C22.5864 84.3994 22.6321 84.0539 22.6824 83.7765C22.8374 81.2772 23.0455 78.7173 23.3067 76.0968C23.5906 73.4748 23.9035 70.771 24.2451 67.9853C24.3823 66.9487 24.5402 65.7051 24.7186 64.2547C24.9198 62.8028 25.153 61.1432 25.4182 59.2761C25.6833 57.4089 25.8877 55.8312 26.0311 54.5429C26.1973 53.2531 26.3361 52.2392 26.4473 51.5011L26.4113 50.9555L25.8064 51.1323C25.2742 51.3729 24.7973 51.587 24.3758 51.7747C23.9543 51.9623 23.5889 52.1348 23.2795 52.2922C20.2 53.7283 17.4335 55.0638 14.9801 56.2987C12.5494 57.5322 10.3985 58.6787 8.52725 59.7383C7.55977 60.3044 6.69237 60.8297 5.92504 61.3141C5.1577 61.7986 4.49194 62.2649 3.92774 62.7131C3.60316 62.9857 3.27784 63.2469 2.95176 63.4968C2.64842 63.7451 2.35795 64.0155 2.08035 64.3078C1.95142 64.4305 1.802 64.5887 1.63208 64.7826C1.48491 64.975 1.33998 65.2015 1.1973 65.4621C0.82699 66.0802 0.899301 66.6578 1.41424 67.1947C1.58538 67.3661 1.75653 67.5376 1.92768 67.709C2.12006 67.8561 2.3117 67.9919 2.50258 68.1164C2.66923 68.2196 2.848 68.3334 3.03889 68.4578C3.25251 68.5808 3.50174 68.7242 3.78657 68.8881C4.0714 69.052 4.29789 69.197 4.46604 69.3229C4.6327 69.4261 4.77511 69.5081 4.89329 69.5688C6.46586 70.5613 7.69376 71.3481 8.57698 71.9293C9.48145 72.4863 10.0306 72.8497 10.2245 73.0197C14.4118 75.9179 17.5783 79.6142 19.7242 84.1085C20.4385 85.5914 21.0905 87.1698 21.6804 88.8436ZM23.946 116.988C23.9625 115.16 23.9395 113.597 23.8768 112.3C23.8354 110.978 23.7642 109.898 23.6633 109.06C23.5856 109.613 23.5088 110.874 23.433 112.843C23.3785 114.787 23.3272 117.474 23.2791 120.903C23.2067 124.31 23.1759 126.961 23.1865 128.856C23.2199 130.749 23.2729 131.898 23.3453 132.305C23.4293 131.5 23.5089 130.456 23.5842 129.172C23.6609 127.911 23.7318 126.388 23.7969 124.602C23.8799 123.09 23.9257 121.705 23.9342 120.448C23.964 119.168 23.9679 118.014 23.946 116.988ZM110.693 100.002C110.792 100.11 110.824 100.256 110.791 100.441C110.797 100.532 110.727 100.685 110.581 100.9L110.547 100.903C110.359 101.166 110.187 101.337 110.033 101.416C109.945 101.467 109.76 101.605 109.478 101.829C109.196 102.054 108.782 102.366 108.238 102.767C107.126 103.571 106.157 104.286 105.331 104.911C104.503 105.514 103.804 106.005 103.235 106.385C102.843 106.663 102.348 106.946 101.75 107.237C101.153 107.527 100.464 107.824 99.685 108.127C97.6396 108.969 95.4608 108.999 93.1484 108.215C92.3256 107.858 91.5643 107.394 90.8645 106.824C90.1434 106.278 89.5575 105.357 89.1068 104.062C89.0871 104.109 89.0453 104.169 88.9816 104.242C88.9164 104.292 88.8406 104.354 88.7541 104.428L88.6608 104.571C88.5121 104.741 88.299 104.972 88.0214 105.264C87.7423 105.534 87.3888 105.888 86.9611 106.327L86.4513 106.909C86.2374 107.129 86.066 107.3 85.9371 107.423C85.8309 107.544 85.7566 107.629 85.7141 107.677C85.0769 108.404 84.5649 108.952 84.1782 109.32C83.7094 109.83 83.1968 110.195 82.6404 110.414C82.3962 110.522 82.1491 110.584 81.899 110.6C81.5352 110.624 81.2571 110.563 81.0647 110.415C80.639 110.192 80.3695 109.742 80.2564 109.064C80.16 108.294 80.2788 107.499 80.6129 106.677C80.909 105.973 81.2536 105.311 81.6466 104.691C82.0382 104.049 82.4767 103.426 82.9622 102.823C84.1046 101.446 85.4287 100.4 86.9343 99.684C87.3119 99.5221 87.6803 99.395 88.0396 99.3029C88.4216 99.2092 88.8074 99.1723 89.197 99.1923C89.7244 99.2261 90.1244 99.4053 90.397 99.7298C90.5909 99.8997 90.7339 100.164 90.8261 100.524C90.8411 100.751 90.775 100.961 90.6278 101.153C90.5034 101.344 90.3047 101.449 90.0319 101.467C89.85 101.479 89.6666 101.468 89.4817 101.434C88.8983 101.244 88.1403 101.351 87.2079 101.755C84.7302 102.969 82.9182 104.927 81.7717 107.628C81.5408 108.283 81.5442 108.854 81.7818 109.341L81.8841 109.334C82.1994 109.267 82.3571 109.234 82.3571 109.234C82.6437 109.078 82.8848 108.925 83.0804 108.775C83.2746 108.603 83.4573 108.431 83.6288 108.26C83.8426 108.04 84.1096 107.76 84.4297 107.419C84.7725 107.077 85.1904 106.661 85.6834 106.172C85.8503 105.932 85.9975 105.74 86.1249 105.595C86.2751 105.448 86.404 105.325 86.5117 105.227L87.1534 104.568C87.5812 104.129 87.9445 103.751 88.2433 103.434C88.5422 103.118 88.7993 102.861 89.0147 102.664C89.356 102.299 89.6896 102.163 90.0154 102.256C90.2912 102.283 90.5593 102.539 90.8196 103.025C90.8741 103.158 90.9444 103.359 91.0306 103.627C91.0608 103.739 91.079 103.841 91.0849 103.932C91.3633 104.69 91.8281 105.333 92.4795 105.861C94.6486 107.591 97.0008 107.938 99.5359 106.903C100.605 106.49 101.634 106 102.625 105.432C103.638 104.863 104.61 104.205 105.543 103.459C105.739 103.309 105.999 103.098 106.323 102.825C106.671 102.551 107.071 102.216 107.525 101.821C107.679 101.742 107.887 101.603 108.148 101.403C108.254 101.282 108.362 101.184 108.471 101.108C108.601 101.008 108.721 100.909 108.828 100.81C108.937 100.735 109.035 100.66 109.122 100.585C109.207 100.489 109.304 100.414 109.415 100.361C109.523 100.262 109.643 100.174 109.775 100.097C109.907 100.02 110.039 99.9541 110.173 99.8996C110.35 99.8194 110.524 99.8537 110.693 100.002ZM133.636 98.7646C133.734 98.8723 133.766 99.0072 133.731 99.1694C133.717 99.3073 133.647 99.449 133.519 99.5944C133.392 99.7398 133.274 99.8617 133.166 99.9602C133.059 100.059 132.95 100.146 132.841 100.221L131.342 101.382C130.257 102.253 129.346 102.975 128.607 103.549C127.89 104.099 127.337 104.546 126.949 104.891C125.643 105.868 124.191 106.706 122.593 107.405C121.908 107.747 121.206 108.01 120.487 108.194C119.791 108.377 119.081 108.515 118.356 108.609C118.194 108.574 117.987 108.553 117.736 108.547C117.416 108.545 117.142 108.541 116.913 108.533C116.705 108.501 116.52 108.467 116.358 108.432C114.967 108.113 113.89 107.373 113.129 106.213C112.367 105.053 112.086 103.736 112.286 102.261C112.578 100.803 113.133 99.5219 113.951 98.4175C114.837 97.3087 115.956 96.6184 117.309 96.3466C118.776 96.09 119.861 96.6123 120.563 97.9133C120.766 98.2197 120.861 98.6244 120.849 99.1276C120.783 99.8627 120.41 100.264 119.729 100.332L119.695 100.334C118.967 100.382 118.535 100.057 118.398 99.3577C118.372 99.3137 118.357 99.2576 118.352 99.1894C118.348 99.1212 118.343 99.053 118.339 98.9848L118.328 98.8142C118.281 98.4519 118.074 98.26 117.707 98.2385C117.594 98.246 117.458 98.2664 117.3 98.2996C117.141 98.3101 116.971 98.3327 116.791 98.3674C116.568 98.4506 116.371 98.5778 116.199 98.7489C114.765 99.8482 113.969 101.294 113.813 103.085C113.776 104.252 114.138 105.245 114.9 106.062C115.709 106.899 116.741 107.311 117.996 107.297C119.184 107.31 120.523 107.005 122.012 106.381C123.721 105.629 125.369 104.653 126.957 103.452C127.304 103.178 127.717 102.854 128.194 102.48C128.672 102.106 129.192 101.684 129.755 101.213C129.843 101.161 129.92 101.11 129.985 101.06C130.071 100.986 130.168 100.9 130.276 100.801C130.384 100.703 130.482 100.628 130.569 100.577C130.679 100.501 130.755 100.439 130.797 100.39C130.883 100.316 130.992 100.229 131.122 100.129C131.275 100.028 131.449 99.8906 131.643 99.718C131.883 99.5424 132.067 99.3932 132.196 99.2705C132.348 99.1463 132.467 99.0472 132.553 98.973C132.749 98.823 132.958 98.7065 133.181 98.6233C133.313 98.5461 133.465 98.5932 133.636 98.7646ZM178.408 95.6088C178.487 95.7635 178.508 95.9105 178.472 96.05C178.431 96.1212 178.337 96.2643 178.192 96.4795C177.852 96.8672 177.587 97.1815 177.398 97.4224C177.208 97.6632 177.059 97.8329 176.952 97.9313C176.632 98.2721 176.226 98.6985 175.734 99.2104C175.264 99.6981 174.708 100.271 174.066 100.93C173.96 101.051 173.811 101.221 173.62 101.439C173.428 101.635 173.192 101.867 172.913 102.137C172.38 102.72 171.974 103.146 171.695 103.416C171.245 103.856 170.814 104.25 170.403 104.597C169.992 104.944 169.589 105.244 169.195 105.499C168.952 105.629 168.72 105.747 168.499 105.853C168.278 105.959 168.067 106.053 167.867 106.134C166.554 106.655 165.303 106.554 164.113 105.834C163.803 105.626 163.514 105.405 163.248 105.171C162.981 104.938 162.714 104.704 162.448 104.47C161.224 103.227 160.234 101.716 159.477 99.9391L159.355 99.6389C159.306 99.5964 159.269 99.5418 159.241 99.4751C159.237 99.4069 159.209 99.3288 159.157 99.2409C159.13 99.1742 159.103 99.1075 159.076 99.0407C159.048 98.974 159.022 98.9187 158.996 98.8747C158.582 99.5186 158.322 99.9011 158.216 100.022C157.659 100.927 157.203 101.642 156.85 102.167C156.495 102.67 156.266 103.005 156.162 103.172C156.061 103.361 155.903 103.566 155.689 103.785C155.474 103.982 155.216 104.228 154.915 104.521C154.554 104.933 154.137 105.189 153.664 105.289C152.9 105.476 152.371 105.249 152.078 104.606C151.919 104.274 151.825 103.892 151.797 103.46C151.722 102.665 151.832 101.745 152.129 100.697C152.147 100.628 152.236 100.245 152.395 99.5494C152.305 99.5554 152.235 99.5372 152.186 99.4947C152.141 99.4977 152.045 99.5954 151.897 99.7878C151.591 99.9906 151.23 100.231 150.815 100.51C150.422 100.787 149.975 101.113 149.475 101.489C148.974 101.864 148.496 102.227 148.039 102.577C147.581 102.904 147.145 103.218 146.731 103.519C146.296 103.845 145.882 104.146 145.489 104.423C145.096 104.7 144.715 104.977 144.345 105.252C144.084 105.452 143.745 105.68 143.328 105.936C142.909 106.169 142.414 106.453 141.843 106.787C141.511 106.946 141.177 107.082 140.842 107.196C140.507 107.309 140.158 107.389 139.796 107.436C137.983 107.647 136.722 106.885 136.014 105.15C135.763 104.459 135.603 103.579 135.532 102.51C135.432 100.987 135.635 99.3865 136.141 97.709C136.165 97.3876 136.293 97.0823 136.526 96.793C136.626 96.5809 136.797 96.4097 137.04 96.2796C137.238 96.1751 137.452 96.1268 137.681 96.1345C137.866 96.168 138.032 96.2599 138.179 96.41C138.376 96.6254 138.479 96.8127 138.49 96.9718C138.511 97.2902 138.446 97.6941 138.296 98.1835C138.057 99.067 137.881 99.8664 137.769 100.582C137.656 101.297 137.595 101.929 137.585 102.478C137.569 103.278 137.616 103.983 137.725 104.592C137.898 105.837 138.654 106.392 139.992 106.258C140.447 106.228 140.919 106.106 141.407 105.891C141.76 105.708 142.113 105.525 142.467 105.342C142.82 105.159 143.173 104.964 143.524 104.758C146.333 103.02 149.524 100.675 153.097 97.722C153.354 97.4539 153.616 97.1055 153.885 96.6767C154.194 96.1768 154.517 95.7102 154.854 95.277C155.191 94.8437 155.542 94.4552 155.908 94.1114C156.119 93.8463 156.377 93.6123 156.684 93.4095C156.794 93.3565 156.894 93.3043 156.982 93.2528C157.092 93.1998 157.214 93.1461 157.348 93.0917C157.748 92.9283 158.108 93.0187 158.428 93.3631C158.724 93.7089 158.727 94.0969 158.436 94.5271C158.436 94.5271 158.255 94.7332 157.894 95.1452C156.183 97.2446 154.921 99.5885 154.11 102.177C154.011 102.412 153.946 102.633 153.914 102.84C153.882 103.048 153.861 103.244 153.85 103.427C154.326 103.03 154.576 102.831 154.598 102.83C154.976 102.325 155.292 101.916 155.545 101.603C155.797 101.266 155.974 101.003 156.075 100.814C156.182 100.693 156.377 100.36 156.661 99.8165C156.967 99.271 157.387 98.5355 157.92 97.6098C157.942 97.6083 158.015 97.5007 158.138 97.2871C158.178 97.1931 158.219 97.1219 158.261 97.0734C158.302 97.0022 158.344 96.9424 158.386 96.8939C158.59 96.5152 158.886 96.3358 159.276 96.3558C159.641 96.3545 159.938 96.5291 160.166 96.8794C160.218 96.9673 160.283 97.0886 160.362 97.2433C160.439 97.3752 160.53 97.5405 160.634 97.7392C160.687 97.8499 160.729 97.9613 160.759 98.0735C160.789 98.1857 160.831 98.2971 160.884 98.4078C160.968 98.6534 161.075 98.8862 161.204 99.106C161.257 99.2167 161.298 99.3282 161.329 99.4404C161.38 99.5283 161.432 99.6276 161.485 99.7383C162.128 101.18 162.904 102.385 163.813 103.353C164.158 103.741 164.535 104.082 164.942 104.375C165.686 104.919 166.502 105.003 167.391 104.624C167.679 104.491 167.944 104.359 168.187 104.229C168.45 104.075 168.691 103.911 168.908 103.736C170.433 102.631 171.699 101.566 172.705 100.54C173.175 100.053 173.699 99.5158 174.277 98.9297C174.876 98.3193 175.552 97.6582 176.304 96.9464C176.474 96.7525 176.656 96.5692 176.85 96.3966C177.043 96.2012 177.247 96.0051 177.463 95.8082C177.637 95.6825 177.813 95.5796 177.99 95.4994C178.102 95.4691 178.242 95.5056 178.408 95.6088ZM138.823 92.6682C138.526 92.6649 138.233 92.5472 137.943 92.3151C137.718 92.0103 137.608 91.732 137.614 91.4804C137.639 91.1591 137.748 90.9121 137.942 90.7395C138.133 90.5214 138.388 90.4018 138.706 90.3808C139.002 90.3614 139.249 90.4707 139.447 90.7088C139.688 90.8985 139.819 91.1524 139.84 91.4708C139.813 91.7466 139.705 92.0163 139.517 92.2799C139.304 92.5223 139.073 92.6517 138.823 92.6682ZM203.604 94.2569C203.866 94.4223 203.96 94.633 203.886 94.8891C203.867 94.9589 203.841 95.0748 203.806 95.2369C203.771 95.3991 203.716 95.6082 203.642 95.8643C203.146 97.3585 202.558 99.0071 201.878 100.81C201.219 102.589 200.446 104.547 199.559 106.684C197.494 111.729 195.66 116.132 194.058 119.891C193.862 120.384 193.644 120.878 193.402 121.373C193.161 121.869 192.897 122.377 192.612 122.898C192.428 123.23 192.22 123.54 191.988 123.83C191.779 124.118 191.523 124.397 191.222 124.668C189.935 125.94 188.557 125.997 187.088 124.838C186.8 124.628 186.532 124.372 186.284 124.069C186.037 123.788 185.774 123.44 185.496 123.024C185.146 122.568 184.826 122.052 184.537 121.478C184.271 120.901 183.99 120.281 183.695 119.615C182.688 117.147 181.886 114.333 181.289 111.176C180.589 107.134 180.254 102.212 180.282 96.4102C180.312 92.7088 180.497 88.9287 180.837 85.0699C181.175 81.1884 181.643 77.2069 182.242 73.1255C182.377 72.4087 182.5 71.6699 182.61 70.909C182.718 70.1255 182.837 69.3298 182.966 68.522C183.225 66.9065 183.517 65.106 183.843 63.1206C184.006 62.128 184.143 61.2626 184.255 60.5245C184.387 59.7622 184.504 59.1151 184.606 58.5831C184.637 58.3527 184.665 58.0883 184.691 57.7897C184.738 57.4669 184.794 57.1092 184.86 56.7167C184.948 56.3227 185.006 55.9877 185.034 55.7119C185.084 55.4345 185.127 55.2262 185.164 55.0867C185.193 54.8336 185.224 54.6146 185.257 54.4298C185.312 54.2206 185.356 54.0236 185.39 53.8387C185.484 53.5356 185.592 53.2773 185.715 53.0637C186.025 52.5637 186.431 52.3086 186.932 52.2984C187.413 52.3124 187.817 52.5598 188.146 53.0405C188.249 53.2164 188.328 53.3825 188.384 53.5386C188.463 53.6933 188.532 53.8714 188.591 54.0731C188.687 54.5006 188.758 54.8728 188.801 55.1896C188.845 55.5064 188.874 55.7671 188.887 55.9718C188.922 56.4947 188.945 57.0184 188.956 57.5429C188.967 58.0446 188.956 58.5705 188.923 59.1207C188.893 59.3511 188.852 59.5936 188.8 59.8482C188.747 60.0801 188.672 60.3248 188.574 60.5824C188.359 61.1218 188.117 61.446 187.851 61.5549C187.587 61.7093 187.132 61.7393 186.486 61.6448C186.468 61.7145 186.443 61.8532 186.411 62.0608C186.378 62.2457 186.337 62.4996 186.29 62.8224C186.199 63.171 186.127 63.4725 186.075 63.7271C186.045 63.9575 186.013 64.1651 185.98 64.35C185.495 67.3963 185.05 70.5199 184.645 73.7208C184.262 76.9202 183.907 80.2091 183.582 83.5874C183.484 84.5301 183.397 85.632 183.32 86.893C183.244 88.154 183.178 89.5856 183.124 91.1877C183.041 92.7003 182.974 94.1091 182.923 95.4141C182.894 96.7176 182.882 97.9173 182.886 99.0132C182.867 101.504 182.944 103.885 183.117 106.157C183.289 108.429 183.56 110.627 183.928 112.749C184.131 114.106 184.397 115.367 184.725 116.533C185.055 117.721 185.436 118.827 185.869 119.849C186.008 120.228 186.183 120.627 186.393 121.047C186.603 121.467 186.839 121.931 187.101 122.439C187.227 122.613 187.365 122.799 187.515 122.994C187.664 123.19 187.848 123.383 188.067 123.574C188.801 124.325 189.589 124.33 190.431 123.59C190.604 123.441 190.765 123.282 190.914 123.113C191.064 122.966 191.19 122.798 191.291 122.608C191.75 121.939 192.101 121.379 192.345 120.929C192.682 120.153 192.991 119.459 193.27 118.847C193.549 118.235 193.777 117.706 193.953 117.261C194.284 116.394 194.636 115.491 195.008 114.554C195.382 113.638 195.764 112.688 196.156 111.703C196.546 110.696 196.946 109.653 197.354 108.576C197.784 107.474 198.233 106.314 198.701 105.096C199.147 103.902 199.557 102.836 199.929 101.898C200.301 100.96 200.613 100.152 200.865 99.4727C201.024 99.1196 201.242 98.6029 201.516 97.9226C201.813 97.218 202.166 96.3384 202.576 95.2837C202.632 95.0974 202.69 94.9451 202.751 94.8269C202.835 94.7072 202.896 94.6004 202.936 94.5065C203.099 94.2216 203.322 94.1384 203.604 94.2569ZM375.139 1.4297C375.969 1.90021 376.078 2.52099 375.467 3.29203C375.042 3.77674 374.456 4.06655 373.709 4.16146C372.981 4.20941 372.385 3.9975 371.92 3.52575C371.823 3.4408 371.725 3.34447 371.627 3.23678C371.527 3.10635 371.448 2.95169 371.391 2.77278C371.389 2.75005 371.361 2.6606 371.305 2.50443C371.271 2.34677 371.223 2.13302 371.16 1.86317C370.838 1.83867 370.586 1.82104 370.402 1.81029C370.219 1.79954 370.116 1.79491 370.093 1.79641C369.293 1.78064 368.358 1.80796 367.29 1.87838C366.22 1.92606 365.039 2.0267 363.747 2.18032C361.549 2.43933 359.264 2.76118 356.892 3.14587C354.519 3.53056 352.049 3.9902 349.481 4.52479C348.806 4.68342 347.772 4.92287 346.377 5.24313C344.982 5.5634 343.195 5.98946 341.015 6.52132C339.869 6.80236 338.768 7.08041 337.713 7.35546C336.679 7.60628 335.691 7.8541 334.748 8.09892C333.668 8.35274 332.568 8.64215 331.448 8.96717C330.328 9.2922 329.151 9.63233 327.919 9.98758C326.976 10.2324 325.978 10.5151 324.926 10.8356C323.895 11.1319 322.775 11.4683 321.567 11.8448C320.045 12.3104 318.691 12.7308 317.505 13.1058C316.318 13.458 315.288 13.7657 314.415 14.0287C313.296 14.3765 311.965 14.8067 310.424 15.3194C308.882 15.832 307.106 16.4286 305.095 17.1091C305.05 17.1121 304.67 17.2399 303.956 17.4925C303.263 17.7208 302.224 18.0747 300.84 18.5541C300.714 18.7223 300.64 19.1497 300.616 19.8363C300.395 24.4409 300.217 28.3347 300.084 31.5176C299.952 34.7006 299.878 37.2174 299.863 39.0681C299.851 39.9366 299.852 41.5008 299.864 43.7608C299.874 45.998 299.886 48.9545 299.9 52.6301C299.899 53.3152 299.899 54.1716 299.898 55.1993C299.918 56.2027 299.939 57.3774 299.959 58.7234C299.958 60.0936 299.957 61.2926 299.956 62.3203C299.954 63.3252 299.952 64.1588 299.95 64.8212C299.978 65.9383 300.003 69.9558 300.025 76.8736C300.03 85.962 300.023 91.0548 300.004 92.1522C299.991 95.076 299.977 98.1598 299.962 101.403C299.946 104.624 299.92 108.04 299.884 111.65C299.882 112.313 299.867 113.125 299.839 114.085C299.835 115.068 299.821 116.233 299.795 117.582C299.769 118.908 299.742 120.063 299.715 121.047C299.713 122.052 299.712 122.897 299.711 123.582C299.685 123.881 299.694 126.609 299.737 131.767C299.726 132.293 299.714 132.636 299.702 132.797C299.703 133.162 299.522 133.357 299.158 133.381C298.75 133.431 298.499 133.253 298.404 132.848C298.376 132.782 298.358 132.68 298.349 132.544C298.209 129.379 298.103 127.239 298.029 126.125C298.005 125.761 297.978 125.352 297.948 124.897C297.941 124.441 297.919 123.929 297.881 123.36C297.866 122.79 297.842 122.244 297.807 121.721C297.796 121.196 297.773 120.673 297.738 120.15C297.728 119.648 297.708 119.17 297.678 118.715C297.671 118.259 297.653 117.815 297.624 117.383C297.533 115.653 297.445 114.14 297.36 112.844C297.298 111.57 297.228 110.501 297.148 109.639C296.902 106.595 296.6 103.749 296.243 101.1C295.907 98.428 295.491 95.932 294.996 93.6125C294.606 91.857 294.186 90.1606 293.736 88.5232C293.307 86.8617 292.836 85.2599 292.323 83.718C291.239 80.4326 290.021 77.3729 288.67 74.539C287.341 71.7035 285.865 69.0491 284.24 66.5757C283.224 65.0213 282.073 63.4986 280.788 62.0077C275.722 56.1758 269.327 52.521 261.602 51.0432C260.076 50.7556 258.464 50.5422 256.765 50.4029C255.087 50.2394 253.311 50.1509 251.438 50.1374C249.861 50.1271 248.312 50.1721 246.788 50.2725C245.263 50.3501 243.763 50.4604 242.289 50.6032C240.588 50.7838 238.981 51.0039 237.468 51.2634C235.955 51.523 234.535 51.8106 233.209 52.1264C232.267 52.3939 231.55 52.5897 231.055 52.7136C230.561 52.8375 230.291 52.9009 230.246 52.9039C229.862 52.9749 229.524 53.0428 229.232 53.1078C228.937 53.15 228.677 53.1786 228.449 53.1936C228.04 53.2205 227.781 53.1006 227.672 52.8338C227.519 52.5926 227.545 52.2941 227.75 51.938C227.875 51.7471 228.001 51.5903 228.13 51.4677C228.258 51.3223 228.396 51.1761 228.547 51.0292C229.068 50.6294 229.535 50.2675 229.948 49.9435C230.36 49.6194 230.741 49.3317 231.09 49.0804C232.443 48.1235 233.942 47.1341 235.587 46.1123C237.255 45.0889 239.068 44.0103 241.026 42.8766C245.055 40.6015 249.291 38.3471 253.734 36.1133C258.176 33.8795 262.894 31.6618 267.887 29.4603C271.637 27.7973 275.525 26.1482 279.55 24.5128C283.597 22.8531 287.826 21.1815 292.236 19.4979C292.282 19.4949 292.727 19.3285 293.573 18.9987C294.419 18.6689 295.701 18.1849 297.417 17.5466C297.412 17.4784 297.405 17.3647 297.394 17.2055C297.407 17.0449 297.415 16.8274 297.42 16.553C297.449 16.2999 297.457 16.0824 297.445 15.9005C297.455 15.6944 297.465 15.511 297.478 15.3503C297.538 13.4966 297.582 12.0779 297.608 11.0942C297.633 10.0878 297.651 9.4929 297.662 9.30951C297.671 8.76082 297.762 8.05835 297.934 7.20209C298.021 6.78533 298.134 6.42392 298.274 6.11784C298.667 5.49821 299.216 5.16517 299.921 5.11873C300.604 5.09652 301.171 5.37888 301.621 5.96581C302.073 6.59822 302.296 7.37142 302.287 8.2854C302.305 9.24336 302.081 10.0117 301.617 10.5903C301.28 11.0236 301.095 11.5039 301.061 12.0313C301.05 12.2147 301.04 12.3981 301.029 12.5815C301.041 12.7634 301.031 12.9582 300.999 13.1658C300.965 13.3507 300.945 13.5576 300.937 13.7865C300.951 13.9911 300.941 14.1972 300.909 14.4049C300.88 14.658 300.86 14.8762 300.85 15.0596C300.862 15.2415 300.85 15.4135 300.815 15.5757L300.899 16.3238C301.011 16.2936 301.179 16.2482 301.404 16.1878C301.626 16.1046 301.927 15.9934 302.306 15.8542C306.263 14.5659 309.27 13.5799 311.326 12.8964C313.382 12.2129 314.499 11.8424 314.678 11.7849C316.535 11.2058 318.405 10.6487 320.288 10.1136C322.17 9.55572 324.086 9.00698 326.037 8.46737C327.18 8.14085 328.593 7.75088 330.276 7.29745C331.959 6.84403 333.957 6.32415 336.27 5.73783C337.774 5.34186 339.168 4.99886 340.45 4.70883C341.731 4.39606 342.911 4.11276 343.991 3.85895C347.57 3.07504 350.907 2.42129 354.001 1.89771C357.116 1.3499 360.023 0.930003 362.721 0.638026C365.418 0.323312 367.519 0.150619 369.024 0.119946C370.438 0.0952669 371.644 0.198506 372.641 0.429665C373.104 0.536123 373.536 0.678934 373.936 0.858098C374.358 1.01303 374.758 1.20356 375.139 1.4297ZM296.999 34.0844C297.013 33.9465 297.129 29.463 297.346 20.6341L297.263 19.886L296.085 20.2034C293.055 21.3621 290.694 22.2599 289 22.8967C287.305 23.5108 286.257 23.8882 285.855 24.0288C281.357 25.7639 277.062 27.4741 272.971 29.1595C268.903 30.8434 264.995 32.5281 261.247 34.2138C257.299 35.9811 253.7 37.6798 250.45 39.3097C247.222 40.9154 244.298 42.4554 241.677 43.9297C237.47 46.2623 234.153 48.262 231.728 49.9289C231.51 50.0803 230.726 50.6572 229.376 51.6596C229.135 51.8125 229.066 51.9883 229.171 52.1869C229.598 52.0903 229.835 52.0404 229.88 52.0374C230.061 52.0027 230.353 51.9264 230.756 51.8085C231.182 51.689 231.754 51.5372 232.473 51.3528C233.707 51.0203 234.967 50.7317 236.252 50.4872C237.538 50.2426 238.848 50.0307 240.184 49.8513C243.554 49.3552 247.032 49.126 250.62 49.1636C252.515 49.153 254.346 49.215 256.113 49.3497C257.88 49.4845 259.606 49.6904 261.292 49.9676C270.37 51.5388 277.764 55.9727 283.474 63.2693C284.673 64.8345 285.786 66.4738 286.813 68.1874C287.837 69.8782 288.801 71.6759 289.703 73.5803C291.184 76.6569 292.474 79.9402 293.572 83.4303C294.668 86.8976 295.609 90.6149 296.396 94.5822C296.736 96.2725 297.015 97.9097 297.233 99.4938C297.473 101.054 297.664 102.56 297.805 104.012C297.811 104.103 297.864 104.385 297.964 104.858C297.991 104.924 298.027 104.956 298.073 104.953C298.085 104.108 298.092 103.685 298.092 103.685C298.11 103.272 298.112 102.781 298.098 102.211C298.106 101.64 298.108 100.989 298.106 100.258C298.032 95.6732 297.976 91.8748 297.937 88.863C297.897 85.8284 297.872 83.5465 297.863 82.0171C297.829 80.4665 297.798 78.95 297.769 77.4676C297.74 75.9852 297.7 74.5149 297.649 73.0567C297.642 72.6004 297.634 72.1328 297.625 71.6539C297.617 71.1749 297.606 70.6732 297.595 70.1487C297.583 69.6243 297.559 69.0892 297.523 68.5435C297.508 67.9736 297.493 67.3923 297.477 66.7996C297.472 65.681 297.443 64.7238 297.39 63.928C297.336 61.3739 297.281 59.3223 297.225 57.7732C297.168 56.2241 297.143 55.1525 297.15 54.5583C297.133 52.9152 297.113 51.398 297.09 50.0065C297.066 48.615 297.039 47.338 297.008 46.1754C297.001 43.2986 296.989 40.8559 296.971 38.8476C296.975 36.8377 296.985 35.25 296.999 34.0844ZM342.065 82.1531C342.189 82.3047 342.243 82.4382 342.228 82.5533C342.106 83.1323 341.714 83.5806 341.049 83.8984C340.625 84.0406 340.165 84.1622 339.669 84.2634C339.33 84.3086 338.719 84.3945 337.836 84.5212C336.953 84.6251 335.787 84.7818 334.339 84.9914C334.248 84.9974 334.147 85.0269 334.037 85.0798L333.764 85.0978C331.754 85.4358 330.28 86.4578 329.342 88.1638C328.912 88.9228 328.533 89.7585 328.205 90.6707C327.9 91.5814 327.623 92.5816 327.375 93.6712C326.936 95.664 326.726 97.5047 326.746 99.1933C326.729 99.2857 326.714 99.4009 326.7 99.5388C326.708 99.6525 326.729 99.7996 326.763 99.98C326.775 100.162 326.786 100.321 326.795 100.457C326.827 100.592 326.845 100.694 326.849 100.762C326.841 100.991 326.832 101.197 326.821 101.381C326.811 101.564 326.798 101.725 326.785 101.863C326.698 102.279 326.427 102.503 325.973 102.533C325.586 102.558 325.313 102.393 325.152 102.039C325.076 101.929 324.999 101.797 324.921 101.643C324.865 101.487 324.809 101.33 324.753 101.174C324.195 98.9503 323.733 96.9598 323.366 95.2028C322.997 93.423 322.734 91.8533 322.576 90.4935C322.228 87.6392 322.196 85.2549 322.481 83.3407C322.527 82.9952 322.574 82.661 322.621 82.3382C322.691 82.0139 322.761 81.6896 322.831 81.3652C322.89 81.2243 322.96 81.0713 323.04 80.9061C323.121 80.741 323.212 80.5637 323.314 80.3743C323.603 79.9213 323.994 79.7814 324.485 79.9546C324.926 80.0626 325.162 80.3553 325.193 80.8328C325.205 81.0147 325.219 81.2193 325.234 81.4467C325.249 81.674 325.243 81.937 325.217 82.2356C325.21 82.4645 325.206 82.7615 325.208 83.1268C325.23 83.4679 325.234 83.8673 325.218 84.325C325.225 84.7813 325.229 85.1807 325.228 85.5232C325.227 85.843 325.221 86.106 325.212 86.3122C325.232 87.6581 325.423 90.0319 325.784 93.4335L325.9 93.6314C325.989 93.6027 326.1 93.3784 326.232 92.9587C326.453 92.1449 326.668 91.4228 326.877 90.7924C327.085 90.1393 327.31 89.565 327.552 89.0696C327.795 88.5968 328.028 88.159 328.253 87.756C328.476 87.3302 328.714 86.9492 328.965 86.6129C329.947 85.2237 331.299 84.4267 333.021 84.2219C333.699 84.1087 334.422 83.9926 335.19 83.8734C335.598 83.8237 336.006 83.774 336.414 83.7243C336.821 83.6746 337.24 83.6128 337.669 83.5388C338.121 83.4634 338.528 83.4023 338.89 83.3556C339.251 83.2862 339.589 83.2182 339.904 83.1518C340.695 83.0311 341.247 82.7436 341.56 82.2891C341.58 82.2421 341.634 82.1929 341.721 82.1414C341.834 82.1112 341.948 82.1151 342.065 82.1531ZM394.733 80.2925C395.006 80.2745 395.129 80.4148 395.103 80.7134C395.103 81.0559 395.064 81.3325 394.987 81.5432C394.906 81.7083 394.803 81.875 394.677 82.0431C394.572 82.187 394.446 82.3552 394.299 82.5476C393.577 83.3716 392.84 84.1395 392.087 84.8513C391.335 85.5631 390.546 86.2431 389.721 86.8912C389.288 87.2394 388.85 87.5309 388.409 87.7655C387.967 88.0001 387.489 88.1915 386.974 88.3396C385.335 88.7673 383.866 88.4873 382.568 87.4995C382.233 87.2704 381.908 87.0064 381.591 86.7076C381.296 86.3845 380.985 86.0053 380.66 85.57C379.809 84.4387 379.124 83.2278 378.605 81.9375C378.579 81.8936 378.54 81.8162 378.487 81.7055C378.432 81.5721 378.364 81.394 378.28 81.1711C378.144 81.1801 378.055 81.2088 378.012 81.2573C377.991 81.2815 377.949 81.3413 377.887 81.4368C377.846 81.508 377.806 81.6019 377.768 81.7186C377.726 81.7671 377.623 81.9451 377.461 82.2527C377.299 82.5602 377.053 82.9875 376.723 83.5344C376.374 84.1283 376.066 84.6396 375.797 85.0684C375.55 85.4729 375.333 85.8297 375.148 86.1388C375.025 86.3524 374.827 86.6395 374.554 87C374.281 87.3605 373.933 87.8059 373.512 88.3361C373.066 88.845 372.609 89.1948 372.142 89.3854C371.298 89.7379 370.634 89.5419 370.151 88.7973C369.944 88.4227 369.814 88.0089 369.761 87.5556C369.599 86.8355 369.54 86.1087 369.583 85.3751C369.649 84.64 369.783 83.9004 369.985 83.1564C369.983 83.1336 370.021 83.0169 370.099 82.8063C370.175 82.573 370.266 82.2244 370.372 81.7607C370.069 82.009 369.841 82.1839 369.688 82.2853C369.534 82.3868 369.446 82.4383 369.424 82.4398C369.231 82.6351 368.95 82.882 368.582 83.1803C368.236 83.4771 367.793 83.8603 367.253 84.3297C366.688 84.7552 366.199 85.1413 365.788 85.4881C365.376 85.8122 365.018 86.1097 364.717 86.3808C362.528 88.1692 360.382 89.5666 358.279 90.5729C357.021 91.2268 355.896 91.6549 354.904 91.8572C354.295 91.9659 353.716 92.0154 353.167 92.0059C352.617 91.9737 352.084 91.8603 351.569 91.6659C350.023 91.0827 348.987 90.0777 348.459 88.651C348.407 88.5631 348.366 88.463 348.336 88.3508C348.282 88.2174 348.226 88.0726 348.17 87.9164L348.06 86.7591C348.071 86.2331 348.129 85.7269 348.234 85.2404C348.315 84.7327 348.454 84.2554 348.653 83.8084C349.249 82.4447 350.208 81.4109 351.532 80.7071C352.085 80.4423 352.535 80.3328 352.88 80.3785C353.365 80.4607 353.733 80.6649 353.983 80.991C354.21 81.3185 354.281 81.7021 354.195 82.1416C354.139 82.328 354.06 82.5158 353.959 82.7052C353.878 82.8704 353.788 83.059 353.688 83.2712C353.461 83.6514 353.211 84.0105 352.936 84.3483C352.66 84.6633 352.314 84.9601 351.899 85.2387C351.835 85.3114 351.629 85.4734 351.28 85.7248C350.954 85.9746 350.498 86.3358 349.913 86.8082C349.771 87.7767 349.964 88.6203 350.491 89.3392C350.971 90.0383 351.687 90.5163 352.64 90.7732C353.525 91.0346 354.517 91.0149 355.617 90.7141C355.999 90.6204 356.413 90.5018 356.861 90.3581C357.306 90.1917 357.783 89.9776 358.291 89.7158C359.086 89.2981 359.9 88.8334 360.734 88.3217C361.568 87.81 362.432 87.2279 363.325 86.5753C364.569 85.6941 367.061 83.6687 370.803 80.4992C370.973 80.3053 371.215 79.9925 371.529 79.5607C371.963 78.8699 372.433 78.1995 372.938 77.5497C373.466 76.8983 374.042 76.2894 374.667 75.723C375.288 75.0884 375.932 74.6463 376.601 74.3967C376.757 74.3408 376.902 74.2856 377.035 74.2311C377.191 74.1751 377.36 74.1412 377.542 74.1292C377.997 74.0992 378.308 74.3071 378.474 74.7529C378.637 75.1531 378.603 75.4979 378.371 75.7873C378.26 75.8402 378.196 75.9016 378.178 75.9713C378.134 75.997 378.069 76.0583 377.984 76.1553C377.942 76.2038 377.91 76.2401 377.889 76.2643C377.867 76.2886 377.847 76.3242 377.827 76.3712C376.975 77.2951 376.325 78.0115 375.879 78.5205C375.432 79.0067 375.176 79.2861 375.112 79.3589C373.548 81.266 372.375 83.741 371.594 86.784C371.579 86.8992 371.563 87.0144 371.548 87.1295C371.533 87.2447 371.519 87.3827 371.507 87.5433C371.516 87.6797 371.504 87.8518 371.472 88.0594L372.08 87.9166C372.359 87.647 372.595 87.4259 372.79 87.2533C373.005 87.0564 373.187 86.8731 373.336 86.7035C374.058 85.8795 374.704 84.9463 375.275 83.9039C375.354 83.716 375.434 83.5395 375.514 83.3743C375.594 83.2092 375.685 83.0205 375.785 82.8084C375.887 82.619 375.977 82.4304 376.056 82.2425C376.156 82.0304 376.257 81.8296 376.359 81.6402C376.482 81.4266 376.583 81.2372 376.664 81.0721C376.743 80.8842 376.823 80.7077 376.903 80.5425C377.167 80.0455 377.384 79.7001 377.554 79.5062C377.741 79.2199 377.983 79.0897 378.282 79.1157C378.556 79.1205 378.781 79.2427 378.957 79.4823C379.033 79.5915 379.122 79.734 379.225 79.91C379.326 80.0631 379.418 80.2398 379.5 80.4399C379.606 80.6613 379.742 80.9949 379.908 81.4406C379.99 81.6408 380.059 81.8189 380.115 81.9751C380.171 82.1312 380.224 82.2533 380.276 82.3412C380.569 82.9841 380.883 83.5801 381.216 84.129C381.549 84.678 381.914 85.1906 382.31 85.6668C382.509 85.9049 382.706 86.1317 382.903 86.3471C383.121 86.5382 383.339 86.718 383.555 86.8864C384.637 87.7057 385.833 87.8325 387.143 87.2666C387.387 87.1592 387.608 87.0532 387.807 86.9488C388.027 86.8201 388.224 86.693 388.398 86.5673C388.94 86.1206 389.448 85.6875 389.923 85.268C390.397 84.8485 390.849 84.4305 391.279 84.014C391.605 83.7641 392.31 83.0326 393.395 81.8193C393.864 81.3089 394.168 80.9006 394.307 80.5945C394.364 80.4081 394.505 80.3075 394.733 80.2925ZM351.453 82.6306C350.638 83.4378 350.151 84.3605 349.991 85.3987C350.103 85.3684 350.205 85.3503 350.296 85.3443C351.215 84.7357 351.905 84.1193 352.366 83.4952C352.427 83.377 352.519 83.2111 352.642 82.9975C352.788 82.7824 352.941 82.5097 353.102 82.1794L353.038 81.7382C352.564 81.8152 352.036 82.1126 351.453 82.6306ZM433.577 52.1453C433.971 52.2335 434.181 52.4709 434.206 52.8574C434.22 53.062 434.173 53.2249 434.067 53.3461C433.981 53.4203 433.905 53.4824 433.84 53.5324C433.775 53.5823 433.686 53.6224 433.574 53.6527C433.44 53.7071 433.224 53.7214 432.926 53.6954C432.607 53.7163 432.232 53.7411 431.8 53.7695C431.389 53.7738 430.91 53.7825 430.363 53.7957C426.13 54.0062 423.933 54.1166 423.774 54.1271C420.883 54.2719 417.712 54.4923 414.261 54.7883C410.808 55.0615 407.018 55.4254 402.892 55.8799C401.372 56.0258 400.204 56.1484 399.388 56.2478C398.571 56.3245 398.083 56.3681 397.924 56.3786C397.89 56.906 397.878 57.4092 397.886 57.8882C397.895 58.3672 397.901 58.8007 397.903 59.1887C398.113 65.1351 398.296 69.4846 398.455 72.2373C398.495 73.1938 398.582 74.5126 398.716 76.1936C398.871 77.8504 399.062 79.893 399.291 82.3214C399.358 83.002 399.465 84.1025 399.611 85.6229C399.757 87.1433 399.966 89.1048 400.239 91.5075C400.434 93.4356 400.644 95.2372 400.869 96.9123C401.092 98.5646 401.331 100.113 401.586 101.558C401.696 102.19 401.823 102.73 401.967 103.177C402.11 103.624 402.284 104.001 402.486 104.307C402.512 104.351 402.527 104.396 402.53 104.441C402.555 104.485 402.57 104.542 402.575 104.61C402.661 104.878 402.619 105.109 402.449 105.303C402.304 105.518 402.104 105.611 401.851 105.582C401.553 105.556 401.272 105.461 401.01 105.295C400.387 104.857 399.934 104.213 399.65 103.364C399.335 102.403 399.028 101.03 398.728 99.2456C398.482 97.5948 398.241 95.6697 398.004 93.4701C397.789 91.2464 397.565 88.7149 397.333 85.8758C397.229 84.6495 397.126 83.2519 397.022 81.683C396.917 80.0914 396.799 78.2952 396.667 76.2943C396.298 71.3861 396.098 68.3507 396.067 67.1881C396.018 65.7527 395.982 64.1679 395.959 62.4339C395.935 60.6772 395.944 58.7355 395.987 56.609C395.918 56.6135 395.319 56.6987 394.188 56.8645C393.057 57.0304 391.361 57.2792 389.099 57.6109C387.674 57.819 386.475 57.9893 385.502 58.122C384.529 58.2546 383.759 58.3624 383.194 58.4453C382.945 58.4845 382.66 58.4805 382.337 58.4333C381.988 58.3421 381.759 58.1517 381.648 57.8621C381.515 57.574 381.529 57.2648 381.69 56.9345C381.851 56.6042 382.153 56.3331 382.595 56.1212C383.658 55.6173 384.778 55.2809 385.954 55.1121C386.362 55.0624 386.685 55.1096 386.923 55.2538C387.139 55.4222 387.422 55.7233 387.77 56.157C388.768 56.0456 389.945 55.8995 391.304 55.7187C392.662 55.5378 394.213 55.3329 395.956 55.1038C395.951 55.0356 395.959 54.978 395.979 54.9311L395.97 54.7946C396.006 52.9197 396.083 51.1448 396.201 49.4701C396.319 47.7953 396.488 46.197 396.707 44.6754C396.849 43.707 396.997 42.8295 397.15 42.0429C397.325 41.2322 397.516 40.4888 397.723 39.813C397.867 39.2326 398.024 38.8454 398.194 38.6515C398.461 38.2 398.823 37.9707 399.279 37.9635C399.739 38.0017 400.064 38.2543 400.254 38.7213C400.353 38.829 400.418 38.9617 400.452 39.1194C400.506 39.2528 400.549 39.387 400.581 39.5219C400.685 40.4056 400.745 41.3151 400.761 42.2503C400.798 43.1613 400.757 44.1003 400.638 45.0672C400.595 45.4583 400.504 45.8068 400.364 46.1129C400.178 46.3992 399.982 46.5491 399.778 46.5626C399.527 46.5791 399.303 46.4683 399.105 46.2301C399.056 46.1877 398.893 45.9587 398.614 45.5431C398.525 45.9144 398.443 46.4108 398.37 47.0321C398.319 47.652 398.266 48.3977 398.209 49.2692C398.125 50.074 398.064 50.8773 398.025 51.6791C397.987 52.4809 397.958 53.2592 397.939 54.014L397.957 54.2869C397.938 54.3339 397.932 54.4256 397.941 54.562L397.959 54.8348L398.198 54.8191C398.287 54.7904 398.412 54.7708 398.571 54.7603C400.652 54.4633 402.293 54.241 403.494 54.0933C404.694 53.9457 405.453 53.8501 405.77 53.8063C409.261 53.4165 412.254 53.0936 414.749 52.8379C417.242 52.5594 419.274 52.3685 420.843 52.2651C422.275 52.1707 423.446 52.0935 424.355 52.0336C425.265 51.9737 425.914 51.9537 426.304 51.9737C426.601 51.977 427.264 51.9904 428.293 52.0139C429.345 52.0359 430.785 52.0552 432.613 52.0718C432.774 52.084 432.934 52.0963 433.095 52.1085C433.256 52.1208 433.416 52.133 433.577 52.1453ZM464.607 76.9556C464.734 77.1527 464.683 77.4073 464.452 77.7194C463.818 78.4919 463.382 78.9887 463.146 79.2099C461.855 80.4139 460.758 81.4339 459.854 82.2699C458.972 83.1043 458.251 83.7684 457.69 84.2621C456.891 84.9542 456.05 85.5349 455.167 86.0041C454.285 86.4732 453.348 86.809 452.356 87.0114C451.572 87.2457 450.674 87.3049 449.662 87.1889C448.102 87.0862 446.653 86.7478 445.313 86.1738C443.972 85.5771 442.716 84.7122 441.546 83.579C441.543 83.5335 440.831 82.7926 439.412 81.3561C439.191 81.1194 439.007 80.926 438.86 80.7759C438.736 80.6242 438.638 80.5279 438.567 80.4869C438.058 80.0409 437.517 79.9738 436.944 80.2856C436.548 80.5172 436.221 80.7443 435.961 80.9669C435.488 81.4091 435.08 81.8014 434.737 82.1437C434.417 82.4845 434.151 82.776 433.938 83.0184C433.875 83.0911 433.664 83.3562 433.306 83.8137C432.97 84.2697 432.499 84.9173 431.892 85.7565C430.865 87.1487 430.286 87.8947 430.156 87.9947C429.863 88.4022 429.575 88.7066 429.291 88.908C428.921 89.1836 428.529 89.3007 428.116 89.2595C427.908 89.2275 427.72 89.1485 427.552 89.0226C427.384 88.8967 427.225 88.7359 427.075 88.5402C426.973 88.3871 426.883 88.2218 426.802 88.0444C426.721 87.8442 426.637 87.6214 426.553 87.3758C426.326 86.7056 426.174 85.962 426.097 85.145C426.019 84.3052 426.016 83.392 426.088 82.4053C426.136 81.7399 426.211 80.97 426.313 80.0955C426.438 79.2195 426.612 78.2261 426.836 77.1152C426.866 76.8849 426.885 76.6552 426.893 76.4264C426.924 76.196 426.953 75.9543 426.982 75.7012C426.982 75.7012 426.935 75.6814 426.841 75.6419C426.796 75.6449 426.762 75.6472 426.739 75.6487C426.738 75.6259 426.726 75.6153 426.703 75.6168L425.397 77.1073C424.849 77.8056 424.326 78.5366 423.828 79.3001C423.331 80.0637 422.859 80.8712 422.412 81.7227C422.188 82.1257 421.832 82.7885 421.344 83.7113C420.878 84.6097 420.272 85.8029 419.525 87.2908C419.443 87.4332 419.341 87.6226 419.22 87.8589C419.121 88.0938 418.97 88.4006 418.767 88.7794C418.403 89.4885 418.132 90.0544 417.954 90.4772C417.852 90.6665 417.739 90.8567 417.615 91.0476C417.511 91.2142 417.407 91.3581 417.301 91.4793C417.062 91.6777 416.784 91.7874 416.466 91.8083C416.169 91.8051 415.92 91.673 415.721 91.4122C415.571 91.2165 415.433 91.0315 415.307 90.8571C415.203 90.6584 415.108 90.4363 415.023 90.1907C414.71 89.2522 414.488 88.3077 414.357 87.3573C414.225 86.3841 414.181 85.3708 414.225 84.3174C414.357 82.5047 414.657 80.6466 415.125 78.7432C415.273 78.2083 415.433 77.6953 415.606 77.2043C415.801 76.6891 416.032 76.2058 416.299 75.7543C416.52 75.3058 416.751 74.9938 416.991 74.8181C417.377 74.4501 417.791 74.3201 418.232 74.428C418.648 74.492 418.974 74.7674 419.212 75.2541C419.242 75.3663 419.26 75.4679 419.266 75.5588C419.293 75.6255 419.309 75.693 419.313 75.7612C419.396 76.6692 419.285 77.5785 418.979 78.4893C418.809 79.0257 418.402 79.258 417.758 79.1863C417.712 79.1893 417.574 79.1642 417.342 79.111C417.067 79.7913 416.835 80.6058 416.647 81.5545C416.458 82.5032 416.325 83.6081 416.248 84.8691C416.043 87.3033 416.176 88.9729 416.647 89.8782C416.761 89.8707 416.84 89.8541 416.884 89.8284C416.946 89.7329 416.976 89.6738 416.975 89.6511C417.019 89.6253 417.041 89.6125 417.041 89.6125C417.039 89.5897 417.06 89.5541 417.102 89.5057C417.142 89.4117 417.172 89.3526 417.193 89.3284C417.477 88.7845 417.761 88.2405 418.045 87.6966C418.327 87.1299 418.61 86.5746 418.894 86.0307C418.996 85.8413 419.138 85.5694 419.32 85.2148C419.523 84.836 419.777 84.3512 420.08 83.7603C420.382 83.1467 420.644 82.6156 420.866 82.1671C421.11 81.7171 421.313 81.327 421.474 80.9967C422.653 78.7952 424.03 76.8092 425.603 75.0385C426.009 74.6235 426.354 74.3039 426.636 74.0798C427.054 73.8467 427.416 73.7886 427.72 73.9056C428.045 73.9755 428.301 74.2213 428.488 74.6428C428.724 75.1068 428.839 75.6359 428.833 76.2301C428.855 76.5711 428.859 76.9819 428.845 77.4624C428.831 77.9428 428.812 78.515 428.787 79.1789C428.681 80.693 428.618 81.976 428.596 83.0279C428.572 84.0571 428.567 84.8453 428.58 85.3925C428.583 85.4379 428.592 85.5744 428.607 85.8017C428.622 86.0291 428.656 86.3694 428.709 86.8227C428.921 86.9229 429.111 86.8646 429.279 86.648C430.191 85.5832 430.815 84.8341 431.152 84.4009C431.343 84.1828 431.564 83.8942 431.815 83.5351C431.963 83.3655 432.101 83.1966 432.226 83.0285C432.352 82.8603 432.479 82.7035 432.607 82.5581C432.711 82.4142 432.817 82.2816 432.923 82.1605C433.05 82.0151 433.167 81.8818 433.273 81.7606C433.442 81.544 433.687 81.2766 434.008 80.9586C434.351 80.6163 434.792 80.199 435.33 79.7068C435.588 79.4615 435.891 79.2018 436.238 78.9277C436.939 78.4705 437.597 78.2444 438.214 78.2494C438.786 78.2574 439.419 78.5126 440.114 79.0148C440.281 79.118 440.475 79.2879 440.696 79.5245C440.917 79.7612 441.199 80.0509 441.541 80.3937C441.662 80.4999 441.821 80.6607 442.018 80.8761C442.238 81.09 442.483 81.3478 442.754 81.6497C443.025 81.9515 443.271 82.2094 443.49 82.4232C443.733 82.6356 443.928 82.8283 444.076 83.0012C445.811 84.7138 447.917 85.6597 450.395 85.839C450.969 85.8924 451.539 85.8777 452.105 85.7948C452.67 85.7119 453.22 85.5615 453.753 85.3436C454.668 85.0093 455.53 84.5758 456.339 84.0428C457.172 83.5084 457.998 82.8717 458.817 82.1326C459.031 81.913 459.546 81.411 460.362 80.6264C461.199 79.8177 462.347 78.703 463.807 77.2823C464.212 76.8446 464.479 76.7357 464.607 76.9556ZM562.421 47.5259C563.016 47.5552 563.34 47.7964 563.393 48.2497C563.473 48.7697 563.174 49.0862 562.497 49.1994C562.451 49.2024 562.36 49.2084 562.224 49.2173C562.087 49.2263 561.895 49.2504 561.646 49.2897C556.448 49.7692 552.431 50.1481 549.595 50.4263C546.782 50.703 545.126 50.8806 544.629 50.959C544.106 50.9935 542.575 51.1515 540.036 51.433C537.497 51.7144 533.927 52.1209 529.327 52.6525C527.06 52.916 525.078 53.1494 523.378 53.3527C521.7 53.5318 520.283 53.6823 519.126 53.8042C518.855 53.8449 518.515 53.8901 518.108 53.9398C517.721 53.9653 517.257 54.0187 516.714 54.1001C516.194 54.1801 515.73 54.2449 515.322 54.2946C514.936 54.3201 514.607 54.3532 514.335 54.3939C514.288 56.4522 514.26 58.4408 514.249 60.3597C514.237 62.2559 514.245 64.1051 514.272 65.9073C514.296 68.6918 514.353 71.2913 514.443 73.7059C514.555 76.0963 514.713 78.3124 514.916 80.3543C514.953 80.9227 515 81.6276 515.055 82.4688C515.109 83.2874 515.184 84.253 515.28 85.3656C515.376 86.4782 515.452 87.4551 515.508 88.2964C515.563 89.1377 515.609 89.8312 515.645 90.3769C515.859 92.9432 516.064 95.179 516.258 97.0845C516.453 99.0126 516.651 100.621 516.85 101.909C516.913 102.179 516.952 102.417 516.965 102.621C517.001 102.824 517.047 102.993 517.101 103.126C517.195 103.508 517.349 103.772 517.565 103.918C517.904 104.215 517.96 104.554 517.734 104.934C517.467 105.386 517.1 105.535 516.633 105.383C516.241 105.318 515.953 105.109 515.77 104.755C515.507 104.225 515.328 103.768 515.234 103.386C515.17 103.094 515.103 102.778 515.035 102.44C514.967 102.102 514.909 101.741 514.861 101.355C514.662 100.067 514.478 98.6632 514.309 97.1443C514.164 95.624 514.031 93.9543 513.911 92.1353C513.68 88.9763 513.477 85.8955 513.302 82.8927C513.279 82.5516 513.241 81.9718 513.187 81.1533C513.132 80.312 513.07 79.2085 513.003 77.8428C512.929 76.0208 512.856 74.5755 512.786 73.5068C512.738 72.4367 512.715 71.7417 512.717 71.4219C512.684 69.8713 512.664 68.5367 512.659 67.418C512.654 66.2994 512.651 65.3862 512.65 64.6783C512.687 63.5113 512.73 62.0812 512.778 60.3882C512.849 58.6936 512.937 56.7354 513.042 54.5134C510.48 54.7964 508.599 55.023 507.4 55.1934C507.359 55.2646 507.31 55.382 507.252 55.5457C507.216 55.6851 507.169 55.848 507.113 56.0344C507.002 56.4299 506.909 56.7444 506.833 56.9777C505.941 59.7311 505.078 62.2314 504.244 64.4786C503.409 66.7031 502.606 68.7199 501.834 70.5291C501.379 71.5867 500.906 72.5655 500.418 73.4655C499.929 74.3655 499.426 75.2207 498.908 76.0312C498.556 76.5796 498.202 77.094 497.845 77.5742C497.487 78.0317 497.126 78.4437 496.762 78.8102C496.421 79.1752 496.077 79.4948 495.729 79.7688C495.403 80.0187 495.087 80.2451 494.781 80.4479C493.108 81.4031 491.599 81.2056 490.254 79.8556C489.914 79.5355 489.593 79.1684 489.291 78.7544C488.99 78.3404 488.697 77.8801 488.412 77.3737C488.364 77.3312 488.312 77.2319 488.256 77.0757C488.2 76.9195 488.107 76.7202 487.977 76.4775C487.84 76.4865 487.699 76.5986 487.553 76.8137C487.491 76.9091 487.409 77.0516 487.308 77.2409C487.206 77.4303 487.073 77.6674 486.909 77.9523C486.744 78.2144 486.599 78.4522 486.477 78.6659C486.354 78.8795 486.239 79.0469 486.133 79.1681C486.033 79.3802 485.908 79.5711 485.76 79.7407C485.632 79.8861 485.505 80.0315 485.377 80.177C484.863 80.6904 484.339 80.8848 483.806 80.7601C483.274 80.6581 482.904 80.2372 482.695 79.4974C482.633 79.2502 482.57 78.9918 482.507 78.7219C482.466 78.4506 482.448 78.1777 482.453 77.9034C482.462 77.3547 482.48 76.7598 482.507 76.1186C482.533 75.4775 482.556 74.7909 482.576 74.0588C482.561 73.8314 482.623 73.0395 482.762 71.683C482.556 71.6738 482.426 71.7851 482.373 72.017C482.062 72.4942 481.539 73.385 480.802 74.6895C480.434 75.3304 480.094 75.9008 479.785 76.4008C479.498 76.8992 479.263 77.3143 479.079 77.6461C478.728 78.2173 478.365 78.7665 477.989 79.2937C477.635 79.8193 477.282 80.345 476.928 80.8707C476.74 81.1343 476.507 81.4123 476.229 81.7046C475.974 81.9954 475.687 82.3112 475.367 82.652C475.194 82.8004 474.988 82.9625 474.748 83.1381C474.507 83.291 474.254 83.4333 473.988 83.565C472.93 84.1371 471.81 84.1196 470.628 83.5123C470.013 83.1875 469.482 82.7544 469.035 82.2129C468.737 81.8443 468.461 81.4629 468.206 81.0686C467.973 80.6501 467.772 80.1952 467.603 79.704C467.577 79.66 467.536 79.56 467.48 79.4038C467.424 79.2476 467.34 79.0134 467.228 78.7011L466.984 77.5868C466.983 76.879 466.981 76.331 466.978 75.943C466.998 75.5535 467.006 75.336 467.003 75.2905C467.023 74.901 467.078 74.5092 467.166 74.1152C467.253 73.6984 467.362 73.2802 467.494 72.8604C467.593 72.6255 467.682 72.4255 467.763 72.2604C467.865 72.071 467.956 71.9051 468.038 71.7627C468.23 71.5445 468.399 71.3507 468.548 71.181C468.695 70.9886 468.856 70.8296 469.031 70.7039C469.821 70.218 470.548 70.17 471.213 70.5601C471.524 70.768 471.758 71.0266 471.915 71.3359C472.071 71.6225 472.141 71.9947 472.126 72.4524C472.106 72.842 472.028 73.2239 471.893 73.5982C471.781 73.9709 471.598 74.3255 471.347 74.6618C471.18 74.9011 470.947 75.1905 470.65 75.5298C470.353 75.8691 469.992 76.2811 469.567 76.7658C469.524 76.8142 469.242 77.027 468.718 77.404C468.757 77.9952 468.812 78.2999 468.881 78.3181C469.058 79.2656 469.328 80.0699 469.691 80.731C470.079 81.4134 470.535 81.9314 471.061 82.2849C471.876 82.8706 472.737 82.9395 473.644 82.4915C473.885 82.3386 474.115 82.1865 474.333 82.0351C474.574 81.8822 474.792 81.7194 474.986 81.5468C475.222 81.3256 475.447 81.0939 475.659 80.8516C475.893 80.585 476.115 80.3191 476.326 80.054C476.681 79.5511 477.004 79.0845 477.296 78.6542C477.586 78.2013 477.853 77.7612 478.099 77.3339C479.046 75.7643 479.895 74.2583 480.645 72.8159C481.417 71.372 482.091 69.9804 482.665 68.6409C482.766 68.4515 482.858 68.2856 482.94 68.1432C483.021 67.978 483.112 67.8121 483.216 67.6455C483.487 67.2622 483.832 67.1253 484.25 67.2348C484.573 67.282 484.805 67.5065 484.946 67.9083C485.035 68.2221 485.069 68.5624 485.047 68.9292C485.038 69.1353 485.008 69.5484 484.957 70.1682C484.928 70.7639 484.879 71.5778 484.81 72.61C484.795 72.7252 484.783 72.8972 484.776 73.1261C484.789 73.3307 484.784 73.605 484.761 73.9491C484.738 74.2931 484.713 74.6031 484.686 74.8789C484.681 75.1533 484.663 75.4056 484.633 75.636C484.602 75.8664 484.582 76.0846 484.573 76.2908C484.587 76.4954 484.59 76.7235 484.584 76.9751L484.593 77.1115C484.596 77.157 484.589 77.226 484.572 77.3184C484.577 77.3866 484.582 77.4662 484.588 77.5572C484.793 77.5437 484.955 77.4074 485.075 77.1483C485.157 77.0059 485.248 76.8286 485.348 76.6165C485.448 76.4043 485.581 76.1672 485.747 75.9051C485.888 75.6218 486.009 75.3855 486.111 75.1961C486.234 74.9824 486.326 74.8165 486.386 74.6984C486.605 74.2044 486.811 73.8711 487.006 73.6984C487.233 73.3409 487.586 73.1464 488.063 73.1149C488.521 73.1305 488.888 73.3346 489.165 73.7274C489.24 73.8138 489.317 73.9458 489.397 74.1232C489.476 74.2778 489.568 74.4659 489.674 74.6872C489.8 74.8616 489.973 75.2384 490.194 75.8176C490.328 76.1285 490.449 76.3946 490.555 76.6159C490.659 76.8146 490.739 76.992 490.795 77.1481C490.953 77.4575 491.12 77.7433 491.297 78.0057C491.473 78.2453 491.648 78.4849 491.824 78.7245C492.439 79.3919 493.147 79.5622 493.947 79.2355C494.213 79.1038 494.477 78.9608 494.741 78.8064C495.003 78.6292 495.276 78.44 495.56 78.2386C496.211 77.7162 496.927 76.9725 497.708 76.0076C498.527 74.926 499.322 73.6518 500.094 72.1852C500.804 70.8367 501.515 69.317 502.225 67.626C502.936 65.935 503.655 64.0265 504.383 61.9005C505.057 60.0063 505.756 57.7909 506.479 55.2541C506.163 55.2978 505.506 55.3753 504.508 55.4867C503.988 55.5667 503.536 55.6307 503.151 55.6789C502.787 55.7029 502.481 55.7459 502.234 55.8078C500.761 55.9734 499.174 56.1579 497.475 56.3612C495.776 56.5645 493.93 56.789 491.936 57.0345C491.598 57.1024 491.158 57.1771 490.615 57.2586C490.072 57.34 489.427 57.4282 488.68 57.5231C487.934 57.6407 487.267 57.7418 486.679 57.8262C486.089 57.8879 485.603 57.9542 485.219 58.0252C484.63 58.0868 483.903 58.1575 483.041 58.2372C482.201 58.3154 481.203 58.4154 480.046 58.5373C479.705 58.5598 479.226 58.5571 478.607 58.5294C478.171 58.4896 477.86 58.2817 477.675 57.9057C477.535 57.5039 477.648 57.1425 478.015 56.8214C478.529 56.308 479.169 55.969 479.935 55.8043C480.612 55.6912 481.329 55.644 482.083 55.6627C482.978 55.718 483.45 56.1208 483.499 56.8711C484.79 56.7175 485.788 56.6061 486.491 56.5369C487.216 56.4435 487.634 56.3817 487.746 56.3515C489.969 56.1137 492.459 55.7783 495.216 55.3454C495.465 55.3062 495.725 55.2776 495.998 55.2597C496.27 55.2189 496.552 55.1775 496.846 55.1353C497.162 55.0688 497.444 55.0273 497.694 55.0109C497.966 54.9701 498.226 54.9302 498.474 54.891C498.722 54.829 498.97 54.7898 499.22 54.7733C499.492 54.7326 499.786 54.6904 500.103 54.6467C500.736 54.5592 501.268 54.4899 501.699 54.4387C502.849 54.2259 504.014 54.0464 505.191 53.9003C505.282 53.8943 505.396 53.8868 505.532 53.8778C505.69 53.8446 505.871 53.8212 506.076 53.8078C506.256 53.773 506.426 53.7504 506.585 53.7399C506.743 53.7067 506.878 53.675 506.99 53.6448C507.248 52.7143 507.489 51.8535 507.71 51.0625C507.954 50.2472 508.157 49.5145 508.319 48.8644C509.068 46.3716 509.797 43.9144 510.505 41.4928C511.212 39.0485 511.919 36.6041 512.625 34.1598C512.7 33.9037 512.794 33.6006 512.908 33.2506C513.02 32.8778 513.175 32.4565 513.373 31.9868C513.411 31.8701 513.461 31.7641 513.523 31.6686C513.607 31.5489 513.701 31.4285 513.808 31.3073C513.961 31.2059 514.129 31.1606 514.312 31.1713C514.497 31.2048 514.628 31.2875 514.706 31.4194C514.764 31.6211 514.811 31.8007 514.844 31.9584C514.9 32.1145 514.934 32.2836 514.946 32.4655C514.963 33.0809 514.977 33.6394 514.988 34.1411C515.021 34.6414 515.027 35.0862 515.007 35.4758C514.962 36.5292 514.914 37.7084 514.863 39.0134C514.811 40.2956 514.757 41.7378 514.703 43.3399C514.629 44.6464 514.564 46.078 514.507 47.6346C514.471 49.167 514.421 50.8373 514.357 52.6455C514.812 52.6155 515.412 52.5417 516.158 52.4241C516.542 52.3531 516.904 52.3064 517.245 52.2839C517.585 52.2387 517.913 52.1943 518.23 52.1506C518.545 52.0841 518.839 52.0419 519.112 52.0239C519.383 51.9832 519.666 51.9417 519.96 51.8995C520.233 51.8815 521.072 51.792 522.477 51.6309C523.881 51.4471 525.862 51.1909 528.421 50.8624C531.434 50.504 533.71 50.217 535.249 50.0015C536.154 49.8733 536.913 49.7776 537.525 49.7145C539.249 49.5324 540.938 49.3525 542.593 49.175C544.247 48.9746 545.868 48.7879 547.455 48.6149C549.859 48.3651 552.152 48.1569 554.333 47.9904C556.513 47.801 558.582 47.6647 560.54 47.5813C560.951 47.5771 561.304 47.5652 561.6 47.5458C561.918 47.5248 562.192 47.5182 562.421 47.5259ZM469.172 72.8526C468.979 73.3905 468.832 73.9368 468.732 74.4915C468.654 75.0447 468.624 75.6176 468.64 76.2103C469.694 75.2274 470.408 74.2783 470.781 73.3631C470.959 72.9404 471 72.5266 470.905 72.1218C470.867 71.896 470.755 71.7549 470.569 71.6987C470.401 71.5727 470.198 71.609 469.96 71.8073C469.632 72.0345 469.37 72.3829 469.172 72.8526ZM513.114 51.9738C513.129 51.8586 513.205 50.415 513.343 47.6428C513.502 44.8691 513.722 40.7556 514.002 35.3022C513.996 35.2113 514.005 34.9938 514.028 34.6497C514.049 34.2829 514.063 33.7911 514.068 33.1742C514.063 33.106 514.038 33.0733 513.993 33.0763C513.97 33.0778 513.947 33.0793 513.924 33.0808C513.923 33.0581 513.899 33.0482 513.854 33.0512L513.679 33.5081C513.232 35.0447 512.868 36.279 512.587 37.2109C512.328 38.1414 512.143 38.793 512.03 39.1658C511.143 42.33 510.355 45.1107 509.668 47.5081C508.98 49.8827 508.371 51.8982 507.84 53.5545C507.977 53.5455 509.73 53.2929 513.1 52.7969C513.12 52.7499 513.128 52.7037 513.125 52.6582C513.12 52.59 513.127 52.5096 513.143 52.4172L513.114 51.9738ZM550.821 71.5486C551.035 71.6715 551.101 71.8156 551.021 71.9807C550.945 72.2141 550.849 72.3118 550.732 72.2738C550.153 72.1521 549.291 72.4144 548.146 73.0608C547.949 73.1879 547.522 73.4559 546.863 73.8646C546.204 74.2506 545.315 74.8002 544.197 75.5132C544.025 75.6616 543.906 75.7608 543.84 75.8108C543.866 75.8548 543.881 75.9109 543.886 75.9791C543.913 76.0458 543.952 76.1231 544.004 76.2111C544.847 77.9139 545.022 79.7064 544.529 81.5885C543.933 83.9799 542.681 85.935 540.771 87.4538C540.597 87.5795 540.41 87.6945 540.211 87.799C540.013 87.9034 539.804 88.0199 539.584 88.1486C539.189 88.4029 538.834 88.552 538.517 88.5957C537.328 88.9252 536.369 88.7486 535.639 88.066C534.864 87.3864 534.563 86.4585 534.736 85.2824C534.819 84.7974 534.957 84.2974 535.151 83.7822C535.344 83.2442 535.605 82.7018 535.935 82.1549C536.74 80.8686 537.79 79.6349 539.082 78.4536C539.124 78.4051 539.319 78.2438 539.667 77.9698C540.035 77.6714 540.566 77.2368 541.259 76.6659C541.302 76.6175 541.442 76.494 541.68 76.2957C541.788 76.1972 541.874 76.123 541.939 76.0731C542.026 75.9989 542.09 75.9375 542.133 75.889L541.726 75.4363C540.963 74.9385 539.95 74.6399 538.687 74.5404C538.366 74.5159 537.976 74.4959 537.518 74.4804C537.083 74.4634 536.547 74.4645 535.909 74.4837C535.769 74.4472 535.449 74.4455 534.949 74.4784L533.96 74.5436C533.756 74.5571 533.562 74.5698 533.38 74.5818C533.199 74.5938 533.05 74.5922 532.935 74.5769C531.533 74.4409 530.785 73.6567 530.69 72.2243C530.638 71.4285 530.767 70.6207 531.079 69.8009C531.389 68.9584 531.818 68.1994 532.367 67.5238C532.665 67.1845 532.954 66.8914 533.234 66.6446C533.538 66.3962 533.866 66.1805 534.219 65.9973C534.553 65.8612 534.832 65.7742 535.058 65.7365C535.305 65.6746 535.556 65.6695 535.811 65.7212C536.343 65.8232 536.703 66.0963 536.892 66.5405C537.036 66.9878 536.927 67.4174 536.566 67.8294C536.545 67.8536 536.513 67.8786 536.469 67.9044C536.447 67.9286 536.415 67.9649 536.373 68.0134C536.309 68.0861 536.212 68.1724 536.082 68.2724C536.039 68.3208 535.996 68.3579 535.952 68.3837C535.908 68.4094 535.865 68.4465 535.822 68.495C534.68 69.5294 533.981 70.1806 533.725 70.4487C533.232 70.9379 532.861 71.5446 532.611 72.269C532.355 72.8796 532.537 73.2216 533.159 73.2948C533.345 73.351 533.565 73.3936 533.818 73.4226C534.069 73.4289 534.356 73.4442 534.677 73.4687C534.791 73.4613 534.961 73.45 535.189 73.435C535.439 73.4186 535.769 73.4082 536.18 73.404C536.615 73.421 536.981 73.4311 537.278 73.4344C537.597 73.4134 537.882 73.406 538.133 73.4123C538.454 73.4368 538.823 73.481 539.238 73.545C539.652 73.5863 540.103 73.6707 540.591 73.7984C541.492 73.9674 542.355 74.4129 543.179 75.135C544.315 74.3523 544.894 73.9488 544.915 73.9245C545.549 73.4945 546.118 73.1259 546.623 72.8186C547.151 72.5098 547.613 72.2396 548.008 72.008C548.184 71.905 548.383 71.8006 548.604 71.6947C548.848 71.5873 549.116 71.4897 549.407 71.402C549.944 71.2296 550.415 71.2785 550.821 71.5486ZM543.526 79.8735C543.628 78.6564 543.385 77.5649 542.796 76.5989C542.708 76.6504 542.653 76.6769 542.63 76.6784C540.267 78.2499 538.401 80.0741 537.031 82.1512C536.427 83.0359 536.047 83.8601 535.892 84.624C535.766 85.1347 535.717 85.606 535.745 86.038C535.786 86.6519 535.997 87.0833 536.379 87.3322C536.81 87.6463 537.283 87.7179 537.797 87.547C538.381 87.3944 538.87 87.1909 539.264 86.9365C541.822 85.2151 543.243 82.8608 543.526 79.8735Z" fill="#EB3737"/>
</svg>
