<svg width="407" height="152" viewBox="0 0 407 152" fill="none" xmlns="http://www.w3.org/2000/svg">
<path d="M27.4081 104.937C27.3657 104.985 27.3217 105.011 27.2762 105.014C27.2322 105.04 27.1989 105.053 27.1761 105.055C27.1534 105.056 27.1314 105.069 27.1102 105.093C27.0647 105.096 26.998 105.124 26.91 105.175C26.8646 105.178 26.8198 105.193 26.7759 105.218C26.7531 105.22 26.719 105.222 26.6735 105.225C26.6565 105.66 26.6449 106.003 26.6386 106.255C26.6309 106.484 26.6285 106.621 26.6315 106.666C26.5949 108.884 26.5625 110.644 26.5342 111.948C26.5044 113.229 26.4909 114.063 26.4936 114.451C26.4916 115.114 26.4986 115.912 26.5145 116.848C26.5532 117.781 26.6024 118.874 26.6621 120.126C26.9137 126.024 27.1425 131.056 27.3485 135.221C27.5772 139.385 27.7982 142.739 28.0114 145.282C28.0579 145.987 28.1646 147.088 28.3317 148.584C28.3889 149.105 28.5523 149.506 28.8219 149.785C29.0658 150.02 29.0944 150.281 28.9077 150.567C28.7893 150.849 28.5709 151 28.2526 151.021C27.6886 151.127 27.3106 150.935 27.1185 150.445C26.9883 150.202 26.8809 149.958 26.7962 149.713C26.713 149.49 26.6654 149.287 26.6534 149.105C26.5265 148.566 26.4246 148.059 26.3477 147.584C26.2935 147.108 26.2529 146.666 26.2259 146.256C26.0081 143.645 25.8161 141.077 25.6498 138.553C25.5062 136.028 25.4096 133.522 25.36 131.036C25.3528 130.58 25.3274 130.022 25.284 129.363C25.2648 128.725 25.2487 127.961 25.2357 127.071C25.2243 126.204 25.2082 125.44 25.1875 124.779C25.1683 124.141 25.1558 123.605 25.1501 123.172C25.0183 119.093 24.9116 115.914 24.83 113.636C24.7711 111.356 24.7373 109.977 24.7286 109.498C24.7196 109.361 24.7365 108.059 24.7793 105.59L23.9953 105.127C23.7802 104.982 23.6871 104.782 23.7161 104.529C23.7011 104.302 23.8142 104.112 24.0553 103.959C24.119 103.886 24.3745 103.778 24.8218 103.634C24.8591 102.467 24.8809 101.587 24.8875 100.992C24.9167 100.397 24.9291 100.065 24.9246 99.9967C25.1047 96.4909 25.2337 94.2902 25.3117 93.3944C25.3666 92.8427 25.4333 91.9477 25.5115 90.7094C25.6125 89.4697 25.7358 87.8744 25.8813 85.9238C26.5902 76.5829 27.658 67.8349 29.0845 59.6798C29.3691 58.1082 29.6279 56.6639 29.8608 55.3469C30.0938 54.03 30.2993 52.8175 30.4775 51.7097C30.5352 51.546 30.59 51.3369 30.6417 51.0823C30.6934 50.8277 30.7649 50.5261 30.8561 50.1775C30.8941 50.0609 30.9321 49.9442 30.9701 49.8275C31.0293 49.6866 31.112 49.5555 31.2182 49.4344C31.3746 49.0358 31.637 48.8587 32.0053 48.9029C32.3795 49.0381 32.5787 49.2876 32.6026 49.6514L32.6656 50.6064C32.6895 50.9702 32.6976 51.2665 32.6899 51.4954C32.6806 51.7015 32.6798 51.8614 32.6872 51.9751C32.687 52.3177 32.5875 52.5412 32.3889 52.6456C32.1478 52.7985 32.0051 53.0591 31.9608 53.4274C31.8239 54.1215 31.6686 55.0566 31.4949 56.2326C31.3197 57.386 31.1019 58.7591 30.8415 60.3519C30.3816 63.0768 29.984 65.7063 29.6486 68.2404C29.3132 70.7744 29.0066 73.2266 28.7289 75.597C28.5717 77.0232 28.403 78.6214 28.2228 80.3917C28.0638 82.1377 27.8956 84.0898 27.7181 86.2481C27.5773 87.9244 27.4518 89.4855 27.3416 90.9314C27.2314 92.3773 27.1485 93.7187 27.093 94.9555C27.0745 95.3677 27.0321 96.284 26.9658 97.7042C26.8995 99.1243 26.8222 101.07 26.7339 103.543L26.795 103.95L27.334 103.811C28.2967 103.52 29.4694 103.123 30.8521 102.62C32.2334 102.096 33.8231 101.443 35.6214 100.662C36.6873 100.204 37.7919 99.6397 38.9353 98.9707C40.1014 98.3001 41.329 97.5227 42.6181 96.6385C46.5519 93.9587 50.418 90.7695 54.2162 87.071C62.7063 78.6789 69.6987 69.3921 75.1934 59.2106C76.7219 56.4152 78.0374 53.6796 79.1399 51.0036C80.2424 48.3277 81.1637 45.6751 81.9039 43.0459C82.4419 41.1607 82.8601 39.3634 83.1585 37.6539C83.4554 35.9216 83.656 34.2871 83.7603 32.7502C84.0783 27.1801 83.3605 22.3519 81.6069 18.2657C78.3811 10.8967 72.7558 6.44905 64.7312 4.9226C63.343 4.6487 61.8941 4.49298 60.3844 4.45544C58.8733 4.39516 57.2915 4.47655 55.6392 4.69961C52.6484 5.05654 49.6709 5.78938 46.7068 6.89813C43.7655 8.00538 40.792 9.49155 37.7863 11.3566C32.9397 14.3935 28.3767 18.2679 24.0972 22.9801C19.4748 28.0345 15.5662 33.3502 12.3713 38.9272C8.82882 45.1208 6.30263 51.3159 4.79274 57.5126C3.88961 61.1345 3.39812 64.5923 3.31829 67.8859C3.20769 71.7524 3.61371 74.9684 4.53633 77.5337C4.53933 77.5792 4.90247 78.4116 5.62574 80.031C5.81363 80.1099 5.96592 80.1684 6.0826 80.2064C6.19778 80.2216 6.26749 80.2399 6.29173 80.2611C6.3402 80.3036 6.4189 80.4583 6.52783 80.7251C6.58079 80.8358 6.62239 80.9472 6.65262 81.0594C6.70408 81.1474 6.7563 81.2467 6.80927 81.3574C6.97865 81.8486 6.92454 82.2404 6.64694 82.5327C6.30711 82.9205 5.89397 83.0619 5.4075 82.9569C4.91953 82.8292 4.53926 82.6031 4.26667 82.2785C3.99559 81.9767 3.77223 81.7059 3.59659 81.4663C3.44218 81.2025 3.30215 80.9833 3.17648 80.8089C2.81171 80.1251 2.49017 79.4041 2.21186 78.646C1.93355 77.8879 1.68635 77.0821 1.47025 76.2286C0.982368 74.0228 0.791078 71.4664 0.896384 68.5593C1.1448 60.8929 3.03254 53.1528 6.55959 45.3388C12.4095 32.5763 20.9885 21.8947 32.2964 13.294C36.6021 10.0188 41.1762 7.52518 46.0188 5.81309C49.3194 4.61366 52.6024 3.83785 55.8675 3.48568C57.9094 3.28263 59.8601 3.25685 61.7198 3.40834C63.6007 3.53559 65.4133 3.83861 67.1576 4.31741C74.8559 6.43627 80.1762 11.2809 83.1184 18.8512C84.3573 22.0579 84.9981 25.5438 85.0407 29.3089C85.0933 31.8402 84.9124 34.4669 84.498 37.1888C84.0822 39.888 83.4002 42.7075 82.4521 45.6473C81.6467 48.3265 80.6792 50.9707 79.5494 53.5799C78.4197 56.1892 77.1294 58.7861 75.6783 61.3709C69.0576 73.1794 60.5289 83.5836 50.0922 92.5836C48.5346 93.8966 47.0035 95.0936 45.4991 96.1746C44.0174 97.2542 42.5168 98.2209 40.9974 99.0746C40.1619 99.5635 39.0807 100.137 37.7539 100.795C36.4257 101.431 34.8396 102.141 32.9959 102.924C31.93 103.383 30.9286 103.78 29.9916 104.116C29.0758 104.427 28.2147 104.701 27.4081 104.937ZM99.4572 93.0987L99.4324 92.7235C99.5446 92.6933 99.6197 92.6198 99.6577 92.5032C99.7199 92.4077 99.7571 92.2797 99.7694 92.119C99.7861 92.0266 99.7908 91.9235 99.7833 91.8098C100.043 90.9021 100.318 90.0504 100.608 89.2549C100.898 88.4594 101.215 87.7192 101.558 87.0343C101.96 86.2086 102.34 85.5556 102.696 85.0754C103.053 84.5952 103.471 84.1794 103.95 83.8281C104.601 83.3057 105.337 83.2229 106.16 83.5797C106.465 83.6967 106.841 83.8546 107.288 84.0535C107.757 84.2509 108.298 84.4893 108.91 84.7687C109.074 84.8264 109.169 84.8886 109.197 84.9553C109.222 84.9993 109.241 85.1009 109.251 85.26C109.259 85.3737 109.217 85.4335 109.126 85.4395C108.895 85.409 108.712 85.3983 108.576 85.4073C108.46 85.392 108.368 85.3753 108.298 85.3571L107.773 85.1861C107.496 85.1359 107.275 85.0705 107.11 84.9901C106.97 84.9536 106.853 84.9156 106.759 84.8761C106.666 84.8367 106.595 84.807 106.548 84.7873C105.731 84.5214 105.122 84.4588 104.72 84.5995C104.294 84.7189 103.842 85.1369 103.364 85.8534C103.112 86.1897 102.854 86.595 102.588 87.0692C102.344 87.5192 102.092 88.0268 101.832 88.592C101.516 89.3435 101.209 90.2315 100.911 91.2559C100.614 92.2803 100.337 93.4518 100.081 94.7703C100.064 94.8627 99.9723 95.3712 99.8048 96.2956C99.6586 97.1959 99.4151 98.525 99.0742 100.283C98.9328 100.909 98.8529 101.257 98.8347 101.326C98.7662 101.673 98.5622 101.87 98.2226 101.915C97.7936 101.989 97.5202 101.824 97.4022 101.421C97.319 101.198 97.2601 100.996 97.2254 100.816C97.1906 100.635 97.1688 100.477 97.1598 100.341C97.0609 98.8399 96.98 97.6121 96.9171 96.6572C96.8542 95.7022 96.8304 94.9959 96.846 94.5381C96.8176 92.0281 97.072 89.3052 97.6093 86.3697L97.6461 85.8877C97.5142 85.9649 97.2388 86.2913 96.82 86.867C96.6576 87.1746 95.9194 88.2737 94.6053 90.1643C93.9391 91.1444 93.3678 92.0042 92.8913 92.7435C92.4133 93.4601 91.996 94.0585 91.6394 94.5387C91.0779 95.3749 90.4893 96.1445 89.8733 96.8473C89.2786 97.5259 88.6711 98.1825 88.0507 98.8171C87.7276 99.1124 87.4144 99.3843 87.111 99.6326C86.8304 99.8795 86.5377 100.116 86.2329 100.341C85.9918 100.494 85.7393 100.648 85.4754 100.802C85.2101 100.934 84.944 101.054 84.6771 101.163C82.9426 101.871 81.3831 101.597 79.9987 100.341C78.8111 99.3003 77.9892 97.9158 77.5327 96.1876C77.0404 93.9136 77.2536 91.6045 78.1724 89.2604C78.42 88.5133 78.8449 87.8573 79.4471 87.2924C79.9841 86.7775 80.558 86.4771 81.1689 86.3911C81.5312 86.3444 81.8291 86.3591 82.0624 86.435C82.367 86.552 82.595 86.7196 82.7464 86.938C82.8236 87.0699 82.8894 87.2026 82.9439 87.336C83.0211 87.468 83.0763 87.6128 83.1095 87.7704C83.1955 88.3813 83.1488 88.8868 82.9697 89.2868C82.772 90.0991 82.4448 90.8514 81.988 91.5437C81.554 92.2346 81.004 92.8988 80.3381 93.5364C80.3169 93.5607 80.2191 93.6356 80.0447 93.7613C79.8687 93.8642 79.5958 94.0535 79.2257 94.329C79.1759 95.9993 79.6522 97.5094 80.6546 98.8592C80.7575 99.0351 80.8703 99.1875 80.993 99.3164C81.1142 99.4226 81.2475 99.5394 81.3929 99.6669C82.1185 100.281 82.9755 100.465 83.9639 100.217C84.7932 99.9794 85.4657 99.6154 85.9814 99.1247C87.0841 98.1843 87.9009 97.4111 88.4319 96.8053C88.9659 96.2448 89.465 95.6753 89.9292 95.0967C90.4162 94.5165 90.879 93.9151 91.3175 93.2925C92.5739 91.5655 93.7415 89.8787 94.8205 88.2319C95.9207 86.5609 96.9648 84.905 97.9528 83.2642C98.1789 82.8839 98.3831 82.5165 98.5652 82.162C98.7459 81.7847 98.8803 81.399 98.9685 81.005C99.0855 80.7005 99.2343 80.3595 99.415 79.9823C99.5941 79.5822 99.793 79.1352 100.012 78.6413C100.129 78.3367 100.328 78.0724 100.61 77.8483C100.848 77.6499 101.108 77.6099 101.39 77.7284C101.649 77.8483 101.812 78.0659 101.878 78.3813C101.892 78.5859 101.874 78.8382 101.826 79.1383C101.774 79.3929 101.712 79.671 101.641 79.9726C101.569 80.2742 101.487 80.5879 101.395 80.9137C101.062 82.1002 100.762 83.4445 100.496 84.9463C100.228 86.4255 99.9824 88.0744 99.7597 89.8931C99.74 89.9401 99.6996 90.194 99.6386 90.6547C99.6004 91.1139 99.5552 91.8134 99.5029 92.7531C99.4619 92.8243 99.4316 92.8834 99.4118 92.9304C99.4148 92.9759 99.3951 93.0228 99.3526 93.0713C99.3981 93.0683 99.4216 93.0782 99.423 93.1009C99.423 93.1009 99.4344 93.1002 99.4572 93.0987ZM80.9683 90.1038C81.3751 89.3462 81.537 88.6847 81.4541 88.1193C81.0098 88.3084 80.7346 88.4636 80.6284 88.5847C80.5632 88.6347 80.4888 88.7195 80.4054 88.8392C80.3219 88.9589 80.2286 89.1021 80.1254 89.2687C79.5137 90.3823 79.2597 91.5523 79.3633 92.7786C79.8806 92.3106 80.4155 91.419 80.9683 90.1038ZM135.641 89.5498C135.854 89.6727 135.921 89.8168 135.84 89.9819C135.764 90.2153 135.668 90.313 135.551 90.275C134.972 90.1533 134.111 90.4156 132.966 91.0619C132.769 91.1891 132.341 91.4571 131.683 91.8658C131.023 92.2518 130.134 92.8013 129.017 93.5144C128.844 93.6628 128.725 93.762 128.66 93.812C128.685 93.8559 128.7 93.912 128.705 93.9802C128.732 94.0469 128.772 94.1243 128.823 94.2122C129.666 95.915 129.841 97.7075 129.349 99.5897C128.753 101.981 127.5 103.936 125.59 105.455C125.416 105.581 125.229 105.696 125.031 105.8C124.832 105.905 124.623 106.021 124.403 106.15C124.009 106.404 123.653 106.553 123.336 106.597C122.148 106.926 121.188 106.75 120.458 106.067C119.683 105.388 119.382 104.46 119.556 103.284C119.638 102.799 119.776 102.299 119.971 101.783C120.164 101.245 120.425 100.703 120.754 100.156C121.56 98.8698 122.609 97.636 123.901 96.4548C123.944 96.4063 124.139 96.245 124.486 95.9709C124.854 95.6726 125.385 95.238 126.078 94.6671C126.121 94.6186 126.261 94.4952 126.499 94.2968C126.607 94.1984 126.693 94.1242 126.759 94.0742C126.845 94 126.91 93.9387 126.952 93.8902L126.545 93.4375C125.782 92.9397 124.769 92.6411 123.506 92.5416C123.185 92.5171 122.796 92.4971 122.338 92.4816C121.903 92.4646 121.366 92.4657 120.728 92.4849C120.589 92.4484 120.269 92.4466 119.769 92.4796L118.78 92.5448C118.575 92.5583 118.382 92.571 118.2 92.583C118.018 92.595 117.869 92.5933 117.754 92.5781C116.352 92.4421 115.604 91.6579 115.51 90.2255C115.457 89.4297 115.587 88.6219 115.898 87.8021C116.208 86.9596 116.637 86.2005 117.187 85.525C117.484 85.1857 117.773 84.8926 118.054 84.6457C118.357 84.3974 118.685 84.1816 119.038 83.9985C119.372 83.8624 119.652 83.7754 119.878 83.7377C120.125 83.6757 120.376 83.6706 120.63 83.7224C121.162 83.8243 121.523 84.0974 121.712 84.5417C121.855 84.9889 121.747 85.4186 121.386 85.8306C121.364 85.8548 121.332 85.8798 121.288 85.9055C121.267 85.9298 121.235 85.9661 121.192 86.0146C121.129 86.0873 121.032 86.1736 120.901 86.2735C120.859 86.322 120.815 86.3591 120.771 86.3849C120.727 86.4106 120.684 86.4477 120.642 86.4962C119.5 87.5305 118.8 88.1818 118.544 88.4498C118.051 88.939 117.68 89.5458 117.431 90.2701C117.174 90.8808 117.357 91.2227 117.978 91.296C118.164 91.3522 118.384 91.3948 118.637 91.4238C118.889 91.43 119.175 91.4454 119.497 91.4699C119.61 91.4624 119.781 91.4512 120.008 91.4362C120.258 91.4197 120.589 91.4094 120.999 91.4051C121.434 91.4221 121.8 91.4323 122.098 91.4355C122.416 91.4146 122.701 91.4072 122.952 91.4135C123.274 91.438 123.642 91.4822 124.057 91.5462C124.471 91.5874 124.922 91.6719 125.41 91.7996C126.312 91.9685 127.175 92.4141 127.999 93.1362C129.134 92.3534 129.713 91.9499 129.734 91.9257C130.368 91.4957 130.938 91.1271 131.443 90.8198C131.97 90.511 132.432 90.2408 132.828 90.0092C133.004 89.9062 133.202 89.8018 133.424 89.6959C133.668 89.5884 133.935 89.4909 134.227 89.4032C134.763 89.2308 135.235 89.2797 135.641 89.5498ZM128.345 97.8746C128.448 96.6576 128.204 95.5661 127.615 94.6001C127.527 94.6516 127.472 94.678 127.449 94.6795C125.087 96.2511 123.22 98.0753 121.85 100.152C121.246 101.037 120.866 101.861 120.711 102.625C120.585 103.136 120.536 103.607 120.565 104.039C120.605 104.653 120.816 105.084 121.198 105.333C121.63 105.647 122.103 105.719 122.616 105.548C123.2 105.396 123.689 105.192 124.083 104.938C126.642 103.216 128.062 100.862 128.345 97.8746ZM152.493 84.7742C152.49 84.7287 152.506 84.465 152.543 83.983C152.39 84.0844 152.225 84.1753 152.047 84.2555C151.893 84.3342 151.738 84.4129 151.583 84.4916C151.407 84.5945 151.232 84.7088 151.058 84.8345C150.905 84.9359 150.73 85.0502 150.532 85.1774C150.358 85.303 150.205 85.4045 150.073 85.4817C149.941 85.5589 149.82 85.6353 149.711 85.711C148.832 86.2257 148.149 86.6132 147.664 86.8735C147.202 87.1324 146.949 87.286 146.907 87.3345C146.731 87.4374 145.791 87.9104 144.089 88.7533L144.029 88.8942C144.551 89.8875 144.898 90.995 145.07 92.2168C145.265 93.4371 145.272 94.7611 145.092 96.1888C144.812 98.1711 144.254 99.932 143.419 101.471C143.26 101.824 143.075 102.133 142.864 102.399C142.676 102.662 142.463 102.893 142.225 103.091C141.192 104.05 140.228 103.977 139.333 102.871C139.183 102.675 139.043 102.468 138.915 102.248C138.807 102.004 138.688 101.749 138.556 101.484C137.025 97.6566 136.648 93.8337 137.424 90.0146C137.512 89.6206 137.614 89.2599 137.729 88.9326C137.843 88.5826 137.972 88.2886 138.116 88.0507C138.572 87.3357 139.109 87.0034 139.729 87.0539C140.003 87.0586 140.218 87.0217 140.373 86.943C140.947 86.6539 141.591 86.7143 142.303 87.1241C142.35 87.1438 142.385 87.1643 142.41 87.1855C142.434 87.2068 142.457 87.2166 142.48 87.2151C142.975 87.7991 143.653 87.8572 144.512 87.3895C145.045 87.1489 145.531 86.9113 145.973 86.6767C146.414 86.4421 146.788 86.2347 147.096 86.0546C147.798 85.6201 148.551 85.091 149.355 84.4671C150.159 83.8432 151.025 83.1239 151.953 82.3092C152.147 82.1365 152.332 81.9874 152.506 81.8617C152.679 81.7133 152.821 81.6126 152.932 81.5596C153.458 81.2281 153.944 81.1618 154.391 81.3607C154.814 81.5384 155.123 81.8948 155.318 82.43C155.46 82.8545 155.512 83.285 155.472 83.7215C155.474 84.7947 155.397 85.7131 155.242 86.4769C155.21 86.6846 155.088 87.4234 154.875 88.6934C154.683 89.9392 154.402 91.7503 154.034 94.1267C153.996 94.2434 153.939 94.601 153.865 95.1997C153.981 95.2377 154.135 95.1476 154.326 94.9295C154.366 94.8355 154.438 94.7166 154.543 94.5727C154.669 94.4045 154.814 94.1894 154.98 93.9273C155.147 93.688 155.292 93.4728 155.417 93.282C155.541 93.0911 155.645 92.9358 155.729 92.8161C156.021 92.4086 156.283 92.0488 156.514 91.7368C156.744 91.4247 156.976 91.1354 157.21 90.8688C157.38 90.6749 157.54 90.5045 157.69 90.3576C157.862 90.1864 158.057 90.0365 158.277 89.9079C159.017 89.3567 159.802 89.305 160.63 89.7528C160.749 89.8135 160.892 89.9068 161.06 90.0328C161.249 90.1345 161.439 90.2476 161.63 90.372L162.212 90.8817C162.333 90.9879 162.442 91.0835 162.539 91.1684C162.657 91.2292 162.741 91.2921 162.791 91.3573C163.15 91.6077 163.463 91.8384 163.728 92.0492C163.991 92.2374 164.218 92.3937 164.409 92.5181C165.936 93.5136 167.469 93.5497 169.006 92.6263C169.377 92.3507 169.747 92.0865 170.119 91.8336C170.49 91.5808 170.86 91.2938 171.227 90.9728C171.486 90.7502 171.789 90.4904 172.135 90.1936C172.479 89.8741 172.877 89.5053 173.329 89.0873C173.804 88.6678 174.171 88.3468 174.43 88.1241C174.712 87.9 174.908 87.7501 175.017 87.6744C175.123 87.5533 175.264 87.4298 175.438 87.3042C175.611 87.1557 175.796 87.018 175.993 86.8908C176.233 86.7151 176.44 86.7358 176.614 86.9527C176.689 87.0618 176.666 87.2232 176.543 87.4369C176.5 87.4853 176.469 87.5331 176.45 87.58C176.43 87.627 176.399 87.6747 176.356 87.7232C176.247 87.7989 176.161 87.8731 176.097 87.9458C176.032 87.9958 175.978 88.045 175.935 88.0935C174.394 89.6565 172.57 91.2497 170.461 92.8729C169.768 93.4438 169.053 93.8449 168.314 94.0763C167.574 94.2849 166.803 94.3586 165.999 94.2973C165.266 94.2543 164.532 94.04 163.799 93.6545C163.632 93.5513 163.371 93.3972 163.015 93.1923C162.682 92.9859 162.241 92.7067 161.693 92.3546C161.644 92.3121 161.584 92.2704 161.513 92.2294C161.465 92.187 161.415 92.1331 161.365 92.0679C161.271 92.0284 161.19 91.9995 161.12 91.9813C161.071 91.9388 161.023 91.8963 160.974 91.8539C160.926 91.8114 160.866 91.7697 160.795 91.7287C160.746 91.6862 160.687 91.6445 160.615 91.6035C160.521 91.564 160.439 91.5238 160.368 91.4828C160.319 91.4403 160.271 91.3979 160.222 91.3554C159.962 91.2127 159.729 91.1481 159.524 91.1616C159.411 91.1691 159.214 91.2962 158.933 91.5431C158.657 91.8581 158.394 92.1952 158.143 92.5542C157.79 93.0799 157.404 93.642 156.987 94.2404C156.592 94.8373 156.188 95.4576 155.774 96.1015C155.605 96.3181 155.441 96.603 155.282 96.956C155.177 97.0999 155.073 97.2438 154.968 97.3877C154.886 97.5302 154.805 97.6839 154.724 97.8491C154.62 97.993 154.525 98.1248 154.442 98.2445C154.359 98.3642 154.287 98.4945 154.228 98.6354C154.081 98.8278 153.932 98.9974 153.782 99.1443C153.655 99.2897 153.526 99.4124 153.395 99.5123C153.071 99.7849 152.7 99.8779 152.283 99.7911C151.915 99.7469 151.604 99.5276 151.349 99.1334C151.099 98.8073 150.981 98.3926 150.993 97.8894C150.935 97.0027 150.898 96.2743 150.884 95.7044C150.867 95.1117 150.862 94.6782 150.866 94.4039C150.913 93.3732 151.013 92.2933 151.167 91.1642C151.321 90.0351 151.539 88.8447 151.822 87.5929C151.945 87.0367 152.06 86.5268 152.166 86.0631C152.296 85.5978 152.404 85.1682 152.493 84.7742ZM143.96 93.0435C143.713 91.37 143.166 90.0016 142.32 88.9384C142.227 88.9217 142.02 88.901 141.699 88.8765C141.561 88.8628 141.424 88.8604 141.287 88.8694C141.172 88.8542 141.068 88.8382 140.976 88.8214C140.872 89.3306 140.783 89.7133 140.709 89.9694C140.657 90.224 140.632 90.3627 140.634 90.3854C140.565 91.075 140.506 91.7411 140.457 92.3838C140.407 93.0036 140.343 93.6016 140.267 94.1775C140.218 95.1627 140.2 96.1115 140.215 97.024C140.229 97.9365 140.287 98.8118 140.388 99.6501C140.401 99.8548 140.442 100.126 140.51 100.464C140.576 100.779 140.647 101.163 140.723 101.615C140.747 101.636 140.785 101.691 140.836 101.779C140.911 101.865 140.999 101.996 141.102 102.172C141.278 102.069 141.452 101.932 141.623 101.761C141.816 101.566 142.016 101.313 142.224 101.002C142.508 100.458 142.767 99.8816 143 99.2724C143.256 98.6391 143.463 97.9746 143.623 97.279C143.822 96.4894 143.944 95.7506 143.99 95.0625C144.058 94.3502 144.048 93.6772 143.96 93.0435ZM205.741 64.1728C205.798 63.6438 205.771 63.2345 205.66 62.945L205.286 64.0314C204.035 67.9047 202.547 72.1931 200.825 76.8966C199.124 81.5759 197.156 86.718 194.922 92.323C194.606 93.0745 194.29 93.8261 193.975 94.5777C193.657 95.3065 193.339 96.0239 193.02 96.73C192.818 97.1315 192.583 97.5467 192.314 97.9754C192.069 98.4027 191.79 98.8549 191.479 99.3321C191.314 99.5942 191.124 99.8351 190.91 100.055C190.717 100.25 190.502 100.447 190.264 100.645C189.762 100.998 189.247 101.158 188.72 101.124C188.167 101.046 187.705 100.802 187.336 100.393C187.139 100.178 186.953 99.9501 186.777 99.7105C186.6 99.4481 186.421 99.163 186.241 98.8552C185.53 97.4177 185.005 95.6939 184.667 93.6838C184.566 93.1881 184.484 92.8053 184.42 92.5354C184.378 92.2413 184.342 92.0382 184.312 91.926L184.127 92.2465C184.107 92.2934 184.088 92.3404 184.068 92.3874C184.047 92.4116 184.026 92.4472 184.006 92.4942C184.009 92.5397 184 92.5745 183.979 92.5988C183.958 92.623 183.937 92.6586 183.918 92.7056L182.392 96.0602C182.231 96.3905 182.046 96.711 181.838 97.0215C181.652 97.3079 181.433 97.6192 181.181 97.9555C180.952 98.2903 180.594 98.5878 180.109 98.8482C179.603 99.1327 179.15 99.1968 178.752 99.0404C178.283 98.8657 177.933 98.5691 177.7 98.1506C177.424 97.7805 177.268 97.3227 177.232 96.777C177.097 95.7583 177.092 94.6397 177.217 93.4211C177.432 91.8313 177.769 90.359 178.227 89.0043C178.663 87.6511 179.207 86.3707 179.858 85.1632C180.042 84.8314 180.258 84.4746 180.507 84.0928C180.779 83.7095 181.083 83.3013 181.42 82.8681C181.59 82.6742 181.772 82.5023 181.968 82.3524C182.162 82.1797 182.379 82.0056 182.619 81.8299C183.213 81.4939 183.811 81.386 184.413 81.5062C185.063 81.6689 185.546 82.0709 185.862 82.7123C186.323 83.4584 186.418 84.2171 186.149 84.9884C186.128 85.0126 186.001 85.3407 185.769 85.9726C186.069 86.3639 186.244 86.9461 186.295 87.7191C186.422 90.3369 186.537 92.0763 186.639 92.9373C186.686 93.2996 186.765 93.8082 186.876 94.4631C187.011 95.1164 187.178 95.9275 187.379 96.8962C187.437 97.0751 187.509 97.2987 187.595 97.5671C187.68 97.8127 187.79 98.1023 187.926 98.4358C187.981 98.5693 188.035 98.7027 188.089 98.8361C188.167 98.9681 188.256 99.1106 188.357 99.2638C188.754 99.74 189.18 99.7919 189.635 99.4194C189.809 99.2937 189.96 99.1581 190.088 99.0127C190.237 98.8431 190.364 98.6977 190.47 98.5765C190.722 98.2402 190.93 97.9296 191.094 97.6448C191.28 97.3585 191.446 97.0964 191.59 96.8585C191.935 96.1964 192.228 95.6176 192.469 95.1222C192.709 94.604 192.907 94.1456 193.063 93.7471C195.624 87.5497 197.893 81.7826 199.87 76.4457C201.848 71.1088 203.523 66.2029 204.895 61.728C204.931 61.5886 204.977 61.4143 205.032 61.2052C205.109 60.9945 205.194 60.7263 205.287 60.4005C205.38 60.0747 205.464 59.7951 205.54 59.5617C205.614 59.3056 205.68 59.0844 205.736 58.898C205.943 58.2221 206.132 57.4561 206.304 56.5998C206.476 55.7436 206.642 54.7964 206.802 53.7582C206.858 53.2293 206.976 52.4109 207.154 51.303C207.355 50.1936 207.604 48.7728 207.901 47.0406C207.934 46.8557 207.988 46.6352 208.062 46.3791C208.137 46.123 208.219 45.8093 208.309 45.438C208.445 45.0865 208.633 44.8115 208.871 44.6131C209.158 44.4572 209.442 44.4385 209.724 44.5569C210.028 44.6739 210.201 44.868 210.242 45.1394C210.267 45.5259 210.249 45.9382 210.186 46.3762C210.151 46.5383 210.109 46.7694 210.06 47.0695C210.033 47.3454 209.975 47.6803 209.887 48.0743C209.799 48.4683 209.731 48.8268 209.684 49.1496C209.635 49.4497 209.595 49.7035 209.563 49.9111C209.054 53.6213 208.654 57.4383 208.365 61.3623C208.276 62.784 208.168 64.4353 208.04 66.3163C207.934 68.173 207.811 70.282 207.669 72.6434C207.636 73.1709 207.613 73.6976 207.602 74.2235C207.614 74.748 207.615 75.2845 207.606 75.8332C207.657 80.0773 207.785 84.0994 207.99 87.8995C208.217 91.6981 208.514 95.3437 208.882 98.8362C209.101 100.786 209.33 102.529 209.569 104.066C209.809 105.626 210.07 106.99 210.352 108.159C210.473 108.608 210.621 109.123 210.797 109.705C210.972 110.288 211.196 110.912 211.468 111.579C211.556 111.871 211.812 112.299 212.238 112.865C212.464 113.169 212.762 113.195 213.134 112.943C213.134 112.943 213.166 112.918 213.232 112.868C213.295 112.795 213.337 112.735 213.357 112.688C213.401 112.662 213.444 112.625 213.486 112.577C213.768 112.353 214.085 112.309 214.437 112.446C214.746 112.631 214.903 112.929 214.907 113.34C214.869 113.799 214.712 114.197 214.438 114.535C213.973 115.114 213.367 115.451 212.62 115.545C211.897 115.662 211.223 115.478 210.597 114.994C210.238 114.743 209.909 114.423 209.609 114.031C209.333 113.661 209.065 113.234 208.805 112.748C208.242 111.484 207.808 110.097 207.503 108.587C207.192 107.328 206.934 106.009 206.729 104.63C206.546 103.249 206.383 101.81 206.238 100.312C205.951 97.3394 205.742 94.3389 205.611 91.3103C205.479 88.2591 205.411 85.1578 205.409 82.0066C205.397 81.8247 205.394 81.4253 205.399 80.8084C205.404 80.1915 205.394 79.3473 205.369 78.2756C205.37 77.2479 205.366 76.3347 205.359 75.5359C205.374 74.7129 205.386 74.027 205.395 73.4783C205.407 71.9247 205.442 70.381 205.501 68.8471C205.558 67.2905 205.638 65.7324 205.741 64.1728ZM181.174 89.0157C180.671 90.3961 180.284 91.7918 180.011 93.2028C179.716 94.6152 179.639 95.7049 179.781 96.472C179.953 96.3009 180.111 96.1077 180.257 95.8926C180.424 95.6533 180.588 95.3684 180.749 95.0381C181.055 94.4927 181.347 93.8912 181.623 93.2335C181.921 92.5517 182.205 91.8365 182.475 91.0879C182.551 90.8546 182.636 90.5863 182.73 90.2833C182.825 89.9802 182.949 89.618 183.104 89.1968C183.238 88.7998 183.353 88.4724 183.45 88.2148C183.548 87.9572 183.624 87.7353 183.681 87.5489C183.776 87.2685 183.853 87.0465 183.911 86.8829C183.968 86.7192 184.017 86.5904 184.057 86.4965C184.079 86.495 184.312 86.217 184.755 85.6626C184.752 85.6171 184.737 85.561 184.71 85.4943C184.681 85.4049 184.636 85.248 184.576 85.0236C184.458 84.6203 184.281 84.3579 184.045 84.2365C183.05 85.0785 182.093 86.6715 181.174 89.0157ZM321.374 43.0915C321.485 43.0385 321.573 42.9984 321.64 42.9712C321.729 42.9425 321.819 42.9137 321.908 42.885C321.921 42.0392 321.925 41.3996 321.919 40.9661C321.913 40.5326 321.909 40.2931 321.906 40.2476C321.543 31.6168 319.2 23.79 314.878 16.7673C311.573 11.3218 307.016 7.30612 301.205 4.72036C298.543 3.47995 295.813 2.78062 293.017 2.62235C292.1 2.56859 291.154 2.59666 290.179 2.70656C289.227 2.81496 288.224 3.00669 287.169 3.28174C284.222 3.95549 281.174 5.18392 278.026 6.96703C273.534 9.50091 269.208 12.8004 265.045 16.8654C260.648 21.1743 256.89 26.0005 253.771 31.3441C251.534 35.1681 249.605 38.9946 247.985 42.8236C246.387 46.6511 245.066 50.5175 244.022 54.4227C243.365 56.9323 242.837 59.4904 242.438 62.0972C242.037 64.6812 241.756 67.3373 241.593 70.0655C241.481 71.8312 241.432 73.5129 241.446 75.1105C241.46 76.7081 241.537 78.2216 241.677 79.6511C242.124 85.3991 243.32 90.5497 245.264 95.1029C246.943 99.1027 249.201 102.516 252.036 105.344C252.625 105.967 253.245 106.543 253.897 107.071C254.572 107.62 255.27 108.157 255.989 108.68C257.783 109.909 259.634 110.975 261.544 111.876C263.475 112.777 265.477 113.524 267.549 114.118C271.458 115.231 275.623 115.539 280.044 115.042C283.736 114.593 287.4 113.872 291.034 112.879C292.804 112.374 294.499 111.76 296.119 111.037C297.74 110.336 299.317 109.502 300.852 108.533C301.686 108.021 302.464 107.524 303.186 107.043C303.931 106.56 304.618 106.081 305.249 105.605C310.829 101.561 315.617 97.295 319.615 92.8069C322.292 89.776 324.638 87.0866 326.653 84.7388C328.689 82.3667 330.436 80.2877 331.894 78.5018L333 77.093L332.668 76.7381C332.517 76.5197 332.518 76.3598 332.671 76.2584C332.823 76.1342 332.98 76.101 333.144 76.1587C333.774 76.3683 333.973 76.7777 333.739 77.3869C333.62 77.6687 333.468 77.9528 333.281 78.2391C333.05 78.5512 332.841 78.839 332.653 79.1026C332.465 79.3662 332.265 79.6306 332.054 79.8957C329.689 82.8146 327.309 85.6889 324.915 88.5185C322.521 91.348 320.068 94.1472 317.556 96.916C316.811 97.7415 315.988 98.595 315.087 99.4765C314.209 100.356 313.24 101.254 312.182 102.168C310.626 103.504 309.041 104.762 307.429 105.941C305.841 107.142 304.194 108.301 302.486 109.418C300.36 110.769 298.141 111.92 295.829 112.871C293.518 113.846 291.079 114.612 288.513 115.169C284.395 116.102 280.732 116.652 277.523 116.818C272.817 117.128 268.309 116.477 264.001 114.866C261.683 113.991 259.54 113.002 257.572 111.898C255.628 110.816 253.833 109.576 252.188 108.177C248.63 105.123 245.767 101.178 243.599 96.343C242.178 93.1483 241.116 89.6787 240.412 85.9343C239.567 81.4228 239.246 76.5571 239.45 71.3371C239.84 59.2312 243.007 47.342 248.952 35.6693C249.86 33.8511 250.776 32.158 251.7 30.5899C252.646 28.9976 253.586 27.497 254.52 26.0881C260.141 17.8165 267.11 11.1231 275.428 6.00785C278.631 4.01561 281.823 2.56068 285.005 1.64308C286.394 1.23187 287.756 0.936593 289.092 0.757248C290.426 0.555166 291.746 0.491005 293.053 0.564765C294.265 0.599044 295.439 0.738637 296.574 0.983543C297.732 1.22695 298.873 1.56281 299.997 1.99111C306.442 4.48945 311.61 8.57908 315.501 14.26C316.312 15.4853 317.109 16.8372 317.892 18.3157C318.673 19.7714 319.442 21.3991 320.2 23.1989C321.961 27.3988 323.07 31.7559 323.528 36.2701C323.936 39.3489 324.094 41.7476 324.002 43.4664C323.963 44.6107 323.796 45.7179 323.501 46.7877C323.371 47.2302 323.22 47.5484 323.051 47.7423C322.758 48.1498 322.393 48.3337 321.957 48.2939C321.546 48.2982 321.212 48.0804 320.954 47.6406C320.798 47.3541 320.666 46.7234 320.556 45.7487C320.494 44.8165 320.533 44.186 320.671 43.8572C320.78 43.4389 321.015 43.1837 321.374 43.0915ZM366.168 80.2853L366.179 80.4558L366.195 80.6946C366.221 80.7386 366.236 80.7946 366.24 80.8629C366.243 80.9083 366.257 80.9417 366.281 80.9629C366.412 80.863 366.594 80.5084 366.828 79.8993C367.346 78.4037 367.872 77.0331 368.406 75.7876C368.939 74.5193 369.468 73.3541 369.991 72.292C370.514 71.2071 371.01 70.2496 371.481 69.4193C371.972 68.5648 372.449 67.8255 372.91 67.2014C373.541 66.3834 374.333 65.4063 375.286 64.2703C375.583 63.931 375.916 63.6122 376.285 63.3138C376.653 63.0155 377.046 62.7385 377.463 62.4826C377.905 62.248 378.425 62.1795 379.025 62.2769C379.627 62.3971 380.112 62.6506 380.48 63.0374C380.831 63.5167 380.812 63.9176 380.422 64.2401C380.095 64.4672 379.786 64.4647 379.497 64.2326C379.474 64.2341 379.376 64.1264 379.201 63.9095C378.157 64.0012 377.269 64.3908 376.538 65.0784C376.173 65.4221 375.883 65.7038 375.669 65.9235C375.454 66.1203 375.293 66.2794 375.187 66.4005C374.575 67.1716 374.071 67.8328 373.673 68.3842C373.276 68.9357 372.974 69.378 372.767 69.7113C370.4 73.2927 368.745 76.9413 367.802 80.6572C367.672 81.0997 367.56 81.4838 367.467 81.8096C367.397 82.1339 367.314 82.4249 367.217 82.6825C367.16 82.8689 367.091 83.0333 367.009 83.1757C366.927 83.3181 366.845 83.4492 366.761 83.5688C366.597 83.8537 366.356 84.0066 366.038 84.0276C365.7 84.0955 365.418 83.9771 365.192 83.6722C364.923 83.3931 364.718 83.064 364.579 82.685C364.443 82.3514 364.329 82.005 364.237 81.6457C364.144 81.2864 364.029 80.9172 363.89 80.5382C363.381 78.3567 362.978 76.2366 362.683 74.178C362.387 72.1194 362.196 70.0882 362.11 68.0843L362.087 67.7433L362.076 67.5727C361.87 67.5635 361.761 67.6392 361.749 67.7998L361.721 67.9044C360.421 71.7352 359.436 74.6317 358.766 76.5941C358.117 78.5322 357.763 79.5718 357.704 79.7127C357.455 80.437 357.164 81.2212 356.831 82.0652C356.499 82.9092 356.138 83.8464 355.749 84.8768C355.588 85.2071 355.406 85.5616 355.203 85.9404C354.999 86.3192 354.763 86.7229 354.495 87.1517C354.12 87.7016 353.705 88.1628 353.25 88.5354C352.408 89.2759 351.434 89.3972 350.328 88.8992C350.001 88.7837 349.681 88.6107 349.369 88.38C349.055 88.1267 348.75 87.8271 348.453 87.4813C347.446 86.4058 346.71 85.107 346.244 83.5849C346.162 83.3847 345.936 82.5433 345.564 81.0607C345.511 80.95 345.47 80.8499 345.441 80.7605C345.435 80.6695 345.42 80.602 345.394 80.5581C345.303 80.5641 345.226 80.6034 345.162 80.6761C345.053 80.7518 345 80.8124 345.003 80.8579L344.914 81.0693C344.874 81.1632 344.855 81.2102 344.855 81.2102L344.823 81.2465C344.366 82.2814 343.87 83.2504 343.336 84.1533C342.824 85.0548 342.298 85.9115 341.758 86.7236C341.348 87.4356 340.867 88.1067 340.315 88.7369C340.145 88.9307 339.963 89.1026 339.767 89.2525C339.571 89.4024 339.363 89.5417 339.144 89.6704C338.243 90.2093 337.457 90.067 336.786 89.2434C336.589 89.028 336.437 88.7983 336.33 88.5542C336.198 88.2888 336.089 88.022 336.003 87.7536C335.843 87.0563 335.724 86.4703 335.647 85.9958C335.57 85.5214 335.511 85.1371 335.469 84.843C335.162 81.2323 335.796 77.8565 337.37 74.7156C337.735 74.0065 338.125 73.3527 338.543 72.7544C338.96 72.156 339.416 71.6235 339.91 71.1571C340.405 70.6906 340.917 70.3143 341.446 70.0283C341.996 69.718 342.598 69.4956 343.252 69.3612C344.198 69.1619 345.042 69.3232 345.784 69.8452C346.478 70.3247 346.805 70.954 346.765 71.733C346.76 72.0074 346.695 72.24 346.571 72.4309C346.433 72.7597 346.239 72.9323 345.989 72.9488C345.716 72.9668 345.501 72.8211 345.343 72.5118C344.974 72.1022 344.695 71.858 344.507 71.779C344.254 71.75 343.893 71.8195 343.425 71.9874C343.047 72.1493 342.684 72.3559 342.335 72.6072C341.985 72.8358 341.639 73.1326 341.298 73.4977C340.653 74.111 340.077 74.8912 339.568 75.8381C338.912 76.9775 338.4 78.2101 338.03 79.5361C337.66 80.8394 337.432 82.2359 337.347 83.7258C337.332 84.1836 337.317 84.6527 337.303 85.1332C337.288 85.5909 337.296 86.0699 337.329 86.5701C337.338 86.7065 337.375 86.9096 337.438 87.1795C337.5 87.4266 337.566 87.7419 337.637 88.1255C337.733 88.5302 337.954 88.7669 338.301 88.8353C338.708 88.7856 339.102 88.5199 339.481 88.0382C339.779 87.6989 340.043 87.3846 340.276 87.0953C340.506 86.7832 340.706 86.5189 340.874 86.3023C341.748 85.0115 342.537 83.6351 343.24 82.1729C343.942 80.7108 344.558 79.1289 345.085 77.4271C345.211 76.9164 345.295 76.6368 345.338 76.5883C345.521 76.2565 345.762 76.0922 346.059 76.0955C346.377 76.0745 346.638 76.2172 346.841 76.5235C346.892 76.6115 346.933 76.7116 346.963 76.8238C347.016 76.9344 347.06 77.08 347.095 77.2604L347.178 78.5223C347.267 79.5212 347.387 80.4838 347.54 81.41C347.713 82.312 347.941 83.1762 348.224 84.0025C348.398 84.5619 348.602 85.0623 348.837 85.5035C349.094 85.9433 349.361 86.3482 349.636 86.7182C349.833 86.9336 350.028 87.1263 350.222 87.2962C350.416 87.4661 350.61 87.636 350.804 87.8059C351.401 88.2005 352.006 88.1949 352.618 87.7891C352.856 87.5908 353.061 87.406 353.233 87.2348C353.425 87.0395 353.583 86.835 353.706 86.6213C354.016 86.1214 354.283 85.6699 354.507 85.2669C354.732 84.8639 354.902 84.4987 355.018 84.1714C355.412 83.232 355.776 82.3402 356.109 81.4962C356.462 80.628 356.784 79.7961 357.075 79.0005C358.17 75.8684 359.107 72.9293 359.885 70.1834C360.684 67.4133 361.346 64.812 361.871 62.3797C361.909 62.263 361.945 62.1236 361.98 61.9614C362.015 61.7993 362.048 61.603 362.079 61.3726C362.12 60.9589 362.16 60.705 362.2 60.6111C362.24 60.1746 362.29 59.9086 362.353 59.8132C362.488 59.4389 362.77 59.2148 363.199 59.1408C363.608 59.1139 363.917 59.299 364.126 59.6963C364.279 59.9374 364.377 60.205 364.419 60.4991L364.547 62.4431C364.779 65.6248 364.953 68.0797 365.067 69.8077C365.18 71.5357 365.249 72.5816 365.273 72.9454C365.312 73.194 365.395 73.9308 365.522 75.1556C365.671 76.3789 365.886 78.0888 366.168 80.2853ZM406.271 71.2373C406.41 71.2738 406.485 71.3716 406.496 71.5308C406.533 71.7566 406.466 71.9438 406.293 72.0922C406.062 72.4043 405.816 72.6489 405.553 72.826L404.252 73.8709C403.275 74.6431 402.429 75.3155 401.713 75.8879C400.997 76.4603 400.401 76.9335 399.923 77.3075C399.616 77.5104 399.222 77.7647 398.74 78.0705C398.28 78.3748 397.732 78.7192 397.095 79.1037L396.866 79.2559C396.118 79.6933 395.283 80.0224 394.362 80.243C394.16 80.3019 393.946 80.3503 393.72 80.388C393.517 80.4242 393.325 80.4483 393.143 80.4603C391.892 80.5427 390.814 80.294 389.908 79.7143C389.716 79.5672 389.523 79.42 389.331 79.2728C389.137 79.1029 388.954 78.9322 388.783 78.7608C388.415 78.374 388.136 77.9471 387.945 77.4802C387.708 76.9934 387.537 76.4795 387.433 75.9383C387.425 75.8246 387.375 75.5767 387.281 75.1947L387.263 74.9218L387.239 74.0328L387.312 73.5827C387.345 73.3978 387.37 73.2478 387.385 73.1326C387.399 72.9947 387.414 72.8795 387.431 72.787C387.576 72.2294 387.747 71.7043 387.943 71.2118C388.139 70.7194 388.37 70.236 388.636 69.7618C389.032 69.1877 389.438 68.7727 389.855 68.5168C390.315 68.2125 390.774 68.0795 391.233 68.1177C391.553 68.1195 391.846 68.2372 392.113 68.4708C392.234 68.577 392.323 68.7082 392.379 68.8643C392.435 69.0205 392.469 69.1895 392.481 69.3714C392.509 69.8034 392.365 70.224 392.05 70.633C391.44 71.4267 390.964 71.9948 390.621 72.3371C390.515 72.4582 390.365 72.6165 390.173 72.8119C389.978 72.9845 389.752 73.1935 389.494 73.4389C389.238 73.707 389.089 73.8653 389.046 73.9137C388.906 74.5624 388.892 75.2141 389.004 75.869C389.189 76.9529 389.679 77.7998 390.473 78.4097C391.268 79.0424 392.2 79.3235 393.269 79.2531L393.371 79.2464C393.756 79.1982 394.14 79.1272 394.522 79.0335C394.926 78.9384 395.327 78.7863 395.725 78.5775C396.387 78.2369 396.993 77.9002 397.542 77.5671C398.507 76.9555 399.402 76.337 400.229 75.7116C401.078 75.0848 401.881 74.4496 402.638 73.806C402.876 73.6076 403.201 73.335 403.612 72.9882C404.044 72.6172 404.562 72.1606 405.166 71.6184L405.491 71.3572C405.818 71.1301 406.078 71.0901 406.271 71.2373ZM391.123 69.5637C391.009 69.5711 390.816 69.7552 390.543 70.1157C390.097 70.6246 389.77 71.2057 389.562 71.8588C390.237 71.3576 390.692 70.8252 390.929 70.2615L390.927 70.2274C391.032 70.0835 391.092 69.9539 391.107 69.8387C391.122 69.7236 391.128 69.6319 391.123 69.5637Z" fill="#EB3737"/>
</svg>
