<svg width="235" height="91" viewBox="0 0 235 91" fill="none" xmlns="http://www.w3.org/2000/svg">
<path d="M49.6924 28.1896L49.1475 28.7159C48.9026 29.059 48.6764 29.4603 48.4689 29.9198C48.3622 30.1051 48.2427 30.3211 48.1103 30.5676C48.0056 30.7825 47.8871 31.0132 47.7547 31.2597C47.6243 31.5358 47.4909 31.7675 47.3547 31.9549C47.246 32.1106 47.167 32.2644 47.1176 32.4163C44.8673 36.6068 42.6102 40.6937 40.3463 44.6771C38.0824 48.6604 35.7702 52.5875 33.4097 56.4583C30.6778 61.0075 28.0905 64.819 25.6478 67.8927C24.6031 69.1802 23.6603 70.2083 22.8193 70.977C22.1757 71.5841 21.2983 72.2513 20.187 72.9784C19.2751 73.5735 18.2244 73.8656 17.0348 73.8548C15.0699 73.806 13.6028 72.9664 12.6334 71.3361C12.5703 71.2808 12.3004 70.7933 11.8237 69.8736C11.2276 70.2993 10.9295 70.5121 10.9295 70.5121C10.7894 70.6403 10.6225 70.8147 10.429 71.0355C10.2336 71.2268 9.99566 71.4505 9.71532 71.7067C9.1605 72.308 8.75674 72.721 8.50405 72.9457C7.584 73.8683 6.79031 74.6785 6.12296 75.3764C5.42407 76.0466 4.83478 76.5758 4.35508 76.9641C4.07475 77.2204 3.79246 77.447 3.50822 77.6441C3.22399 77.8411 2.92398 78.0244 2.6082 78.1938C2.17794 78.4302 1.76265 78.4427 1.36233 78.2313C0.991609 78.018 0.760077 77.6617 0.667739 77.1625C0.543857 76.6357 0.543225 76.175 0.665843 75.7805C0.883435 75.0231 1.07923 74.3861 1.25324 73.8693C1.39765 73.3545 1.53409 72.9443 1.66256 72.6386C3.29881 69.0533 5.8609 65.9865 9.34882 63.4384C9.94494 63.0127 10.5646 62.7192 11.2079 62.558C11.4703 62.4812 11.7367 62.4637 12.0069 62.5053C12.2752 62.5174 12.5751 62.557 12.9064 62.6244C13.6303 62.7847 14.0649 63.2911 14.2103 64.1435C14.2574 64.4078 14.2493 64.7353 14.1859 65.1259C14.0574 65.4316 13.8796 65.6662 13.6526 65.8298C13.5086 65.8987 13.3497 65.9686 13.1761 66.0395C13.032 66.1085 12.8554 66.135 12.6463 66.119C11.6284 66.0078 10.6941 66.2625 9.84332 66.8833C6.62403 68.9977 4.23968 71.8298 2.69026 75.3796L2.6395 75.9626C2.76178 76.014 2.86633 76.0219 2.95316 75.9865C3.04 75.951 3.1278 75.9304 3.21658 75.9245L3.25805 75.8772C3.28764 75.8753 3.33008 75.8428 3.38537 75.7797C3.4683 75.685 3.50879 75.6229 3.50684 75.5933C4.24313 75.0395 5.07227 74.3162 5.99426 73.4232C6.91625 72.5302 7.94687 71.4815 9.08611 70.2769C9.50271 69.8334 9.85021 69.4687 10.1286 69.1828C10.4346 68.8654 10.6577 68.6427 10.7979 68.5146C11.8106 67.6453 12.7111 67.7792 13.4994 68.9161C13.5328 68.9734 13.5515 69.0316 13.5554 69.0908C13.5889 69.148 13.6372 69.2043 13.7003 69.2596C13.8304 69.4293 13.9289 69.5714 13.9959 69.6859C14.0629 69.8004 14.1318 69.9445 14.2027 70.1181C15.3119 72.0661 16.8937 72.6158 18.9481 71.7671C19.3526 71.5918 19.7118 71.4047 20.0256 71.2057C20.3691 71.0047 20.6957 70.7751 21.0057 70.5169C21.3985 70.1641 21.7904 69.7965 22.1813 69.414C22.5999 69.0001 23.0175 68.5713 23.4341 68.1277C25.5626 65.6989 27.8416 62.6211 30.2711 58.8943C31.9164 56.3487 33.5944 53.6225 35.3051 50.7159C37.0434 47.7778 38.8273 44.6286 40.6567 41.2683C41.9843 38.8625 43.5589 35.9202 45.3805 32.4416C47.2317 28.961 49.4019 24.9095 51.8913 20.2872C52.0217 20.0111 52.2262 19.5072 52.505 18.7755C52.8113 18.0122 53.2195 16.9896 53.7295 15.7077C53.9132 15.3389 54.1207 14.8794 54.352 14.3292C54.5813 13.7494 54.8501 13.0926 55.1584 12.359C55.4628 11.5661 55.7159 10.8956 55.9175 10.3473C56.1488 9.79704 56.3405 9.32371 56.4927 8.92729C56.5955 8.68274 56.6992 8.45299 56.804 8.23803C56.9363 7.99153 57.0854 7.77365 57.2513 7.58438C57.4351 7.21561 57.6868 6.97611 58.0065 6.86587C58.3242 6.72605 58.6378 6.74996 58.9474 6.93762C59.259 7.15487 59.382 7.44398 59.3167 7.80496C59.2711 8.01601 59.2127 8.25764 59.1415 8.52983C59.0703 8.80202 58.9724 9.12056 58.8478 9.48543C57.2128 13.9921 55.7307 18.5629 54.4014 23.198C53.0701 27.8035 51.8651 32.5196 50.7862 37.3462C50.0042 40.8158 49.229 44.6119 48.4603 48.7345C47.7194 52.8255 46.988 57.2875 46.2661 62.1203C46.2443 62.2407 46.2117 62.4211 46.1681 62.6618C46.1521 62.8709 46.1272 63.1698 46.0934 63.5584C46.028 63.9194 45.9745 64.235 45.9329 64.5052C45.9208 64.7735 45.892 65.0132 45.8465 65.2242L45.9079 66.1564C46.6761 65.1844 47.075 64.6975 47.1046 64.6955C48.9785 62.4617 50.9062 60.8189 52.8877 59.7669C53.4601 59.432 54.0078 59.173 54.5307 58.9899C55.0517 58.7773 55.5293 58.5823 55.9634 58.4051C58.2129 57.811 60.1251 58.4132 61.7 60.2117C62.8924 61.6192 63.694 63.4092 64.1046 65.5816L64.3904 67.2123C64.4734 67.1177 64.6303 67.0182 64.8612 66.9138C65.0901 66.7798 65.2322 66.6813 65.2875 66.6182C65.3428 66.5551 65.4001 66.5216 65.4592 66.5177C65.5165 66.4842 65.5737 66.4507 65.631 66.4172C65.858 66.2537 66.1136 66.0733 66.3978 65.8763C66.7097 65.6477 67.0344 65.3885 67.372 65.0988C68.0806 64.5765 68.7616 64.0858 69.415 63.6266C69.7249 63.3684 70.023 63.1556 70.3092 62.9881C70.623 62.7891 70.923 62.6059 71.2092 62.4384C72.1725 61.721 73.3162 61.0364 74.6405 60.3844C75.5524 59.7893 76.5755 59.5287 77.7098 59.6025C78.1004 59.666 78.337 59.8733 78.4196 60.2245C78.5337 60.6034 78.419 60.8933 78.0756 61.0943C77.9611 61.1613 77.8467 61.2283 77.7322 61.2952C77.6158 61.3326 77.5141 61.3691 77.4273 61.4045C76.7623 61.6861 76.0557 62.015 75.3077 62.3912C74.5874 62.7359 73.8423 63.1566 73.0726 63.6531C72.5613 64.0137 71.6376 64.6542 70.3013 65.5745C68.9649 66.4948 67.2013 67.6958 65.0103 69.1777C64.9808 69.1797 64.7981 69.3403 64.4625 69.6596C64.1115 72.0011 63.9271 73.2616 63.9092 73.4411C63.3683 76.5084 62.2888 79.522 60.6708 82.482C60.0584 83.5626 59.4095 84.5416 58.7243 85.419C58.0687 86.2944 57.3608 87.0544 56.6008 87.6989C56.2948 88.0163 55.8999 88.3396 55.4164 88.6686C54.9643 89.0254 54.4235 89.388 53.7939 89.7564C53.1997 90.2117 52.4291 90.4705 51.4821 90.5329C50.5647 90.5933 49.8093 90.4053 49.2158 89.9689C48.9338 89.7497 48.722 89.4664 48.5802 89.1191C48.4384 88.7718 48.3529 88.3762 48.3237 87.9323C48.2749 87.1924 48.3101 86.3727 48.4291 85.4732C48.6945 84.0885 49.3813 82.5572 50.4893 80.8791C51.0285 80.0411 51.6122 79.2001 52.2402 78.3563C52.8978 77.5104 53.6303 76.6745 54.4378 75.8485C55.3559 74.8964 56.3194 73.9561 57.3282 73.0277C58.337 72.0992 59.4218 71.1955 60.5825 70.3166C60.7542 70.2161 60.8953 70.1027 61.0059 69.9766C61.0908 69.9115 61.1766 69.8613 61.2635 69.8258C61.3484 69.7608 61.4194 69.7115 61.4767 69.6781C61.6149 69.5203 61.7402 69.3932 61.8528 69.2966C62.0225 69.1665 62.1351 69.0699 62.1903 69.0069C62.3221 66.9473 62.0799 65.0759 61.4637 63.3927C61.2846 62.9289 61.0639 62.5125 60.8018 62.1434C60.5674 61.7427 60.3043 61.3588 60.0126 60.9916C59.0191 59.8979 57.8052 59.5172 56.3707 59.8495C55.9326 59.9675 55.4965 60.1152 55.0624 60.2924C54.6263 60.44 54.194 60.6468 53.7657 60.9128C52.929 61.2949 52.1296 61.7934 51.3676 62.4083C50.6037 62.9937 49.8476 63.6974 49.0992 64.5195C47.2708 66.5422 45.8922 68.6244 44.9634 70.7662C44.7282 71.2572 44.5435 71.6112 44.4092 71.8281C44.1269 72.0548 43.8644 72.1315 43.6218 72.0583C43.32 71.989 43.114 71.7946 43.0038 71.4749C42.9645 71.3289 42.938 71.1523 42.9243 70.9451C42.9403 70.736 42.9552 70.5121 42.9692 70.2734C43.466 65.6337 43.8525 62.0267 44.1287 59.4524C44.4345 56.8762 44.6251 55.2586 44.7006 54.5997C45.1889 50.7334 45.8054 46.7843 46.5503 42.7524C47.3248 38.7186 48.2552 34.5705 49.3416 30.3081C49.3377 30.2489 49.397 30.0221 49.5196 29.6276C49.6719 29.2312 49.745 28.9886 49.7392 28.8998L49.6895 28.1452L49.8939 27.8642L49.7548 27.7842L49.5919 28.0178C49.5919 28.0178 49.6254 28.0751 49.6924 28.1896ZM61.7965 73.1791C61.7926 73.1199 61.8115 72.9552 61.8531 72.6849C61.8948 72.4147 61.9582 72.0241 62.0434 71.5132C61.7868 71.6787 61.5727 71.8117 61.401 71.9122C61.2588 72.0107 61.174 72.0758 61.1463 72.1073C59.8532 73.2328 58.6895 74.2903 57.6549 75.2799C56.6204 76.2694 55.7023 77.2216 54.9007 78.1364C54.1839 78.9861 53.5391 79.8014 52.9664 80.5822C52.3937 81.363 51.9236 82.1221 51.5561 82.8597C51.0562 83.8437 50.6817 84.7006 50.4326 85.4304C50.2309 85.9787 50.1416 86.6533 50.1647 87.4543C50.1581 88.2572 50.5958 88.585 51.4778 88.4378C52.0638 88.31 52.8118 87.9337 53.7218 87.3091C54.687 86.6213 55.5714 85.8348 56.375 84.9496C57.1767 84.0349 57.9252 82.9899 58.6205 81.8146C60.1436 79.2176 61.2022 76.3391 61.7965 73.1791ZM132.972 57.254L133.067 57.3369C133.067 57.3369 133.159 57.3903 133.345 57.497C133.591 57.6293 133.708 57.8149 133.694 58.0536C133.597 58.3869 133.513 58.6896 133.441 58.9618C133.368 59.2044 133.263 59.4194 133.127 59.6067C132.971 59.9439 132.783 60.2535 132.564 60.5355C132.375 60.8155 132.143 61.128 131.868 61.473C130.822 62.7309 129.844 63.9099 128.936 65.01C128.027 66.1101 127.172 67.1176 126.371 68.0323C126.12 68.2866 125.854 68.5419 125.574 68.7982C125.323 69.0525 125.028 69.3097 124.689 69.5698C123.133 70.7721 121.419 70.9148 119.545 69.9979C118.839 69.6581 118.102 69.0676 117.333 68.2266C116.123 66.9986 115.11 65.386 114.295 63.3889C114.228 63.2744 114.159 63.1304 114.088 62.9567C114.019 62.8126 113.933 62.6399 113.831 62.4386C113.758 62.2354 113.668 62.0035 113.562 61.743C113.43 61.9895 113.323 62.1749 113.242 62.2991C113.161 62.4233 113.122 62.5002 113.124 62.5298C113.074 62.6817 112.996 62.8503 112.889 63.0357C112.812 63.2191 112.709 63.4488 112.578 63.7249C112.446 63.9714 112.328 64.217 112.225 64.4615C112.152 64.7041 112.063 64.9329 111.959 65.1478C111.856 65.3924 111.766 65.6064 111.689 65.7898C111.612 65.9732 111.506 66.1734 111.372 66.3903C111.109 66.9129 110.806 67.4976 110.462 68.1444C110.116 68.7616 109.714 69.4271 109.256 70.1409C109.041 70.4821 108.795 70.8104 108.518 71.1258C108.242 71.4412 107.918 71.7152 107.547 71.9477C106.75 72.4758 105.975 72.6755 105.224 72.5466C104.439 72.3606 103.828 71.8955 103.393 71.1514C103.064 70.6678 102.805 70.1202 102.616 69.5085C102.457 68.8948 102.321 68.1904 102.209 67.3953C101.87 64.9507 101.911 62.4216 102.333 59.8079C102.383 59.6561 102.533 59.0071 102.785 57.8611C103.064 56.6835 103.43 55.0247 103.883 52.8845C103.281 53.2214 102.936 53.3928 102.847 53.3986C102.705 53.4972 101.977 53.9464 100.662 54.7464C99.2886 55.5502 98.3028 56.1502 97.7047 56.5463C97.16 56.8497 96.557 57.1717 95.8959 57.5125C95.2347 57.8533 94.4877 58.2443 93.6548 58.6856C92.966 59.058 92.2871 59.3553 91.6182 59.5777C90.9492 59.8002 90.3217 59.9752 89.7357 60.103C89.7061 60.105 89.6193 60.1404 89.4752 60.2094C89.3608 60.2763 89.1871 60.3472 88.9542 60.422L89.1132 61.4815C90.1085 65.3096 90.1557 69.4081 89.2547 73.7772C88.9912 75.1915 88.4851 76.5327 87.7365 77.8006C87.0411 78.9759 86.1921 79.8492 85.1895 80.4205C83.3046 81.585 81.5519 81.3735 79.9315 79.7862C79.5214 79.4268 79.1518 79.0053 78.8227 78.5217C78.5232 78.0362 78.2346 77.4905 77.9569 76.8846C77.2559 75.2664 76.7512 73.4717 76.443 71.5006C75.8744 66.9311 76.233 62.4492 77.5187 58.0547C77.7619 57.2362 78.0121 56.5212 78.269 55.9099C78.5536 55.2669 78.8894 54.7247 79.2764 54.2831C79.2744 54.2535 79.3733 53.9497 79.573 53.3719C79.9961 52.1254 80.8409 51.6387 82.1072 51.912C83.0126 52.1198 83.9069 52.6107 84.7901 53.3847C85.2337 53.8014 85.6515 54.2791 86.0437 54.818C86.4339 55.3273 86.7975 55.8829 87.1344 56.4849C87.1757 56.6605 87.6366 57.5663 88.5172 59.2025C88.7875 59.2441 89.0705 59.2552 89.3665 59.2357C89.692 59.2142 90.0127 59.1188 90.3285 58.9494C91.1711 58.6561 91.8677 58.4021 92.4182 58.1875C92.9965 57.9414 93.4149 57.7503 93.6734 57.6144C94.9957 56.9328 96.327 56.1615 97.6672 55.3004C99.0054 54.4097 100.382 53.4273 101.798 52.3532C101.995 52.1916 102.306 51.9482 102.73 51.623C103.182 51.2663 103.761 50.7972 104.465 50.2158C105.255 49.5693 105.93 49.4357 106.49 49.8149C107.103 50.1014 107.37 50.7674 107.29 51.813C107.235 51.876 107.153 52.4313 107.043 53.4788C106.597 56.1832 106.26 58.286 106.032 59.7871C105.832 61.2567 105.726 62.1256 105.714 62.3939C105.541 63.3861 105.444 64.3882 105.421 65.4003C105.397 66.3827 105.448 67.3751 105.573 68.3774C105.72 69.2593 105.892 69.8424 106.09 70.1267C106.506 70.129 106.938 69.9221 107.386 69.5062C107.661 69.1612 107.921 68.8319 108.168 68.5184C108.413 68.1754 108.616 67.8648 108.776 67.5868C109.668 66.2499 110.452 64.6081 111.126 62.6615C111.175 62.5096 111.21 62.3587 111.23 62.2088C111.279 62.0569 111.343 61.8893 111.42 61.7059C111.467 61.5244 111.515 61.3429 111.562 61.1615C111.639 60.9781 111.717 60.8094 111.796 60.6556C111.842 60.4446 111.89 60.2779 111.942 60.1556C111.991 60.0038 112.056 59.8657 112.137 59.7415C112.335 59.134 112.501 58.7218 112.635 58.5049C112.959 58.008 113.344 57.7597 113.79 57.7601C114.327 57.7842 114.76 58.0528 115.092 58.566C115.127 58.6528 115.163 58.7544 115.201 58.8709C115.236 58.9577 115.288 59.0731 115.357 59.2172C115.468 59.5369 115.538 59.7106 115.57 59.7382C116.139 61.1571 116.599 62.2711 116.949 63.0802C117.298 63.8598 117.508 64.3364 117.579 64.51C117.75 64.8554 117.97 65.257 118.238 65.7149C118.535 66.1709 118.881 66.6831 119.275 67.2516C119.665 67.7608 120.123 68.1617 120.647 68.4541C121.584 69.1354 122.58 69.1441 123.636 68.48C123.95 68.281 124.235 68.0988 124.492 67.9332C124.746 67.7381 124.985 67.5292 125.208 67.3064C125.763 66.7052 126.29 66.1354 126.79 65.5972C127.289 65.059 127.774 64.5218 128.244 63.9856C128.548 63.6386 128.934 63.1822 129.402 62.6163C129.898 62.019 130.476 61.3269 131.138 60.5403C131.606 59.9745 131.973 59.4598 132.24 58.9964C132.536 58.5311 132.747 58.116 132.871 57.7511C132.897 57.6899 132.908 57.6298 132.904 57.5706C132.9 57.5114 132.911 57.4512 132.937 57.3901C132.933 57.3309 132.945 57.2856 132.972 57.254ZM88.5788 67.5801C88.5571 64.9957 88.1663 62.6734 87.4064 60.6132C86.3137 60.2691 85.4804 60.0268 84.9064 59.8863C84.3305 59.7161 84.011 59.6035 83.9479 59.5482C83.7034 59.4454 83.4273 59.315 83.1196 59.1569C82.9639 59.0483 82.8248 58.9683 82.7026 58.9169C82.5783 58.8359 82.4679 58.7392 82.3713 58.6266C82.2787 58.5733 82.1702 58.5061 82.046 58.4252C81.9198 58.3146 81.7631 58.1912 81.5758 58.0549C81.2899 57.7765 81.0533 57.5692 80.866 57.4329C80.694 57.9792 80.6099 58.282 80.6138 58.3412C80.1861 60.4202 79.8905 62.4757 79.7272 64.5075C79.5639 66.5394 79.5189 68.5635 79.5923 70.5798C79.7148 72.89 80.0951 74.8266 80.7331 76.3896C81.0225 77.173 81.3594 77.775 81.7437 78.1955C82.398 79.1035 83.258 79.2995 84.3237 78.7834C85.048 78.4979 85.6925 77.9056 86.2575 77.0064C86.9131 76.131 87.4437 74.9368 87.8493 73.424C88.0926 72.6055 88.257 71.7178 88.3426 70.7611C88.4558 69.7728 88.5346 68.7125 88.5788 67.5801ZM81.7984 53.3144C81.4039 53.1918 81.1316 53.3435 80.9813 53.7695C81.1507 54.0853 81.2709 54.33 81.3418 54.5036C81.4403 54.6458 81.4905 54.7316 81.4925 54.7612C81.4076 54.8262 81.3769 55.0363 81.4003 55.3915C81.345 55.4545 81.3656 55.5423 81.4622 55.6549C81.8443 56.4916 82.6121 57.3179 83.7655 58.1335C84.917 58.9196 85.9338 59.239 86.8157 59.0917C86.3947 57.663 85.6401 56.3604 84.552 55.1838C84.0395 54.6231 83.5801 54.1927 83.174 53.8925C82.9255 53.7305 82.467 53.5378 81.7984 53.3144ZM180.465 18.8591C180.978 18.9739 181.251 19.2829 181.284 19.786C181.301 20.0523 181.241 20.2644 181.103 20.4221C180.99 20.5187 180.891 20.5995 180.807 20.6645C180.722 20.7295 180.606 20.7817 180.46 20.8211C180.287 20.892 180.005 20.9105 179.617 20.8766C179.202 20.9039 178.714 20.9361 178.152 20.9732C177.617 20.9787 176.994 20.99 176.282 21.0072C170.771 21.2812 167.913 21.425 167.705 21.4386C163.943 21.6271 159.816 21.9139 155.323 22.2991C150.829 22.6547 145.897 23.1283 140.526 23.72C138.547 23.9098 137.027 24.0694 135.966 24.1988C134.902 24.2986 134.267 24.3553 134.06 24.369C134.016 25.0555 134 25.7105 134.011 26.3339C134.022 26.9573 134.03 27.5215 134.033 28.0266C134.306 35.7661 134.545 41.4273 134.751 45.0101C134.804 46.255 134.917 47.9714 135.091 50.1594C135.292 52.3159 135.542 54.9744 135.839 58.1351C135.927 59.021 136.066 60.4533 136.256 62.4322C136.446 64.4111 136.718 66.9641 137.073 70.0913C137.327 72.6009 137.601 74.9458 137.893 77.126C138.183 79.2766 138.494 81.2921 138.826 83.1724C138.97 83.9952 139.135 84.6976 139.322 85.2798C139.509 85.8619 139.734 86.3523 139.998 86.751C140.032 86.8083 140.051 86.8665 140.054 86.9257C140.088 86.9829 140.108 87.0559 140.113 87.1447C140.226 87.494 140.171 87.7948 139.95 88.0471C139.76 88.3271 139.501 88.4483 139.171 88.4105C138.783 88.3767 138.418 88.2521 138.077 88.0368C137.266 87.466 136.676 86.6281 136.306 85.5231C135.897 84.272 135.497 82.4853 135.106 80.163C134.786 78.0144 134.472 75.5086 134.165 72.6458C133.885 69.7515 133.593 66.4567 133.29 62.7614C133.156 61.1653 133.021 59.3462 132.886 57.3042C132.75 55.2327 132.596 52.8948 132.424 50.2905C131.944 43.9022 131.683 39.9514 131.643 38.4382C131.579 36.5699 131.533 34.5073 131.503 32.2504C131.471 29.9639 131.483 27.4367 131.538 24.6689C131.45 24.6747 130.669 24.7856 129.197 25.0015C127.725 25.2174 125.518 25.5412 122.574 25.9729C120.719 26.2438 119.159 26.4655 117.892 26.6381C116.625 26.8108 115.624 26.951 114.888 27.059C114.564 27.11 114.192 27.1048 113.772 27.0433C113.319 26.9246 113.02 26.6768 112.876 26.2999C112.703 25.9249 112.721 25.5225 112.93 25.0926C113.14 24.6626 113.533 24.3098 114.109 24.0341C115.492 23.3782 116.95 22.9403 118.481 22.7206C119.012 22.6559 119.432 22.7173 119.741 22.905C120.023 23.1242 120.391 23.5161 120.844 24.0807C122.142 23.9357 123.675 23.7455 125.443 23.5101C127.211 23.2747 129.229 23.008 131.498 22.7099C131.493 22.6211 131.502 22.5461 131.528 22.485L131.516 22.3074C131.564 19.8671 131.664 17.557 131.818 15.3772C131.971 13.1973 132.191 11.1171 132.477 9.13666C132.661 7.87617 132.853 6.73406 133.053 5.71032C133.281 4.65504 133.529 3.68757 133.798 2.8079C133.986 2.05245 134.191 1.54856 134.412 1.29621C134.76 0.708576 135.23 0.410056 135.824 0.400649C136.422 0.450429 136.845 0.779228 137.093 1.38705C137.221 1.52721 137.307 1.6999 137.35 1.90511C137.421 2.07877 137.477 2.25341 137.518 2.42902C137.654 3.57928 137.732 4.76302 137.752 5.98027C137.801 7.16597 137.747 8.38808 137.593 9.64662C137.537 10.1556 137.418 10.6092 137.236 11.0076C136.994 11.3803 136.739 11.5754 136.473 11.5929C136.147 11.6144 135.855 11.4701 135.597 11.1602C135.534 11.1049 135.321 10.8069 134.958 10.266C134.842 10.7493 134.736 11.3953 134.64 12.2041C134.575 13.0109 134.505 13.9815 134.431 15.1158C134.322 16.1633 134.242 17.2088 134.192 18.2524C134.142 19.296 134.104 20.309 134.08 21.2914L134.103 21.6465C134.078 21.7077 134.071 21.827 134.082 22.0046L134.106 22.3597L134.416 22.3392C134.533 22.3019 134.695 22.2763 134.902 22.2627C137.611 21.8761 139.747 21.5868 141.309 21.3946C142.872 21.2025 143.859 21.078 144.272 21.0211C148.815 20.5136 152.711 20.0935 155.959 19.7606C159.204 19.3981 161.848 19.1496 163.89 19.015C165.754 18.8922 167.278 18.7918 168.462 18.7138C169.646 18.6358 170.491 18.6098 170.998 18.6358C171.385 18.64 172.248 18.6575 173.588 18.6881C174.957 18.7168 176.831 18.7419 179.21 18.7635C179.419 18.7794 179.628 18.7953 179.837 18.8113C180.046 18.8272 180.256 18.8432 180.465 18.8591ZM209.312 52.0453C209.415 52.2466 209.46 52.4814 209.448 52.7497C209.398 52.9016 209.334 53.0544 209.255 53.2082C209.174 53.3325 209.079 53.4725 208.971 53.6282C208.671 54.0344 208.396 54.3794 208.147 54.6633C207.926 54.9157 207.746 55.1207 207.608 55.2784C207.055 55.9093 206.5 56.4958 205.941 57.0379C205.38 57.5504 204.848 58.0461 204.345 58.5252C203.561 59.2604 202.832 59.9326 202.159 60.5417C201.484 61.1211 200.864 61.6375 200.3 62.0909C199.455 62.8004 198.533 63.4705 197.534 64.101C196.476 64.7354 195.237 65.0995 193.817 65.1931C191.508 65.3452 189.572 64.6108 188.009 62.9899C187.282 62.3245 186.714 61.604 186.306 60.8283C185.897 60.0231 185.602 59.1657 185.424 58.2561C185.39 58.1989 185.225 57.2735 184.929 55.48C184.869 55.4839 184.826 55.5016 184.798 55.5331C184.769 55.5351 184.724 55.538 184.665 55.5419L184.541 55.6839C184.515 55.745 184.488 55.7913 184.461 55.8229C184.431 55.8248 184.404 55.8564 184.378 55.9175C184.326 56.0398 184.301 56.1009 184.301 56.1009C184.273 56.1325 184.005 56.5811 183.498 57.4468C183.288 57.8767 183.091 58.2612 182.905 58.6004C182.719 58.9396 182.559 59.2176 182.425 59.4345C182.21 59.7757 181.951 60.1345 181.649 60.5111C181.347 60.8877 181.002 61.2968 180.615 61.7384C180.366 62.0223 180.086 62.2785 179.774 62.5071C179.49 62.7042 179.157 62.845 178.777 62.9295C177.847 63.2583 177.077 63.0712 176.466 62.3685C176.018 61.8927 175.721 61.4367 175.573 61.0006C175.396 60.5664 175.25 60.1599 175.136 59.7811C175.022 59.4022 174.925 59.0519 174.844 58.7303C174.209 55.4135 174.463 52.276 175.606 49.3176C175.679 49.075 175.754 48.862 175.831 48.6786C175.908 48.4952 176.002 48.3404 176.113 48.2142C176.324 47.8139 176.588 47.529 176.904 47.3596C177.359 47.0621 177.833 47.0309 178.324 47.266C178.785 47.5031 179.035 47.9028 179.072 48.4651C179.091 48.761 179.055 49.1052 178.961 49.4978C178.918 49.7384 178.86 49.98 178.786 50.2226C178.741 50.4337 178.696 50.6595 178.653 50.9002C178.336 51.9613 178.072 53.1379 177.86 54.4299C177.675 55.6904 177.558 57.0654 177.507 58.5548C177.443 59.8371 177.626 60.8059 178.056 61.4612C178.801 61.5012 179.481 61.2186 180.095 60.6135C180.427 60.2349 180.73 59.8732 181.005 59.5281C181.279 59.1831 181.495 58.8568 181.653 58.5491C181.869 58.208 182.175 57.6677 182.572 56.9282C182.997 56.1571 183.513 55.2017 184.122 54.0619C184.171 53.91 184.25 53.7562 184.359 53.6004C184.466 53.4151 184.571 53.2149 184.676 52.9999C184.779 52.7554 184.855 52.5572 184.904 52.4053C184.981 52.2219 185.047 52.0839 185.1 51.9912C185.179 51.8374 185.244 51.6993 185.296 51.577C185.377 51.4528 185.474 51.3572 185.589 51.2902C185.727 51.1325 185.959 51.0429 186.284 51.0215C186.525 51.0651 186.709 51.1569 186.838 51.2971C186.999 51.4945 187.116 51.6948 187.189 51.8981C187.262 52.1013 187.319 52.2908 187.36 52.4664L187.515 54.8191C187.554 56.3027 187.827 57.7411 188.335 59.1343C188.799 60.3223 189.381 61.2499 190.079 61.9173C191.636 63.4494 193.495 63.9213 195.656 63.3331C196.65 63.0893 197.516 62.6904 198.252 62.1366C199.304 61.4134 200.039 60.8448 200.458 60.4309C201.271 59.6937 202.195 58.8303 203.23 57.8407C204.292 56.8196 205.479 55.6714 206.792 54.396L208.326 52.6453C208.322 52.5861 208.362 52.5092 208.445 52.4146C208.5 52.3515 208.542 52.3041 208.569 52.2726C208.595 52.2115 208.623 52.1799 208.652 52.178C208.931 51.8921 209.151 51.8479 209.312 52.0453ZM234.496 50.6087C234.774 50.7688 234.861 50.9562 234.756 51.1712C234.657 51.4749 234.532 51.6021 234.38 51.5527C233.627 51.3942 232.505 51.7357 231.015 52.5769C230.758 52.7424 230.202 53.0912 229.345 53.6232C228.486 54.1256 227.33 54.8408 225.875 55.7689C225.65 55.9621 225.495 56.0912 225.41 56.1562C225.444 56.2135 225.463 56.2865 225.469 56.3752C225.505 56.4621 225.556 56.5627 225.623 56.6772C226.72 58.8935 226.948 61.2266 226.307 63.6763C225.531 66.7888 223.901 69.3335 221.415 71.3103C221.188 71.4739 220.946 71.6236 220.687 71.7595C220.429 71.8955 220.156 72.0472 219.87 72.2146C219.357 72.5457 218.894 72.7396 218.482 72.7965C216.935 73.2254 215.686 72.9956 214.736 72.1071C213.727 71.2225 213.335 70.0148 213.561 68.4841C213.668 67.8529 213.848 67.202 214.101 66.5314C214.352 65.8313 214.692 65.1253 215.121 64.4134C216.169 62.7393 217.535 61.1335 219.217 59.596C219.272 59.5329 219.526 59.323 219.978 58.9663C220.458 58.578 221.149 58.0123 222.051 57.2693C222.106 57.2062 222.289 57.0455 222.599 56.7873C222.739 56.6592 222.851 56.5626 222.936 56.4976C223.049 56.401 223.133 56.3212 223.188 56.2581L222.659 55.6688C221.665 55.0209 220.346 54.6323 218.703 54.5028C218.285 54.4709 217.778 54.4449 217.182 54.4247C216.616 54.4025 215.917 54.404 215.087 54.429C214.905 54.3815 214.489 54.3792 213.838 54.4221L212.551 54.5069C212.284 54.5245 212.033 54.541 211.796 54.5566C211.559 54.5722 211.366 54.5701 211.216 54.5503C209.391 54.3733 208.418 53.3526 208.295 51.4882C208.226 50.4524 208.395 49.401 208.8 48.3341C209.204 47.2375 209.763 46.2495 210.477 45.3702C210.864 44.9286 211.241 44.5471 211.606 44.2259C212.001 43.9026 212.428 43.6218 212.888 43.3835C213.322 43.2062 213.686 43.0931 213.98 43.044C214.302 42.9634 214.628 42.9567 214.96 43.024C215.652 43.1567 216.121 43.5122 216.367 44.0904C216.554 44.6726 216.413 45.2317 215.943 45.768C215.915 45.7995 215.873 45.832 215.815 45.8655C215.788 45.8971 215.746 45.9444 215.691 46.0075C215.608 46.1021 215.482 46.2145 215.312 46.3445C215.257 46.4076 215.201 46.4559 215.143 46.4894C215.086 46.5229 215.03 46.5712 214.974 46.6343C213.488 47.9806 212.578 48.8282 212.244 49.1771C211.602 49.8138 211.12 50.6036 210.795 51.5463C210.461 52.3411 210.699 52.7862 211.507 52.8815C211.75 52.9547 212.036 53.0101 212.365 53.0479C212.693 53.056 213.066 53.076 213.484 53.1079C213.632 53.0982 213.854 53.0836 214.15 53.064C214.475 53.0426 214.905 53.0291 215.44 53.0236C216.006 53.0457 216.483 53.0589 216.869 53.0632C217.284 53.0359 217.655 53.0263 217.982 53.0344C218.4 53.0663 218.88 53.1239 219.42 53.2072C219.959 53.2609 220.545 53.3708 221.181 53.537C222.354 53.7569 223.477 54.3368 224.55 55.2767C226.028 54.2579 226.781 53.7327 226.809 53.7011C227.634 53.1415 228.375 52.6617 229.032 52.2617C229.719 51.8598 230.32 51.5081 230.835 51.2067C231.064 51.0727 231.323 50.9368 231.611 50.7989C231.929 50.6591 232.277 50.5321 232.656 50.4179C233.354 50.1936 233.968 50.2572 234.496 50.6087ZM225.001 61.444C225.134 59.86 224.818 58.4393 224.051 57.182C223.937 57.249 223.865 57.2835 223.835 57.2854C220.76 59.3309 218.33 61.7052 216.547 64.4086C215.761 65.5601 215.267 66.6329 215.065 67.6271C214.901 68.2918 214.837 68.9053 214.874 69.4676C214.927 70.2666 215.201 70.8281 215.698 71.152C216.26 71.5608 216.876 71.654 217.545 71.4316C218.304 71.2329 218.941 70.9681 219.454 70.637C222.784 68.3965 224.633 65.3322 225.001 61.444Z" fill="white"/>
</svg>
