<svg width="418" height="164" viewBox="0 0 418 164" fill="none" xmlns="http://www.w3.org/2000/svg">
<path d="M79.3859 10.4472C84.4554 9.35632 89.172 8.65405 93.5358 8.3404C95.5141 8.26224 97.1329 8.27302 98.3922 8.37272C99.0747 8.43215 99.7077 8.53397 100.291 8.6782C100.873 8.79644 101.418 8.94323 101.925 9.11858C102.973 9.57151 103.74 10.1212 104.226 10.7677C105.194 11.9828 105.409 13.2735 104.873 14.6399C104.554 15.3394 104.3 15.839 104.111 16.1385C103.705 16.7133 103.286 17.289 102.854 17.8655C102.421 18.416 102 18.9657 101.593 19.5145C101.355 19.8695 100.985 20.194 100.482 20.4881C100.235 20.6871 99.9157 20.7994 99.5259 20.8251C99.1361 20.8508 98.8288 20.7406 98.6037 20.4944C98.3233 20.1997 98.2093 19.8549 98.2616 19.46C98.4041 18.8503 98.6227 18.4053 98.9174 18.1249C99.1116 17.9033 99.3187 17.6809 99.5389 17.4576C99.7851 17.2326 100.068 16.9661 100.387 16.658C100.586 16.5143 100.971 16.2149 101.541 15.7598C101.761 15.5365 101.971 15.353 102.17 15.2094C102.368 15.0398 102.528 14.8988 102.651 14.7863C102.724 14.7032 102.809 14.6062 102.906 14.4954C103.029 14.3829 103.176 14.2297 103.346 14.0358C103.588 13.7589 103.63 13.4038 103.471 12.9706C103.336 12.5097 102.97 12.1032 102.373 11.7511C101.583 11.2551 100.755 10.9573 99.887 10.8579C99.0452 10.7568 98.2839 10.6895 97.6031 10.6561C96.9484 10.621 96.3863 10.6058 95.9168 10.6106C94.4825 10.6269 92.9104 10.7305 91.2005 10.9214C89.5166 11.1107 87.668 11.376 85.6549 11.7175C83.5915 12.0883 81.5696 12.4956 79.5893 12.9392C77.609 13.3829 75.658 13.8768 73.7365 14.421C71.0994 15.195 68.3678 16.1188 65.5417 17.1924C62.7138 18.24 59.7533 19.4529 56.6601 20.8311C50.044 23.7986 43.7049 27.0088 37.6428 30.4618C31.605 33.887 25.7696 37.6121 20.1366 41.637C18.166 43.0196 16.3382 44.3927 14.6534 45.7564C12.9946 47.1185 11.4657 48.4719 10.0667 49.8168C7.71081 52.086 5.90504 54.1884 4.64939 56.1242C4.05626 57.0245 3.43186 58.0443 2.77619 59.1836C2.54716 59.6685 2.34668 60.1906 2.17475 60.75C2.0271 61.2817 1.921 61.8498 1.85644 62.4543C1.74132 63.4797 1.82895 64.4135 2.11932 65.2556C2.43397 66.07 2.99119 66.8032 3.791 67.4551C4.23073 67.7915 4.70859 68.1124 5.22457 68.4176C5.76483 68.6952 6.38218 68.9547 7.07663 69.196C7.90444 69.4807 8.82148 69.7335 9.82776 69.9542C10.8323 70.149 11.9408 70.3369 13.1533 70.518C14.4974 70.7166 15.9558 70.8684 17.5286 70.9735C19.1014 71.0787 20.8172 71.1744 22.6758 71.2607C24.4791 71.2985 26.647 71.3253 29.1796 71.3411C31.7364 71.3292 34.722 71.289 38.1363 71.2206C41.84 71.1854 45.2439 71.1568 48.3481 71.1349C51.4766 71.0854 54.3713 71.0512 57.0321 71.0325C59.7448 71.0103 61.813 71.1089 63.2368 71.3283C64.1306 71.426 64.858 71.5738 65.4191 71.7717C66.0045 71.9419 66.4651 72.1986 66.8009 72.5419C67.5661 73.0656 67.8384 73.8306 67.6176 74.8369C67.5045 75.4968 67.2321 76.115 66.8003 76.6915C66.3408 77.2438 65.929 77.7276 65.5649 78.1431C65.2251 78.5309 64.9321 78.8372 64.686 79.0622C63.9752 79.7615 63.2384 80.4625 62.4757 81.1652C61.7372 81.8403 60.9364 82.5585 60.0731 83.3201C59.6796 83.6853 58.9654 84.3326 57.9305 85.262C56.894 86.1655 55.5245 87.3649 53.8223 88.8602C52.1218 90.3816 50.631 91.7195 49.35 92.8739C48.0949 94.0267 47.0245 95.0106 46.1387 95.8258C43.405 98.3026 40.8134 100.757 38.3638 103.189C35.9142 105.621 33.5825 108.058 31.3685 110.501C28.3743 113.778 25.679 117.035 23.2825 120.272C20.8878 123.536 18.7424 126.822 16.8465 130.131C14.5082 134.252 12.7774 138.085 11.6539 141.63C10.704 144.642 10.2003 147.493 10.1428 150.185C10.0976 152.668 10.4519 154.876 11.2057 156.809C11.4581 157.471 11.7469 158.092 12.0721 158.671C13.3107 160.833 15.2197 161.882 17.7991 161.816C19.3114 161.795 21.0647 161.471 23.059 160.843C24.2858 160.449 25.5317 159.95 26.7967 159.344C28.0877 158.737 29.4126 158.05 30.7712 157.282C32.2045 156.457 33.6447 155.54 35.0919 154.531C36.5668 153.546 38.0868 152.454 39.652 151.255C41.8394 149.597 44.1664 147.682 46.6331 145.51C49.0998 143.338 51.7573 140.892 54.6055 138.173C56.2783 136.628 58.2771 134.682 60.6019 132.337C62.9526 129.99 65.6918 127.199 68.8192 123.966C70.5772 122.127 72.6896 119.927 75.1566 117.363C77.6236 114.799 80.4685 111.832 83.6914 108.462C86.9403 105.09 89.663 102.249 91.8596 99.9379C94.0561 97.627 95.7517 95.832 96.9462 94.5527C97.3137 94.1892 97.9629 93.5462 98.8939 92.6236C99.8491 91.6733 101.097 90.4167 102.638 88.8536C102.812 88.7117 102.973 88.5836 103.122 88.4694C103.271 88.3552 103.407 88.2419 103.53 88.1294C103.709 88.0654 103.905 88.0785 104.12 88.1688C104.229 88.2399 104.288 88.3404 104.297 88.4703C104.307 88.6262 104.263 88.7596 104.166 88.8704C104.071 89.0072 103.976 89.1439 103.88 89.2807C103.783 89.3915 103.674 89.5161 103.552 89.6546C100.283 93.1063 97.7706 95.7772 96.0161 97.6675C94.2599 99.5318 93.211 100.645 92.8695 101.007C87.7448 106.407 82.211 112.135 76.2681 118.19C70.3529 124.269 64.0157 130.676 57.2564 137.411C54.611 140.039 52.0193 142.493 49.4815 144.774C46.9714 147.08 44.4771 149.228 41.9984 151.218C40.1922 152.72 38.4156 154.077 36.6685 155.288C34.9475 156.498 33.2568 157.575 31.5966 158.519C28.5534 160.26 25.7279 161.542 23.1202 162.366C22.2262 162.66 21.4049 162.871 20.6565 162.998C19.9097 163.152 19.2375 163.248 18.6399 163.288C18.1722 163.319 17.7157 163.323 17.2705 163.3C16.8513 163.275 16.4573 163.236 16.0883 163.182C14.138 162.893 12.5304 161.863 11.2655 160.094C10.7204 159.347 10.2611 158.516 9.88766 157.601C9.54017 156.684 9.25252 155.685 9.02469 154.604C8.34322 150.995 8.56797 147.079 9.69892 142.855C10.1733 140.945 10.814 138.984 11.6211 136.974C12.4298 134.989 13.4032 132.928 14.5412 130.792C16.0956 127.844 17.8847 124.895 19.9085 121.943C21.9341 119.017 24.2048 116.049 26.7206 113.038C28.2655 111.136 30.0634 109.112 32.1143 106.967C34.1635 104.797 36.4753 102.452 39.0497 99.9337C43.0975 96.0132 49.1707 90.55 57.2693 83.544C58.3076 82.6665 59.2696 81.8202 60.1555 81.005C61.0673 80.188 61.9297 79.4135 62.7426 78.6814C63.0876 78.3716 63.4551 78.0081 63.8452 77.5909C64.2596 77.146 64.6973 76.6605 65.1585 76.1342C65.4706 75.7222 65.7525 75.2469 66.0041 74.7083C66.2851 74.2201 66.1546 73.8241 65.6127 73.5206C65.204 73.2604 64.8153 73.1033 64.4463 73.0494C63.7587 72.912 63.1378 72.7963 62.5835 72.7023C62.0553 72.6067 61.5945 72.5457 61.2013 72.5194C59.8641 72.4248 58.3987 72.3648 56.805 72.3393C54.2464 72.3252 51.1543 72.3332 47.5287 72.3634C46.8237 72.3576 45.8189 72.3586 44.5145 72.3662C43.2101 72.3739 41.5922 72.3761 39.6607 72.3729C37.705 72.3974 35.9848 72.4324 34.5002 72.4781C33.0139 72.4977 31.7364 72.5166 30.6675 72.5349C29.0236 72.5388 27.5096 72.5342 26.1255 72.521C24.7675 72.5061 23.5272 72.4965 22.4047 72.4921C19.7353 72.381 17.338 72.2388 15.2126 72.0657C13.0873 71.8925 11.2045 71.6382 9.56428 71.3026C8.74332 71.1218 7.98648 70.9237 7.29374 70.7084C6.60099 70.4931 5.94638 70.2622 5.32988 70.0157C4.20083 69.516 3.28922 68.9497 2.59507 68.3169C0.87782 66.8119 0.0954853 64.8409 0.248067 62.4037C0.382623 60.8811 0.902678 59.2679 1.80823 57.5641C2.56815 56.0264 3.65817 54.3496 5.07829 52.5335C5.99553 51.403 7.00372 50.2666 8.10285 49.1241C9.22797 47.98 10.4675 46.7891 11.8213 45.5516C15.6193 42.1956 20.2679 38.6793 25.7672 35.0024C37.6462 27.1471 49.8931 20.7159 62.5079 15.709C65.4085 14.5783 68.2528 13.5818 71.0407 12.7196C73.8529 11.8296 76.6346 11.0722 79.3859 10.4472ZM136.616 85.7535C136.841 85.9996 136.81 86.3149 136.522 86.6992C136.291 87.1581 136.006 87.5814 135.666 87.9692C135.472 88.1908 135.179 88.4971 134.787 88.8883C134.421 89.2778 133.969 89.7512 133.432 90.3086C133.288 90.5008 133.106 90.7085 132.886 90.9318C132.666 91.1551 132.422 91.4191 132.155 91.7238C131.862 92.0301 131.618 92.2811 131.422 92.4767C131.226 92.6723 131.066 92.8264 130.943 92.9389C129.825 94.187 128.499 95.0573 126.966 95.5498C125.51 96.0372 124.064 96.0673 122.626 95.64C120.418 95.0026 118.63 93.8025 117.261 92.0397C117.204 91.9652 117.132 91.8655 117.045 91.7407C116.959 91.6159 116.844 91.4539 116.7 91.2546C116.56 91.1072 116.447 90.9711 116.36 90.8463C116.298 90.6939 116.238 90.5803 116.181 90.5058L115.592 89.8791C115.254 89.9014 114.93 90.1315 114.619 90.5696C113.967 91.3694 113.463 92.029 113.106 92.5484C113.036 92.6835 112.93 92.8471 112.786 93.0392C112.668 93.2297 112.527 93.4738 112.364 93.7717C112.173 94.0452 112.02 94.2902 111.904 94.5067C111.786 94.6971 111.679 94.8607 111.584 94.9975C111.272 95.4095 110.905 95.786 110.484 96.127C109.91 96.5301 109.396 96.4596 108.943 95.9153C108.746 95.6934 108.588 95.482 108.471 95.2809C108.351 95.0539 108.259 94.8382 108.193 94.6337C108.022 94.0186 107.88 93.4408 107.766 92.9003C107.652 92.3597 107.554 91.8703 107.473 91.4319C107.371 90.6818 107.305 89.8641 107.272 88.9789C107.24 88.0937 107.241 87.115 107.275 86.0427C107.343 85.0987 107.563 84.2881 107.936 83.6111C108.446 82.638 109.128 82.2929 109.982 82.5759C110.351 82.6299 110.652 82.8449 110.886 83.221C111.094 83.5988 111.174 84.0242 111.127 84.497C111.097 85.2298 110.975 85.9555 110.761 86.6742C110.535 87.6025 110.335 88.5291 110.161 89.454C110.012 90.3512 109.902 91.2589 109.832 92.1769C109.795 92.4142 109.8 93.0794 109.846 94.1725L110.001 94.7494C110.176 94.6335 110.361 94.4648 110.555 94.2432C110.775 94.0199 110.978 93.7325 111.164 93.381C111.284 93.2165 111.439 92.9975 111.63 92.7239C111.819 92.4244 112.044 92.0833 112.306 91.7007C112.568 91.3181 112.794 90.99 112.985 90.7164C113.174 90.4169 113.34 90.158 113.482 89.9399C113.697 89.6386 113.876 89.3919 114.02 89.1998C114.188 88.9799 114.346 88.7999 114.494 88.6597C115.256 87.9569 116.075 87.903 116.949 88.4978C117.169 88.666 117.49 88.9842 117.912 89.4522C117.94 89.4765 118.054 89.6255 118.255 89.8994C118.482 90.1715 118.808 90.5676 119.234 91.0876C120.116 92.2039 121.18 93.0994 122.425 93.7742C124.273 94.8791 126.189 94.8572 128.175 93.7085C129.253 93.0372 130.329 92.1312 131.402 90.9904C131.523 90.8519 131.925 90.4079 132.606 89.6584C133.312 88.8811 134.297 87.7854 135.561 86.3711C135.587 86.3694 135.623 86.3278 135.67 86.2464C135.72 86.217 135.757 86.1885 135.782 86.1608C135.804 86.1071 135.828 86.0794 135.854 86.0777C136.17 85.7176 136.424 85.6095 136.616 85.7535ZM164.125 84.2931C164.234 84.3642 164.297 84.5297 164.314 84.7896C164.319 84.8675 164.276 85.0009 164.184 85.1896C163.92 85.5463 163.617 86.0882 163.273 86.8155C162.928 87.5168 162.53 88.4043 162.078 89.478C160.52 93.1561 159.101 96.5771 157.822 99.741C156.567 102.877 155.442 105.796 154.445 108.498C153.315 111.547 152.34 114.365 151.518 116.951C150.697 119.536 150.006 121.917 149.444 124.095C149.279 124.758 149.071 125.555 148.819 126.485C148.593 127.413 148.338 128.487 148.053 129.706C147.743 130.953 147.487 132.014 147.284 132.888C147.08 133.763 146.905 134.466 146.757 134.998C146.387 136.51 145.986 137.959 145.556 139.344C145.363 139.983 145.087 140.549 144.728 141.043C144.394 141.509 144.017 141.729 143.597 141.705C143.152 141.682 142.809 141.43 142.569 140.95C142.282 140.552 142.096 140.107 142.011 139.617C141.611 137.503 141.357 136.019 141.248 135.165C140.547 128.478 140.431 121.974 140.902 115.654C140.965 114.632 141.081 113.423 141.251 112.029C141.42 110.635 141.629 109.055 141.878 107.29C142.16 105.236 142.555 102.913 143.063 100.322C143.595 97.7033 144.278 94.8005 145.112 91.6138L145.146 90.946L144.374 91.7016C143.615 92.4562 142.902 93.1296 142.236 93.7215C141.595 94.2857 141.013 94.7677 140.492 95.1674C140.214 95.3162 139.913 95.4927 139.587 95.6968C139.235 95.9027 138.857 96.0973 138.451 96.2806C137.895 96.5521 137.25 96.6599 136.515 96.6039C135.521 96.565 134.939 96.0553 134.77 95.0747C134.71 94.5567 134.74 94.0197 134.86 93.4638C134.966 93.0914 135.072 92.732 135.18 92.3857C135.288 92.0393 135.422 91.7042 135.584 91.3804C136.755 88.9544 138.232 86.8084 140.014 84.9424C140.65 84.3002 141.292 83.749 141.94 83.2887C142.589 82.8284 143.256 82.4582 143.942 82.1781C144.703 81.8409 145.478 81.7246 146.268 81.8291C146.583 81.8605 146.876 81.9456 147.146 82.0844C147.416 82.2232 147.677 82.4148 147.928 82.6593C148.213 83.0319 148.357 83.427 148.358 83.8445C148.387 84.2862 148.244 84.6871 147.928 85.0472C147.559 85.3847 147.147 85.4641 146.691 85.2853C146.239 85.1585 145.743 85.1521 145.202 85.266C144.686 85.3522 144.114 85.5856 143.487 85.9662C143.031 86.1789 142.58 86.4566 142.133 86.7993C141.71 87.1142 141.266 87.5088 140.801 87.9831C139.532 89.3194 138.365 90.8187 137.3 92.4808C137.09 92.86 136.851 93.3847 136.582 94.0549C136.584 94.0809 136.577 94.1727 136.561 94.3303C136.544 94.462 136.518 94.6724 136.485 94.9617C136.78 95.0728 137.058 95.1328 137.319 95.1416C137.581 95.1505 137.863 95.0797 138.166 94.9292C138.522 94.7753 138.851 94.6231 139.154 94.4726C139.456 94.2962 139.718 94.1223 139.942 93.951C140.516 93.5478 141.049 93.1342 141.543 92.7102C142.037 92.2861 142.515 91.811 142.976 91.2847C143.072 91.148 143.313 90.858 143.702 90.4148C144.088 89.9457 144.633 89.2965 145.335 88.4673C145.361 88.4656 145.411 88.4232 145.483 88.3401C145.508 88.3124 145.533 88.2977 145.559 88.296C145.583 88.2683 145.606 88.2276 145.629 88.1739C145.679 88.1445 145.729 88.1021 145.777 88.0467C145.919 87.8285 146.081 87.7005 146.261 87.6625C146.465 87.5968 146.673 87.5831 146.884 87.6214C147.362 87.7465 147.619 88.0819 147.655 88.6276C147.696 89.2512 147.675 89.7224 147.592 90.0411C147.381 91.2033 147.211 92.1801 147.08 92.9717C146.95 93.7632 146.834 94.3841 146.733 94.8344C146.148 97.4307 145.642 99.852 145.216 102.098C144.814 104.317 144.494 106.4 144.257 108.347C143.867 111.53 143.563 114.447 143.346 117.098C143.157 119.772 143.056 122.193 143.042 124.36C143.016 126.736 143.011 128.851 143.029 130.703C143.073 132.553 143.141 134.179 143.233 135.582C143.254 135.894 143.295 136.322 143.357 136.866C143.421 137.436 143.506 138.135 143.613 138.963C143.614 138.989 143.632 139.066 143.667 139.195C143.701 139.323 143.754 139.528 143.825 139.811C144.182 139.291 144.359 139.005 144.356 138.953C144.604 138.363 144.844 137.655 145.077 136.831C145.312 136.033 145.552 135.13 145.799 134.122C145.858 133.831 145.97 133.353 146.135 132.69C146.3 132.027 146.503 131.139 146.743 130.027C146.958 128.943 147.157 127.99 147.337 127.169C147.544 126.347 147.719 125.631 147.861 125.021C148.377 122.951 148.979 120.798 149.667 118.56C150.355 116.323 151.164 113.946 152.094 111.432C153.179 108.49 154.344 105.372 155.588 102.08C156.831 98.7623 158.151 95.2304 159.549 91.4846C159.795 90.8681 160.077 90.197 160.395 89.4715C160.737 88.7182 161.126 87.8965 161.563 87.0065C161.718 86.5787 162.154 85.8714 162.872 84.8846C162.941 84.7495 163.038 84.6387 163.163 84.5522C163.286 84.4397 163.434 84.3125 163.608 84.1706C163.837 84.0772 164.009 84.1181 164.125 84.2931ZM197.174 81.9588C197.264 82.1355 197.304 82.3417 197.293 82.5773C197.25 82.7107 197.193 82.8449 197.124 82.9799C197.053 83.089 196.97 83.2119 196.874 83.3487C196.611 83.7053 196.37 84.0083 196.151 84.2576C195.957 84.4792 195.799 84.6592 195.678 84.7977C195.192 85.3516 194.704 85.8666 194.214 86.3426C193.721 86.7926 193.254 87.2279 192.812 87.6485C192.124 88.2941 191.484 88.8843 190.893 89.4192C190.3 89.928 189.756 90.3814 189.26 90.7795C188.518 91.4025 187.709 91.9909 186.832 92.5445C185.903 93.1016 184.815 93.4212 183.568 93.5034C181.541 93.637 179.841 92.9921 178.469 91.5689C177.83 90.9846 177.331 90.3519 176.973 89.6709C176.614 88.9638 176.355 88.211 176.198 87.4123C176.169 87.362 176.024 86.5495 175.764 84.9747C175.712 84.9781 175.673 84.9936 175.649 85.0213C175.623 85.023 175.584 85.0256 175.532 85.029L175.423 85.1537C175.4 85.2074 175.377 85.2481 175.353 85.2757C175.327 85.2775 175.302 85.3052 175.28 85.3588C175.235 85.4662 175.212 85.5199 175.212 85.5199C175.188 85.5476 174.953 85.9415 174.507 86.7016C174.323 87.0791 174.15 87.4168 173.987 87.7146C173.824 88.0124 173.683 88.2566 173.565 88.447C173.376 88.7466 173.149 89.0617 172.884 89.3923C172.618 89.723 172.316 90.0822 171.976 90.47C171.758 90.7192 171.511 90.9442 171.238 91.145C170.988 91.318 170.696 91.4416 170.362 91.5159C169.545 91.8045 168.869 91.6403 168.333 91.0232C167.94 90.6054 167.678 90.2051 167.549 89.8221C167.393 89.4409 167.265 89.084 167.165 88.7513C167.065 88.4186 166.979 88.1111 166.909 87.8287C166.351 84.9163 166.574 82.1613 167.578 79.5637C167.642 79.3507 167.708 79.1636 167.775 79.0026C167.843 78.8415 167.926 78.7056 168.023 78.5948C168.208 78.2433 168.44 77.9932 168.717 77.8444C169.117 77.5832 169.533 77.5558 169.964 77.7622C170.369 77.9704 170.588 78.3214 170.621 78.8151C170.638 79.0749 170.606 79.3772 170.524 79.7219C170.486 79.9332 170.434 80.1453 170.37 80.3583C170.33 80.5437 170.291 80.742 170.253 80.9533C169.975 81.885 169.743 82.9182 169.557 84.0526C169.395 85.1594 169.292 86.3667 169.247 87.6746C169.191 88.8005 169.351 89.6512 169.729 90.2266C170.383 90.2617 170.98 90.0136 171.519 89.4822C171.811 89.1498 172.077 88.8322 172.318 88.5292C172.559 88.2262 172.749 87.9397 172.888 87.6696C173.077 87.37 173.346 86.8956 173.694 86.2463C174.067 85.5692 174.521 84.7303 175.055 83.7295C175.099 83.5961 175.168 83.4611 175.263 83.3243C175.357 83.1615 175.45 82.9858 175.542 82.797C175.632 82.5823 175.699 82.4082 175.742 82.2749C175.81 82.1138 175.867 81.9926 175.914 81.9113C175.983 81.7762 176.041 81.655 176.086 81.5476C176.157 81.4385 176.243 81.3546 176.343 81.2958C176.465 81.1573 176.668 81.0786 176.954 81.0598C177.165 81.0981 177.327 81.1787 177.44 81.3018C177.582 81.4751 177.685 81.651 177.749 81.8295C177.812 82.008 177.863 82.1743 177.899 82.3285L178.035 84.3944C178.069 85.697 178.308 86.9601 178.754 88.1834C179.162 89.2265 179.673 90.0411 180.286 90.6271C181.653 91.9723 183.285 92.3867 185.183 91.8703C186.056 91.6561 186.816 91.3059 187.462 90.8197C188.386 90.1846 189.032 89.6854 189.399 89.3219C190.113 88.6746 190.925 87.9164 191.833 87.0475C192.766 86.1509 193.808 85.1427 194.961 84.0228L196.308 82.4856C196.305 82.4336 196.34 82.3661 196.412 82.283C196.461 82.2276 196.497 82.1861 196.522 82.1584C196.544 82.1047 196.569 82.077 196.595 82.0753C196.839 81.8243 197.032 81.7855 197.174 81.9588ZM235.405 75.0942C235.767 75.4358 235.841 75.7701 235.628 76.0974C235.467 76.4212 235.147 76.5206 234.669 76.3955C233.651 75.9928 233.004 75.6831 232.729 75.4663C231.506 74.7378 230.314 74.8686 229.153 75.8585C228.481 76.3465 227.883 76.9861 227.361 77.7774C226.976 78.2725 226.609 78.8318 226.258 79.4551C225.932 80.0508 225.624 80.7235 225.334 81.4733C224.952 82.4119 224.59 83.4406 224.246 84.5594C223.926 85.6505 223.601 86.8464 223.269 88.147C223.168 88.5974 223.046 89.1273 222.904 89.737C222.761 90.3466 222.586 91.0628 222.38 91.8855C222.199 92.7064 222.037 93.4217 221.895 94.0314C221.751 94.615 221.638 95.0922 221.558 95.4628C221.494 95.6758 221.432 95.9148 221.371 96.1798C221.334 96.4171 221.259 96.657 221.144 96.8994C221.056 97.1401 220.965 97.3419 220.871 97.5046C220.71 97.8284 220.458 97.9755 220.117 97.9458C219.698 97.9212 219.438 97.7426 219.338 97.4099C219.227 96.9213 219.161 96.5081 219.139 96.1703C219.197 95.0704 219.237 94.0891 219.258 93.2264C219.278 92.3378 219.305 91.5661 219.34 90.9113C219.398 90.2029 219.454 89.4684 219.508 88.708C219.561 87.9216 219.625 87.1083 219.7 86.2683C219.801 85.4265 219.881 84.6643 219.941 83.9819C220.026 83.2977 220.102 82.6663 220.168 82.0878C220.262 81.5335 220.348 80.8624 220.427 80.0742C220.53 79.2584 220.653 78.3499 220.795 77.3488C220.937 76.3217 221.049 75.453 221.133 74.7429C221.242 74.031 221.336 73.4767 221.415 73.0801C221.587 71.7377 221.76 70.4083 221.935 69.092C222.109 67.7756 222.269 66.447 222.416 65.1064L222.354 64.7581C222.04 65.1442 221.886 65.3762 221.891 65.4542C220.866 67.3225 220.229 68.5519 219.981 69.1424L218.356 73.0076C217.995 73.8665 217.679 74.6051 217.406 75.2233C217.16 75.8398 216.945 76.3368 216.761 76.7143C214.605 81.6323 213.056 85.0488 212.112 86.964C211.86 87.5025 211.513 88.1649 211.069 88.951C210.624 89.7371 210.096 90.6331 209.484 91.6391C209.083 92.2918 208.504 93.0086 207.747 93.7892C207.552 94.0108 207.331 94.2211 207.084 94.4201C206.836 94.6191 206.574 94.806 206.298 94.9808C205.29 95.517 204.277 95.401 203.261 94.6329C202.821 94.2965 202.409 93.7756 202.023 93.0703C201.578 92.2644 201.243 91.3339 201.017 90.2788C199.853 85.6839 199.744 81.2545 200.689 76.9903C200.877 76.2733 201.036 75.7148 201.166 75.3147C201.23 75.1017 201.322 74.913 201.442 74.7485C201.588 74.5823 201.72 74.417 201.84 74.2525C202.079 73.9236 202.426 73.8355 202.88 73.9883C203.387 74.1636 203.628 74.4609 203.604 74.8801C203.581 75.3253 203.521 75.799 203.423 76.3013C203.403 76.3809 203.352 76.6061 203.272 76.9767C203.216 77.3197 203.119 77.822 202.98 78.4836C202.839 79.1192 202.72 79.6882 202.623 80.1905C202.524 80.6668 202.459 81.0755 202.429 81.4168C201.937 84.6332 202.019 87.6682 202.677 90.5217C202.753 90.8821 202.828 91.2295 202.902 91.5639C202.977 91.8983 203.09 92.2301 203.242 92.5593C203.425 92.9648 203.713 93.3634 204.104 93.7552C204.609 94.2961 205.217 94.4126 205.928 94.1048C206.203 93.9301 206.454 93.77 206.679 93.6247C206.928 93.4517 207.114 93.2959 207.235 93.1574C207.575 92.7697 207.877 92.3974 208.14 92.0408C208.428 91.6565 208.716 91.2721 209.004 90.8878C209.41 90.313 209.847 89.6187 210.315 88.8049C210.783 87.9911 211.282 87.0448 211.811 85.966C213.055 83.4569 214.514 80.0463 216.187 75.7342C217.15 73.3219 218.003 71.217 218.746 69.4195C219.515 67.6203 220.186 66.1146 220.758 64.9024C221.147 64.0678 221.505 63.3656 221.833 62.796C222.067 62.3891 222.333 62.0714 222.631 61.843C222.926 61.5626 223.258 61.4493 223.627 61.5033C224.048 61.5539 224.324 61.7836 224.455 62.1925C224.666 62.6223 224.766 63.1507 224.755 63.7778C224.758 64.6128 224.743 65.3706 224.71 66.0514C224.676 66.7321 224.638 67.3479 224.596 67.8987C224.532 68.5033 224.332 70.2258 223.997 73.0665C223.687 75.8795 223.243 79.8365 222.666 84.9376L222.665 85.5248L222.743 85.5197C223.035 84.7958 223.2 84.3282 223.238 84.1169C223.861 82.0924 224.509 80.4316 225.18 79.1347C225.916 77.6247 226.734 76.3703 227.633 75.3715C228.486 74.454 229.359 73.8354 230.251 73.5156C232.041 72.954 233.564 73.2843 234.819 74.5065C234.845 74.5048 234.873 74.5421 234.904 74.6183C234.96 74.6669 235.028 74.7146 235.109 74.7614C235.276 74.907 235.374 75.018 235.405 75.0942ZM202.621 68.2898C201.955 68.0727 201.703 67.6196 201.866 66.9302C201.922 66.1958 202.38 65.8133 203.239 65.7828L203.917 65.973C204.561 66.2437 204.723 66.7159 204.402 67.3895C204.305 67.5003 204.21 67.6371 204.116 67.7998C203.736 68.3729 203.238 68.5362 202.621 68.2898ZM264.128 77.1946C264.287 77.2363 264.373 77.3481 264.385 77.53C264.428 77.7882 264.35 78.002 264.153 78.1716C263.889 78.5283 263.608 78.8078 263.308 79.0103L261.82 80.2044C260.704 81.087 259.737 81.8554 258.919 82.5095C258.101 83.1637 257.419 83.7045 256.873 84.132C256.523 84.3638 256.072 84.6545 255.521 85.004C254.996 85.3518 254.369 85.7454 253.641 86.1848L253.379 86.3587C252.524 86.8587 251.57 87.2347 250.517 87.4868C250.287 87.5542 250.042 87.6094 249.784 87.6525C249.552 87.6939 249.332 87.7215 249.124 87.7352C247.695 87.8294 246.463 87.5452 245.427 86.8827C245.207 86.7145 244.987 86.5463 244.768 86.3781C244.546 86.1839 244.337 85.9888 244.142 85.7929C243.721 85.3509 243.402 84.863 243.184 84.3293C242.913 83.773 242.717 83.1857 242.598 82.5671C242.59 82.4372 242.532 82.1539 242.425 81.7173L242.404 81.4055L242.376 80.3895L242.46 79.8751C242.498 79.6638 242.526 79.4923 242.544 79.3607C242.559 79.2031 242.577 79.0714 242.596 78.9658C242.763 78.3284 242.958 77.7283 243.182 77.1655C243.406 76.6027 243.67 76.0503 243.973 75.5084C244.426 74.8522 244.89 74.3779 245.367 74.0855C245.892 73.7377 246.417 73.5857 246.942 73.6294C247.307 73.6314 247.642 73.7659 247.947 74.0329C248.086 74.1543 248.187 74.3042 248.251 74.4827C248.315 74.6611 248.354 74.8543 248.367 75.0622C248.4 75.5559 248.236 76.0365 247.875 76.5039C247.178 77.4111 246.634 78.0603 246.242 78.4515C246.12 78.59 245.95 78.7709 245.73 78.9942C245.508 79.1915 245.249 79.4303 244.955 79.7107C244.662 80.0171 244.491 80.198 244.442 80.2534C244.282 80.9947 244.266 81.7395 244.394 82.488C244.606 83.7267 245.166 84.6946 246.073 85.3917C246.982 86.1147 248.047 86.436 249.268 86.3555L249.385 86.3478C249.825 86.2927 250.263 86.2117 250.7 86.1046C251.163 85.9958 251.621 85.8221 252.075 85.5834C252.832 85.1942 253.525 84.8093 254.152 84.4287C255.254 83.7297 256.278 83.0229 257.222 82.3082C258.193 81.5918 259.111 80.8658 259.976 80.1302C260.248 79.9035 260.619 79.592 261.088 79.1957C261.583 78.7716 262.174 78.2498 262.864 77.6302L263.236 77.3317C263.611 77.0721 263.908 77.0264 264.128 77.1946ZM246.816 75.2819C246.686 75.2904 246.465 75.5007 246.153 75.9128C245.643 76.4944 245.269 77.1585 245.031 77.9049C245.803 77.3321 246.324 76.7236 246.594 76.0794L246.592 76.0404C246.712 75.876 246.78 75.7279 246.797 75.5963C246.815 75.4646 246.821 75.3598 246.816 75.2819ZM360.072 0.290009C360.306 0.274599 360.493 0.340569 360.633 0.487919C360.855 0.682104 360.974 0.89613 360.989 1.13C361.102 2.84503 361.146 4.10788 361.121 4.91857C361.082 5.91286 361.042 7.0899 361.002 8.4497C360.987 9.80778 360.96 11.3885 360.923 13.1917C360.793 16.7757 360.747 19.0492 360.785 20.0124C360.758 20.4056 360.719 22.1829 360.666 25.3442C360.641 26.9379 360.616 28.3488 360.593 29.577C360.568 30.7791 360.544 31.7986 360.52 32.6352C360.371 35.9074 360.22 38.9708 360.069 41.8254C359.916 44.6541 359.74 47.3277 359.541 49.8463C359.43 51.7326 359.224 53.9515 358.922 56.5029C358.621 59.0543 358.237 61.9504 357.772 65.1911C357.318 68.1962 356.903 70.8203 356.529 73.0633C356.153 75.2803 355.807 77.1561 355.491 78.6906C354.354 84.0112 352.91 88.8302 351.159 93.1474C350.617 94.4357 350.045 95.6479 349.441 96.7838C348.863 97.918 348.229 98.9906 347.539 100.002C346.306 101.884 345.072 103.361 343.838 104.434C342.876 105.281 341.887 105.92 340.872 106.352C338.688 107.279 336.519 107.226 334.363 106.194C333.313 105.715 332.285 104.961 331.278 103.931C330.693 103.369 330.102 102.73 329.507 102.012C328.938 101.293 328.363 100.495 327.784 99.6202C326.155 97.0916 324.619 93.9697 323.173 90.2546C322.442 88.2671 321.746 86.2121 321.084 84.0896C320.448 81.9653 319.857 79.7337 319.312 77.3947C318.699 74.8253 318.128 72.1096 317.6 69.2474C317.071 66.3594 316.569 63.2998 316.095 60.0687C315.535 56.3214 315.05 52.517 314.639 48.6555C314.253 44.7922 313.913 40.8086 313.616 36.7046C313.503 35.3811 313.374 34.0194 313.23 32.6196C313.111 31.2181 312.962 29.7404 312.781 28.1864C312.736 27.9023 312.657 27.49 312.543 26.9494C312.453 26.3812 312.316 25.6855 312.131 24.8626C312.129 24.8366 312.083 24.7222 311.991 24.5195C311.924 24.289 311.812 23.9832 311.657 23.602C311.248 23.7333 310.852 24.0596 310.468 24.5807C310.092 25.2057 309.787 25.7217 309.553 26.1286C309.318 26.5355 309.13 26.848 308.988 27.0662C308.415 28.2783 307.9 29.3693 307.442 30.339C306.982 31.2827 306.595 32.1434 306.281 32.9209C303.104 40.5422 300.318 48.1767 297.925 55.8246C295.532 63.4724 293.538 71.2245 291.941 79.0808C290.862 84.0845 289.929 89.1308 289.142 94.2196C288.327 99.2841 287.635 104.419 287.064 109.624C286.768 112.253 286.524 114.696 286.334 116.953C286.119 119.238 285.96 121.389 285.858 123.405C285.569 128.513 285.567 132.65 285.854 135.815C285.91 136.672 286.002 137.462 286.128 138.185C286.229 138.935 286.365 139.605 286.534 140.194C286.632 140.5 286.668 140.837 286.64 141.204C286.636 141.544 286.496 141.801 286.221 141.976C285.919 142.152 285.631 142.132 285.356 141.915C285.006 141.756 284.74 141.486 284.558 141.107C284.415 140.907 284.308 140.68 284.239 140.423C284.172 140.193 284.118 139.961 284.076 139.729C283.843 138.57 283.699 137.562 283.642 136.704C283.532 135.433 283.477 134.001 283.476 132.409C283.45 130.819 283.505 129.08 283.642 127.192C284.134 117.633 285.552 105.887 287.896 91.9528C288.526 88.0488 289.13 84.5379 289.708 81.4203C290.285 78.3026 290.833 75.5262 291.351 73.0911C293.482 63.4509 296.525 53.1896 300.48 42.3071C301.41 39.7925 302.289 37.4902 303.117 35.3999C303.971 33.308 304.796 31.3746 305.593 29.5996C305.91 28.874 306.277 28.1061 306.693 27.2957C307.11 26.4853 307.55 25.6342 308.013 24.7425C308.459 23.9824 308.961 23.2838 309.519 22.6467C310.275 21.8401 311.035 21.4899 311.798 21.5961C312.592 21.7526 313.178 22.3273 313.556 23.3202C313.989 24.3357 314.299 25.6853 314.489 27.3692C314.587 28.0674 314.668 28.9102 314.733 29.8977C314.825 30.8834 314.925 32.0121 315.035 33.2836C315.066 33.7514 315.116 34.5179 315.186 35.5833C315.257 36.6487 315.359 37.9991 315.493 39.6345C315.762 42.9312 315.967 45.4492 316.108 47.1885C316.272 49.2916 316.479 51.4311 316.726 53.607C316.974 55.7829 317.265 58.0212 317.6 60.3219C317.924 62.4667 318.201 64.3014 318.432 65.826C318.689 67.3489 318.9 68.5746 319.066 69.5032C319.787 73.7097 320.616 77.5828 321.554 81.1226C322.518 84.6606 323.594 87.9172 324.781 90.8924C326.04 94.1501 327.398 96.9314 328.854 99.2364C329.754 100.613 330.68 101.791 331.632 102.772C332.582 103.728 333.545 104.473 334.52 105.009C335.547 105.542 336.582 105.813 337.627 105.822C338.673 105.858 339.726 105.593 340.784 105.027C341.365 104.728 341.928 104.364 342.474 103.937C343.02 103.51 343.56 102.991 344.094 102.382C344.654 101.771 345.186 101.122 345.689 100.437C346.191 99.7513 346.678 99.0146 347.148 98.2267C349.906 93.7388 352.026 88.6796 353.507 83.0492C354.091 80.8185 354.615 78.4743 355.08 76.0165C355.568 73.5311 355.982 70.894 356.32 68.1054C356.568 65.9229 356.83 63.3741 357.108 60.4589C357.386 57.5437 357.662 54.211 357.937 50.4609C358.173 47.705 358.364 45.0565 358.509 42.5154C358.653 39.9483 358.765 37.4877 358.845 35.1336C358.878 34.8443 358.908 33.9159 358.936 32.3482C358.961 30.7545 359.021 28.4931 359.115 25.5639C359.157 22.6381 359.192 20.4044 359.221 18.8627C359.249 17.295 359.28 16.3796 359.314 16.1163C359.315 15.3333 359.323 14.2628 359.338 12.9047C359.353 11.5466 359.374 9.88796 359.401 7.92879C359.435 6.46505 359.442 5.18578 359.422 4.09097C359.428 2.99445 359.433 2.06769 359.435 1.31069C359.449 0.735589 359.662 0.395362 360.072 0.290009ZM416.584 67.6576C416.858 69.0488 417.071 70.4963 417.222 72C417.372 73.4778 417.46 75.0117 417.486 76.602C417.499 77.5929 417.472 78.5733 417.406 79.5433C417.338 80.4873 417.23 81.4339 417.084 82.3831C416.95 83.1227 416.763 83.8527 416.524 84.5731C416.4 85.0771 416.182 85.5222 415.868 85.9082C415.37 86.6718 414.724 87.158 413.928 87.367C413.185 87.5726 412.408 87.4672 411.598 87.0508C410.978 86.7524 410.289 86.1975 409.531 85.3863C408.883 84.6721 408.299 83.9276 407.779 83.1529C407.258 82.3782 406.786 81.561 406.364 80.7015C406.306 80.601 406.125 80.2345 405.822 79.602C405.545 78.9677 405.146 78.0545 404.624 76.8623C404.594 76.8121 404.533 76.6726 404.44 76.4438C404.345 76.1891 404.192 75.8599 403.983 75.4561C403.167 77.7282 402.737 78.9179 402.692 79.0253C402.178 80.338 401.73 81.4636 401.348 82.4022C400.992 83.3391 400.69 84.1028 400.442 84.6933C400.328 84.9357 400.141 85.2742 399.883 85.7088C399.649 86.1157 399.33 86.6326 398.928 87.2593C398.807 87.3978 398.673 87.5502 398.527 87.7163C398.406 87.8548 398.246 87.9959 398.046 88.1395C397.396 88.5738 396.831 88.5067 396.35 87.9381C396.211 87.8168 396.084 87.6686 395.968 87.4935C395.876 87.2908 395.757 87.0638 395.61 86.8125C395.42 86.303 395.253 85.7529 395.11 85.1621C394.967 84.5713 394.847 83.9398 394.75 83.2676C394.142 79.1842 394.218 74.9904 394.978 70.6863C395.183 69.4462 395.593 68.1403 396.208 66.7689C396.206 66.7429 396.225 66.6372 396.265 66.4519C396.331 66.2649 396.419 66.0242 396.531 65.7298C396.326 65.7954 396.159 65.8325 396.029 65.8411C395.925 65.8479 395.86 65.8522 395.834 65.8539C394.439 66.4678 393.487 66.8698 392.978 67.06C389.425 68.599 385.62 69.2673 381.561 69.065C381.509 69.0684 381.405 69.0753 381.249 69.0855C381.118 69.0681 380.947 69.0532 380.738 69.041L381.09 69.6441C382.685 71.2615 383.616 73.3141 383.884 75.8018C384.208 78.3381 383.801 80.6746 382.663 82.8114C382.271 83.594 381.829 84.2234 381.339 84.6994C380.827 85.255 380.182 85.5586 379.402 85.6099C379.037 85.6079 378.681 85.5531 378.334 85.4454C378.012 85.31 377.698 85.0959 377.392 84.8029C377.033 84.5133 376.635 84.0176 376.198 83.3157C375.964 82.9396 375.766 82.509 375.603 82.0238C375.439 81.5127 375.271 80.9366 375.098 80.2955C374.299 76.4856 374.492 72.6886 375.679 68.9045C375.764 68.6119 375.898 68.2768 376.082 67.8993C376.266 67.5218 376.485 67.0898 376.74 66.6032C376.862 66.4647 376.983 66.3262 377.105 66.1877C377.226 66.0492 377.375 65.935 377.552 65.8451C377.879 65.6669 378.206 65.6715 378.531 65.8588C378.803 66.0236 378.952 66.3009 378.978 66.6907C378.978 66.6907 378.93 66.9548 378.834 67.4831C379.153 67.5664 379.626 67.6266 380.255 67.6634C380.91 67.6986 381.735 67.7356 382.729 67.7745C382.992 67.8093 383.32 67.8269 383.711 67.8272C384.101 67.8015 384.569 67.7837 385.117 67.7737C387.121 67.6938 388.963 67.3245 390.642 66.6658C392.222 66.0919 393.595 65.5447 394.762 65.0242C395.952 64.476 396.949 63.9536 397.751 63.4571C397.751 63.4571 397.787 63.4155 397.86 63.3325C397.91 63.303 397.962 63.2866 398.014 63.2832C398.39 63.0496 398.766 63.0118 399.141 63.1697C399.489 63.3034 399.719 63.6145 399.829 64.1031C399.923 64.3318 399.928 64.6185 399.847 64.9632C399.633 66.0734 399.45 66.8684 399.299 67.3481C398.7 69.3449 398.213 71.4519 397.837 73.6689C397.487 75.8842 397.249 78.2225 397.124 80.684C397 82.754 397.077 84.5235 397.357 85.9927L397.515 86.6087C397.731 86.7249 397.91 86.6609 398.05 86.4168C398.48 85.8143 398.814 85.3356 399.052 84.9806C399.288 84.5997 399.44 84.3417 399.51 84.2067C400.622 82.0716 401.493 79.8481 402.124 77.536C402.165 77.3767 402.207 77.2173 402.249 77.058C402.29 76.8986 402.331 76.7263 402.371 76.541C402.411 76.3557 402.451 76.1703 402.491 75.985C402.557 75.798 402.622 75.598 402.687 75.3849C402.723 75.1477 402.763 74.9623 402.806 74.829C402.848 74.6696 402.878 74.5242 402.895 74.3925C403.045 73.8868 403.143 73.6063 403.192 73.5509C403.296 73.1525 403.541 72.9015 403.925 72.7979C404.235 72.7514 404.558 72.8867 404.892 73.204C405.113 73.3982 405.297 73.6079 405.442 73.8332C405.62 74.1608 405.77 74.451 405.891 74.704C406.038 74.9553 406.17 75.1815 406.288 75.3825C406.348 75.509 406.471 75.788 406.656 76.2195C406.866 76.6233 407.125 77.1934 407.434 77.9298C407.856 78.7894 408.334 79.6974 408.867 80.6541C409.398 81.5847 409.997 82.563 410.665 83.589C410.928 84.0154 411.258 84.4634 411.654 84.9332C411.936 85.2539 412.201 85.5104 412.449 85.7029C413.319 86.2458 414.031 86.1467 414.582 85.4057C414.892 84.9677 415.158 84.4413 415.378 83.8265C415.581 83.3434 415.741 82.7978 415.858 82.1899C415.999 81.5543 416.109 80.8554 416.189 80.0932C416.247 78.9933 416.255 77.9228 416.213 76.8816C416.174 75.1095 416.065 73.4464 415.884 71.8925C415.701 70.3125 415.458 68.8018 415.155 67.3603C415.07 66.87 414.94 66.2783 414.764 65.5853C414.612 64.8645 414.441 64.0537 414.251 63.1528C414.007 62.2293 413.828 61.4843 413.712 60.9177C413.595 60.3252 413.502 59.9007 413.433 59.6443C413.207 58.5892 413.029 57.6744 412.899 56.9C412.865 56.7718 412.842 56.6167 412.83 56.4348C412.844 56.2512 412.856 56.0416 412.867 55.806C412.896 55.4648 413.04 55.2726 413.298 55.2295C413.659 55.1536 413.862 55.2707 413.909 55.5808C414.178 56.1111 414.328 56.5971 414.357 57.0388C414.39 57.1411 414.484 57.5785 414.639 58.3512C414.821 59.1222 415.064 60.2415 415.369 61.7089C416.134 65.3906 416.539 67.3735 416.584 67.6576ZM381.21 82.7505C382.044 81.5472 382.59 80.3238 382.847 79.0802C383.105 77.8366 383.112 76.5574 382.869 75.2424C382.328 72.5899 380.835 70.5221 378.389 69.0392C378.258 69.4392 378.194 69.6522 378.196 69.6782C378.027 70.2896 377.905 70.8066 377.828 71.2292C377.75 71.6258 377.694 71.9687 377.661 72.258C377.165 75.4225 377.253 78.5354 377.924 81.5969C378.057 82.4233 378.321 83.0713 378.718 83.5411C379.17 84.0594 379.658 84.1446 380.183 83.7968C380.408 83.6515 380.606 83.4819 380.776 83.288C380.946 83.0941 381.091 82.915 381.21 82.7505Z" fill="black"/>
</svg>
