<svg width="27" height="26" viewBox="0 0 27 26" fill="none" xmlns="http://www.w3.org/2000/svg">
<path d="M0.929199 13.0221C0.930671 19.2436 5.45475 24.5409 11.5994 25.5159V16.677H8.39084V13.0221H11.6031V10.2398C11.4595 8.92138 11.9099 7.60744 12.832 6.65429C13.7541 5.70115 15.0524 5.2076 16.3748 5.30749C17.324 5.32282 18.2708 5.40736 19.2077 5.56043V8.67029H17.6091C17.0588 8.59821 16.5055 8.77997 16.1051 9.16436C15.7048 9.54876 15.5006 10.0942 15.5502 10.647V13.0221H19.0547L18.4944 16.6783H15.5502V25.5159C22.1955 24.4657 26.8554 18.3967 26.154 11.7056C25.4526 5.01455 19.6355 0.0437785 12.9169 0.394412C6.19834 0.745045 0.930267 6.29433 0.929199 13.0221Z" fill="white"/>
</svg>
