<svg width="25" height="26" viewBox="0 0 25 26" fill="none" xmlns="http://www.w3.org/2000/svg">
<path d="M12.5286 9.14473C10.2724 9.14473 8.4312 10.986 8.4312 13.2422C8.4312 15.4984 10.2724 17.3396 12.5286 17.3396C14.7848 17.3396 16.6261 15.4984 16.6261 13.2422C16.6261 10.986 14.7848 9.14473 12.5286 9.14473ZM24.8179 13.2422C24.8179 11.5454 24.8333 9.86401 24.738 8.17032C24.6427 6.20305 24.1939 4.45711 22.7553 3.01854C21.3137 1.57691 19.5708 1.1312 17.6036 1.03591C15.9068 0.940623 14.2254 0.955992 12.5317 0.955992C10.835 0.955992 9.15356 0.940623 7.45987 1.03591C5.4926 1.1312 3.74666 1.57998 2.3081 3.01854C0.866461 4.46018 0.420753 6.20305 0.325463 8.17032C0.230174 9.86708 0.245543 11.5485 0.245543 13.2422C0.245543 14.9359 0.230174 16.6203 0.325463 18.314C0.420753 20.2813 0.869535 22.0272 2.3081 23.4658C3.74973 24.9074 5.4926 25.3531 7.45987 25.4484C9.15663 25.5437 10.838 25.5283 12.5317 25.5283C14.2285 25.5283 15.9099 25.5437 17.6036 25.4484C19.5708 25.3531 21.3168 24.9044 22.7553 23.4658C24.197 22.0242 24.6427 20.2813 24.738 18.314C24.8363 16.6203 24.8179 14.9389 24.8179 13.2422ZM12.5286 19.5466C9.03983 19.5466 6.22418 16.731 6.22418 13.2422C6.22418 9.75335 9.03983 6.9377 12.5286 6.9377C16.0175 6.9377 18.8331 9.75335 18.8331 13.2422C18.8331 16.731 16.0175 19.5466 12.5286 19.5466ZM19.0913 8.15187C18.2767 8.15187 17.6189 7.49407 17.6189 6.6795C17.6189 5.86493 18.2767 5.20713 19.0913 5.20713C19.9059 5.20713 20.5637 5.86493 20.5637 6.6795C20.5639 6.87292 20.526 7.06449 20.4521 7.24324C20.3782 7.42199 20.2698 7.5844 20.133 7.72117C19.9962 7.85794 19.8338 7.96638 19.6551 8.04029C19.4763 8.1142 19.2847 8.15212 19.0913 8.15187Z" fill="white"/>
</svg>
