<svg width="643" height="285" viewBox="0 0 643 285" fill="none" xmlns="http://www.w3.org/2000/svg">
<path d="M54.4054 208.23C55.0419 208.541 55.3072 208.996 55.2016 209.597C55.1774 209.76 55.1457 210.029 55.1064 210.407C55.0672 210.784 54.9947 211.272 54.8891 211.872C54.1345 215.389 53.2079 219.28 52.1094 223.545C51.053 227.75 49.7825 232.389 48.2977 237.462C44.8574 249.437 41.7838 259.893 39.0768 268.83C38.7539 269.997 38.3797 271.174 37.9542 272.359C37.5288 273.544 37.0565 274.764 36.5375 276.019C36.2026 276.819 35.8074 277.576 35.3518 278.29C34.9475 278.996 34.4361 279.694 33.8177 280.385C31.2111 283.594 28.0951 284.064 24.4697 281.795C23.7639 281.391 23.0913 280.875 22.452 280.248C21.8216 279.672 21.1385 278.946 20.4026 278.071C19.4948 277.121 18.6414 276.029 17.8422 274.795C17.0943 273.552 16.3027 272.211 15.4673 270.772C12.5663 265.415 10.047 259.223 7.90938 252.198C5.31655 243.191 3.33332 232.093 1.95969 218.905C1.11024 210.489 0.592625 201.857 0.406842 193.006C0.212017 184.105 0.288703 174.944 0.636898 165.524C0.766834 163.862 0.862088 162.153 0.92266 160.398C0.97419 158.591 1.04684 156.754 1.14061 154.887C1.32814 151.153 1.5459 146.99 1.79388 142.399C1.91787 140.104 2.01468 138.104 2.08429 136.4C2.19614 134.635 2.30193 133.136 2.40164 131.902C2.41378 131.372 2.41235 130.764 2.39737 130.079C2.42462 129.334 2.46395 128.508 2.51535 127.6C2.61804 126.683 2.66641 125.907 2.66046 125.274C2.7058 124.632 2.75262 124.147 2.80092 123.822C2.80402 123.239 2.82068 122.734 2.85091 122.306C2.92337 121.817 2.97471 121.359 3.00493 120.93C3.14379 120.219 3.32636 119.605 3.55266 119.089C4.13198 117.877 4.99023 117.196 6.12743 117.049C7.22238 116.961 8.20264 117.423 9.0682 118.434C9.34566 118.808 9.56731 119.165 9.73316 119.506C9.9503 119.838 10.1508 120.226 10.3348 120.669C10.6604 121.616 10.9122 122.444 11.09 123.153C11.2679 123.862 11.3975 124.447 11.4789 124.909C11.6869 126.088 11.8692 127.272 12.0259 128.461C12.1735 129.598 12.2789 130.795 12.3421 132.053C12.33 132.584 12.2967 133.145 12.2423 133.736C12.1789 134.276 12.0687 134.851 11.9118 135.46C11.5557 136.739 11.088 137.535 10.5088 137.849C9.94773 138.265 8.92214 138.446 7.43205 138.391C7.4079 138.554 7.38523 138.875 7.36405 139.355C7.33383 139.783 7.30509 140.37 7.27784 141.115C7.15707 141.93 7.0695 142.632 7.01512 143.224C7.00298 143.754 6.9818 144.234 6.95158 144.662C6.60673 151.703 6.37045 158.909 6.24273 166.281C6.1663 173.644 6.17731 181.203 6.27577 188.958C6.28753 191.124 6.36259 193.648 6.50094 196.532C6.6393 199.416 6.84546 202.684 7.11944 206.337C7.30598 209.794 7.5031 213.011 7.71082 215.988C7.96981 218.956 8.2394 221.684 8.51958 224.173C9.09492 229.835 9.86033 235.225 10.8158 240.344C11.7713 245.463 12.9304 250.387 14.2931 255.117C15.0921 258.149 16.0086 260.948 17.0429 263.515C18.0862 266.133 19.2261 268.55 20.4625 270.764C20.8726 271.59 21.3687 272.455 21.9507 273.357C22.5327 274.259 23.1841 275.254 23.9049 276.343C24.2336 276.708 24.5925 277.094 24.9816 277.502C25.3706 277.909 25.8366 278.303 26.3795 278.683C28.2344 280.206 30.0261 280.023 31.7548 278.132C32.1108 277.752 32.4366 277.35 32.7322 276.928C33.0369 276.557 33.2813 276.144 33.4654 275.688C34.3404 274.054 34.9996 272.695 35.4432 271.612C36.0166 269.766 36.5447 268.113 37.0275 266.653C37.5103 265.194 37.8966 263.936 38.1863 262.88C38.7235 260.829 39.2984 258.692 39.9111 256.469C40.5327 254.297 41.1665 252.044 41.8123 249.71C42.4491 247.324 43.098 244.856 43.7589 242.308C44.4621 239.699 45.1939 236.952 45.9545 234.069C46.6728 231.245 47.3382 228.722 47.9509 226.499C48.5635 224.276 49.072 222.363 49.4764 220.758C49.7511 219.916 50.1162 218.689 50.5719 217.075C51.0698 215.401 51.6538 213.315 52.3238 210.818C52.4053 210.38 52.5004 210.02 52.609 209.737C52.7689 209.444 52.882 209.186 52.9484 208.963C53.2502 208.275 53.7358 208.031 54.4054 208.23ZM231.149 109.492C232.536 109.565 233.334 110.191 233.542 111.37C233.853 112.532 233.364 113.358 232.076 113.85C231.632 114.034 231.159 114.196 230.655 114.338C230.193 114.42 229.66 114.54 229.053 114.7C228.148 114.965 226.521 115.332 224.171 115.799C223.001 116.058 221.958 116.295 221.044 116.509C220.121 116.671 219.382 116.828 218.827 116.979C211.259 118.736 204.425 120.311 198.326 121.704C192.227 123.097 186.794 124.372 182.028 125.53C180.405 125.922 177.364 126.669 172.906 127.773C168.439 128.825 162.579 130.228 155.328 131.983C151.219 132.971 147.136 133.956 143.079 134.935C139.064 135.855 135.033 136.83 130.985 137.861C130.933 137.87 130.656 137.946 130.152 138.087C129.699 138.22 129.021 138.419 128.116 138.684C128.049 138.907 128.013 139.152 128.007 139.417C128.052 139.674 128.06 140.016 128.03 140.444C127.99 140.821 127.977 141.194 127.989 141.562C128.043 141.869 128.041 142.161 127.984 142.435C127.978 142.7 127.976 142.992 127.979 143.308C128.025 143.565 128.019 143.83 127.961 144.105C127.936 148.762 128.004 153.641 128.163 158.742C128.364 163.782 128.641 169.1 128.993 174.695C129.547 182.635 130.28 190.093 131.193 197.07C132.149 203.986 133.276 210.529 134.575 216.698C136.016 223.37 137.376 229.581 138.654 235.33C139.923 241.029 141.129 246.368 142.271 251.348C142.618 252.714 143.248 255.088 144.161 258.47C145.075 261.851 146.302 266.261 147.843 271.7C147.939 271.948 148.137 272.468 148.435 273.261C148.743 274.106 149.156 275.249 149.674 276.691C150.289 278.38 151.291 279.711 152.678 280.682C152.859 280.809 153.035 280.91 153.207 280.985C153.388 281.112 153.548 281.269 153.687 281.456C153.982 281.933 154.073 282.445 153.958 282.994C153.792 283.552 153.376 283.89 152.709 284.008C152.085 284.065 151.352 283.956 150.51 283.682C148.682 283.211 147.104 281.903 145.774 279.758C144.86 278.174 143.915 275.962 142.938 273.12C141.692 269.057 140.218 263.395 138.515 256.134C136.372 246.678 134.057 234.898 131.57 220.797C130.386 214.079 129.418 208.592 128.668 204.336C127.917 200.08 127.4 196.998 127.117 195.092C126.716 192.519 126.325 189.548 125.942 186.178C125.55 182.758 125.214 178.904 124.935 174.618C124.799 172.95 124.621 171.791 124.401 171.143C124.283 171.375 124.154 171.689 124.012 172.084C123.87 172.479 123.751 173.002 123.654 173.654C122.453 182.431 121.062 191.189 119.483 199.928C117.905 208.666 116.13 217.491 114.159 226.405C113.471 229.698 112.77 232.624 112.058 235.182C111.397 237.731 110.755 239.933 110.13 241.788C109.738 242.861 109.294 243.944 108.799 245.036C108.365 246.17 107.879 247.313 107.342 248.465C107.013 248.999 106.628 249.517 106.188 250.017C105.808 250.56 105.367 251.061 104.866 251.519C102.761 253.371 100.702 253.39 98.6904 251.577C97.7494 250.738 96.8658 249.625 96.0395 248.238C95.4484 247.284 94.8815 246.168 94.3387 244.889C93.7959 243.61 93.2638 242.091 92.7422 240.333C91.6839 237.03 90.7839 233.725 90.0424 230.419C89.3521 227.104 88.7689 223.796 88.2928 220.496C87.8258 216.349 87.3934 212.697 86.9957 209.542C86.6493 206.378 86.4144 203.696 86.291 201.497C86.1135 198.092 85.9692 195.024 85.8579 192.294C85.7467 189.565 85.6686 187.173 85.6237 185.118C85.6359 183.689 85.6665 180.564 85.7155 175.744C85.8157 170.914 85.9086 164.394 85.9942 156.184L86.0622 155.22C86.0351 155.066 86.0336 154.908 86.0577 154.745C86.0728 154.531 86.0925 154.342 86.1166 154.179C86.0865 153.709 86.1092 153.388 86.1846 153.216L86.0219 152.293L86.1846 153.216C85.7683 153.554 85.5647 153.748 85.5737 153.799C85.4258 154.46 85.2825 155.146 85.1436 155.858C85.056 156.561 84.9473 157.294 84.8175 158.057C83.2326 167.959 81.5994 177.289 79.918 186.045C78.2367 194.801 76.4996 203.092 74.7068 210.916C73.8436 214.717 72.9518 218.205 72.0313 221.381C71.1622 224.548 70.2734 227.454 69.3651 230.099C68.9638 231.122 68.5836 232.114 68.2245 233.076C67.8564 233.987 67.4672 234.928 67.0568 235.9C66.8305 236.415 66.574 236.91 66.2874 237.384C65.9918 237.806 65.6705 238.233 65.3235 238.664C64.5603 239.433 63.7639 239.864 62.9344 239.958C61.942 240.027 61.1004 239.752 60.4098 239.134C59.7191 238.515 58.9742 237.589 58.175 236.355C57.1497 234.738 56.1742 232.505 55.2486 229.654C52.6043 221.555 52.0051 213.809 53.451 206.416C53.5808 205.652 53.7287 204.992 53.8947 204.434C54.1029 203.816 54.2855 203.202 54.4424 202.592C54.6838 201.863 55.1273 201.229 55.7729 200.692C56.2827 200.285 56.8468 200.186 57.4651 200.394C58.1619 200.747 58.5645 201.231 58.673 201.847C58.7273 202.154 58.6819 202.797 58.537 203.774C58.5128 203.937 58.4947 204.284 58.4826 204.815C58.4704 205.345 58.4386 206.065 58.3872 206.973C58.3358 207.881 58.292 208.682 58.2557 209.375C58.2194 210.069 58.1605 210.635 58.079 211.072C57.7794 218.369 58.8506 225.794 61.2929 233.347C61.3894 233.594 61.525 233.914 61.6999 234.306C61.8658 234.647 62.0754 235.086 62.3287 235.623L62.8987 236.157C63.3602 236.076 63.8263 235.57 64.297 234.641C64.7074 233.67 65.08 232.785 65.4149 231.986C65.8011 231.177 66.0727 230.468 66.2297 229.859C67.2012 227.573 68.111 225.086 68.959 222.399C69.7979 219.66 70.6384 216.63 71.4805 213.309C73.0498 207.216 74.562 200.499 76.0169 193.157C77.5231 185.807 79.0098 177.745 80.4769 168.974C80.5977 168.16 80.889 166.363 81.3509 163.585C81.8128 160.807 82.3895 157.031 83.0809 152.256C83.0719 152.205 83.087 151.991 83.1262 151.614C83.2077 151.176 83.2878 150.581 83.3663 149.826C82.8445 149.866 82.4553 149.908 82.1989 149.953C81.9425 149.998 81.7887 150.025 81.7374 150.034C81.4388 150.14 79.184 150.696 74.973 151.703C68.8585 153.31 63.3595 154.808 58.4758 156.198C53.583 157.537 49.2121 158.836 45.363 160.096C44.4068 160.371 43.2545 160.733 41.9061 161.182C40.5064 161.64 38.9363 162.181 37.1958 162.806C35.3949 163.387 33.9696 163.85 32.9199 164.194C31.8611 164.486 31.208 164.681 30.9607 164.777C30.3634 164.988 29.7872 165.169 29.2322 165.32C28.6772 165.471 28.1221 165.622 27.5671 165.772C27.0724 165.965 26.5852 166.051 26.1056 166.03C25.2399 165.918 24.59 165.531 24.1557 164.867C23.7124 164.152 23.7396 163.407 24.2375 162.632C24.4396 162.279 24.6975 161.943 25.0113 161.623C25.2738 161.312 25.6011 161.07 25.9932 160.895C26.8017 160.382 27.6192 159.921 28.4457 159.51C29.221 159.109 30.0219 158.704 30.8484 158.294C31.8801 157.847 32.6191 157.691 33.0656 157.823C33.2888 157.89 33.5602 158.08 33.8799 158.394C34.1393 158.665 34.4167 159.039 34.7123 159.516L34.9068 159.719L35.1375 159.679C43.9397 157.122 52.2426 154.733 60.0463 152.511C67.8922 150.229 75.3369 148.07 82.3805 146.035C82.4317 146.026 82.9823 145.849 84.032 145.506C84.1467 144.957 84.2237 144.494 84.2629 144.117C84.3022 143.74 84.3384 143.495 84.3716 143.384C84.5468 141.978 84.7491 140.277 84.9786 138.28C85.2594 136.274 85.5795 133.891 85.9388 131.131C86.2982 128.371 86.6182 125.988 86.8991 123.983C87.1708 121.926 87.3988 120.22 87.583 118.865C87.7037 118.051 87.8079 117.292 87.8955 116.59C87.9831 115.887 88.0797 115.235 88.1853 114.635C88.5505 113.407 89.1569 112.798 90.0045 112.807C91.1869 112.916 91.784 113.604 91.7959 114.871C91.8742 115.915 91.9012 116.967 91.8769 118.029C91.9039 119.082 91.8932 120.22 91.8448 121.445C91.8144 122.772 91.7735 124.339 91.7219 126.146C91.6614 127.902 91.6294 129.969 91.6261 132.349C91.5714 134.738 91.5214 136.703 91.4759 138.245C91.4214 139.735 91.3806 140.852 91.3533 141.597C91.3714 141.7 91.3894 142.252 91.4074 143.253C91.7754 143.241 92.0363 143.222 92.1901 143.195C92.344 143.168 92.4465 143.149 92.4978 143.14C93.6591 142.83 95.6274 142.298 98.4026 141.544C101.178 140.79 104.811 139.806 109.303 138.591C118.235 136.17 123.191 134.741 124.171 134.304C124.292 133.489 124.348 133.057 124.339 133.005C124.378 132.628 124.419 131.96 124.461 131.001C124.494 129.99 124.581 128.68 124.719 127.069C124.807 125.467 124.875 124.054 124.924 122.83C125.014 121.545 125.085 120.448 125.137 119.54C125.176 119.163 125.23 118.572 125.3 117.767C125.412 116.901 125.569 115.842 125.771 114.591C125.828 114.316 125.89 114.067 125.957 113.844C126.014 113.57 126.092 113.265 126.192 112.93C126.433 112.2 126.948 111.819 127.735 111.786C128.489 111.864 128.943 112.339 129.097 113.211C129.127 113.682 129.152 114.126 129.173 114.546C129.246 114.956 129.258 115.324 129.209 115.65C129.158 116.558 129.113 117.65 129.073 118.926C129.034 120.201 129 121.661 128.973 123.305C128.765 126.62 128.683 128.855 128.728 130.011C128.676 130.919 128.619 131.643 128.556 132.182C128.543 132.713 128.546 133.03 128.565 133.133L130.103 132.861C130.905 132.614 131.964 132.322 133.279 131.984C134.646 131.637 136.264 131.22 138.134 130.731C141.977 129.737 144.937 128.977 147.012 128.452C152.058 127.087 157.17 125.789 162.346 124.559C166.044 123.642 169.362 122.819 172.301 122.09C175.281 121.3 177.907 120.599 180.178 119.987C184.287 118.998 187.789 118.169 190.684 117.5C193.632 116.822 195.993 116.273 197.77 115.854C201.417 114.946 204.693 114.184 207.598 113.566C210.554 112.939 213.181 112.396 215.48 111.938C216.035 111.787 217.471 111.534 219.787 111.179C222.095 110.772 225.279 110.237 229.339 109.574C230.057 109.447 230.66 109.42 231.149 109.492ZM58.2531 195.417C57.4658 195.45 56.7706 195.255 56.1674 194.833C55.5793 194.197 55.2566 193.566 55.1994 192.942C55.1844 192.257 55.3715 191.669 55.7607 191.177C56.183 190.574 56.7366 190.265 57.4213 190.25C58.0879 190.132 58.6927 190.264 59.2356 190.644C59.495 190.915 59.7031 191.196 59.8599 191.485C60.0589 191.715 60.1946 192.034 60.267 192.445C60.3061 192.967 60.128 193.606 59.7328 194.363C59.3104 194.966 58.8172 195.318 58.2531 195.417ZM124.12 141.213L123.953 139.815C123.44 139.905 122.419 140.112 120.89 140.434C119.412 140.748 117.4 141.182 114.854 141.736C112.317 142.342 109.81 142.969 107.334 143.618C104.848 144.214 102.367 144.837 99.8906 145.485C94.835 146.8 91.9919 147.618 91.3615 147.941C91.2407 148.755 91.1652 149.377 91.135 149.805C91.156 150.224 91.15 150.49 91.1168 150.601C91.0775 150.978 91.0563 151.458 91.0532 152.04C91.0924 152.562 91.1028 153.221 91.0846 154.017C91.1177 154.805 91.1372 155.515 91.1431 156.148C91.14 156.731 91.1234 157.236 91.0932 157.664C90.8413 168.23 90.8853 177.476 91.225 185.4C91.7901 199.999 92.4626 211.46 93.2427 219.782C93.7187 223.981 94.2295 227.777 94.775 231.171C95.3205 234.564 95.952 237.546 96.6695 240.116C97.1217 241.781 97.5936 243.258 98.0851 244.546C98.6279 245.825 99.1948 246.941 99.7859 247.894C100.576 249.077 101.292 249.691 101.935 249.736C102.647 249.875 103.425 249.341 104.27 248.135C104.767 247.36 105.256 246.533 105.736 245.655C106.225 244.829 106.695 243.9 107.148 242.868C107.794 241.433 108.429 239.787 109.054 237.932C109.729 236.068 110.39 233.969 111.036 231.635C111.93 228.305 112.741 224.963 113.472 221.608C114.254 218.245 114.996 214.81 115.699 211.302C117.076 203.815 118.421 195.7 119.734 186.956C121.09 178.151 122.447 168.606 123.806 158.32C123.917 157.455 123.967 156.388 123.955 155.121C124.007 153.315 124.043 151.272 124.065 148.995C124.077 146.666 124.096 144.072 124.12 141.213ZM162.145 107.225L160.15 106.704C160.116 106.816 160.088 106.953 160.064 107.116C160.082 107.219 160.088 107.403 160.082 107.668C160.085 107.985 160.011 108.315 159.86 108.659C159.872 109.027 159.84 109.297 159.765 109.469C158.895 117.13 158.301 124.558 157.983 131.752C157.657 138.895 157.573 145.916 157.732 152.814C157.821 157.821 158.25 164.751 159.018 173.605C159.437 178.977 160.036 184.476 160.817 190.101C161.597 195.727 162.636 201.466 163.932 207.318C166.211 218.443 168.963 228.056 172.19 236.159C172.856 237.839 173.491 239.34 174.094 240.661C174.757 242.024 175.461 243.169 176.206 244.095C176.746 245.058 177.254 245.84 177.731 246.444C178.207 247.047 178.675 247.599 179.133 248.1C180.032 248.999 181.106 249.841 182.354 250.625C184.686 251.853 186.933 251.853 189.096 250.626C189.76 250.192 190.398 249.762 191.01 249.337C191.622 248.912 192.2 248.44 192.743 247.921C194.493 246.449 196.36 244.296 198.345 241.46C200.88 237.841 203.201 233.916 205.31 229.684C209.366 221.196 212.763 211.979 215.504 202.031C215.805 200.445 215.634 199.021 214.988 197.76C209.452 186.152 207.677 174.436 209.663 162.612C210.101 159.997 210.697 157.83 211.451 156.111C211.786 155.312 212.139 154.615 212.51 154.021C212.933 153.417 213.403 152.938 213.922 152.582C215.229 151.294 216.547 150.824 217.877 151.171C219.436 151.319 220.604 152.091 221.379 153.488C221.726 153.956 222.004 154.488 222.216 155.085C222.478 155.673 222.724 156.318 222.953 157.017C223.212 158.188 223.405 159.581 223.531 161.198C223.7 162.755 223.751 164.543 223.684 166.564C223.678 170.425 223.404 174.571 222.864 179.002C222.314 183.382 221.455 188.107 220.287 193.177C220.157 193.94 220.061 194.592 219.997 195.132C219.976 195.612 219.967 196.01 219.97 196.326C220.015 196.583 220.134 196.958 220.327 197.453C220.572 197.939 220.885 198.518 221.268 199.191C222.523 201.507 223.949 203.45 225.548 205.019C226.715 206.241 227.965 207.183 229.298 207.847C231.663 208.964 233.982 208.925 236.257 207.731C236.981 207.339 237.645 206.904 238.248 206.428C238.851 205.951 239.399 205.458 239.891 204.948C240.762 203.896 241.52 202.943 242.162 202.089C242.796 201.184 243.34 200.375 243.796 199.66C244.792 198.11 245.68 196.552 246.462 194.986C247.294 193.412 247.994 191.834 248.562 190.254C249.035 188.743 249.651 186.836 250.409 184.535C251.217 182.225 252.133 179.472 253.156 176.278C253.536 174.836 253.642 173.787 253.473 173.129C253.253 172.481 253.493 172.042 254.193 171.813C254.959 171.36 255.576 171.41 256.043 171.962C256.493 172.412 256.758 172.867 256.839 173.329C256.984 174.149 256.987 174.915 256.848 175.627C256.61 176.674 256.4 177.583 256.219 178.355C256.029 179.076 255.842 179.664 255.658 180.12C254.387 183.411 253.221 186.392 252.159 189.064C251.148 191.728 250.195 194.117 249.298 196.231C248.11 199.084 246.488 201.882 244.433 204.623C242.708 206.831 241.045 208.499 239.447 209.627C235.44 212.395 231.168 212.752 226.628 210.697C224.282 209.684 222.009 207.89 219.81 205.317C219.741 205.223 219.672 205.13 219.602 205.036C219.533 204.943 219.438 204.854 219.317 204.769C219.188 204.633 219.058 204.498 218.928 204.362C218.85 204.217 218.746 204.077 218.616 203.941C218.487 203.805 218.387 203.691 218.318 203.597C218.239 203.452 218.131 203.286 217.992 203.099C217.334 205.066 217.01 206.075 217.019 206.126C214.695 213.938 211.997 221.129 208.926 227.698C206.008 234.24 203.024 239.657 199.974 243.949C199.002 245.337 198.03 246.566 197.055 247.636C196.081 248.707 195.144 249.692 194.245 250.59C192.7 252.026 191.109 253.047 189.471 253.653C186.889 254.901 184.141 254.91 181.227 253.679C179.559 252.916 177.87 251.733 176.16 250.131C175.201 249.19 174.266 248.086 173.355 246.819C172.445 245.552 171.532 244.126 170.619 242.543C169.105 239.954 167.688 237.164 166.367 234.171C165.097 231.17 163.885 227.894 162.73 224.344C160.921 218.582 159.31 212.442 157.896 205.923C156.534 199.396 155.33 192.417 154.284 184.988C153.037 175.214 152.281 165.381 152.017 155.487C151.753 145.593 152.035 135.498 152.863 125.2C153.011 123.64 153.316 120.123 153.778 114.649C154.283 109.114 154.965 101.591 155.826 92.0805C155.89 91.5405 155.941 91.0821 155.98 90.705C156.062 90.2676 156.152 89.8816 156.252 89.5468C156.717 87.9843 157.649 86.974 159.049 86.5157C160.542 85.988 161.879 86.228 163.062 87.2357C163.906 87.827 164.543 88.5872 164.971 89.5163C167.048 93.8029 167.671 98.5311 166.837 103.701C166.738 104.036 166.617 104.401 166.475 104.796C166.324 105.14 166.092 105.472 165.778 105.791C164.994 107.04 163.783 107.518 162.145 107.225ZM217.026 189.073L217.822 190.44C218.22 189.1 218.419 188.431 218.419 188.431C218.839 185.713 219.174 183.565 219.425 181.988C219.666 180.359 219.814 179.249 219.868 178.658C220.24 175.367 220.464 172.287 220.539 169.419C220.606 166.499 220.49 163.744 220.192 161.152C220.002 159.177 219.62 157.605 219.044 156.438C219.035 156.386 218.692 155.944 218.017 155.112C217.863 155.139 217.739 155.187 217.646 155.257C217.033 155.682 216.668 156.011 216.551 156.243C216.339 156.544 216.172 156.944 216.048 157.442C215.65 158.781 215.327 159.948 215.079 160.944C214.832 161.939 214.69 162.784 214.654 163.477C214.18 167.685 214.134 171.923 214.516 176.191C214.899 180.46 215.735 184.753 217.026 189.073ZM338.691 158.499C339.207 158.726 339.394 159.036 339.252 159.432C339.137 159.981 338.943 160.226 338.668 160.169C337.323 160.036 335.43 160.846 332.989 162.598C332.573 162.936 331.668 163.65 330.274 164.742C328.872 165.783 326.989 167.251 324.627 169.148C324.271 169.528 324.025 169.783 323.89 169.913C323.959 170.006 324.007 170.13 324.034 170.284C324.113 170.429 324.221 170.595 324.36 170.782C326.697 174.441 327.54 178.469 326.888 182.867C326.127 188.447 323.766 193.199 319.805 197.123C319.44 197.452 319.044 197.759 318.619 198.046C318.194 198.332 317.747 198.649 317.28 198.996C316.447 199.671 315.676 200.098 314.967 200.276C312.349 201.319 310.126 201.156 308.298 199.786C306.368 198.435 305.454 196.402 305.557 193.687C305.624 192.565 305.814 191.395 306.128 190.176C306.433 188.906 306.891 187.609 307.504 186.285C309.015 183.163 311.093 180.1 313.735 177.096C313.82 176.976 314.223 176.561 314.944 175.852C315.707 175.083 316.805 173.964 318.238 172.496C318.322 172.375 318.611 172.06 319.102 171.55C319.323 171.3 319.501 171.11 319.636 170.98C319.814 170.79 319.946 170.635 320.03 170.514L318.994 169.586C317.136 168.645 314.761 168.218 311.868 168.305C311.132 168.329 310.242 168.38 309.198 168.458C308.206 168.528 306.987 168.663 305.543 168.865C305.217 168.817 304.49 168.892 303.362 169.091L301.131 169.484C300.67 169.566 300.234 169.643 299.823 169.715C299.413 169.787 299.075 169.82 298.81 169.814C295.591 169.853 293.697 168.257 293.128 165.027C292.811 163.232 292.905 161.365 293.409 159.425C293.904 157.434 294.691 155.604 295.772 153.933C296.363 153.088 296.947 152.351 297.523 151.72C298.15 151.081 298.843 150.51 299.6 150.006C300.324 149.614 300.938 149.347 301.442 149.205C301.988 149.003 302.556 148.929 303.147 148.984C304.381 149.084 305.268 149.615 305.808 150.577C306.245 151.557 306.104 152.56 305.386 153.586C305.344 153.646 305.276 153.711 305.183 153.78C305.14 153.84 305.077 153.931 304.993 154.052C304.866 154.233 304.667 154.453 304.395 154.712C304.311 154.833 304.222 154.928 304.128 154.997C304.035 155.066 303.946 155.162 303.861 155.282C301.523 157.915 300.096 159.568 299.58 160.24C298.582 161.474 297.889 162.944 297.503 164.652C297.071 166.102 297.571 166.834 299 166.846C299.438 166.928 299.947 166.97 300.53 166.973C301.103 166.925 301.757 166.889 302.493 166.865C302.75 166.82 303.134 166.752 303.647 166.661C304.211 166.562 304.959 166.456 305.891 166.345C306.884 166.276 307.718 166.208 308.393 166.142C309.111 166.015 309.757 165.928 310.33 165.88C311.066 165.856 311.914 165.865 312.873 165.907C313.823 165.898 314.868 165.978 316.008 166.147C318.099 166.307 320.169 167.106 322.22 168.542C324.606 166.482 325.821 165.422 325.863 165.361C327.196 164.227 328.398 163.249 329.469 162.425C330.592 161.593 331.574 160.865 332.415 160.241C332.789 159.963 333.215 159.677 333.691 159.381C334.219 159.076 334.803 158.788 335.442 158.517C336.619 157.992 337.702 157.987 338.691 158.499ZM324.182 179.22C324.113 176.43 323.29 174.011 321.713 171.962C321.526 172.101 321.407 172.175 321.355 172.184C316.378 176.34 312.59 180.947 309.992 186.005C308.84 188.164 308.182 190.131 308.019 191.905C307.859 193.096 307.865 194.179 308.036 195.153C308.281 196.538 308.867 197.465 309.796 197.936C310.855 198.543 311.947 198.588 313.072 198.072C314.36 197.581 315.42 196.997 316.253 196.322C321.638 191.777 324.281 186.076 324.182 179.22ZM378.115 150.438C378.44 150.486 378.635 150.69 378.698 151.049C378.84 151.552 378.733 151.994 378.377 152.374C377.93 153.14 377.431 153.757 376.879 154.225L374.182 156.921C372.155 158.917 370.399 160.655 368.915 162.132C367.43 163.61 366.192 164.833 365.199 165.801C364.554 166.338 363.721 167.014 362.702 167.828C361.733 168.633 360.573 169.551 359.222 170.583L358.738 170.986C357.148 172.165 355.333 173.119 353.294 173.849C352.851 174.033 352.377 174.196 351.873 174.337C351.421 174.47 350.99 174.572 350.579 174.645C347.759 175.142 345.248 174.845 343.046 173.752C342.572 173.466 342.099 173.179 341.625 172.893C341.143 172.555 340.686 172.212 340.255 171.865C339.323 171.078 338.582 170.177 338.033 169.164C337.373 168.117 336.857 166.992 336.486 165.788C336.441 165.532 336.265 164.981 335.957 164.137L335.849 163.521L335.573 161.508L335.628 160.467C335.658 160.039 335.676 159.692 335.682 159.427C335.679 159.11 335.685 158.844 335.7 158.63C335.893 157.327 336.152 156.092 336.474 154.925C336.797 153.757 337.202 152.602 337.688 151.459C338.445 150.057 339.265 149.013 340.149 148.328C341.118 147.523 342.128 147.107 343.181 147.08C343.908 147.005 344.603 147.199 345.267 147.664C345.568 147.875 345.802 148.151 345.968 148.492C346.134 148.833 346.253 149.209 346.325 149.619C346.497 150.593 346.275 151.584 345.66 152.591C344.471 154.546 343.53 155.954 342.836 156.817C342.625 157.118 342.324 157.515 341.935 158.007C341.537 158.447 341.075 158.978 340.55 159.599C340.035 160.272 339.734 160.668 339.65 160.789C339.493 162.297 339.622 163.781 340.038 165.241C340.729 167.657 342.051 169.46 344.006 170.649C345.969 171.889 348.156 172.296 350.566 171.871L350.797 171.831C351.66 171.626 352.513 171.369 353.358 171.062C354.254 170.745 355.127 170.3 355.978 169.727C357.399 168.789 358.691 167.874 359.856 166.981C361.895 165.353 363.776 163.726 365.499 162.1C367.272 160.466 368.939 158.823 370.499 157.174C370.991 156.664 371.66 155.964 372.508 155.075C373.398 154.124 374.461 152.959 375.698 151.577L376.373 150.903C377.06 150.306 377.641 150.151 378.115 150.438ZM343.289 150.392C343.033 150.437 342.639 150.903 342.108 151.79C341.221 153.057 340.622 154.458 340.311 155.993C341.72 154.687 342.624 153.365 343.022 152.025L343.008 151.948C343.21 151.596 343.315 151.286 343.321 151.021C343.327 150.756 343.316 150.546 343.289 150.392ZM423.963 142.829C424.213 143.049 424.319 143.348 424.28 143.725C424.283 144.042 424.158 144.381 423.904 144.743C423.651 145.105 423.414 145.411 423.194 145.661C422.973 145.912 422.749 146.136 422.519 146.336L419.401 149.344C417.154 151.591 415.262 153.458 413.727 154.945C412.234 156.371 411.089 157.525 410.292 158.405C407.568 160.948 404.478 163.211 401.02 165.195C399.548 166.142 398.019 166.914 396.432 167.511C394.897 168.099 393.318 168.589 391.695 168.981C391.318 168.942 390.843 168.946 390.27 168.995C389.543 169.07 388.918 169.127 388.396 169.166C387.917 169.145 387.488 169.115 387.111 169.076C383.872 168.695 381.243 167.282 379.226 164.835C377.208 162.388 376.243 159.465 376.331 156.066C376.633 152.682 377.576 149.634 379.16 146.922C380.898 144.184 383.269 142.338 386.274 141.385C389.544 140.438 392.138 141.356 394.056 144.137C394.592 144.783 394.909 145.679 395.005 146.825C395.038 148.511 394.29 149.515 392.761 149.838L392.684 149.851C391.043 150.141 389.98 149.509 389.494 147.955C389.425 147.862 389.377 147.738 389.35 147.584C389.322 147.43 389.295 147.277 389.268 147.123L389.2 146.738C389.004 145.927 388.487 145.542 387.649 145.584C387.392 145.629 387.089 145.709 386.739 145.824C386.38 145.887 386 145.981 385.599 146.104C385.113 146.348 384.697 146.686 384.35 147.117C381.363 149.971 379.915 153.451 380.005 157.56C380.21 160.22 381.279 162.384 383.212 164.053C385.257 165.754 387.703 166.433 390.551 166.09C393.253 165.825 396.218 164.8 399.446 163.014C403.142 160.882 406.644 158.256 409.953 155.134C410.674 154.425 411.531 153.587 412.524 152.619C413.516 151.651 414.593 150.562 415.755 149.352C415.942 149.214 416.103 149.08 416.239 148.95C416.417 148.76 416.616 148.54 416.836 148.289C417.056 148.039 417.26 147.844 417.447 147.706C417.676 147.507 417.833 147.347 417.918 147.226C418.096 147.036 418.32 146.812 418.592 146.552C418.915 146.284 419.275 145.929 419.674 145.489C420.174 145.031 420.556 144.646 420.818 144.335C421.132 144.016 421.378 143.761 421.556 143.571C421.963 143.182 422.41 142.865 422.895 142.621C423.176 142.413 423.532 142.482 423.963 142.829ZM465.591 128.827C465.911 129.141 466.068 129.43 466.062 129.696C465.929 131.041 465.147 132.157 463.717 133.044C462.788 133.472 461.773 133.862 460.672 134.215C459.912 134.402 458.546 134.749 456.573 135.255C454.591 135.71 451.982 136.355 448.745 137.19C448.54 137.227 448.318 137.319 448.08 137.466L447.465 137.575C442.982 138.841 439.887 141.528 438.179 145.636C437.391 147.467 436.738 149.459 436.219 151.613C435.751 153.758 435.371 156.098 435.078 158.635C434.573 163.271 434.553 167.505 435.017 171.335C435.002 171.55 434.996 171.815 434.999 172.132C435.044 172.388 435.129 172.717 435.252 173.118C435.325 173.528 435.388 173.887 435.442 174.195C435.548 174.494 435.614 174.72 435.641 174.874C435.68 175.396 435.71 175.866 435.731 176.285C435.753 176.705 435.765 177.073 435.767 177.389C435.674 178.358 435.114 178.932 434.089 179.113C433.217 179.267 432.555 178.961 432.102 178.194C431.903 177.965 431.695 177.684 431.478 177.353C431.312 177.012 431.147 176.671 430.981 176.33C429.162 171.416 427.619 167.009 426.349 163.109C425.071 159.157 424.084 155.656 423.387 152.607C421.889 146.209 421.226 140.8 421.399 136.381C421.417 135.585 421.44 134.814 421.467 134.069C421.545 133.315 421.624 132.561 421.702 131.807C421.802 131.472 421.923 131.107 422.065 130.712C422.206 130.317 422.369 129.892 422.553 129.436C423.1 128.335 423.952 127.921 425.11 128.192C426.139 128.328 426.748 128.935 426.938 130.011C427.01 130.422 427.091 130.883 427.182 131.396C427.272 131.909 427.325 132.508 427.34 133.192C427.379 133.714 427.445 134.39 427.539 135.219C427.674 135.989 427.781 136.895 427.86 137.939C427.989 138.973 428.096 139.88 428.18 140.658C428.256 141.385 428.308 141.984 428.338 142.454C428.718 145.507 429.74 150.852 431.404 158.49L431.716 158.911C431.912 158.823 432.108 158.286 432.304 157.3C432.603 155.397 432.913 153.703 433.233 152.219C433.544 150.684 433.912 149.323 434.337 148.138C434.772 147.004 435.194 145.951 435.605 144.98C436.006 143.957 436.451 143.033 436.94 142.207C438.825 138.807 441.699 136.662 445.56 135.769C447.071 135.344 448.685 134.901 450.401 134.44C451.315 134.226 452.229 134.012 453.143 133.798C454.057 133.584 454.992 133.339 455.949 133.065C456.956 132.782 457.866 132.542 458.677 132.346C459.48 132.099 460.231 131.861 460.93 131.631C462.698 131.161 463.881 130.371 464.478 129.261C464.511 129.149 464.621 129.024 464.808 128.886C465.056 128.789 465.317 128.77 465.591 128.827ZM636.244 3.64229C636.971 3.56698 637.435 3.80232 637.637 4.34832C637.737 4.91239 637.48 5.40704 636.868 5.83227C636.62 5.92876 636.373 6.02525 636.126 6.12174C635.93 6.20918 635.703 6.27551 635.447 6.32072C632.708 7.27955 630.515 8.03636 628.868 8.59114C627.212 9.09465 626.06 9.45645 625.411 9.67656C624.403 9.95995 623.349 10.278 622.248 10.6308C621.189 10.9232 620.058 11.2549 618.855 11.6257C617.693 11.9363 616.46 12.286 615.153 12.6749C613.898 13.0548 612.541 13.4528 611.081 13.8688C609.724 14.2668 608.49 14.6165 607.38 14.918C606.27 15.2195 605.339 15.4893 604.588 15.7275C600.516 16.9214 596.922 17.9782 593.806 18.8977C590.69 19.8173 588 20.6087 585.738 21.272C579.66 23.084 574.986 24.4634 571.716 25.4101C568.446 26.3567 566.538 26.9311 565.992 27.1331C564.088 27.7331 560.781 28.7658 556.069 30.2311C551.4 31.636 545.309 33.5295 537.798 35.9114C537.798 35.9114 537.308 36.13 536.328 36.5672L536.024 38.4449C536.02 43.5214 536.076 48.4819 536.189 53.3262C536.346 58.1102 536.595 62.8248 536.939 67.4701C537.252 72.5437 537.848 78.1754 538.728 84.3651C539.659 90.5458 540.887 97.3615 542.413 104.812C543.618 111.05 544.705 116.463 545.673 121.051C546.64 125.639 547.451 129.488 548.105 132.598C549.154 137.648 550.23 142.402 551.334 146.86C552.437 151.319 553.602 155.528 554.829 159.489C555.42 161.341 555.971 162.962 556.48 164.353C556.99 165.744 557.505 166.869 558.027 167.728C558.148 167.813 558.234 167.851 558.285 167.842C558.397 167.875 558.504 167.882 558.606 167.864C558.709 167.846 558.79 167.858 558.851 167.9C560.196 168.033 560.823 168.742 560.733 170.027C560.799 170.703 560.514 171.335 559.877 171.923C559.223 172.409 558.518 172.612 557.764 172.533C556.684 172.407 555.888 171.939 555.375 171.131C554.275 169.686 553.557 168.464 553.222 167.465C552.61 166.093 552.063 164.788 551.58 163.551C551.089 162.263 550.688 161.039 550.377 159.877C549.581 157.162 548.766 154.187 547.931 150.95C547.087 147.662 546.235 144.032 545.376 140.059C544.152 134.617 543.037 129.341 542.03 124.232C541.014 119.07 540.102 114.049 539.295 109.169C538.523 104.493 537.697 99.5102 536.817 94.2193C535.928 88.8772 535.001 83.1716 534.037 77.1025C533.552 73.7513 533.166 70.0652 532.88 66.0443C532.585 61.9722 532.376 57.4883 532.253 52.5927L532.199 50.9367L531.339 52.3573C531.24 52.6921 531.036 53.3361 530.728 54.2892C530.411 55.191 530.025 56.4488 529.569 58.0625C529.105 59.6249 528.664 61.0245 528.248 62.2611C527.822 63.4465 527.468 64.4343 527.184 65.2246C524.426 73.2719 521.362 81.5318 517.991 90.0044C514.672 98.4678 511.018 107.281 507.029 116.444C506.374 117.829 505.522 119.592 504.472 121.733C503.413 123.823 502.135 126.322 500.638 129.23C498.976 132.696 496.95 135.749 494.561 138.391C493.004 140.358 491.515 141.81 490.094 142.748C489.473 143.122 488.873 143.466 488.293 143.779C487.765 144.084 487.228 144.337 486.682 144.539C483.551 145.673 480.772 145.053 478.344 142.678C477.816 142.084 477.509 141.689 477.421 141.493C475.594 139.224 474.318 136.938 473.594 134.633C472.828 132.389 472.437 130.766 472.419 129.764C472.37 129.191 472.348 128.614 472.351 128.032C472.405 127.44 472.497 126.763 472.627 126C472.83 123.849 473.438 122.05 474.451 120.602C475.504 118.778 477.001 117.668 478.94 117.273C480.69 116.7 482.147 116.866 483.311 117.771C484.578 118.658 485.283 119.961 485.428 121.681C485.566 122.767 485.542 123.829 485.355 124.866C485.159 125.852 484.856 126.831 484.445 127.802C484.252 128.207 483.895 128.878 483.373 129.816C482.893 130.693 482.253 131.864 481.454 133.327C481.463 133.378 481.028 134.062 480.15 135.381C480.376 136.662 481.031 137.975 482.113 139.317C483.112 140.78 484.421 141.157 486.041 140.449C487.371 139.897 488.457 139.309 489.299 138.685C489.995 138.139 490.658 137.546 491.285 136.907C491.955 136.207 492.599 135.512 493.217 134.821C494.098 133.82 494.973 132.635 495.842 131.265C496.753 129.836 497.735 128.208 498.788 126.384C501.045 122.39 503.411 117.664 505.885 112.205C509.168 104.435 512.19 97.1343 514.951 90.3026C517.711 83.4708 520.214 76.9754 522.459 70.8163C524.33 65.8335 526.026 60.908 527.547 56.0397C529.11 51.1112 530.459 46.1675 531.594 41.2088C531.793 40.5392 531.953 39.7972 532.074 38.9828L531.988 38.0462L531.065 38.2089C530.911 38.236 530.779 38.233 530.667 38.1998C530.368 38.3053 529.097 38.741 526.853 39.5069C524.599 40.2214 521.352 41.2963 517.111 42.7315C509.968 45.1014 504.549 46.903 500.853 48.1361C497.149 49.318 495.148 49.9618 494.849 50.0673C494.508 50.2331 494.039 50.4216 493.442 50.6327C492.887 50.7834 492.157 50.9914 491.252 51.2568C490.398 51.513 489.621 51.7557 488.921 51.9849C488.222 52.214 487.62 52.3995 487.116 52.5412C486.519 52.7522 485.917 52.9376 485.311 53.0974C484.756 53.2482 484.196 53.3733 483.632 53.4727C482.401 53.6897 481.546 53.3382 481.067 52.4181C480.509 51.3533 480.59 50.4665 481.311 49.7577C482.919 47.7822 484.671 46.4688 486.565 45.8176C487.503 45.4407 488.26 45.3865 488.836 45.655C488.873 45.8601 489.284 46.3956 490.071 47.2614L491.533 47.0037C492.335 46.7565 493.868 46.3012 496.13 45.6379C498.444 44.9656 501.499 44.0038 505.297 42.7525C505.554 42.7073 506.386 42.4812 507.795 42.0742C509.194 41.6159 511.222 40.9676 513.876 40.1295C516.479 39.3003 518.784 38.5767 520.79 37.9586C522.796 37.3406 524.452 36.8371 525.758 36.4481C525.861 36.43 526.416 36.2793 527.423 35.9959C528.422 35.6612 529.898 35.1894 531.853 34.5803C531.971 34.3481 532.075 34.0389 532.165 33.6528C532.307 33.2577 532.38 32.7691 532.383 32.1869C532.549 28.0334 532.741 24.3248 532.959 21.0611C533.219 17.7371 533.551 14.8233 533.956 12.3197C534.067 11.4541 534.292 10.3305 534.63 8.94903C534.959 7.5163 535.392 5.7744 535.929 3.72334C536.044 3.17437 536.43 2.36603 537.088 1.29833C537.501 0.643832 538.132 0.321167 538.979 0.330334C539.905 0.484299 540.454 1.04844 540.626 2.02275C540.873 2.82514 540.983 3.59886 540.956 4.3439C541.076 7.12502 540.789 10.2952 540.095 13.8544C539.893 15.1062 538.879 20.5989 537.052 30.3325L536.871 31.5541C536.687 32.0095 536.575 32.4258 536.536 32.8028C537.034 32.9266 537.961 32.7894 539.319 32.3915C548.079 29.8951 554.047 28.2083 557.223 27.331C557.914 27.0505 559.314 26.5923 561.422 25.9561C563.522 25.2686 566.33 24.4033 569.847 23.3602C570.701 23.1039 571.905 22.733 573.458 22.2476C575.054 21.7019 577.034 21.0883 579.399 20.4069C581.695 19.6321 583.722 18.9838 585.48 18.4622C587.281 17.8803 588.835 17.3949 590.141 17.006C593.887 15.7637 597.169 14.7356 599.987 13.9216C602.795 13.0563 605.151 12.3236 607.055 11.7236C613.679 9.70961 619.232 8.06947 623.715 6.80322C628.239 5.47664 631.749 4.54055 634.244 3.99493L636.244 3.64229ZM479.102 123.589C478.248 125.643 478.111 127.862 478.69 130.245C479.492 129.099 480.112 127.668 480.55 125.951C480.607 125.677 480.672 125.295 480.744 124.807C480.859 124.258 480.905 123.615 480.88 122.879C480.953 122.391 480.805 122.152 480.437 122.164C480.223 122.149 479.95 122.25 479.618 122.467C479.543 122.639 479.442 122.816 479.315 122.997C479.24 123.169 479.169 123.366 479.102 123.589ZM587.105 113.587C587.977 113.433 588.728 113.645 589.358 114.221C590.073 114.676 590.503 115.314 590.647 116.135C590.801 117.007 590.62 117.779 590.104 118.451C589.709 119.208 589.075 119.664 588.204 119.817C587.281 119.98 586.513 119.825 585.901 119.351C585.126 118.853 584.666 118.194 584.521 117.374C584.367 116.502 584.57 115.7 585.128 114.967C585.523 114.21 586.182 113.75 587.105 113.587ZM613.104 109.003C613.976 108.849 614.727 109.06 615.357 109.636C616.072 110.092 616.502 110.73 616.646 111.551C616.8 112.422 616.619 113.194 616.103 113.867C615.708 114.624 615.074 115.079 614.202 115.233C613.279 115.396 612.512 115.24 611.9 114.767C611.124 114.269 610.664 113.61 610.52 112.789C610.366 111.918 610.568 111.115 611.126 110.382C611.522 109.625 612.181 109.165 613.104 109.003ZM639.103 104.418C639.974 104.265 640.725 104.476 641.356 105.052C642.071 105.508 642.5 106.146 642.645 106.966C642.799 107.838 642.618 108.61 642.102 109.283C641.707 110.04 641.073 110.495 640.201 110.649C639.278 110.812 638.511 110.656 637.898 110.183C637.123 109.685 636.663 109.026 636.519 108.205C636.365 107.333 636.567 106.531 637.125 105.798C637.521 105.041 638.18 104.581 639.103 104.418Z" fill="black"/>
</svg>
