<svg width="315" height="152" viewBox="0 0 315 152" fill="none" xmlns="http://www.w3.org/2000/svg">
<path d="M101.017 7.55241C101.798 7.78478 102.236 8.31572 102.329 9.14524C102.371 9.9838 102.038 10.492 101.329 10.6699C100.997 10.887 100.631 11.0574 100.229 11.181C99.8281 11.3046 99.4224 11.4026 99.0122 11.4749C98.3546 11.6438 96.7272 12.01 94.13 12.5737C92.8148 12.9114 91.6746 13.1917 90.7093 13.4148C89.735 13.5866 88.8934 13.7614 88.1845 13.9393C86.4078 14.3583 83.2179 15.1587 78.6147 16.3405C74.0025 17.471 67.9213 18.9663 60.3711 20.8264C58.902 21.1911 57.4074 21.5604 55.887 21.9342C54.3667 22.3081 52.8766 22.703 51.4166 23.1191C51.1602 23.1643 50.9596 23.2261 50.8148 23.3045C50.7123 23.3226 50.5886 23.3708 50.4438 23.4492C50.2899 23.4763 50.1105 23.508 49.9053 23.5442C49.8028 23.5622 49.6791 23.6105 49.5343 23.6889C49.4318 23.707 49.3292 23.7251 49.2266 23.7431C49.0877 25.3539 49.0182 26.1592 49.0182 26.1592C48.9935 29.9176 48.9825 32.8541 48.9853 34.9686C48.988 37.083 48.9923 38.457 48.9983 39.0905C49.0763 41.9319 49.174 44.5848 49.2913 47.0492C49.4508 49.4533 49.6435 51.7458 49.8694 53.9266C50.4598 60.2732 51.2944 67.1054 52.3732 74.4233C53.4943 81.6808 54.9245 89.4919 56.6638 97.8566C57.7519 103.428 58.8099 108.529 59.8379 113.159C60.908 117.729 61.936 121.91 62.9219 125.702C63.4073 127.255 63.9229 128.83 64.4686 130.426C65.0747 132.064 65.8135 133.705 66.685 135.349C66.887 135.895 67.1674 136.585 67.5263 137.421C67.9454 138.299 68.4173 139.326 68.942 140.502C69.518 141.67 70.0155 142.692 70.4347 143.57C70.8538 144.448 71.2248 145.202 71.5474 145.833C72.247 147.401 72.9421 148.495 73.6328 149.113C74.236 149.536 74.2751 150.057 73.7502 150.679C73.2162 151.249 72.6733 151.318 72.1213 150.887C71.8016 150.573 71.5121 150.28 71.2527 150.009C71.0447 149.728 70.8622 149.443 70.7054 149.154C70.1837 148.294 69.7268 147.502 69.3348 146.778C68.994 146.045 68.697 145.41 68.4437 144.873C65.8896 139.084 63.7412 134.096 61.9983 129.909C60.2554 125.722 58.9302 122.255 58.0226 119.507C57.495 118.014 56.8603 116.063 56.1186 113.656C55.4191 111.189 54.6036 108.213 53.6721 104.729C52.6711 101.151 51.7245 97.4321 50.8322 93.571C49.9821 89.6496 49.1728 85.5095 48.4042 81.1508C47.5543 76.3305 46.8536 71.9068 46.3021 67.8799C45.7929 63.7926 45.3938 60.0297 45.1047 56.5909C44.7222 52.3227 44.4468 48.062 44.2785 43.8089C44.1524 39.4955 44.1153 35.087 44.1672 30.5836C44.1733 30.3181 44.1914 29.9713 44.2217 29.5429C44.2519 29.1146 44.2731 28.635 44.2852 28.1041C44.3427 26.9308 44.3865 26.1299 44.4167 25.7016C44.3625 25.3939 44.2283 25.2325 44.0141 25.2174C43.6974 25.2204 43.4802 25.338 43.3625 25.5703C43.2298 26.0167 43.0879 26.4118 42.9371 26.7556C42.8375 27.0904 42.7726 27.472 42.7423 27.9003C42.3621 29.3421 41.9245 31.0584 41.4295 33.0491C40.9255 34.9886 40.3732 37.2538 39.7726 39.8448C39.1207 42.4448 38.4974 44.9076 37.9029 47.2331C37.3596 49.5496 36.8239 51.7591 36.2957 53.8614C35.7766 56.015 35.2696 58.0872 34.7746 60.0779C34.2706 62.0174 33.7877 63.9267 33.326 65.8058C32.2938 69.8476 31.3024 73.6708 30.3517 77.2752C29.392 80.8284 28.452 84.193 27.5315 87.3691C27.275 88.3132 26.8254 89.6615 26.1826 91.4139C25.5912 93.1573 24.8323 95.3003 23.9059 97.843C22.8769 100.404 21.6188 102.714 20.1314 104.774C19.5311 105.567 18.9126 106.258 18.2761 106.846C17.6395 107.434 17.0151 107.941 16.4027 108.366C14.3574 109.361 12.6095 109.194 11.1588 107.863C10.3052 107.221 9.43211 106.317 8.53943 105.153C7.7493 103.97 6.96221 102.655 6.17815 101.207C5.38505 99.7076 4.63723 98.0153 3.93467 96.1299C2.27329 91.5056 1.3162 87.1272 1.0634 82.9947C1.04842 82.31 1.05003 81.5695 1.06824 80.7731C1.0774 79.9255 1.12429 78.992 1.20889 77.9725C1.24518 77.2787 1.37196 76.6483 1.58922 76.0812C2.16853 74.8687 3.13987 74.3802 4.50324 74.6157C5.61021 74.8964 6.24656 75.6566 6.41229 76.8963C6.43632 77.6323 6.37284 78.6217 6.22185 79.8644C5.97127 81.442 5.80516 82.8988 5.72354 84.2351C5.64191 85.5713 5.63571 86.7357 5.70495 87.7281C6.09326 93.5286 7.39413 98.5073 9.60757 102.664C9.9212 103.243 10.2559 103.792 10.6118 104.311C10.9677 104.83 11.319 105.323 11.6658 105.791C13.0411 107.293 14.5191 107.429 16.0998 106.199C17.0682 105.394 17.9325 104.448 18.6928 103.362C19.2419 102.578 19.7186 101.833 20.1229 101.127C20.5272 100.422 20.8847 99.7504 21.1955 99.114C22.0162 97.1716 22.7404 95.4312 23.368 93.893C23.9956 92.3547 24.5131 90.9416 24.9205 89.6537C25.7202 87.292 26.624 84.1716 27.632 80.2927C28.6401 76.4138 29.8201 71.7114 31.1722 66.1856C31.8724 63.2598 32.9544 58.6012 34.4183 52.2097C35.9334 45.8091 37.8469 37.6199 40.1589 27.6421C40.1498 27.5908 40.1528 27.4581 40.168 27.2439C40.2344 27.0207 40.2781 26.6693 40.2993 26.1897C39.6991 26.084 38.8228 26.2121 37.6705 26.5739C32.0357 28.202 27.4084 29.5466 23.7886 30.6079C20.211 31.6088 17.5987 32.3867 15.9517 32.9415C15.7466 32.9777 14.7737 33.3078 13.0332 33.932C11.2836 34.5048 8.76633 35.3717 5.48133 36.5325L2.85696 37.3918C1.73785 37.642 0.947595 37.3584 0.486203 36.5409C-0.0777486 35.7415 -0.00825974 34.9361 0.69467 34.1248C1.42175 33.1506 2.43837 32.469 3.74451 32.0801C5.22865 31.5012 6.40957 31.4516 7.28727 31.9313C7.57984 32.0912 8.162 32.0943 9.03375 31.9406C9.88742 31.6843 11.4454 31.2245 13.7078 30.5612C15.9702 29.898 18.9837 28.9965 22.7483 27.8568C26.1207 26.892 29.1176 26.0464 31.739 25.3198C34.4025 24.5329 36.7117 23.8349 38.6664 23.2259C38.8202 23.1987 38.9484 23.1761 39.051 23.1581C39.1958 23.0797 39.3451 23.0269 39.4989 22.9998C39.8911 22.8249 40.241 22.7103 40.5487 22.656C41.0434 22.4631 41.342 22.3575 41.4446 22.3394C41.4536 22.3907 41.5834 22.077 41.8338 21.3984C41.9908 20.7891 42.0723 20.3517 42.0783 20.0863C43.5209 15.0733 44.6359 11.2019 45.4236 8.4722C46.2113 5.74249 46.6881 4.09863 46.854 3.54062C47.1106 2.59653 47.3489 1.99932 47.5692 1.74899C47.7955 1.23322 48.1997 0.976885 48.7819 0.979983C49.4666 0.964996 49.9235 1.30742 50.1527 2.00725C50.2793 2.72517 50.3199 3.40537 50.2746 4.04785C50.2051 4.85321 50.1371 5.81693 50.0705 6.93902C50.004 8.0611 49.9435 9.36719 49.889 10.8573C49.6081 13.762 49.4585 15.6125 49.4403 16.4089C49.4765 16.614 49.4311 17.7059 49.3041 19.6846C49.5786 19.742 49.9255 19.7601 50.3448 19.7391C50.8063 19.6577 51.387 19.5024 52.0868 19.2733C52.6841 19.0622 54.0973 18.6808 56.3265 18.1291C58.5466 17.5262 61.5435 16.6805 65.3171 15.5921C69.1421 14.4947 72.4934 13.5601 75.3711 12.7883C78.2911 11.9562 80.7586 11.2567 82.7736 10.6899C84.2336 10.2739 85.8565 9.88196 87.6422 9.51421C89.4702 9.08613 91.4822 8.65206 93.6782 8.21197C93.9768 8.10644 94.6178 7.99341 95.6011 7.8729C96.5845 7.75238 97.8589 7.63341 99.4245 7.51599C99.6809 7.47078 99.9463 7.47685 100.221 7.5342C100.486 7.54027 100.752 7.54634 101.017 7.55241ZM5.21912 67.4308C4.65505 67.5302 4.01108 67.3265 3.28722 66.8197C2.59655 66.2012 2.18341 65.5074 2.04778 64.7382C1.9695 63.6945 2.2441 62.853 2.8716 62.2136C3.78869 61.4174 4.73736 61.2501 5.71762 61.7118C6.73108 62.0618 7.21359 62.8492 7.16516 64.0738L7.24653 64.5353C7.20727 64.9124 7.1122 65.2728 6.96134 65.6167C6.85271 65.9002 6.71844 66.1882 6.55853 66.4808C6.17839 67.0237 5.73192 67.3404 5.21912 67.4308ZM73.4754 11.9329C75.3847 12.8652 76.3316 14.3373 76.3163 16.3493C76.1441 18.0716 76.0081 19.5496 75.9084 20.7833C75.86 22.0079 75.7875 22.946 75.6909 23.5975C75.3435 26.7255 74.5604 29.4808 73.3415 31.8636C73.0065 32.6629 72.6143 33.2872 72.1648 33.7366C71.4709 34.5992 70.6248 34.7484 69.6265 34.1842C68.5617 33.8432 68.0671 33.1373 68.1427 32.0665C68.1488 31.801 68.1503 31.5099 68.1473 31.1932C68.1956 30.8675 68.2862 30.4814 68.419 30.035C68.5095 29.6489 68.6121 29.1814 68.7268 28.6324C68.8928 28.0744 69.083 27.3535 69.2972 26.4697C69.5206 25.6372 69.7062 24.8907 69.8541 24.2301C70.002 23.5696 70.1167 23.0206 70.1982 22.5833C70.1891 22.532 70.2706 22.0946 70.4427 21.2712C70.657 20.3874 70.9015 19.0753 71.1762 17.3349C70.5368 16.7074 70.2036 16.3167 70.1764 16.1629C69.335 14.9894 69.3292 13.9065 70.1588 12.9142C71.0458 11.6475 72.1513 11.3204 73.4754 11.9329ZM136.393 55.2463C136.908 55.4726 137.095 55.7833 136.953 56.1784C136.839 56.7274 136.644 56.9732 136.37 56.9158C135.024 56.7829 133.132 57.5926 130.691 59.3447C130.275 59.6825 129.37 60.3973 127.976 61.489C126.573 62.5295 124.691 63.9982 122.329 65.8952C121.973 66.2752 121.727 66.53 121.591 66.6597C121.66 66.7532 121.709 66.8769 121.736 67.0307C121.814 67.1755 121.923 67.3415 122.062 67.5285C124.399 71.1877 125.241 75.2162 124.589 79.614C123.828 85.1942 121.467 89.9461 117.506 93.8699C117.141 94.1986 116.746 94.5062 116.321 94.7927C115.895 95.0792 115.449 95.3959 114.981 95.7427C114.149 96.4183 113.378 96.845 112.669 97.0228C110.051 98.0661 107.828 97.9029 106 96.5333C104.07 95.1817 103.156 93.1485 103.259 90.4338C103.325 89.3117 103.515 88.1413 103.829 86.9228C104.134 85.6529 104.593 84.3559 105.205 83.0318C106.717 79.9101 108.794 76.8473 111.437 73.8433C111.521 73.7227 111.924 73.308 112.645 72.5992C113.408 71.8301 114.507 70.7112 115.94 69.2424C116.024 69.1218 116.312 68.8066 116.804 68.2969C117.024 68.0466 117.202 67.8566 117.338 67.7269C117.516 67.5369 117.647 67.3816 117.732 67.2609L116.696 66.3333C114.838 65.3919 112.462 64.9647 109.57 65.0518C108.834 65.0758 107.944 65.127 106.9 65.2053C105.908 65.2745 104.689 65.4101 103.244 65.612C102.918 65.5637 102.191 65.639 101.063 65.8379L98.8326 66.2312C98.3711 66.3126 97.9352 66.3895 97.525 66.4618C97.1147 66.5341 96.7769 66.5673 96.5115 66.5612C93.293 66.6 91.3989 65.004 90.8293 61.7734C90.5128 59.9786 90.6066 58.1115 91.1106 56.172C91.6055 54.1813 92.3931 52.3505 93.4732 50.6795C94.0645 49.835 94.6483 49.0976 95.2245 48.4673C95.852 47.8279 96.5443 47.2564 97.3015 46.7527C98.0255 46.3607 98.6393 46.0939 99.1431 45.9522C99.6891 45.7501 100.258 45.6763 100.849 45.7307C102.083 45.8304 102.969 46.3614 103.509 47.3237C103.946 48.3041 103.806 49.307 103.088 50.3325C103.046 50.3928 102.978 50.4577 102.884 50.527C102.842 50.5873 102.779 50.6778 102.694 50.7985C102.567 50.9794 102.368 51.1996 102.097 51.459C102.012 51.5796 101.923 51.6746 101.83 51.744C101.736 51.8133 101.647 51.9083 101.563 52.029C99.2248 54.662 97.7979 56.3147 97.282 56.9873C96.2834 58.2209 95.5909 59.6913 95.2046 61.3985C94.773 62.8493 95.2721 63.5808 96.7019 63.5931C97.1393 63.6746 97.649 63.7169 98.2312 63.72C98.8043 63.6718 99.4589 63.6357 100.195 63.6117C100.451 63.5665 100.836 63.4987 101.349 63.4082C101.913 63.3088 102.661 63.2033 103.593 63.0918C104.585 63.0226 105.419 62.9548 106.095 62.8886C106.813 62.762 107.458 62.6746 108.032 62.6264C108.768 62.6024 109.615 62.6116 110.574 62.6539C111.525 62.645 112.57 62.7251 113.71 62.8942C115.8 63.0543 117.871 63.8524 119.922 65.2885C122.308 63.2287 123.522 62.1686 123.564 62.1083C124.898 60.9743 126.1 59.9956 127.171 59.1723C128.293 58.34 129.275 57.6116 130.117 56.9874C130.491 56.7099 130.916 56.4234 131.393 56.1279C131.921 55.8233 132.504 55.5353 133.144 55.2639C134.32 54.7392 135.403 54.7334 136.393 55.2463ZM121.884 75.9668C121.815 73.1766 120.992 70.7574 119.415 68.709C119.227 68.8478 119.108 68.9216 119.057 68.9307C114.079 73.0866 110.292 77.6936 107.694 82.7517C106.541 84.9112 105.884 86.8778 105.72 88.6514C105.56 89.8429 105.566 90.9257 105.738 91.9001C105.982 93.2846 106.569 94.2122 107.498 94.6829C108.556 95.2894 109.648 95.3348 110.773 94.8191C112.062 94.3276 113.122 93.7441 113.954 93.0685C119.339 88.5236 121.983 82.823 121.884 75.9668ZM270.45 31.5291L270.631 31.6558C270.631 31.6558 270.803 31.7312 271.147 31.8821C271.602 32.0661 271.84 32.3678 271.861 32.7871C271.756 33.3873 271.667 33.9318 271.594 34.4204C271.513 34.8578 271.371 35.2529 271.169 35.6058C270.96 36.2241 270.692 36.8002 270.363 37.3341C270.085 37.8589 269.74 38.4485 269.327 39.103C267.74 41.4978 266.258 43.7418 264.883 45.835C263.507 47.9282 262.206 49.8494 260.982 51.5987C260.592 52.0903 260.178 52.5865 259.737 53.0871C259.348 53.5788 258.882 54.0839 258.339 54.6027C255.853 56.9973 252.888 57.5731 249.443 56.3298C248.146 55.8712 246.747 54.9811 245.245 53.6597C242.898 51.747 240.823 49.1255 239.02 45.7952C238.881 45.6081 238.734 45.3698 238.577 45.0802C238.429 44.8419 238.247 44.5568 238.029 44.225C237.864 43.8841 237.663 43.4965 237.428 43.0621C237.244 43.5176 237.093 43.8614 236.975 44.0937C236.858 44.3259 236.803 44.4677 236.812 44.5189C236.755 44.7934 236.651 45.1026 236.5 45.4464C236.4 45.7812 236.263 46.202 236.088 46.7087C235.904 47.1642 235.746 47.6151 235.613 48.0615C235.531 48.4989 235.42 48.9151 235.278 49.3102C235.145 49.7567 235.029 50.1473 234.929 50.4821C234.83 50.8169 234.683 51.1863 234.49 51.5905C234.131 52.5527 233.713 53.631 233.236 54.8254C232.751 55.9685 232.176 57.2067 231.512 58.5398C231.201 59.1763 230.835 59.7961 230.412 60.3993C229.99 61.0025 229.477 61.5424 228.874 62.0189C227.583 63.0925 226.269 63.5885 224.933 63.5069C223.527 63.3318 222.373 62.6363 221.472 61.4206C220.805 60.6393 220.249 59.7328 219.803 58.7011C219.408 57.6604 219.037 56.4568 218.69 55.0903C217.632 50.8884 217.222 46.4663 217.461 41.8241C217.518 41.5496 217.657 40.3884 217.878 38.3403C218.141 36.2319 218.464 33.2668 218.847 29.4451C217.861 30.1478 217.291 30.5127 217.137 30.5398C216.908 30.7389 215.722 31.6617 213.58 33.3084C211.336 34.9731 209.729 36.2081 208.761 37.0133C207.868 37.6466 206.877 38.3237 205.788 39.0444C204.699 39.7652 203.47 40.59 202.1 41.5188C200.969 42.2999 199.841 42.9483 198.716 43.4639C197.59 43.9796 196.529 44.4047 195.53 44.7394C195.479 44.7485 195.334 44.8269 195.096 44.9746C194.909 45.1134 194.619 45.2702 194.227 45.4451L194.706 47.264C197.173 53.7556 198.036 60.9 197.296 68.6973C197.106 71.2159 196.478 73.6531 195.413 76.0087C194.423 78.1924 193.108 79.8784 191.467 81.0666C188.399 83.4582 185.299 83.4231 182.169 80.9613C181.384 80.4122 180.659 79.7469 179.993 78.9656C179.377 78.1752 178.77 77.2778 178.17 76.2732C176.638 73.5824 175.415 70.5463 174.501 67.1648C172.638 59.2978 172.41 51.4069 173.817 43.4921C174.086 42.0172 174.386 40.7217 174.718 39.6057C175.092 38.4293 175.575 37.4189 176.166 36.5744C176.157 36.5231 176.272 35.9742 176.51 34.9275C177.011 32.6713 178.393 31.661 180.655 31.8966C182.275 32.0869 183.929 32.7733 185.618 33.956C186.472 34.5986 187.292 35.3528 188.079 36.2186C188.857 37.0332 189.598 37.9336 190.301 38.9201C190.406 39.2187 191.383 40.712 193.232 43.3998C193.711 43.421 194.208 43.3864 194.72 43.296C195.285 43.1965 195.826 42.9688 196.345 42.613C197.76 41.9405 198.927 41.3646 199.847 40.8851C200.809 40.3453 201.503 39.9321 201.929 39.6456C204.107 38.2041 206.283 36.6042 208.458 34.846C210.624 33.0365 212.84 31.0595 215.106 28.9152C215.419 28.5955 215.916 28.1115 216.594 27.463C217.315 26.7543 218.236 25.8254 219.355 24.6763C220.61 23.3975 221.762 23.0357 222.812 23.5909C223.937 23.9741 224.529 25.0857 224.589 26.9257C224.505 27.0464 224.467 28.0312 224.476 29.8802C224.213 34.6853 224.025 38.4196 223.913 41.083C223.844 43.6861 223.824 45.223 223.854 45.6935C223.742 47.4581 223.763 49.2257 223.916 50.9963C224.061 52.7157 224.338 54.4381 224.748 56.1635C225.173 57.6748 225.585 58.6597 225.983 59.1182C226.71 59.0429 227.425 58.5996 228.128 57.7883C228.541 57.1338 228.933 56.5095 229.304 55.9153C229.667 55.2698 229.961 54.6892 230.187 54.1734C231.49 51.67 232.545 48.6553 233.351 45.1293C233.408 44.8548 233.44 44.5848 233.446 44.3194C233.503 44.0449 233.582 43.7403 233.681 43.4055C233.73 43.0797 233.778 42.7539 233.826 42.4282C233.926 42.0934 234.03 41.7842 234.139 41.5007C234.178 41.1236 234.231 40.8235 234.297 40.6003C234.355 40.3258 234.442 40.0725 234.56 39.8402C234.789 38.7423 235 37.9912 235.194 37.5871C235.664 36.6581 236.289 36.1514 237.067 36.0671C238.008 36.0069 238.816 36.3931 239.492 37.2257C239.57 37.3705 239.653 37.5409 239.741 37.737C239.819 37.8818 239.932 38.0734 240.08 38.3117C240.333 38.8486 240.49 39.1382 240.55 39.1805C241.814 41.5485 242.829 43.4052 243.595 44.7506C244.352 46.0448 244.808 46.8366 244.965 47.1262C245.33 47.6964 245.79 48.3555 246.345 49.1037C246.951 49.8428 247.652 50.6708 248.449 51.5879C249.227 52.4025 250.101 53.0149 251.073 53.4253C252.837 54.436 254.577 54.2613 256.294 52.9012C256.804 52.494 257.267 52.1216 257.683 51.7838C258.09 51.3947 258.468 50.9845 258.814 50.5533C259.668 49.3981 260.48 48.3033 261.249 47.2688C262.018 46.2342 262.762 45.2043 263.48 44.1788C263.945 43.5152 264.532 42.6451 265.241 41.5684C265.992 40.4313 266.87 39.1133 267.874 37.6143C268.583 36.5375 269.127 35.5693 269.504 34.7097C269.932 33.841 270.22 33.0764 270.368 32.4159C270.401 32.3043 270.409 32.1972 270.391 32.0946C270.373 31.9921 270.38 31.885 270.414 31.7734C270.395 31.6708 270.408 31.5894 270.45 31.5291ZM194.936 58.0099C194.405 53.5034 193.281 49.5246 191.562 46.0736C189.589 45.6812 188.089 45.4171 187.06 45.2812C186.022 45.094 185.443 44.9582 185.323 44.8737C184.876 44.741 184.37 44.5659 183.803 44.3487C183.51 44.1888 183.252 44.0756 183.029 44.0092C182.797 43.8916 182.585 43.7437 182.395 43.5657C182.224 43.4903 182.021 43.3937 181.789 43.2761C181.548 43.1071 181.251 42.9216 180.898 42.7194C180.346 42.288 179.894 41.9712 179.541 41.7691C179.345 42.7554 179.255 43.2998 179.274 43.4024C178.923 47.1125 178.799 50.7563 178.901 54.3337C179.003 57.9112 179.31 61.4524 179.823 64.9575C180.477 68.9664 181.509 72.274 182.921 74.8803C183.575 76.1926 184.278 77.179 185.029 77.8397C186.343 79.2998 187.882 79.478 189.644 78.3742C190.853 77.738 191.865 76.5813 192.68 74.9043C193.658 73.2515 194.356 71.0662 194.776 68.3485C195.044 66.8735 195.162 65.293 195.129 63.6068C195.139 61.8603 195.074 59.9947 194.936 58.0099ZM180.383 34.4032C179.671 34.2643 179.225 34.581 179.044 35.3532C179.4 35.872 179.656 36.2763 179.813 36.5659C180.012 36.7951 180.116 36.9354 180.125 36.9867C179.989 37.1164 179.976 37.4889 180.084 38.1043C180 38.2249 180.052 38.3742 180.242 38.5522C181.069 39.9399 182.566 41.2356 184.735 42.4394C186.894 43.592 188.73 43.9557 190.241 43.5306C189.234 41.1174 187.669 38.9876 185.545 37.1413C184.544 36.2604 183.66 35.5966 182.894 35.1501C182.43 34.9148 181.593 34.6658 180.383 34.4032ZM314.213 16.595C314.533 16.9088 314.69 17.1984 314.684 17.4638C314.551 18.8091 313.77 19.9251 312.34 20.8117C311.411 21.2399 310.396 21.6304 309.295 21.9831C308.534 22.17 307.168 22.5167 305.195 23.0232C303.213 23.4784 300.604 24.1235 297.367 24.9586C297.162 24.9948 296.941 25.0868 296.702 25.2345L296.087 25.343C291.604 26.6093 288.509 29.2964 286.801 33.4045C286.014 35.2353 285.36 37.2276 284.841 39.3812C284.374 41.5258 283.993 43.8664 283.7 46.4032C283.196 51.0393 283.176 55.2728 283.64 59.1036C283.624 59.3178 283.618 59.5832 283.621 59.8999C283.667 60.1563 283.751 60.4851 283.875 60.8863C283.947 61.2966 284.01 61.6555 284.064 61.9632C284.17 62.2618 284.236 62.4881 284.263 62.6419C284.303 63.1638 284.333 63.6343 284.354 64.0536C284.375 64.4729 284.387 64.8409 284.39 65.1576C284.296 66.1258 283.737 66.7004 282.711 66.8812C281.839 67.0349 281.177 66.7287 280.725 65.9625C280.526 65.7332 280.318 65.4526 280.101 65.1208C279.935 64.7799 279.769 64.4391 279.603 64.0982C277.785 59.1842 276.241 54.7771 274.972 50.8767C273.693 46.9251 272.706 43.4245 272.01 40.3748C270.511 33.9769 269.848 28.5684 270.021 24.1494C270.039 23.3531 270.062 22.5824 270.089 21.8374C270.168 21.0833 270.246 20.3292 270.325 19.5751C270.424 19.2403 270.545 18.8754 270.687 18.4802C270.829 18.0851 270.992 17.6598 271.176 17.2044C271.722 16.1035 272.574 15.6888 273.732 15.9605C274.761 16.0964 275.37 16.7027 275.56 17.7796C275.632 18.1899 275.714 18.6514 275.804 19.1642C275.894 19.677 275.947 20.2757 275.962 20.9604C276.001 21.4823 276.068 22.158 276.161 22.9875C276.297 23.7567 276.404 24.6631 276.482 25.7068C276.611 26.7414 276.718 27.6479 276.803 28.4261C276.878 29.1531 276.931 29.7518 276.961 30.2224C277.34 33.275 278.362 38.6202 280.026 46.2579L280.338 46.6787C280.534 46.5913 280.731 46.0544 280.927 45.068C281.226 43.1647 281.535 41.4711 281.855 39.9871C282.166 38.4518 282.534 37.0914 282.96 35.9061C283.394 34.772 283.817 33.7193 284.227 32.7481C284.628 31.7256 285.073 30.8011 285.562 29.9747C287.448 26.5755 290.321 24.4298 294.182 23.5375C295.694 23.1124 297.307 22.6692 299.024 22.2079C299.938 21.9939 300.852 21.7798 301.766 21.5658C302.68 21.3518 303.615 21.1076 304.571 20.8332C305.579 20.5498 306.488 20.3101 307.299 20.1142C308.102 19.867 308.853 19.6288 309.553 19.3996C311.32 18.9293 312.503 18.1392 313.1 17.0292C313.134 16.9176 313.244 16.7925 313.431 16.6537C313.678 16.5573 313.939 16.5377 314.213 16.595Z" fill="black"/>
</svg>
