<svg width="182" height="75" viewBox="0 0 182 75" fill="none" xmlns="http://www.w3.org/2000/svg">
<path d="M23.6213 58.88C34.2613 58.88 40.8213 52.4 40.8213 38.88C40.8213 25.36 34.2613 18.88 23.6213 18.88C18.6613 18.88 15.1413 20.32 12.9013 24V19.76H0.74125V74.96H12.8213V64.88H12.9013V53.76C15.1413 57.52 18.6613 58.88 23.6213 58.88ZM20.4213 22.16C25.7013 22.16 28.1013 27.12 28.1013 38.88C28.1013 50.64 25.7013 55.6 20.4213 55.6C15.1413 55.6 12.2613 50.72 12.2613 38.88C12.2613 27.04 15.1413 22.16 20.4213 22.16ZM61.1044 19.76H48.9444V58H61.1044V46.4C61.1044 27.92 65.4244 22.16 68.2244 22.16C69.3444 22.16 69.7444 23.44 69.7444 27.04V33.76L80.1444 29.6V27.04C80.1444 21.76 76.7044 18.88 71.0244 18.88C65.5844 18.88 62.6244 22.64 61.1044 28.72V19.76ZM85.0994 58H97.3394V19.76H85.0994V58ZM84.2994 7.52C84.2994 11.68 87.1794 14.08 91.2594 14.08C95.4994 14.08 98.2194 11.68 98.2194 7.52C98.2194 3.36 95.4994 0.879996 91.2594 0.879996C87.1794 0.879996 84.2994 3.36 84.2994 7.52ZM116.121 19.76H103.161L115.241 58H126.841L139.721 19.76H136.681L125.641 52.48H125.561L116.121 19.76ZM162.089 18.88C149.449 18.88 142.569 26.4 142.569 38.72C142.569 52.16 150.889 58.8 163.689 58.8C173.369 58.8 178.089 54.48 181.049 50.72L179.369 49.44C176.009 52.56 171.929 54.96 165.689 54.96C158.809 54.96 154.649 50.16 154.569 39.2H181.449V37.28C181.449 26.08 175.369 18.88 162.089 18.88ZM162.089 21.2C166.649 21.2 169.609 26.08 169.769 36.72H154.569C154.889 25.76 157.529 21.2 162.089 21.2ZM161.769 15.76L177.289 2H164.729L159.609 15.76H161.769Z" fill="black"/>
</svg>
