<svg width="27" height="26" viewBox="0 0 27 26" fill="none" xmlns="http://www.w3.org/2000/svg">
<path d="M0.929688 12.6451C0.931159 18.8666 5.45524 24.1639 11.5998 25.139V16.3001H8.39133V12.6451H11.6036V9.86281C11.46 8.54443 11.9103 7.23048 12.8325 6.27734C13.7546 5.3242 15.0529 4.83064 16.3753 4.93054C17.3245 4.94587 18.2713 5.0304 19.2082 5.18348V8.29334H17.6096C17.0593 8.22126 16.506 8.40301 16.1056 8.78741C15.7052 9.1718 15.5011 9.71723 15.5507 10.27V12.6451H19.0552L18.4949 16.3013H15.5507V25.139C22.196 24.0888 26.8559 18.0198 26.1545 11.3287C25.4531 4.6376 19.636 -0.333175 12.9174 0.0174587C6.19883 0.368092 0.930755 5.91738 0.929688 12.6451Z" fill="#EB3737"/>
</svg>
