<svg width="25" height="26" viewBox="0 0 25 26" fill="none" xmlns="http://www.w3.org/2000/svg">
<path d="M12.5282 8.76777C10.272 8.76777 8.43072 10.609 8.43072 12.8652C8.43072 15.1214 10.272 16.9627 12.5282 16.9627C14.7844 16.9627 16.6256 15.1214 16.6256 12.8652C16.6256 10.609 14.7844 8.76777 12.5282 8.76777ZM24.8174 12.8652C24.8174 11.1684 24.8328 9.48705 24.7375 7.79336C24.6422 5.8261 24.1934 4.08015 22.7549 2.64159C21.3132 1.19996 19.5703 0.754249 17.6031 0.658959C15.9063 0.56367 14.2249 0.579039 12.5312 0.579039C10.8345 0.579039 9.15307 0.56367 7.45938 0.658959C5.49212 0.754249 3.74617 1.20303 2.30761 2.64159C0.865972 4.08323 0.420264 5.8261 0.324975 7.79336C0.229686 9.49013 0.245055 11.1715 0.245055 12.8652C0.245055 14.5589 0.229686 16.2434 0.324975 17.9371C0.420264 19.9043 0.869046 21.6503 2.30761 23.0888C3.74924 24.5305 5.49212 24.9762 7.45938 25.0715C9.15614 25.1668 10.8375 25.1514 12.5312 25.1514C14.228 25.1514 15.9094 25.1668 17.6031 25.0715C19.5703 24.9762 21.3163 24.5274 22.7549 23.0888C24.1965 21.6472 24.6422 19.9043 24.7375 17.9371C24.8358 16.2434 24.8174 14.562 24.8174 12.8652ZM12.5282 19.1697C9.03934 19.1697 6.22369 16.354 6.22369 12.8652C6.22369 9.3764 9.03934 6.56075 12.5282 6.56075C16.017 6.56075 18.8326 9.3764 18.8326 12.8652C18.8326 16.354 16.017 19.1697 12.5282 19.1697ZM19.0908 7.77492C18.2763 7.77492 17.6185 7.11712 17.6185 6.30255C17.6185 5.48798 18.2763 4.83017 19.0908 4.83017C19.9054 4.83017 20.5632 5.48798 20.5632 6.30255C20.5634 6.49597 20.5255 6.68754 20.4516 6.86629C20.3777 7.04503 20.2693 7.20744 20.1325 7.34421C19.9957 7.48098 19.8333 7.58943 19.6546 7.66334C19.4758 7.73725 19.2842 7.77516 19.0908 7.77492Z" fill="#EB3737"/>
</svg>
