<svg width="589" height="272" viewBox="0 0 589 272" fill="none" xmlns="http://www.w3.org/2000/svg">
<path d="M285.079 3.09758C286.737 3.95828 286.995 5.16457 285.855 6.71643C285.059 7.6949 283.933 8.30376 282.478 8.54299C281.059 8.68894 279.877 8.31726 278.934 7.42794C278.738 7.26874 278.541 7.08735 278.34 6.88378C278.135 6.63585 277.97 6.33899 277.845 5.99321C277.841 5.94885 277.778 5.77596 277.657 5.47455C277.581 5.16857 277.471 4.75397 277.328 4.23074C276.698 4.20587 276.203 4.18949 275.843 4.18162C275.484 4.17374 275.282 4.17209 275.238 4.17665C273.671 4.20319 271.845 4.32365 269.76 4.53801C267.671 4.70802 265.369 4.98955 262.854 5.38261C258.573 6.04683 254.127 6.84021 249.514 7.76273C244.902 8.68526 240.103 9.76139 235.119 10.9911C233.811 11.3498 231.805 11.8923 229.1 12.6187C226.395 13.3451 222.93 14.3066 218.704 15.5032C216.483 16.135 214.35 16.7578 212.306 17.3714C210.302 17.9361 208.386 18.4917 206.559 19.0382C204.467 19.612 202.336 20.2569 200.168 20.973C198 21.689 195.724 22.4386 193.338 23.2218C191.512 23.7683 189.581 24.3927 187.546 25.095C185.551 25.7485 183.385 26.4867 181.049 27.3097C178.105 28.3296 175.488 29.2488 173.196 30.0673C170.899 30.8413 168.906 31.5169 167.217 32.0941C165.054 32.8545 162.483 33.7913 159.504 34.9045C156.525 36.0178 153.094 37.312 149.211 38.7872C149.122 38.7963 148.388 39.0734 147.01 39.6187C145.671 40.1149 143.665 40.8816 140.992 41.9185C140.758 42.2564 140.643 43.0976 140.646 44.4422C140.543 53.464 140.475 61.0922 140.444 67.3271C140.412 73.5619 140.448 78.4896 140.552 82.1104C140.592 83.8098 140.705 86.8692 140.89 91.2884C141.071 95.6633 141.306 101.445 141.597 108.633C141.645 109.973 141.705 111.648 141.778 113.658C141.889 115.619 142.013 117.915 142.149 120.546C142.246 123.226 142.33 125.571 142.402 127.581C142.47 129.547 142.525 131.177 142.569 132.473C142.703 134.656 143.04 142.511 143.579 156.04C144.241 173.815 144.593 183.776 144.634 185.924C144.819 191.643 145.013 197.675 145.217 204.02C145.417 210.321 145.611 217.004 145.799 224.068C145.842 225.363 145.871 226.952 145.885 228.833C145.948 230.754 146.004 233.035 146.051 235.675C146.094 238.271 146.124 240.532 146.143 242.458C146.211 244.424 146.268 246.076 146.317 247.416C146.287 248.002 146.499 253.338 146.953 263.423C146.97 264.452 146.971 265.125 146.959 265.44C146.988 266.154 146.647 266.548 145.937 266.621C145.143 266.747 144.639 266.418 144.424 265.633C144.366 265.505 144.323 265.307 144.295 265.041C143.795 258.861 143.432 254.684 143.209 252.51C143.136 251.801 143.054 251.002 142.963 250.115C142.916 249.223 142.835 248.223 142.721 247.114C142.652 246 142.564 244.933 142.459 243.913C142.399 242.888 142.316 241.865 142.211 240.845C142.155 239.864 142.082 238.93 141.99 238.043C141.944 237.151 141.877 236.284 141.79 235.441C141.488 232.065 141.207 229.112 140.947 226.584C140.736 224.095 140.521 222.01 140.304 220.329C139.604 214.393 138.81 208.849 137.921 203.695C137.072 198.492 136.08 193.64 134.945 189.139C134.057 185.733 133.114 182.446 132.115 179.276C131.157 176.057 130.121 172.958 129.008 169.979C126.651 163.631 124.05 157.734 121.204 152.288C118.402 146.838 115.324 141.752 111.969 137.031C109.871 134.064 107.511 131.168 104.889 128.344C94.5636 117.301 81.7938 110.612 66.5799 108.276C63.5744 107.823 60.4052 107.521 57.0722 107.37C53.779 107.171 50.2998 107.125 46.6348 107.233C43.5509 107.326 40.5229 107.525 37.5506 107.831C34.5737 108.092 31.6481 108.415 28.7737 108.8C25.4601 109.275 22.3332 109.821 19.3929 110.437C16.4525 111.053 13.6964 111.718 11.1246 112.43C9.30247 113.021 7.91251 113.455 6.95478 113.733C5.99705 114.011 5.47382 114.155 5.3851 114.164C4.64005 114.33 3.98374 114.487 3.41615 114.635C2.844 114.739 2.33611 114.813 1.89248 114.859C1.09396 114.941 0.578604 114.725 0.346422 114.211C0.0300769 113.75 0.0595097 113.164 0.434721 112.453C0.664408 112.071 0.900937 111.755 1.14431 111.506C1.38312 111.213 1.64411 110.917 1.92728 110.619C2.919 109.8 3.80667 109.058 4.59026 108.395C5.37386 107.731 6.09775 107.142 6.76194 106.625C9.3391 104.656 12.2001 102.614 15.3448 100.497C18.5339 98.3761 22.0023 96.1366 25.7498 93.7787C33.4668 89.0402 41.5899 84.3271 50.1191 79.6395C58.6483 74.952 67.7167 70.2762 77.3242 65.6123C84.5387 62.091 92.0239 58.5867 99.7799 55.0994C107.576 51.5632 115.726 47.9905 124.232 44.3814C124.321 44.3722 125.18 44.0148 126.812 43.3092C128.443 42.6035 130.914 41.5649 134.225 40.1934C134.211 40.0603 134.188 39.8385 134.156 39.5279C134.169 39.2128 134.17 38.7868 134.159 38.2499C134.198 37.7528 134.199 37.3268 134.162 36.9719C134.166 36.5681 134.174 36.2086 134.186 35.8935C134.171 32.2637 134.155 29.4858 134.136 27.56C134.113 25.5898 134.105 24.425 134.113 24.0655C134.092 22.9917 134.22 21.6113 134.494 19.9243C134.634 19.1029 134.83 18.3879 135.081 17.7793C135.805 16.5392 136.855 15.8485 138.23 15.7071C139.566 15.6146 140.694 16.1262 141.616 17.2419C142.547 18.4464 143.037 19.9427 143.086 21.7308C143.189 23.6032 142.807 25.1219 141.94 26.2869C141.313 27.1584 140.985 28.1112 140.957 29.1452C140.949 29.5047 140.941 29.8641 140.933 30.2236C140.97 30.5785 140.964 30.9601 140.916 31.3685C140.864 31.7325 140.839 32.1386 140.84 32.5868C140.881 32.9861 140.877 33.3899 140.83 33.7983C140.791 34.2954 140.768 34.7237 140.76 35.0831C140.797 35.438 140.787 35.7753 140.73 36.095L140.947 37.5521C141.164 37.4849 141.49 37.3842 141.924 37.2499C142.354 37.0712 142.935 36.8321 143.666 36.5328C151.313 33.7292 157.123 31.5852 161.095 30.1009C165.066 28.6166 167.225 27.8119 167.571 27.6866C171.162 26.4208 174.78 25.1971 178.424 24.0155C182.064 22.7895 185.772 21.5788 189.55 20.3835C191.762 19.6629 194.498 18.7988 197.756 17.7913C201.015 16.7838 204.886 15.6237 209.369 14.311C212.282 13.4288 214.982 12.658 217.469 11.9987C219.953 11.2951 222.241 10.6564 224.333 10.0826C231.278 8.29272 237.757 6.77481 243.77 5.52889C249.824 4.23404 255.479 3.20433 260.735 2.43977C265.987 1.63084 270.084 1.14241 273.025 0.974476C275.79 0.824785 278.155 0.940236 280.122 1.32083C281.037 1.49578 281.891 1.74413 282.687 2.06585C283.522 2.33865 284.319 2.68256 285.079 3.09758ZM134.594 72.5685C134.611 72.2978 134.516 63.5206 134.308 46.2371L134.091 44.7799L131.81 45.4852C125.968 47.9687 121.414 49.8939 118.147 51.2609C114.876 52.5835 112.853 53.3968 112.077 53.7007C103.403 57.4168 95.126 61.0698 87.2461 64.6594C79.4105 68.2446 71.8878 71.82 64.6779 75.3856C57.0823 79.1254 50.1653 82.7057 43.9268 86.1267C37.7281 89.4987 32.1192 92.7204 27.1 95.7918C19.0373 100.656 12.6943 104.805 8.07106 108.239C7.6548 108.551 6.16265 109.735 3.59461 111.792C3.13399 112.109 3.01293 112.457 3.23143 112.838C4.06063 112.619 4.5196 112.504 4.60832 112.495C4.95866 112.414 5.52397 112.244 6.30426 111.984C7.1289 111.72 8.23734 111.382 9.62957 110.97C12.0193 110.231 14.4626 109.577 16.9593 109.006C19.4561 108.436 22.004 107.927 24.6032 107.481C31.1584 106.269 37.9459 105.571 44.9655 105.387C48.6704 105.23 52.2559 105.22 55.722 105.357C59.1881 105.494 62.5791 105.773 65.8951 106.194C83.7629 108.616 98.5425 116.758 110.234 130.619C112.692 133.594 114.986 136.721 117.116 139.999C119.242 143.232 121.255 146.679 123.155 150.339C126.274 156.25 129.032 162.579 131.429 169.326C133.822 176.029 135.929 183.232 137.752 190.935C138.538 194.217 139.202 197.399 139.743 200.481C140.324 203.515 140.804 206.447 141.185 209.277C141.203 209.454 141.327 210.002 141.556 210.92C141.614 211.048 141.687 211.108 141.776 211.099C141.74 209.444 141.722 208.616 141.722 208.616C141.729 207.809 141.697 206.848 141.628 205.734C141.602 204.616 141.561 203.343 141.504 201.914C141.031 192.952 140.648 185.526 140.357 179.639C140.061 173.707 139.849 169.245 139.721 166.255C139.544 163.224 139.373 160.261 139.21 157.363C139.047 154.466 138.863 151.593 138.66 148.745C138.613 147.853 138.564 146.939 138.513 146.003C138.461 145.067 138.405 144.086 138.345 143.061C138.284 142.036 138.199 140.992 138.09 139.927C138.02 138.813 137.948 137.678 137.874 136.52C137.784 134.332 137.659 132.462 137.499 130.909C137.21 125.918 136.955 121.909 136.733 118.884C136.512 115.858 136.386 113.764 136.356 112.601C136.205 109.389 136.057 106.423 135.912 103.703C135.767 100.983 135.623 98.4874 135.479 96.2158C135.259 90.5896 135.059 85.8132 134.88 81.8865C134.745 77.9552 134.649 74.8492 134.594 72.5685ZM234.68 167.52C234.867 167.591 235.003 167.823 235.088 168.218C235.137 168.258 235.115 168.484 235.023 168.897C234.878 169.226 234.75 169.508 234.64 169.744C234.574 169.975 234.523 170.137 234.488 170.23C233.632 171.932 232.985 173.052 232.547 173.59C232.198 174.119 231.634 174.962 230.857 176.118C230.074 177.229 229.058 178.679 227.807 180.466C227.612 180.755 227.356 181.095 227.037 181.487C226.759 181.829 226.445 182.265 226.096 182.794C225.702 183.327 225.366 183.765 225.088 184.108C224.854 184.446 224.637 184.737 224.438 184.982C223.894 185.8 223.342 186.529 222.78 187.17C222.258 187.761 221.705 188.266 221.12 188.685C219.411 189.937 217.682 190.563 215.933 190.563C214.043 190.489 212.315 189.815 210.749 188.541C210.651 188.461 210.378 188.198 209.928 187.751C209.479 187.304 208.783 186.636 207.839 185.747C207.741 185.667 207.666 185.585 207.612 185.501C207.554 185.373 207.476 185.269 207.378 185.189C207.236 185.114 207.038 184.932 206.785 184.645C206.687 184.565 206.609 184.461 206.551 184.333C206.493 184.204 206.415 184.1 206.317 184.02C205.606 185.394 205.251 186.08 205.251 186.08C204.612 187.715 204.008 189.256 203.44 190.705C202.911 192.104 202.438 193.385 202.02 194.549C201.958 194.825 201.875 195.102 201.769 195.382C201.703 195.613 201.595 195.871 201.445 196.155C201.344 196.479 201.24 196.781 201.135 197.061C201.029 197.341 200.948 197.641 200.891 197.96C200.785 198.24 200.679 198.52 200.574 198.8C200.508 199.031 200.442 199.262 200.376 199.493C200.164 200.052 199.953 200.612 199.742 201.172C199.526 201.687 199.287 202.205 199.027 202.725C198.741 203.427 198.345 204.162 197.842 204.931C196.954 206.323 196.037 207 195.092 206.962C194.142 206.881 193.35 206.155 192.716 204.786C192.386 204.192 192.129 203.658 191.946 203.184C191.758 202.665 191.57 202.146 191.383 201.628C191.19 201.065 191.018 200.477 190.865 199.865C190.668 199.258 190.496 198.67 190.348 198.103C190.239 197.486 190.107 196.85 189.95 196.194C189.148 191.883 188.579 187.436 188.242 182.853C187.901 178.225 187.81 173.415 187.969 168.422C188.131 163.026 188.462 157.523 188.961 151.912C189.456 146.257 190.136 140.449 191.003 134.487C191.778 129.386 192.823 124.504 194.137 119.841C195.495 115.173 197.113 110.636 198.992 106.229C199.296 105.704 199.521 105.278 199.667 104.949C199.808 104.576 199.916 104.318 199.991 104.176C200.605 103.171 201.476 102.701 202.603 102.764C203.651 102.925 204.387 103.545 204.811 104.622C205.155 105.349 205.191 106.354 204.92 107.637C204.643 108.876 204.149 109.733 203.436 110.21L201.574 111.074C199.542 115.721 197.896 120.643 196.637 125.838C194.532 135.021 193.073 144.81 192.259 155.204C192.072 158.183 191.902 160.89 191.749 163.327C191.635 165.714 191.539 167.831 191.46 169.677C191.268 173.911 191.255 177.925 191.42 181.719C191.582 185.468 191.885 189.068 192.329 192.519C192.588 194.6 192.844 196.434 193.097 198.022C193.394 199.605 193.715 200.985 194.06 202.16C194.257 202.767 194.445 203.286 194.623 203.716C194.802 204.145 194.994 204.484 195.199 204.732C195.783 204.314 196.073 204.082 196.069 204.038C196.559 203.135 196.934 202.424 197.194 201.905C197.45 201.34 197.629 200.896 197.73 200.572C197.946 200.056 198.281 199.17 198.734 197.913C199.227 196.607 199.815 194.91 200.497 192.823C200.673 192.356 200.883 191.775 201.125 191.077C201.362 190.335 201.653 189.454 201.996 188.432C202.379 187.362 202.712 186.453 202.993 185.707C203.271 184.916 203.515 184.241 203.727 183.681C203.929 183.033 204.121 182.498 204.301 182.076C205.251 180.409 206.537 180.053 208.159 181.007C208.355 181.166 208.602 181.387 208.9 181.67C209.242 181.949 209.638 182.312 210.087 182.758C210.141 182.843 210.219 182.947 210.321 183.071C210.419 183.15 210.517 183.23 210.615 183.309C210.811 183.469 210.989 183.675 211.149 183.927C211.207 184.056 211.339 184.244 211.543 184.492C211.641 184.571 211.739 184.651 211.837 184.731C211.935 184.81 212.055 184.887 212.197 184.962C212.611 185.503 213.203 186.025 213.972 186.528C215.172 187.302 216.444 187.462 217.787 187.01C218.949 186.532 219.983 185.91 220.891 185.145C221.546 184.539 222.174 183.892 222.776 183.202C223.422 182.508 224.016 181.752 224.56 180.934C224.909 180.405 225.373 179.685 225.952 178.774C226.57 177.814 227.33 176.704 228.232 175.446C229.09 174.192 229.85 173.083 230.513 172.118C231.176 171.153 231.719 170.335 232.143 169.664C232.382 169.371 232.663 169.05 232.986 168.703C233.304 168.312 233.623 167.92 233.941 167.529C234.056 167.338 234.302 167.335 234.68 167.52ZM236.338 178.311C235.898 179.701 235.837 180.851 236.155 181.76C237.184 181.743 238.248 181.186 239.345 180.087C240.735 178.778 241.943 177.444 242.968 176.083C244.038 174.718 244.924 173.304 245.626 171.842C246.032 170.993 246.294 170.496 246.414 170.349C246.763 169.82 247.255 169.59 247.889 169.659C248.48 169.733 248.918 170.069 249.203 170.667C249.252 170.707 249.331 171.035 249.439 171.652C250.103 174.184 251.533 176.323 253.73 178.07C256.287 179.824 259.025 180.081 261.946 178.839C263.453 178.236 264.964 177.229 266.478 175.818C268.213 174.384 269.985 172.431 271.793 169.959C272.854 168.505 273.965 166.889 275.128 165.11C276.329 163.283 277.535 161.276 278.745 159.09C278.86 158.899 279.048 158.543 279.308 158.023C279.613 157.499 280.015 156.83 280.514 156.016C280.964 155.163 281.381 154.425 281.766 153.803C282.15 153.181 282.455 152.656 282.68 152.229C282.994 151.794 283.226 151.434 283.376 151.149C283.57 150.86 283.747 150.618 283.906 150.422C284.473 149.826 285.053 149.587 285.648 149.705C286.239 149.779 286.745 150.13 287.169 150.759C287.28 150.972 287.374 151.231 287.45 151.537C287.522 151.799 287.572 152.063 287.599 152.329C287.786 154.148 287.83 155.443 287.73 156.216C287.719 156.979 287.681 157.924 287.618 159.052C287.554 160.179 287.487 161.486 287.416 162.973C287.34 164.415 287.259 165.589 287.173 166.495C287.131 167.396 287.099 167.959 287.077 168.186L287.175 169.79C287.697 169.198 287.98 168.9 288.025 168.895C288.011 168.762 288.448 168 289.336 166.608C289.8 165.888 290.184 165.266 290.489 164.741C290.838 164.212 291.15 163.755 291.424 163.368C291.848 162.696 292.339 162.018 292.896 161.333C293.493 160.6 294.137 159.883 294.827 159.185C295.389 158.544 296.159 157.972 297.139 157.468C298.592 156.78 299.846 156.988 300.901 158.09C301.355 158.581 301.859 159.336 302.412 160.355C302.639 160.825 302.907 161.47 303.216 162.29C303.564 163.061 303.847 163.637 304.066 164.018C304.343 164.528 304.601 165.084 304.843 165.687C305.124 166.241 305.474 166.81 305.893 167.394C305.999 167.563 306.131 167.751 306.287 167.959C306.443 168.167 306.645 168.393 306.894 168.636C308.692 170.424 310.692 170.689 312.894 169.432C313.567 169.004 314.236 168.532 314.9 168.015C315.56 167.454 316.233 166.802 316.918 166.059C317.737 165.302 318.726 164.237 319.885 162.862C320.531 162.168 321.053 161.577 321.451 161.088C321.844 160.554 322.185 160.16 322.472 159.907C322.795 159.56 323.101 159.259 323.389 159.005C323.721 158.747 323.988 158.518 324.192 158.318C324.405 158.206 324.72 158.218 325.137 158.355C325.417 158.461 325.509 158.698 325.412 159.066C325.299 159.706 325.058 160.201 324.691 160.553C324.466 160.979 324.214 161.364 323.935 161.706C323.657 162.049 323.356 162.394 323.033 162.741C321.727 163.996 320.506 165.197 319.369 166.345C318.271 167.444 317.233 168.47 316.255 169.422C315.888 169.774 315.518 170.103 315.146 170.411C314.77 170.673 314.349 170.941 313.884 171.213C311.235 172.92 308.581 172.834 305.922 170.955C305.202 170.492 304.564 169.952 304.008 169.337C303.447 168.677 302.921 167.924 302.43 167.078C302.319 166.865 302.069 166.398 301.681 165.676C301.293 164.953 300.789 163.974 300.168 162.738C300.115 162.653 300.059 162.547 300.001 162.419C299.939 162.246 299.847 162.009 299.726 161.707C299.615 161.494 299.506 161.304 299.399 161.136C299.292 160.967 299.209 160.819 299.151 160.69C298.656 159.8 298.034 159.64 297.286 160.21C296.409 160.838 295.772 161.396 295.374 161.886C294.772 162.575 294.215 163.26 293.702 163.94C293.229 164.572 292.776 165.179 292.342 165.761C291.675 166.682 290.984 167.806 290.268 169.135C289.593 170.415 288.83 171.928 287.978 173.675C287.762 174.19 287.581 174.612 287.436 174.941C287.286 175.225 287.129 175.443 286.965 175.594C286.536 176.221 286.007 176.522 285.377 176.497C285.017 176.49 284.717 176.408 284.477 176.254C284.277 176.05 284.072 175.802 283.863 175.51C283.43 174.792 283.068 173.888 282.777 172.797C281.759 169.001 281.642 164.373 282.426 158.913C282.535 158.229 282.58 157.799 282.562 157.621L282.514 157.156C282.283 157.09 282.092 157.199 281.942 157.483L281.83 157.697C281.635 157.986 281.284 158.492 280.776 159.217C280.267 159.942 279.629 160.927 278.86 162.171C278.091 163.416 277.373 164.498 276.706 165.419C276.083 166.335 275.559 167.128 275.135 167.799C274.392 168.862 273.628 169.927 272.841 170.994C272.094 172.013 271.28 173.038 270.4 174.07C270.002 174.559 269.497 175.104 268.887 175.705C268.276 176.305 267.541 177.009 266.683 177.814C265.63 178.909 264.288 179.809 262.657 180.514C258.965 182.104 255.416 181.819 252.011 179.659C250.415 178.523 249.04 177.14 247.886 175.51C247.788 175.43 247.661 175.287 247.505 175.078C247.394 174.866 247.209 174.593 246.95 174.261C246.777 174.324 246.569 174.48 246.326 174.729C246.118 174.885 245.939 175.105 245.789 175.389C245.55 175.683 245.415 175.899 245.384 176.036C242.332 179.488 240.771 181.308 240.7 181.494C240.333 181.846 239.941 182.177 239.525 182.489C239.064 182.805 238.535 183.106 237.936 183.392C235.419 184.637 233.973 183.867 233.597 181.081C233.451 179.662 233.6 178.279 234.045 176.933C234.655 174.584 235.674 172.507 237.102 170.701C237.765 169.736 238.544 168.804 239.438 167.905C240.376 167.002 241.385 166.136 242.466 165.308C243.745 164.235 245.144 163.665 246.661 163.599C247.415 163.521 248.123 163.65 248.785 163.986C249.617 164.662 249.923 165.46 249.704 166.379C249.538 167.383 248.879 167.944 247.725 168.062C247.636 168.071 247.57 168.078 247.526 168.083C247.477 168.043 247.43 168.025 247.386 168.03C245.881 167.781 244.298 168.302 242.637 169.594C239.48 172.026 237.38 174.931 236.338 178.311ZM379.436 153.31C379.552 153.567 379.57 153.745 379.491 153.843C379.19 154.412 378.91 154.732 378.648 154.804C377.935 155.28 377.323 155.657 376.814 155.934C376.349 156.206 375.943 156.404 375.597 156.529C375.34 156.645 374.028 157.184 371.661 158.145C369.294 159.105 365.895 160.486 361.462 162.286C356.64 164.217 352.894 165.723 350.226 166.804C347.553 167.841 345.959 168.476 345.445 168.708C345.232 168.819 344.249 169.279 342.494 170.087C340.783 170.891 338.303 172.065 335.055 173.609C335.043 173.924 335.048 174.193 335.071 174.414C335.089 174.592 335.107 174.769 335.125 174.947C335.144 175.124 335.137 175.282 335.107 175.419C336.391 180.936 337.665 185.916 338.929 190.359C340.193 194.802 341.448 198.73 342.696 202.143C343.027 203.185 343.345 204.094 343.649 204.87C343.997 205.641 344.374 206.252 344.779 206.704C344.925 206.823 345.241 206.835 345.724 206.741C346.252 206.642 346.662 206.712 346.956 206.951C347.303 207.274 347.477 207.659 347.478 208.107C347.516 208.91 347.185 209.617 346.486 210.227C345.817 210.699 345.063 210.777 344.223 210.459C343.335 210.102 342.674 209.565 342.242 208.847C341.814 208.174 341.44 207.585 341.119 207.08C340.798 206.575 340.548 206.107 340.369 205.678C339.91 204.694 339.429 203.51 338.928 202.127C338.428 200.744 337.906 199.161 337.364 197.379C336.652 194.807 335.959 192.211 335.286 189.59C334.657 186.965 334.064 184.246 333.506 181.434C333.097 179.638 332.809 178.144 332.641 176.951C332.548 176.915 332.314 176.379 331.938 175.342C330.945 175.713 330.449 175.898 330.449 175.898C329.925 176.042 329.481 175.863 329.116 175.363C328.711 174.911 328.656 174.379 328.952 173.766C329.066 173.575 329.285 173.306 329.608 172.959C330.785 171.762 331.218 170.305 330.907 168.588C330.389 165.728 329.931 162.143 329.533 157.836C329.13 153.484 328.779 148.319 328.478 142.343C328.343 140.16 328.255 137.995 328.214 135.847C328.172 133.699 328.131 131.552 328.089 129.404C327.991 124.528 328.277 118.805 328.947 112.235C329.051 111.507 329.179 110.351 329.33 108.766C329.481 107.182 329.695 105.12 329.972 102.581C330.204 100.046 330.424 97.8269 330.632 95.9226C330.835 93.974 331.001 92.3205 331.131 90.9623C331.231 90.1899 331.324 89.3509 331.41 88.4454C331.541 87.5354 331.729 86.5298 331.974 85.4286C332.03 84.6607 332.183 83.9725 332.434 83.3638C332.906 82.2842 333.63 81.6942 334.606 81.5939C335.582 81.4935 336.47 81.8505 337.271 82.6648C337.383 82.8775 337.492 83.068 337.599 83.2363C337.706 83.4046 337.815 83.5952 337.927 83.8078C338.674 85.8382 339.033 88.0204 339.004 90.3546C338.965 90.8517 338.91 91.1936 338.84 91.3802C338.497 92.4017 337.764 92.903 336.641 92.8839C336.597 92.8885 336.461 92.88 336.235 92.8584C336.008 92.8369 335.667 92.7824 335.209 92.6949C334.624 94.4138 333.891 99.7121 333.01 108.59C332.095 117.56 331.638 124.242 331.642 128.635C331.594 135.589 331.768 142.072 332.162 148.084C332.551 154.051 333.168 159.614 334.012 164.772C334.361 164.243 334.613 163.859 334.768 163.619C334.922 163.379 335.019 163.234 335.059 163.185C335.699 161.999 336.419 160.714 337.219 159.332C338.013 157.905 338.839 156.341 339.695 154.639C340.719 152.83 341.855 151.01 343.101 149.178C344.347 147.346 345.722 145.457 347.225 143.509C347.588 143.113 347.971 142.692 348.373 142.248C348.82 141.798 349.29 141.346 349.781 140.892C350.812 140.024 351.936 139.617 353.152 139.672C353.561 139.719 353.951 139.814 354.324 139.955C354.737 140.047 355.095 140.256 355.398 140.584C356.078 141.097 356.464 141.797 356.555 142.684C356.637 143.483 356.44 144.175 355.962 144.762C355.529 145.345 354.973 145.604 354.293 145.539C352.771 145.561 351.265 146.389 349.774 148.021C348.84 148.969 348.031 149.814 347.345 150.557C346.704 151.296 346.142 151.936 345.66 152.479C343.754 154.872 341.926 157.369 340.176 159.969C338.421 162.526 336.744 165.186 335.146 167.951C334.996 168.235 334.843 168.498 334.689 168.738C334.574 168.929 334.483 169.14 334.418 169.371L334.513 170.302L335.883 169.893C337.426 169.196 339.578 168.325 342.339 167.279C345.101 166.233 348.517 165.007 352.586 163.602C353.061 163.419 354.375 162.903 356.529 162.054C358.684 161.205 361.742 159.994 365.705 158.421C367.513 157.697 369.235 157.004 370.871 156.343C372.551 155.677 374.209 155.013 375.844 154.352C376.017 154.29 376.232 154.2 376.489 154.084C376.609 153.937 376.841 153.801 377.187 153.676C377.4 153.565 377.635 153.451 377.892 153.335C378.109 153.267 378.282 153.205 378.41 153.147C378.583 153.084 378.736 153.046 378.869 153.032C379.091 153.01 379.28 153.102 379.436 153.31ZM482.107 142.486C482.665 142.249 483.034 142.346 483.213 142.776C483.391 143.205 483.273 143.576 482.856 143.888C482.679 143.906 482.302 144.169 481.727 144.677C481.054 145.105 480.617 145.441 480.418 145.685C478.019 147.636 474.266 151.249 469.16 156.527C469.254 157.01 469.313 157.363 469.336 157.584C469.403 157.802 469.439 157.932 469.443 157.977C471.005 162.703 472.243 167.328 473.156 171.852C474.065 176.331 474.698 180.749 475.057 185.106C475.966 196.13 475.211 207.102 472.792 218.02C469.916 230.6 465.492 241.859 459.52 251.798C457.05 255.683 454.426 259.159 451.648 262.224C450.277 263.71 448.865 265.02 447.412 266.156C445.96 267.292 444.494 268.294 443.014 269.164C441.911 269.77 440.796 270.266 439.67 270.651C438.549 271.08 437.416 271.398 436.271 271.605C431.552 272.36 427.767 270.866 424.917 267.124C423.465 265.211 422.329 262.884 421.509 260.144C420.438 256.264 419.953 251.988 420.056 247.315C420.13 243.676 420.501 239.872 421.169 235.903C421.837 231.934 422.821 227.776 424.123 223.428C426.119 216.677 428.652 210.14 431.723 203.817C434.794 197.494 438.393 191.296 442.521 185.223C444.634 182.226 446.802 179.335 449.027 176.551C451.251 173.767 453.569 171.019 455.98 168.305C456.541 167.664 457.205 166.924 457.97 166.083C458.731 165.198 459.614 164.188 460.618 163.054C461.622 161.919 462.447 161.005 463.093 160.311C463.779 159.568 464.281 159.001 464.599 158.609C464.599 158.609 464.847 158.405 465.343 157.995C464.569 155.698 463.707 153.635 462.756 151.805C461.846 149.926 460.865 148.234 459.813 146.728C459.083 145.727 458.361 144.815 457.649 143.992C456.937 143.168 456.189 142.438 455.407 141.801C454.771 141.284 454.144 140.855 453.526 140.515C452.904 140.131 452.288 139.813 451.68 139.562C449.863 138.897 448.284 139.238 446.943 140.587C446.337 141.232 445.78 141.917 445.271 142.641C444.772 143.455 444.233 144.317 443.654 145.229C443.116 146.091 442.519 147.049 441.865 148.102C440.871 149.774 439.8 151.341 438.65 152.804C437.545 154.263 436.408 155.635 435.24 156.92C434.802 157.459 434.296 157.981 433.72 158.489C433.145 158.996 432.549 159.528 431.934 160.085C431.275 160.646 430.561 161.122 429.795 161.515C427.521 162.511 425.765 161.997 424.525 159.972C424.214 159.556 423.968 159.133 423.79 158.703C423.606 158.229 423.445 157.752 423.306 157.273C422.216 152.768 422.285 148.86 423.513 145.551C423.641 145.045 423.815 144.556 424.035 144.085C424.256 143.614 424.518 143.116 424.823 142.592C425.039 142.076 425.462 141.607 426.091 141.184C426.874 140.52 427.739 140.432 428.686 140.917C429.637 141.447 430.032 142.236 429.871 143.283C429.823 143.692 429.585 144.433 429.158 145.509C429.031 146.015 428.751 146.783 428.319 147.814C428.156 148.413 427.985 148.924 427.804 149.346C427.663 149.719 427.542 150.068 427.441 150.392C426.869 152.244 426.693 154.235 426.912 156.365C426.948 156.719 426.98 157.03 427.007 157.296C427.075 157.513 427.117 157.711 427.136 157.888C427.494 159.196 428.205 159.571 429.269 159.014C429.907 158.679 430.452 158.309 430.903 157.904C431.319 157.593 431.691 157.285 432.019 156.983C432.386 156.631 432.776 156.277 433.187 155.921C434.36 154.68 435.461 153.401 436.491 152.085C437.522 150.768 438.476 149.37 439.355 147.89C439.51 147.65 439.722 147.314 439.991 146.883C440.301 146.403 440.645 145.829 441.025 145.163C441.405 144.496 441.752 143.945 442.066 143.509C442.375 143.029 442.666 142.595 442.941 142.209C443.66 140.924 444.385 139.908 445.115 139.161C446.906 136.959 449.334 136.149 452.397 136.731C453.858 136.984 455.291 137.621 456.696 138.643C457.514 139.186 458.319 139.821 459.111 140.546C459.903 141.272 460.684 142.11 461.454 143.062C462.478 144.302 463.476 145.724 464.448 147.327C465.415 148.887 466.381 150.648 467.345 152.611C467.572 153.081 467.824 153.57 468.101 154.08L468.395 154.319L469.742 153.037C471.853 150.892 473.437 149.295 474.495 148.245C475.592 147.145 476.181 146.547 476.26 146.449C476.796 145.991 477.354 145.53 477.934 145.067C478.509 144.559 479.131 144.069 479.8 143.597C480.123 143.25 480.892 142.88 482.107 142.486ZM470.513 186.043C470.408 183.275 470.207 180.673 469.912 178.237C469.657 175.753 469.324 173.389 468.914 171.144C468.589 169.295 468.207 167.541 467.768 165.883C467.368 164.175 466.96 162.603 466.543 161.167C466.539 161.122 466.371 160.803 466.041 160.21L465.582 160.324C465.507 160.466 465.368 160.637 465.164 160.838C464.961 161.038 464.695 161.289 464.368 161.592C458.567 167.523 452.577 174.886 446.397 183.681C443.591 187.78 441.024 191.81 438.696 195.77C436.413 199.726 434.334 203.706 432.459 207.709C427.815 217.915 424.684 228.01 423.065 237.995C422.511 241.324 422.216 244.56 422.18 247.702C422.145 250.844 422.413 253.887 422.984 256.832C423.286 258.46 423.71 259.963 424.255 261.341C424.76 262.769 425.41 264.07 426.203 265.243C428.876 269.003 432.412 270.254 436.81 268.995C437.808 268.668 438.776 268.277 439.716 267.822C440.704 267.406 441.654 266.838 442.566 266.116C444.236 264.914 445.827 263.383 447.339 261.524C449.542 258.966 451.708 255.829 453.836 252.113C454.786 250.447 455.781 248.574 456.823 246.494C457.864 244.414 458.947 242.084 460.072 239.502C465.151 227.862 468.353 216.706 469.677 206.035C470.106 202.359 470.396 198.855 470.546 195.522C470.696 192.189 470.685 189.029 470.513 186.043ZM570.689 134.051L570.836 134.17C570.836 134.17 570.978 134.245 571.262 134.396C571.64 134.581 571.825 134.853 571.817 135.213C571.69 135.719 571.58 136.179 571.488 136.591C571.392 136.96 571.246 137.289 571.052 137.578C570.836 138.093 570.571 138.569 570.257 139.004C569.987 139.436 569.656 139.918 569.262 140.452C567.759 142.399 566.355 144.225 565.051 145.928C563.747 147.631 562.517 149.192 561.363 150.611C561 151.007 560.615 151.405 560.208 151.806C559.845 152.202 559.416 152.605 558.92 153.014C556.649 154.906 554.081 155.215 551.215 153.941C550.135 153.469 548.995 152.622 547.793 151.401C545.907 149.622 544.296 147.255 542.961 144.299C542.854 144.131 542.742 143.918 542.626 143.661C542.515 143.448 542.377 143.193 542.212 142.897C542.091 142.595 541.943 142.252 541.769 141.866C541.584 142.244 541.434 142.528 541.319 142.719C541.204 142.91 541.149 143.028 541.154 143.073C541.088 143.303 540.98 143.561 540.83 143.846C540.724 144.125 540.581 144.476 540.4 144.898C540.215 145.276 540.051 145.652 539.91 146.025C539.814 146.393 539.693 146.742 539.547 147.071C539.406 147.444 539.283 147.77 539.177 148.05C539.072 148.33 538.924 148.637 538.734 148.97C538.368 149.77 537.944 150.665 537.463 151.656C536.978 152.603 536.41 153.625 535.761 154.723C535.456 155.247 535.105 155.754 534.707 156.243C534.309 156.733 533.838 157.162 533.293 157.532C532.124 158.369 530.971 158.712 529.834 158.56C528.645 158.324 527.702 157.658 527.007 156.564C526.485 155.856 526.066 155.047 525.749 154.138C525.475 153.225 525.233 152.174 525.021 150.985C524.376 147.33 524.299 143.528 524.789 139.577C524.855 139.346 525.046 138.363 525.36 136.627C525.715 134.842 526.174 132.329 526.737 129.088C525.851 129.627 525.342 129.904 525.209 129.917C525 130.073 523.931 130.789 522 132.063C519.98 133.347 518.531 134.303 517.654 134.931C516.852 135.417 515.964 135.934 514.989 136.482C514.015 137.031 512.914 137.66 511.687 138.369C510.672 138.966 509.668 139.45 508.675 139.821C507.682 140.193 506.749 140.49 505.875 140.715C505.831 140.719 505.703 140.777 505.49 140.889C505.322 140.996 505.065 141.112 504.719 141.237L505.016 142.82C506.723 148.518 507.019 154.674 505.906 161.289C505.588 163.429 504.902 165.472 503.846 167.419C502.866 169.223 501.639 170.582 500.163 171.496C497.395 173.349 494.75 173.128 492.227 170.832C491.591 170.315 491.013 169.702 490.492 168.993C490.015 168.28 489.551 167.476 489.1 166.581C487.958 164.188 487.101 161.519 486.529 158.574C485.423 151.739 485.714 144.984 487.404 138.31C487.725 137.066 488.061 135.978 488.414 135.045C488.806 134.064 489.281 133.23 489.838 132.545C489.833 132.501 489.965 132.039 490.233 131.16C490.8 129.263 492.043 128.485 493.961 128.826C495.333 129.089 496.704 129.777 498.074 130.892C498.763 131.493 499.417 132.188 500.036 132.976C500.651 133.72 501.228 134.535 501.767 135.421C501.839 135.683 502.581 137.018 503.995 139.428C504.403 139.476 504.829 139.477 505.273 139.432C505.761 139.381 506.237 139.22 506.703 138.948C507.953 138.461 508.985 138.041 509.801 137.688C510.656 137.287 511.274 136.976 511.655 136.758C513.605 135.661 515.563 134.428 517.529 133.061C519.491 131.649 521.506 130.096 523.574 128.404C523.861 128.151 524.315 127.768 524.935 127.256C525.595 126.695 526.438 125.958 527.465 125.045C528.616 124.031 529.622 123.793 530.485 124.332C531.422 124.728 531.86 125.714 531.798 127.29C531.718 127.388 531.625 128.227 531.518 129.807C530.997 133.895 530.607 137.074 530.347 139.342C530.127 141.561 530.015 142.873 530.012 143.277C529.807 144.777 529.716 146.288 529.738 147.81C529.755 149.288 529.886 150.776 530.13 152.276C530.4 153.593 530.691 154.459 531.002 154.876C531.628 154.856 532.266 154.522 532.917 153.872C533.31 153.338 533.684 152.829 534.037 152.345C534.386 151.816 534.673 151.338 534.899 150.911C536.166 148.853 537.253 146.343 538.159 143.38C538.225 143.149 538.269 142.921 538.29 142.694C538.356 142.464 538.442 142.208 538.548 141.928C538.609 141.653 538.671 141.378 538.732 141.102C538.838 140.823 538.946 140.565 539.056 140.329C539.113 140.01 539.176 139.757 539.247 139.57C539.313 139.339 539.403 139.128 539.518 138.937C539.782 138.013 540.008 137.385 540.198 137.051C540.658 136.287 541.222 135.892 541.892 135.868C542.7 135.875 543.367 136.255 543.892 137.008C543.951 137.136 544.011 137.287 544.073 137.46C544.132 137.588 544.216 137.759 544.328 137.972C544.511 138.446 544.627 138.703 544.676 138.743C545.609 140.844 546.362 142.492 546.933 143.689C547.5 144.841 547.841 145.546 547.957 145.803C548.234 146.312 548.586 146.904 549.014 147.577C549.486 148.246 550.034 148.996 550.658 149.829C551.272 150.573 551.981 151.15 552.786 151.56C554.231 152.532 555.728 152.491 557.278 151.435C557.739 151.118 558.158 150.829 558.534 150.566C558.906 150.259 559.253 149.931 559.576 149.584C560.377 148.65 561.138 147.765 561.859 146.929C562.58 146.093 563.279 145.259 563.955 144.427C564.393 143.889 564.948 143.182 565.62 142.306C566.332 141.381 567.163 140.309 568.114 139.09C568.786 138.214 569.31 137.421 569.685 136.71C570.104 135.994 570.398 135.359 570.565 134.803C570.6 134.71 570.613 134.619 570.604 134.53C570.595 134.442 570.608 134.351 570.643 134.257C570.634 134.169 570.649 134.1 570.689 134.051ZM504.549 152.014C504.374 148.132 503.659 144.663 502.403 141.609C500.742 141.153 499.477 140.834 498.607 140.655C497.732 140.431 497.245 140.279 497.148 140.2C496.775 140.059 496.352 139.878 495.881 139.657C495.641 139.503 495.428 139.39 495.242 139.32C495.05 139.205 494.879 139.066 494.728 138.902C494.586 138.827 494.419 138.732 494.228 138.617C494.032 138.458 493.79 138.281 493.501 138.086C493.056 137.684 492.689 137.385 492.4 137.191C492.172 138.021 492.062 138.481 492.071 138.57C491.543 141.717 491.212 144.822 491.079 147.885C490.945 150.947 490.989 153.991 491.21 157.017C491.522 160.481 492.2 163.371 493.245 165.684C493.723 166.845 494.262 167.731 494.863 168.342C495.896 169.67 497.199 169.918 498.772 169.083C499.845 168.614 500.781 167.689 501.58 166.307C502.517 164.955 503.249 163.131 503.775 160.836C504.095 159.592 504.293 158.249 504.369 156.807C504.485 155.316 504.545 153.718 504.549 152.014ZM493.574 130.951C492.975 130.788 492.574 131.031 492.371 131.68C492.643 132.145 492.837 132.506 492.953 132.763C493.109 132.971 493.19 133.097 493.194 133.142C493.07 133.244 493.036 133.561 493.09 134.094C493.011 134.192 493.047 134.322 493.198 134.486C493.818 135.723 495.017 136.922 496.796 138.084C498.569 139.202 500.115 139.626 501.432 139.356C500.72 137.232 499.515 135.316 497.815 133.608C497.014 132.794 496.3 132.172 495.673 131.744C495.291 131.514 494.591 131.25 493.574 130.951ZM585.84 135.452C586.55 135.379 587.125 135.522 587.565 135.88C588.045 136.189 588.28 136.726 588.269 137.489C588.332 138.11 588.185 138.641 587.827 139.081C587.429 139.57 586.942 139.844 586.365 139.904C586.139 139.882 585.934 139.858 585.752 139.832C585.57 139.806 585.386 139.758 585.2 139.687C585.008 139.573 584.842 139.478 584.7 139.403C584.553 139.283 584.426 139.139 584.319 138.971C584.07 138.728 583.92 138.362 583.87 137.874C583.824 137.43 583.899 137.064 584.093 136.775C584.239 136.446 584.477 136.153 584.81 135.894C585.142 135.636 585.485 135.489 585.84 135.452ZM583.831 71.4377C584.378 71.516 584.673 71.777 584.719 72.2206C584.755 72.5755 584.77 72.9327 584.762 73.2922C584.798 73.6471 584.815 74.0264 584.812 74.4303C584.79 74.6566 584.778 75.1958 584.776 76.0478C584.77 76.8555 584.751 77.9782 584.719 79.4161C584.688 80.8539 584.638 82.1143 584.57 83.1973C584.546 84.2756 584.529 85.1965 584.518 85.9598C584.585 87.9254 584.666 90.6742 584.76 94.2062C584.809 95.9944 584.845 97.4254 584.865 98.4992C584.886 99.573 584.892 100.29 584.885 100.649C584.928 101.945 584.996 103.26 585.089 104.596C585.176 105.887 585.267 107.2 585.359 108.536C585.628 111.153 586.035 114.451 586.578 118.43C587.122 122.409 587.453 124.975 587.571 126.129C587.59 126.306 587.655 126.501 587.766 126.714L587.841 127.446L587.903 128.045C587.921 128.222 587.939 128.4 587.958 128.577C587.976 128.754 587.95 128.936 587.879 129.123C587.815 129.802 587.479 130.24 586.871 130.437C586.17 130.599 585.635 130.407 585.265 129.862C585.114 129.699 585.009 129.553 584.951 129.424C584.889 129.251 584.826 129.078 584.764 128.905C584.705 128.777 584.665 128.602 584.642 128.38C584.615 128.114 584.585 127.825 584.553 127.515L584.225 124.321C583.684 116.441 583.265 110.185 582.968 105.553C582.666 100.877 582.485 97.8025 582.423 96.3294C582.405 96.152 582.366 95.1248 582.308 93.2479C582.245 91.3266 582.206 88.551 582.192 84.9212C582.213 84.6948 582.213 84.4707 582.19 84.2489C582.167 84.0271 582.146 83.8275 582.128 83.65L581.144 83.8857C580.833 83.9177 580.58 83.854 580.384 83.6948C580.189 83.5356 580.099 83.3206 580.116 83.0499C580.094 82.8281 580.137 82.5994 580.248 82.3639C580.454 81.7599 580.669 80.7963 580.892 79.4733C581.154 78.1014 581.444 76.3455 581.762 74.2058C581.85 73.7485 581.957 73.2667 582.085 72.7605C582.155 72.5739 582.206 72.4118 582.236 72.2741C582.311 72.1319 582.389 72.0119 582.468 71.914C582.826 71.4737 583.281 71.3149 583.831 71.4377Z" fill="black"/>
</svg>
